<svg version="1.1" id="Layer_1" xmlns="http://www.w3.org/2000/svg" xmlns:xlink="http://www.w3.org/1999/xlink" x="0" y="0" viewBox="0 0 1700 524" xml:space="preserve"><style type="text/css">.st0{clip-path:url(#SVGID_2_)}.st1{opacity:.7}.st2{fill:#0e5896}</style><defs><path id="SVGID_1_" d="M0 0h1700v524H0z"/></defs><use xlink:href="#SVGID_1_" overflow="visible" fill="#033572"/><clipPath id="SVGID_2_"><use xlink:href="#SVGID_1_" overflow="visible"/></clipPath><g class="st0"><g class="st1"><path class="st2" d="M48.3 310.5l-.4-.4-109.2-109.2.4-.4L47.4 92.2-61.3-16.4l.4-.4L48.3-126l.4.4L266.5 92.2l-.4.4L48.3 310.5zM-59.5 200.9L48.3 308.7l108.2-108.2.4.4-.4-.4L264.7 92.2 48.3-124.2-59.5-16.4 49.2 92.2l-.4.4-108.3 108.3z"/><path class="st2" d="M135.6 310.5l-.4-.4L26 200.9l.4-.4L134.7 92.2 26-16.4l.4-.4L135.6-126l.4.4L353.8 92.2l-.4.4-217.8 217.9zM27.8 200.9l107.8 107.8L352 92.2 135.6-124.2 27.8-16.4 136.4 92.2l-.4.4L27.8 200.9z"/><path class="st2" d="M222.9 310.5l-.4-.4-109.2-109.2.4-.4L222 92.2 113.3-16.4l.4-.4L222.9-126l.4.4L441.1 92.2l-.4.4-217.8 217.9zM115.1 200.9l107.8 107.8L439.3 92.2 222.9-124.2 115.1-16.4 223.7 92.2l-.4.4-108.2 108.3z"/><path class="st2" d="M310.2 310.5l-.4-.4-109.2-109.2.4-.4L309.3 92.2 200.6-16.4l.4-.4L310.2-126l.4.4L528.4 92.2l-.4.4-217.8 217.9zM202.4 200.9l107.8 107.8L526.6 92.2 310.2-124.2 202.4-16.4 311 92.2l-.4.4-108.2 108.3z"/><path class="st2" d="M397.5 310.5l-.5-.5-109.1-109.1.4-.4L396.6 92.2 287.9-16.4l.4-.4L397.5-126l.4.4L615.7 92.2l-.4.4-217.8 217.9zM289.7 200.9l107.8 107.8L613.9 92.2 397.5-124.2 289.7-16.4 398.3 92.2l-.4.4-108.2 108.3z"/><path class="st2" d="M484.8 310.5l-.4-.4-109.2-109.2.4-.4L483.9 92.2 375.2-16.4l.4-.4L484.8-126l.4.4L703 92.2l-.4.4-217.8 217.9zM377 200.9l107.8 107.8L701.2 92.2 484.8-124.2 377-16.4 485.6 92.2l-.4.4L377 200.9z"/><path class="st2" d="M572 310.5l-.4-.4-109.1-109.2.4-.4L571.2 92.2 462.5-16.4l.4-.4L572-126l.4.4L790.3 92.2l-.4.4L572 310.5zM464.3 200.9L572 308.7 788.5 92.2 572-124.2 464.3-16.4 572.9 92.2l-.4.4-108.2 108.3z"/><path class="st2" d="M659.3 310.5l-.4-.4-109.1-109.2.4-.4L658.5 92.2 549.8-16.4l.4-.4L659.3-126l.4.4L877.6 92.2l-.4.4-217.9 217.9zM551.6 200.9l107.8 107.8L875.8 92.2 659.3-124.2 551.6-16.4 660.2 92.2l-.4.4-108.2 108.3z"/><path class="st2" d="M746.6 310.5l-.4-.4-109.1-109.2.4-.4L745.8 92.2 637.1-16.4l.4-.4L746.6-126l.4.4L964.9 92.2l-.4.4-217.9 217.9zM638.9 200.9l107.8 107.8L963.1 92.2 746.6-124.2 638.9-16.4 747.5 92.2l-.4.4-108.2 108.3z"/><path class="st2" d="M833.9 310.5l-.4-.4-109.1-109.2.4-.4L833.1 92.2 724.4-16.4l.4-.4L833.9-126l.4.4 217.8 217.8-.4.4-217.8 217.9zM726.2 200.9L834 308.7l216.5-216.5-216.6-216.4L726.2-16.4 834.8 92.2l-.4.4-108.2 108.3z"/><path class="st2" d="M921.2 310.5l-.4-.4-109.1-109.2.4-.4L920.4 92.2 811.7-16.4l.4-.4L921.2-126l.4.4 217.8 217.8-.4.4-217.8 217.9zM813.4 200.9l107.8 107.8 216.5-216.5-216.5-216.4L813.4-16.4 922.1 92.2l-.4.4-108.3 108.3z"/><path class="st2" d="M1008.5 310.5l-.4-.4L899 200.9l.4-.4 108.2-108.2L899-16.4l.4-.4L1008.5-126l.4.4 217.8 217.8-.4.4-217.8 217.9zM900.7 200.9l107.8 107.8L1225 92.2l-216.5-216.5L900.7-16.4l108.7 108.7-.4.4-108.3 108.2z"/><path class="st2" d="M1095.8 310.5l-.4-.4-109.1-109.2.4-.4 108.2-108.2L986.3-16.4l.4-.4L1095.8-126l.4.4L1314 92.2l-.4.4-217.8 217.9zM988 200.9l107.8 107.8 216.5-216.5-216.5-216.5L988-16.4l108.7 108.7-.4.4L988 200.9z"/><path class="st2" d="M1183.1 310.5l-.4-.4L1073.6 201l.4-.4 108.2-108.2-108.6-108.8.4-.4L1183.1-126l.4.4 217.8 217.8-.4.4-217.8 217.9zm-107.8-109.6l107.8 107.8 216.5-216.5-216.5-216.5-107.8 107.9L1184 92.2l-.4.4-108.3 108.3z"/><path class="st2" d="M1270.4 310.5l-.4-.4L1160.9 201l.4-.4 108.2-108.2-108.6-108.8.4-.4L1270.4-126l.4.4 217.8 217.8-.4.4-217.8 217.9zm-107.8-109.6l107.8 107.8 216.5-216.5-216.5-216.5-107.8 107.9 108.7 108.7-.4.4-108.3 108.2z"/><path class="st2" d="M1357.7 310.5l-.4-.4L1248.2 201l.4-.4 108.2-108.2-108.6-108.8.4-.4L1357.7-126l.4.4 217.8 217.8-.4.4-217.8 217.9zm-107.8-109.6l107.8 107.8 216.5-216.5-216.5-216.5-107.8 107.9 108.7 108.7-.4.4-108.3 108.2z"/><path class="st2" d="M1445 310.5l-.4-.4L1335.5 201l.4-.4 108.2-108.2-108.6-108.8.4-.4L1445-126l.4.4 217.8 217.8-.4.4L1445 310.5zm-107.8-109.6L1445 308.7l216.5-216.5L1445-124.2 1337.2-16.4l108.7 108.7-.4.4-108.3 108.2z"/><path class="st2" d="M1532.3 310.5l-.4-.4L1422.8 201l.4-.4 108.2-108.2-108.6-108.8.4-.4L1532.3-126l.4.4 217.8 217.8-.4.4-217.8 217.9zm-107.8-109.6l107.8 107.8 216.5-216.5-216.5-216.5-107.8 107.9 108.7 108.7-.4.4-108.3 108.2z"/><path class="st2" d="M1619.6 310.5l-.4-.4L1510.1 201l.4-.4 108.2-108.2-108.6-108.8.4-.4L1619.6-126l.4.4 217.8 217.8-.4.4-217.8 217.9zm-107.8-109.6l107.8 107.8 108.2-108.2.4.4-.4-.4L1836 92.3l-216.5-216.5-107.7 107.8 108.7 108.7-.4.4-108.3 108.2z"/></g><g class="st1"><path class="st2" d="M48.3 745.2l-.4-.4-109.2-109.2.4-.4L47.4 526.9-61.3 418.3l.4-.4L48.3 308.7l.4.4 217.8 217.8-.4.4L48.3 745.2zM-59.5 635.6L48.3 743.4l108.2-108.2.4.4-.4-.4L264.7 527 48.3 310.5-59.5 418.3 49.2 526.9l-.4.4-108.3 108.3z"/><path class="st2" d="M135.6 745.2l-.4-.4L26 635.6l.4-.4L134.6 527 26 418.3l.4-.4 109.1-109.1.4.4L353.7 527l-.4.4-217.7 217.8zM27.8 635.6l107.8 107.8L352 526.9 135.6 310.5 27.8 418.3 136.5 527l-.4.4L27.8 635.6z"/><path class="st2" d="M222.9 745.2l-.4-.4-109.2-109.2.4-.4L222 526.9 113.3 418.3l.4-.4 109.1-109.1.4.4L441 527l-.4.4-217.7 217.8zM115.1 635.6l107.8 107.8 216.5-216.5-216.5-216.4-107.8 107.8L223.8 527l-.4.4-108.3 108.2z"/><path class="st2" d="M310.2 745.2l-.4-.4-109.2-109.2.4-.4L309.2 527 200.6 418.3l.4-.4 109.1-109.1.4.4L528.3 527l-.4.4-217.7 217.8zM202.4 635.6l107.8 107.8 216.5-216.5-216.5-216.4-107.8 107.8L311 526.9l-.4.4-108.2 108.3z"/><path class="st2" d="M397.5 745.2l-.4-.4-109.2-109.2.4-.4L396.5 527 287.9 418.3l.4-.4 109.1-109.1.4.4L615.6 527l-.4.4-217.7 217.8zM289.7 635.6l107.8 107.8L614 526.9 397.5 310.5 289.7 418.3 398.4 527l-.4.4-108.3 108.2z"/><path class="st2" d="M484.8 745.2l-.4-.4-109.2-109.2.4-.4L483.8 527 375.2 418.3l.4-.4 109.1-109.1.4.4L703 526.9l-.4.4-217.8 217.9zM377 635.6l107.8 107.8 216.5-216.5-216.5-216.4L377 418.3 485.7 527l-.4.4L377 635.6z"/><path class="st2" d="M572 745.2l-.4-.4-109.1-109.2.4-.4L571.1 527 462.5 418.3l.4-.4L572 308.7l.4.4 217.8 217.8-.4.4L572 745.2zM464.3 635.6L572 743.4l216.5-216.5L572 310.5 464.3 418.3 573 527l-.4.4-108.3 108.2z"/><path class="st2" d="M659.3 745.2l-.4-.4-109.1-109.2.4-.4L658.4 527 549.8 418.3l.4-.4 109.1-109.1.4.4L877.5 527l-.4.4-217.8 217.8zM551.6 635.6l107.8 107.8 216.5-216.5-216.6-216.4-107.7 107.8L660.3 527l-.4.4-108.3 108.2z"/><path class="st2" d="M746.6 745.2l-.4-.4-109.1-109.2.4-.4L745.7 527 637.1 418.3l.4-.4 109.1-109.1.4.4L964.8 527l-.4.4-217.8 217.8zM638.9 635.6l107.8 107.8 216.5-216.5-216.6-216.4-107.7 107.8L747.6 527l-.4.4-108.3 108.2z"/><path class="st2" d="M833.9 745.2l-.4-.4-109.1-109.2.4-.4L833 527 724.4 418.3l.4-.4 109.1-109.1.4.4L1052.1 527l-.4.4-217.8 217.8zM726.2 635.6L834 743.4l216.5-216.5-216.6-216.4-107.7 107.8L834.9 527l-.4.4-108.3 108.2z"/><path class="st2" d="M921.2 745.2l-.4-.4-109.1-109.2.4-.4L920.3 527 811.7 418.3l.4-.4 109.1-109.1.4.4L1139.4 527l-.4.4-217.8 217.8zM813.4 635.6l107.8 107.8 216.5-216.5-216.5-216.4-107.8 107.8L922.1 527l-.4.4-108.3 108.2z"/><path class="st2" d="M1008.5 745.2l-.4-.4L899 635.6l.4-.4L1007.6 527 899 418.3l.4-.4 109.1-109.1.4.4L1226.7 527l-.4.4-217.8 217.8zM900.7 635.6l107.8 107.8L1225 526.9l-216.5-216.5-107.8 107.9L1009.4 527l-.4.4-108.3 108.2z"/><path class="st2" d="M1095.8 745.2l-.4-.4-109.1-109.2.4-.4L1094.9 527 986.3 418.3l.4-.4 109.1-109.1.4.4L1314 527l-.4.4-217.8 217.8zM988 635.6l107.8 107.8 216.5-216.5-216.5-216.5L988 418.3 1096.7 527l-.4.4L988 635.6z"/><path class="st2" d="M1183.1 745.2l-.4-.4-109.1-109.1.4-.4 108.2-108.2-108.7-108.7.4-.4L1183 308.9l.4.4 217.8 217.8-.4.4-217.7 217.7zm-107.8-109.6l107.8 107.8 216.5-216.5-216.5-216.5-107.8 107.8L1184 526.9l-.4.4-108.3 108.3z"/><path class="st2" d="M1270.4 745.2l-.4-.4-109.1-109.1.4-.4 108.2-108.2-108.7-108.7.4-.4 109.1-109.1.4.4 217.8 217.8-.4.4-217.7 217.7zm-107.8-109.6l107.8 107.8 216.5-216.5-216.5-216.5-107.8 107.8 108.7 108.7-.4.4-108.3 108.3z"/><path class="st2" d="M1357.7 745.2l-.4-.4-109.1-109.1.4-.4 108.2-108.2-108.7-108.7.4-.4 109.1-109.1.4.4 217.8 217.8-.4.4-217.7 217.7zm-107.8-109.6l107.8 107.8 216.5-216.5-216.5-216.5-107.8 107.8 108.7 108.7-.4.4-108.3 108.3z"/><path class="st2" d="M1445 745.2l-.4-.4-109.1-109.1.4-.4 108.2-108.2-108.7-108.7.4-.4L1445 308.7l.4.4 217.8 217.8-.4.4L1445 745.2zm-107.8-109.6L1445 743.4l216.5-216.5L1445 310.5l-107.8 107.8L1445.9 527l-.4.4-108.3 108.2z"/><path class="st2" d="M1532.3 745.2l-.4-.4-109.1-109.1.4-.4 108.2-108.2-108.7-108.7.4-.4 109.1-109.1.4.4 217.8 217.8-.4.4-217.7 217.7zm-107.8-109.6l107.8 107.8 216.5-216.5-216.5-216.5-107.8 107.8 108.7 108.7-.4.4-108.3 108.3z"/><path class="st2" d="M1619.6 745.2l-.4-.4-109.1-109.1.4-.4 108.2-108.2L1510 418.4l.4-.4 109.1-109.1.4.4 217.8 217.8-.4.4-217.7 217.7zm-107.8-109.6l107.8 107.8 108.2-108.2.4.4-.4-.4L1836 527l-216.5-216.5-107.8 107.8L1620.4 527l-.4.4-108.2 108.2z"/></g><g class="st1"><path class="st2" d="M48.3 1179.8l-.4-.4-109.1-109.1.4-.4L47.4 961.6-61.3 852.9l.4-.4L48.3 743.4l.4.4 217.8 217.8-.4.4-217.8 217.8zm-107.8-109.5l107.8 107.8 108.2-108.2.4.4-.4-.4 108.2-108.2L48.3 745.2-59.5 852.9 49.2 961.6l-.4.4-108.3 108.3z"/><path class="st2" d="M135.6 1179.8l-.4-.4L26 1070.3l.4-.4 108.2-108.2L26 852.9l.4-.4 109.1-109.1.4.4 217.8 217.8-.4.4-217.7 217.8zM27.8 1070.3l107.8 107.8L352 961.6 135.6 745.2 27.8 852.9l108.7 108.7-.4.4-108.3 108.3z"/><path class="st2" d="M222.9 1179.8l-.4-.4-109.1-109.1.4-.4L222 961.6 113.3 852.9l.4-.4 109.1-109.1.4.4L441 961.6l-.4.4-217.7 217.8zm-107.8-109.5l107.8 107.8 216.5-216.5-216.5-216.4-107.8 107.7 108.7 108.7-.4.4-108.3 108.3z"/><path class="st2" d="M310.2 1179.8l-.4-.4-109.1-109.1.4-.4 108.2-108.2-108.7-108.8.4-.4 109.1-109.1.4.4 217.8 217.8-.4.4-217.7 217.8zm-107.8-109.5l107.8 107.8 216.5-216.5-216.5-216.4-107.8 107.7L311 961.6l-.4.4-108.2 108.3z"/><path class="st2" d="M397.5 1179.8l-.4-.4L288 1070.3l.4-.4 108.2-108.2-108.7-108.8.4-.4 109.1-109.1.4.4 217.8 217.8-.4.4-217.7 217.8zm-107.8-109.5l107.8 107.8L614 961.6 397.5 745.2 289.7 852.9l108.7 108.7-.4.4-108.3 108.3z"/><path class="st2" d="M484.8 1179.8l-.4-.4-109.1-109.1.4-.4 108.2-108.2-108.7-108.8.4-.4 109.1-109.1.4.4L703 961.6l-.4.4-217.8 217.8zM377 1070.3l107.8 107.8 216.5-216.5-216.5-216.4L377 852.9l108.7 108.7-.4.4L377 1070.3z"/><path class="st2" d="M572 1179.8l-.4-.4-109.1-109.1.4-.4 108.2-108.2-108.6-108.8.4-.4L572 743.4l.4.4 217.8 217.8-.4.4L572 1179.8zm-107.7-109.5L572 1178.1l216.5-216.5L572 745.2 464.3 852.9 573 961.6l-.4.4-108.3 108.3z"/><path class="st2" d="M659.3 1179.8l-.4-.4-109.1-109.1.4-.4 108.2-108.2-108.6-108.8.4-.4 109.1-109.1.4.4 217.8 217.8-.4.4-217.8 217.8zm-107.7-109.5l107.8 107.8 216.5-216.5-216.6-216.4-107.7 107.7 108.7 108.7-.4.4-108.3 108.3z"/><path class="st2" d="M746.6 1179.8l-.4-.4-109.1-109.1.4-.4 108.2-108.2-108.6-108.8.4-.4 109.1-109.1.4.4 217.8 217.8-.4.4-217.8 217.8zm-107.7-109.5l107.8 107.8 216.5-216.5-216.6-216.4-107.7 107.7 108.7 108.7-.4.4-108.3 108.3z"/><path class="st2" d="M833.9 1179.8l-.4-.4-109.1-109.1.4-.4L833 961.7 724.4 852.9l.4-.4 109.1-109.1.4.4 217.8 217.8-.4.4-217.8 217.8zm-107.7-109.5L834 1178.1l216.5-216.5-216.6-216.4-107.7 107.7 108.7 108.7-.4.4-108.3 108.3z"/><path class="st2" d="M921.2 1179.8l-.4-.4-109.1-109.1.4-.4 108.2-108.2-108.6-108.8.4-.4 109.1-109.1.4.4 217.8 217.8-.4.4-217.8 217.8zm-107.8-109.5l107.8 107.8 216.5-216.5-216.5-216.4-107.8 107.7 108.7 108.7-.4.4-108.3 108.3z"/><path class="st2" d="M1008.5 1179.8l-.4-.4L899 1070.3l.4-.4 108.2-108.2L899 852.9l.4-.4 109.1-109.1.4.4 217.8 217.8-.4.4-217.8 217.8zm-107.8-109.5l107.8 107.8L1225 961.6l-216.5-216.5-107.8 107.8 108.7 108.7-.4.4-108.3 108.3z"/><path class="st2" d="M1095.8 1179.8l-.4-.4-109.1-109.1.4-.4 108.2-108.2-108.6-108.8.4-.4 109.1-109.1.4.4L1314 961.6l-.4.4-217.8 217.8zM988 1070.3l107.8 107.8 216.5-216.5-216.5-216.5L988 852.9l108.7 108.7-.4.4L988 1070.3z"/><path class="st2" d="M1183.1 1179.8l-.4-.4-109.1-109.1.4-.4 108.2-108.2L1073.5 853l.4-.4L1183 743.5l.4.4 217.8 217.8-.4.4-217.7 217.7zm-107.8-109.5l107.8 107.8 216.5-216.5-216.5-216.5-107.8 107.8L1184 961.6l-.4.4-108.3 108.3z"/><path class="st2" d="M1270.4 1179.8l-.4-.4-109.1-109.1.4-.4 108.2-108.2L1160.8 853l.4-.4 109.1-109.1.4.4 217.8 217.8-.4.4-217.7 217.7zm-107.8-109.5l107.8 107.8 216.5-216.5-216.5-216.5-107.8 107.8 108.7 108.7-.4.4-108.3 108.3z"/><path class="st2" d="M1357.7 1179.8l-.4-.4-109.1-109.1.4-.4 108.2-108.2L1248.1 853l.4-.4 109.1-109.1.4.4 217.8 217.8-.4.4-217.7 217.7zm-107.8-109.5l107.8 107.8 216.5-216.5-216.5-216.5-107.8 107.8 108.7 108.7-.4.4-108.3 108.3z"/><path class="st2" d="M1445 1179.8l-.4-.4-109.1-109.1.4-.4 108.2-108.2L1335.4 853l.4-.4L1445 743.4l.4.4 217.8 217.8-.4.4-217.8 217.8zm-107.8-109.5l107.8 107.8 216.5-216.5L1445 745.2 1337.2 853l108.7 108.7-.4.4-108.3 108.2z"/><path class="st2" d="M1532.3 1179.8l-.4-.4-109.1-109.1.4-.4 108.2-108.2L1422.7 853l.4-.4 109.1-109.1.4.4 217.8 217.8-.4.4-217.7 217.7zm-107.8-109.5l107.8 107.8 216.5-216.5-216.5-216.5-107.8 107.8 108.7 108.7-.4.4-108.3 108.3z"/><path class="st2" d="M1619.6 1179.8l-.4-.4-109.1-109.1.4-.4 108.2-108.2L1510 853l.4-.4 109.1-109.1.4.4 217.8 217.8-.4.4-217.7 217.7zm-107.8-109.5l107.8 107.8 108.2-108.2.4.4-.4-.4L1836 961.7l-216.5-216.5L1511.7 853l108.7 108.7-.4.4-108.2 108.2z"/></g></g></svg>