<svg version="1.1" id="Layer_1" xmlns="http://www.w3.org/2000/svg" xmlns:xlink="http://www.w3.org/1999/xlink" x="0" y="0" viewBox="0 0 1700 524" xml:space="preserve"><style type="text/css">.st0{clip-path:url(#SVGID_2_)}.st1{fill:#07448c}</style><defs><path id="SVGID_1_" d="M0 0h1700v524H0z"/></defs><use xlink:href="#SVGID_1_" overflow="visible" fill="#02264f"/><clipPath id="SVGID_2_"><use xlink:href="#SVGID_1_" overflow="visible"/></clipPath><g class="st0"><path class="st1" d="M88.3 1018.1l-.4-.4L-121 808.8l.4-.4 208-208L-121 392.1l.4-.4L88.3 182.8l.4.4 417.2 417.2-.4.4-417.2 417.3zm-207.5-209.3l207.5 207.5 207.9-207.9.4.4-.4-.4 207.9-207.9L88.3 184.6l-207.5 207.5L89.2 600.4l-.4.4-208 208z"/><path class="st1" d="M296.7 392.9l-.4-.4-104.7-104.6.4-.4 103.7-103.7L191.6 79.5l.4-.4L296.7-25.6l.4.4 208.8 208.8-.4.4-208.8 208.9zm-103.3-105l103.3 103.3 103.7-103.7.4.4-.4-.4 103.7-103.7L296.7-23.8 193.4 79.5l104.2 104.2-.4.4-103.8 103.8z"/><path class="st1" d="M400.8 80.4l-53-53L400-24.7l-52.1-52.1 53-53 105 105.1L400.8 80.4zm-51.2-53l51.2 51.2L452.5 27l.4.4-.4-.4 51.7-51.7L400.8-128l-51.2 51.2 52.1 52.1-52.1 52.1z"/><path class="st1" d="M505 184.6l-53-53 52.1-52.1L452 27.4l53-53L610.1 79.5 505 184.6zm-51.2-53l51.2 51.2L608.3 79.5 505-23.8l-51.2 51.2 52.1 52.1-52.1 52.1z"/><path class="st1" d="M609.2 288.8l-53-53 52.1-52.1-52.1-52.1 53-53 105.1 105.1-105.1 105.1zm-51.2-53l51.2 51.2 103.3-103.3L609.2 80.4 558 131.6l52.1 52.1-52.1 52.1z"/><path class="st1" d="M713.4 392.9l-53-53 52.1-52.1-52.1-52.1 53-53 105.1 105.1-105.1 105.1zM662.2 340l51.2 51.2 51.7-51.7.4.4-.4-.4 51.7-51.6-103.4-103.3-51.2 51.2 52.1 52.1-52.1 52.1zm-52.8 365.7l-53-53 52.1-52.1-52.1-52.1 53-53 105.1 105.1-105.1 105.1zm-51.2-52.9l51.2 51.2 103.3-103.3-103.3-103.3-51.2 51.2 52.1 52.1-52.1 52.1z"/><path class="st1" d="M713.6 809.9l-53-53 52.1-52.1-52.1-52.1 53-53 105.1 105.1-105.1 105.1zm-51.2-53l51.2 51.2 103.3-103.3-103.3-103.3-51.2 51.2 52.1 52.1-52.1 52.1zM505 601.3l-.4-.4L400 496.2l.4-.4 103.7-103.7L400 287.9l.4-.4L505 182.8l.4.4L714.2 392l-.4.4L505 601.3zM401.7 496.2L505 599.5 712.5 392 505 184.6 401.7 287.9l104.2 104.2-.4.4-103.8 103.7zM88.3 184.6l-.4-.4L-16.8 79.5l.4-.4L87.4-24.7-16.8-128.9l.4-.4L88.3-233.9l.4.4L297.5-24.7l-.4.4L88.3 184.6zM-15 79.5L88.3 182.8 295.8-24.7 88.3-232.2-15-128.9 89.2-24.7l-.4.4L-15 79.5zm520-311.7l-.4-.4L400-337.2l.4-.4 103.7-103.7L400-545.6l.4-.4L505-650.7l.4.4 208.8 208.8-.4.4L505-232.2zm-103.3-105L505-233.9l207.5-207.5L505-648.9 401.7-545.6l104.2 104.2-.4.4-103.8 103.8z"/><path class="st1" d="M817.8 705.7l-.4-.4-104.7-104.6.4-.4 103.7-103.7-104.1-104.3.4-.4 104.6-104.6.4.4 208.8 208.8-.4.4-208.7 208.8zm-103.3-105L817.8 704l207.5-207.5L817.8 289 714.5 392.3l104.2 104.2-.4.4-103.8 103.8zm-417.6 626l-.4-.4-104.6-104.6.4-.4L296 1017.4 191.8 913.2l.4-.4 104.6-104.6.4.4L506 1017.4l-.4.4-208.7 208.9zm-103.3-105.1l103.3 103.3 207.5-207.5-207.5-207.5-103.3 103.3 104.2 104.2-.4.4-103.8 103.8z"/><path class="st1" d="M505.3 1018.3l-.4-.4-104.7-104.7.4-.4L504.4 809 400.2 704.8l.4-.4 104.6-104.6.4.4L714.5 809l-.4.4-208.8 208.9zM402 913.2l103.3 103.3L609 912.8l.4.4-.4-.4L712.7 809 505.3 601.5 402 704.8 506.1 809l-.4.4L402 913.2z"/><path class="st1" d="M713.6 1643.4l-.4-.4-208.8-208.8.4-.4 207.9-207.9-208.4-208.4.4-.4 208.8-208.8.4.4 417.2 417.2-.4.4-417.1 417.1zm-207.5-209.3l207.5 207.5 207.9-207.9.4.4-.4-.4 207.9-207.9-415.8-415.9-207.5 207.5 208.4 208.4-.4.4-208 207.9z"/><path class="st1" d="M922 1018.3l-.4-.4-104.7-104.7.4-.4L921.1 809 816.9 704.8l.4-.4L922 599.8l.4.4L1131.2 809l-.4.4L922 1018.3zM818.7 913.2L922 1016.5l103.7-103.7.4.4-.4-.4L1129.5 809 922 601.5 818.7 704.8 922.9 809l-.4.4-103.8 103.8z"/><path class="st1" d="M1026.2 705.7l-53-53 52.1-52.1-52.1-52.1 53-53 105.1 105.1-105.1 105.1zM975 652.8l51.2 51.2 51.7-51.7.4.4-.4-.4 51.7-51.7-103.3-103.3-51.3 51.3 52.1 52.1-52.1 52.1z"/><path class="st1" d="M1130.4 809.9l-53-53 52.1-52.1-52.1-52.1 53-53 105.1 105.1-105.1 105.1zm-51.2-53l51.2 51.2 103.3-103.3-103.3-103.3-51.2 51.2 52.1 52.1-52.1 52.1z"/><path class="st1" d="M1234.5 914.1l-53-53 52.1-52.1-52.1-52.1 53-53L1339.6 809l-105.1 105.1zm-51.2-53l51.2 51.2L1337.8 809l-103.3-103.3-51.2 51.2 52.1 52.1-52.1 52.1z"/><path class="st1" d="M1338.7 1018.3l-53-53 52.1-52.1-52.1-52.1 53-53 105.1 105.1-105.1 105.1zm-51.2-53l51.2 51.2L1442 913.2l-103.3-103.3-51.2 51.2 52.1 52.1-52.1 52.1zm-52.7 365.8l-53-53 52.1-52.1-52.1-52.1 53-53 105.1 105.1-105.1 105.1zm-51.2-53l51.2 51.2 103.3-103.3-103.3-103.3-51.2 51.2 52.1 52.1-52.1 52.1z"/><path class="st1" d="M1339 1435.3l-53-53 52.1-52.1-52.1-52.1 53-53 105.1 105.1-52.5 52.5-.4-.4.4.4-52.6 52.6zm-51.2-53l51.2 51.2 103.3-103.3-103.3-103.3-51.2 51.2 52.1 52.1-52.1 52.1zm-157.4-155.6l-.4-.4-104.6-104.6.4-.4 103.7-103.7-104.2-104.2.4-.4 104.6-104.6.4.4 208.8 208.8-.4.4-208.7 208.7zm-103.3-105.1l103.3 103.3 103.7-103.7.4.4-.4-.4 103.7-103.7L1130.3 810 1027 913.3l104.2 104.2-.4.4-103.7 103.7z"/><path class="st1" d="M1443.1 1331.1l-.4-.4-104.6-104.7.4-.4 103.7-103.7-104.2-104.2.4-.4L1443 912.7l.4.4 208.8 208.8-.4.4-208.7 208.8zM1339.8 1226l103.3 103.3 207.5-207.5-207.5-207.5-103.3 103.3 104.2 104.2-.4.4-103.8 103.8zm-417.6 626l-.4-.4L817.2 1747l.4-.4 103.7-103.7-104.2-104.2.4-.4 104.6-104.6.4.4 208.8 208.8-.4.4L922.2 1852zm-103.3-105.1l103.3 103.3 207.5-207.5-207.5-207.5-103.3 103.3 104.2 104.2-.4.4-103.8 103.8z"/><path class="st1" d="M1130.6 1643.6l-.4-.4-104.6-104.6.4-.4 103.7-103.7-104.2-104.2.4-.4 104.6-104.6.4.4 208.8 208.8-.4.4-208.7 208.7zm-103.3-105l103.3 103.3 103.7-103.7.4.4-.4-.4 103.7-103.7-207.5-207.5-103.3 103.3 104.2 104.2-.4.4-103.7 103.7zM817.6 288.8l-.4-.4L608.3 79.5l.4-.4 207.9-207.9-208.3-208.4.4-.4 208.8-208.8.4.4 417.2 417.2-.4.4-417.1 417.2zM610.1 79.5L817.6 287l415.9-415.9-415.9-415.8-207.5 207.5 208.4 208.4-.4.4-208 207.9z"/><path class="st1" d="M1025.9-336.3l-.4-.4-104.6-104.7.4-.4L1025-545.5 920.9-649.8l.4-.4 104.6-104.6.4.4 208.8 208.8-.4.4-208.8 208.9zM922.6-441.4l103.3 103.3 103.7-103.7.4.4-.4-.4 103.7-103.7L1025.8-753 922.6-649.8l104.2 104.2-.4.4-103.8 103.8z"/><path class="st1" d="M1130.1-648.9l-53-53 52.1-52.1-52.1-52.1 53-53L1235.2-754l-105.1 105.1zm-51.2-53l51.2 51.2L1233.4-754l-103.3-103.3-51.2 51.2L1131-754l-52.1 52.1z"/><path class="st1" d="M1234.3-544.7l-53-53 52.1-52.1-52.1-52.1 53-53 105.1 105.1-105.1 105.1zm-51.2-53l51.2 51.2 103.3-103.3-103.3-103.3-51.2 51.2 52.1 52.1-52.1 52.1zM-328 601.8l-.4-.4L-433 496.8l.4-.4 103.7-103.7-104.2-104.2.4-.4L-328 183.3l.4.4 208.8 208.8-.4.4L-328 601.8zm-103.3-105.1L-328 600l103.7-103.7.4.4-.4-.4 103.7-103.7L-328 185l-103.3 103.3 104.2 104.2-.4.4-103.8 103.8zm728.4-520l-.4-.4L192-128.4l.4-.4 103.7-103.7L192-336.8l.4-.4L297-441.8l.4.4 208.8 208.8-.4.4L297.1-23.3zM193.8-128.4L297.1-25.1l207.5-207.5-207.5-207.5-103.3 103.3L298-232.6l-.4.4-103.8 103.8zm728.4-520l-.4-.4-104.6-104.7.4-.4 103.7-103.7-104.1-104.3.4-.4 104.6-104.6 209.3 209.3-.4.4-208.9 208.8zM818.9-753.5l103.3 103.3 207.5-207.5-207.5-207.5-103.3 103.3 104.2 104.2-.4.4-103.8 103.8z"/><path class="st1" d="M-223.8 289.2l-53-53 52.1-52.1-52.1-52.1 53-53 105.1 105.1-105.1 105.1zm-51.2-53l51.2 51.2 103.3-103.3-103.3-103.2-51.2 51.2 52.1 52.1-52.1 52z"/><path class="st1" d="M-119.6 393.4l-53-53 52.1-52.1-52.1-52.1 53-53 105.1 105.1-105.1 105.1zm-51.2-53l51.2 51.2 103.3-103.3L-119.6 185l-51.2 51.2 52.1 52.1-52.1 52.1zm1509.3-780.9l-53-53 52.1-52.1-52.1-52.1 53-53 105.1 105.1-105.1 105.1zm-51.2-53l51.2 51.2 51.7-51.7.4.4-.4-.4 51.7-51.7L1338.6-649l-51.2 51.2 52.1 52.1-52.2 52.2z"/><path class="st1" d="M1442.7-336.3l-53-53 52.1-52.1-52.1-52.1 53-53 105.1 105.1-105.1 105.1zm-51.2-53l51.2 51.2L1546-441.4l-103.3-103.3-51.2 51.2 52.1 52.1-52.1 52.1zM-119.6 185l-53-53 52.1-52.1-52.1-52.1 53-53L-14.6 80l-105 105zm-51.2-52.9l51.2 51.2L-16.3 80-119.6-23.3l-51.2 51.2 52.1 52.1-52.1 52.1z"/><path class="st1" d="M-15.4 289.2l-53-53 52.1-52.1-52.1-52.1 53-53 105 105.2-105 105zm-51.2-53l51.2 51.2L87.9 184.2-15.4 80.9l-51.2 51.2 52.1 52.1-52.1 52zm676.3-780.5l-53-53 52.1-52.1-52.1-52.1 53-53 105.1 105.1-105.1 105.1zm-51.2-52.9l51.2 51.2 51.7-51.7.4.4-.4-.4 51.7-51.6-103.4-103.3-51.2 51.2 52.1 52.1-52.1 52.1z"/><path class="st1" d="M713.9-440.1l-53-53 52.1-52.1-52.1-52.1 53-53L819-545.2 713.9-440.1zM662.6-493l51.2 51.2 103.3-103.3-103.2-103.3-51.2 51.2 52.1 52.1-52.2 52.1z"/><path class="st1" d="M713.9-648.4l-53-53 52.1-52.1-52.1-52.1 53-53L819-753.5 713.9-648.4zm-51.3-53l51.2 51.2 103.3-103.3-103.2-103.3-51.2 51.2 52.1 52.1-52.2 52.1z"/><path class="st1" d="M818-544.3l-53-53 52.1-52.1-52.1-52.1 53-53 105.1 105.1L818-544.3zm-51.2-52.9L818-546l51.7-51.7.4.4-.4-.4 51.7-51.6L818-752.6l-51.2 51.2 52.1 52.1-52.1 52.1zm571.9 573.6l-53-53 52.1-52.1-52.1-52.1 53-53 105.1 105.1-105.1 105.1zm-51.2-52.9l51.2 51.2L1442-128.6l-103.3-103.3-51.2 51.2 52.1 52.1-52.1 52.1z"/><path class="st1" d="M1442.9 80.6l-53-53 52.1-52.1-52.1-52.1 53-53L1548-24.4l-105.1 105zm-51.2-53l51.2 51.2 51.7-51.7.4.4-.4-.4 51.7-51.7L1443-127.9l-51.2 51.2 52.1 52.1-52.2 52.2zM1234.3-128l-.4-.4L1129.3-233l.4-.4 103.7-103.7-104.2-104.2.4-.4 104.6-104.6.4.4 208.8 208.8-.4.4L1234.3-128zM1131-233l103.3 103.3L1338-233.4l.4.4-.4-.4 103.7-103.7-207.5-207.5L1131-441.4l104.2 104.2-.4.4L1131-233z"/><path class="st1" d="M1547.1-23.6l-.4-.4L1442-128.6l.4-.4 103.7-103.7L1442-337l.4-.4L1547-442l.4.4 208.8 208.8-.4.4-208.7 208.8zm-103.3-105l103.3 103.3L1650.8-129l.4.4-.4-.4 103.7-103.7L1547-440.2 1443.8-337 1548-232.8l-.4.4-103.8 103.8zm-417.6 626l-.4-.4-104.7-104.7.4-.4 103.7-103.7-104.1-104.3.4-.4 104.6-104.6.4.4 208.8 208.8-.4.4-208.7 208.9zM922.9 392.3l103.3 103.3 103.7-103.7.4.4-.4-.4 103.7-103.7-207.4-207.6-103.3 103.3 104.2 104.2-.4.4-103.8 103.8z"/><path class="st1" d="M1234.5 289l-.4-.4L1129.5 184l.4-.4 103.7-103.7-104.1-104.3.4-.4 104.6-104.6.4.4 208.8 208.8-.4.4L1234.5 289zm-103.3-105.1l103.3 103.3L1442 79.7l-207.5-207.5-103.3 103.4 104.2 104.2-.4.4-103.8 103.7z"/><path class="st1" d="M1442.9 914.1l-.4-.4-208.8-208.8.4-.4 207.9-208-208.4-208.4.4-.4 208.8-208.8.4.4 417.2 417.2-.4.4-417.1 417.2zm-207.5-209.3l207.5 207.5 207.9-207.9.4.4-.4-.4 207.9-207.9-415.8-415.9-207.5 207.5 208.4 208.4-.4.4-208 207.9z"/><path class="st1" d="M1651.3 289l-.4-.4L1546.3 184l.4-.4 103.7-103.7-104.2-104.3.4-.4 104.6-104.6.4.4 208.8 208.8-.4.4L1651.3 289zM1548 183.9l103.3 103.3 207.5-207.5-207.5-207.5L1548-24.4l104.2 104.2-.4.4L1548 183.9z"/><path class="st1" d="M1755.5-23.6l-53-53 52.1-52.1-52.1-52.1 53-53 105.1 105.1-105.1 105.1zm-51.2-52.9l51.2 51.2 103.3-103.3-103.3-103.3-51.2 51.2 52.1 52.1-52.1 52.1z"/><path class="st1" d="M1859.7 80.6l-53-53 52.1-52.1-52.1-52.1 53-53 105.1 105.1-105.1 105.1zm-51.3-53l51.2 51.2L1963-24.4l-103.3-103.3-51.2 51.2 52.1 52.1-52.2 52z"/><path class="st1" d="M1963.8 184.8l-53-53 52.1-52.1-52.1-52.1 53-53 105.1 105.1-105.1 105.1zm-51.2-53l51.2 51.2 103.3-103.3-103.3-103.3-51.2 51.2 52.1 52.1-52.1 52.1z"/><path class="st1" d="M2068 289l-53-53 52.1-52.1-52.1-52.1 53-53 105.1 105.1L2068 289zm-51.2-53l51.2 51.2 51.7-51.7.4.4-.4-.4 51.7-51.7L2068 80.6l-51.2 51.2 52.1 52.1-52.1 52.1zm-52.7 365.8l-53-53 52.1-52.1-52.1-52.1 53-53 105.1 105.1-105.1 105.1zm-51.2-53l51.2 51.2 103.3-103.3-103.3-103.3-51.2 51.2 52.1 52.1-52.1 52.1z"/><path class="st1" d="M2068.3 706l-53-53 52.1-52.1-52.1-52.1 53-53 105.1 105.1L2068.3 706zm-51.3-53l51.2 51.2 103.3-103.3-103.3-103.3-51.2 51.2 52.1 52.1L2017 653zm-157.3-155.6l-.4-.4-104.6-104.6.4-.4 103.7-103.7-104.2-104.2.4-.4 104.6-104.6.4.4 208.8 208.8-.4.4-208.7 208.7zm-103.3-105.1l103.3 103.3 103.7-103.7.4.4-.4-.4 103.7-103.7-207.4-207.6-103.3 103.3 104.2 104.2-.4.4-103.8 103.8z"/><path class="st1" d="M2172.4 601.8l-.4-.4-104.6-104.6.4-.4 103.7-103.7-104.2-104.2.4-.4 104.6-104.6.4.4 208.8 208.8-.4.4-208.7 208.7zm-103.3-105.1L2172.4 600l103.7-103.7.4.4-.4-.4 103.7-103.7L2172.4 185l-103.3 103.3 104.2 104.2-.4.4-103.8 103.8zm-417.6 626l-.4-.4-104.6-104.6.4-.4 103.7-103.7-104.2-104.2.4-.4 104.6-104.6.4.4 208.8 208.8-.4.4-208.7 208.7zm-103.3-105.1l103.3 103.3 103.7-103.7.4.4-.4-.4L1859 913.4 1651.5 706l-103.3 103.3 104.2 104.2-.4.4-103.8 103.7z"/><path class="st1" d="M1859.9 914.3l-.4-.4-104.6-104.6.4-.4L1859 705.1l-104.2-104.2.4-.4 104.6-104.6.4.4L2069 705.1l-.4.4-208.7 208.8zm-103.3-105l103.3 103.3 103.7-103.7.4.4-.4-.4 103.7-103.7-207.5-207.5L1756.5 601l104.2 104.2-.4.4-103.7 103.7z"/></g></svg>