<svg version="1.1" id="Layer_1" xmlns="http://www.w3.org/2000/svg" xmlns:xlink="http://www.w3.org/1999/xlink" x="0" y="0" viewBox="0 0 1700 524" xml:space="preserve"><style type="text/css">.st0{opacity:.65;clip-path:url(#SVGID_2_);fill:#07448c}</style><defs><path id="SVGID_1_" d="M0 0h1700v524H0z"/></defs><use xlink:href="#SVGID_1_" overflow="visible" fill="#02264f"/><clipPath id="SVGID_2_"><use xlink:href="#SVGID_1_" overflow="visible"/></clipPath><path class="st0" d="M2381.7 392.5l-208.6-208.6-104.2-104.2-104.2-104.1-104.2-104.2-104.2-104.2-208.6-208.6-104.2-104.2-104.2-104.2L1235.2-754l-103.7-103.7L922.2-1067 817.6-962.3l-.4.4 104.2 104.2L818-754.4 713.9-858.6l-53 53 52.1 52.1-51.2 51.2-52.1-52.1-53 53 52.1 52.1-51.2 51.2-52.1-52.1-.4-.4L400.4-546l-.4.4 104.2 104.2-103.4 103.3-103.2-103.3-.4-.4-104.7 104.6-.4.4 104.2 104.2-103.4 103.3L88.7-233.5l-.4-.4-104.6 104.6-.4.4L87.4-24.7-15.9 78.6-119.6-25.1l-53 53 52.1 52.1-51.2 51.2-52.1-52.1-53 53 52.1 52.1-51.2 51.2-51.7-51.7-.4-.4-104.6 104.6-.4.4 104.2 104.2-103.7 103.7-.4.4 104.6 104.6.4.4 208.4-208.4 207 207-207.9 207.9-.4.4L88 1017.3l.4.4 104.2-104.2L296 1017.4l-103.7 103.7-.4.4 104.6 104.6.4.4 208.4-208.4 207.5 207.5-207.9 207.9-.4.4L713.2 1643l.4.4 104.2-104.2 103.5 103.5-103.7 103.7-.4.4 104.6 104.6.4.4L1131 1643l.4-.4 207.9-207.9.4-.4 51.7-51.6 52.5-52.5 207.9-207.9.4-.4L1860.1 914l.4-.4 207.9-207.9.4-.4L2173 601.1 2381.3 393l.4-.5zm-210.4-208.6l-51.7 51.7-51.7 51.7-51.2-51.2 52.1-52.1-52.1-52.1 51.2-51.2 103.4 103.2zm-155.6 364.5l-51.7 51.7-51.2-51.2 52.1-52.1-52.1-52.1 51.2-51.2 103.3 103.3-51.6 51.6zm.5 1.3l51.2 51.2-51.2 51.2-51.2-51.2 51.2-51.2zm-365.4 154.7l-207.9 207.9-207.5-207.5 207.9-207.9.4-.4-208.4-208.4 207.5-207.5 415.9 415.9-207.9 207.9zm104.7-102.9L1859 705.1l-103.3 103.3-103.5-103.5 103.3-103.4zm-311.7 311.7l103.3-103.3 103.5 103.5-103.3 103.3-103.5-103.5zm-209 416.1l-51.2-51.2 52.1-52.1-52.1-52.1 51.2-51.2 103.3 103.3-103.3 103.3zm52.1-50.3l51.2 51.2-51.2 51.2-51.2-51.2 51.2-51.2zm-781-678.6l51.2-51.2 51.4 51.4-51.2 51.2-51.4-51.4zM89.2 183.7L192.5 80.4l103.3 103.3L192.5 287 89.6 184.2l-.4-.5zm207.9.4l.4-.4L193.4 79.5l68.9-68.9 34.4-34.4L458 137.6l46.1 46.1-103.7 103.7-103.7 103.8-103.3-103.3 103.7-103.8zM505.9-233l103.3-103.3 207.5 207.5L609.2 78.6 505.9-24.7 402.2-128.4l103.7-103.7.4-.4-.4-.5zm208.8-312.1l-52.1-52.1 51.2-51.2 102.8 102.8-103.2 103.3-50.8-50.7 52.1-52.1zm-52.9 51.2l-51.2-51.2 51.2-51.2 51.2 51.2-51.2 51.2zm52.9-155.4l51.2-51.2 51.2 51.2-51.2 51.2-51.2-51.2zm-.8 209.2L818-544.3l377.7 377.7 37.7 37.7L817.6 287 714.3 183.7l-35-35-69.2-69.2L818-128.4l.4-.4-208.3-208.4 103.3-103.3.5.4zm105-105l103.3-103.3L1025-545.6 921.8-442.3 818.9-545.1zm362.4-52.6l52.1 52.1-103.7 103.7L1026-338.2 922.6-441.4l103.7-103.7.4-.4-103.6-103.8 103.3-103.3 154.9 154.9zm-154-155.8l51.2-51.2 50.8 50.8-51.2 51.2-50.8-50.8zM1131-649.8l51.2-51.2 51.2 51.2-51.2 51.2-51.2-51.2zm104.2 104.2l51.2-51.2 51.2 51.2-51.2 51.2-51.2-51.2zm154.7 156.5l51.9 51.9-103.7 103.7-103.7 103.7L1131-233l103.7-103.7.4-.4L1131-441.4l51.5-51.5 51.8-51.8 155.6 155.6zm-50.5-52.3l51.2-51.2 51.2 51.2-51.2 51.2-51.2-51.2zm467.5 469.3l51.9 51.9-207.5 207.5L1548 183.9l103.7-103.7.4-.4L1548-24.4l103.3-103.3 155.6 155.6zm-154.7-156.5l51.2-51.2 51.2 51.2-51.2 51.2-51.2-51.2zm104.2 104.2l51.2-51.2 51.2 51.2-51.2 51.2-51.2-51.2zm-.9 209.2l103.3 103.3-103.3 103.3-103.3-103.3 103.3-103.3zM1650.4 79.7L1547.1 183 1443.8 79.7l103.3-103.3 103.3 103.3zm-155.8-52.5l-51.7 51.7-51.2-51.2 52.1-52.1-52.1-52.1 51.2-51.2 103.3 103.3-51.6 51.6zm-260.1 885.1l-51.2-51.2 52.1-52.1-52.1-52.1 51.2-51.2L1337.8 809l-25.8 25.8-77.5 77.5zm52.1-50.3l51.2 51.2-51.2 51.2-51.2-51.2 51.2-51.2zm-155.4-53l51.2-51.2 51.2 51.2-51.2 51.2-51.2-51.2zM505.9 79.5l-52.1-52.1L505-23.8 608.3 79.5 505 182.8l-51.2-51.2 52.1-52.1zm-53 51.2l-51.2-51.2 51.2-51.2 51.2 51.2-51.2 51.2zm53 53l51.2-51.2 51.2 51.2-51.2 51.2-51.2-51.2zm104.2 0L558 131.6l51.2-51.2 59 59 44.3 44.3L609.2 287 558 235.8l52.1-52.1zm51.2 53l51.2 51.2-51.2 51.2-51.2-51.2 51.2-51.2zm53 51.2l-52.1-52.1 51.2-51.2 103.3 103.3-51.7 51.6-51.7 51.7-51.1-51.2 52.1-52.1zm-.9 105l103.5 103.5-103.3 103.4-103.5-103.6 103.3-103.3zm104.8 104l.4-.4-104.3-104.3 103.3-103.3L983.8 455l41.5 41.5-52.1 52.1L817.8 704l-51.7-51.6-51.6-51.6 103.7-103.9zm415.5-208.8L1130 391.8l-103.7 103.7-103.4-103.2 103.7-103.7.4-.4-104.4-104.5 103.3-103.3 207.8 207.7zM1026.8 79.5l103.3-103.3 103.5 103.5L1130.4 183 1026.8 79.5zm-1.5 208.6L922 391.4 818.5 287.9l103.3-103.3 103.5 103.5zm-51.2 261.4l51.2 51.2-51.2 51.2-51.2-51.2 51.2-51.2zm53 51.2L975 548.6l51.2-51.2 103.3 103.3-51.7 51.7-51.7 51.7-51.1-51.3 52.1-52.1zm51.2 52.9l51.2 51.2-51.2 51.2-51.2-51.2 51.2-51.2zm52.9 51.2l-52.1-52.1 51.2-51.2 103.3 103.3-103.3 103.3-51.2-51.2 52.1-52.1zm0-104.1L1027 496.5 1234.5 289 1442 496.5 1234.5 704l-103.3-103.3zm103.3-313.5l-103.3-103.3L1235 80.2l.4-.4-104.2-104.2 103.3-103.3 155.6 155.6 51.9 51.9-207.5 207.4zm155.4-363.7l-51.2 51.2-51.2-51.2 52.1-52.1-52.1-52.1 51.2-51.2L1442-128.6l-52.1 52.1zm.9.8l51.2 51.2-51.2 51.2-51.2-51.2 51.2-51.2zm-53-52.9l-51.2 51.2-51.4-51.4 51.2-51.2 51.4 51.4zm1.6-104.4l103.3-103.3 103.5 103.5-103.3 103.3L1339.4-233zm-209.3-.9l-103.3-103.3 103.3-103.3 103.3 103.3-103.3 103.3zm-626 209.2L452.5 27l-51.7 51.7-51.2-51.2 52.1-52.1-51.6-51.6 51.2-51.2L504.1-24.7zm-104.1 0l-51.2 51.2L298-24.2l51.2-51.2L400-24.7zm.8 313.5l103.3 103.3-103.3 103.3-103.3-103.3 103.3-103.3zm104.7 103.7l.4-.4-104.2-104.2 57.4-57.4 45.9-45.9 207.5 207.5L505 599.5 401.7 496.2l103.8-103.7zm104.8 208.2l-52.1-52.1 51.2-51.2 103.3 103.3L609.4 704l-51.2-51.2 52.1-52.1zm51.2 52.9l51.2 51.2-51.2 51.2-51.2-51.2 51.2-51.2zm53 51.2l-52.1-52.1 51.2-51.2 41.2 41.2 62.1 62.1-103.3 103.3-51.2-51.2 52.1-52.1zm0 104.2l103.3-103.3L921.1 809 817.8 912.3 714.5 809zm207.9.5l.4-.4-104.1-104.3L922 601.5 1129.5 809l-103.7 103.7-.4.4L922 1016.5 818.7 913.2l103.7-103.7zm103.8 104.6l103.3 103.3-103.3 103.3-103.3-103.3 103.3-103.3zm104.6 103.7l.4-.4L1027 913.2l103.3-103.3 155.4 155.4 52.1 52.1-103.7 103.7-103.7 103.7-103.3-103.3 103.7-103.7zm.4 208l51.2-51.2 51.4 51.4-51.2 51.2-51.4-51.4zm104.2-104.2l103.3-103.3 103.5 103.5-103.2 103.3-103.6-103.5zm103.3-105.1l-51.2-51.2 52.1-52.1-52.1-52.1 25.8-25.8 25.4-25.4L1442 913.2l-103.3 103.3zm417.7-624.2l103.7-103.7.4-.4L1756.3 184l103.3-103.3 207.5 207.5-103.7 103.7-103.7 103.7-103.3-103.3zm104.1-312.6l51.2-51.2 51.2 51.2-51.2 51.2-51.2-51.2zm104.2 104.2l51.2-51.2 51.2 51.2-51.2 51.2-51.2-51.2zm-104.2 312.6l51.2-51.2 51.4 51.4-51.2 51.2-51.4-51.4zm104.2-104.2L2068 289l103.5 103.5-103.3 103.3-103.5-103.5zm102.4-312.6L1963.8 183l-51.2-51.2 52.1-52.1-52.1-52.1 51.2-51.2 103.3 103.3zM1963-24.4l-51.7 51.7-51.7 51.7-51.2-51.2 52.1-52.1-52.1-52.1 51.2-51.2L1963-24.4zm-104.2-104.2l-52.1 52.1-51.2 51.2-51.2-51.2 52.1-52.1-52.1-52.1 51.2-51.2 103.3 103.3zm-104.2-104.2l-51.9 51.9-51.9 51.9-103.7 103.7-103.3-103.3 103.7-103.7.4-.4L1443.8-337l103.3-103.3 207.5 207.5zM1546-441.4l-103.3 103.3-51.2-51.2 52.1-52.1-52.1-52.1 51.2-51.2L1546-441.4zm-104.2-104.2l-52.1 52.1-51.2 51.2-51.2-51.2 52.1-52.1-52.1-52.1 51.2-51.2 103.3 103.3zm-104.2-104.2l-52.1 52.1-51.2 51.2-51.2-51.2 52.1-52.1-52.1-52.1 25.8-25.8 25.4-25.4 103.3 103.3zM1233.4-754l-25.8 25.8-77.5 77.5-51.2-51.2L1131-754l-51.6-51.6 51.2-51.2L1233.4-754zM922.7-857.3l.4-.4-104.2-104.2 103.3-103.3 207 207-52.1 52.1.5.5-51.2 51.2-.4-.4-104.2 104.1-102.9-102.8 103.8-103.8zm-35.8 173.5l34.4 34.4-51.7 51.6L818-546l-51.2-51.2 52.1-52.1-52.1-52.1 51.2-51.2 68.9 68.8zm-172.2-69.7l-52.1-52.1 51.2-51.2 103.3 103.3-103.2 103.3-51.2-51.2 52-52.1zM610.6-649.3l-52.1-52.1 51.2-51.2L713-649.3l-51.7 51.6-51.6 51.7-51.2-51.2 52.1-52.1zM505.5-441l.4-.4-104.2-104.2L505-648.9l161.4 161.4 46.1 46.1L505-233.9l-68.4-68.4-34.9-34.9L505.5-441zM297.6-232.1l.4-.4-104.2-104.3 103.3-103.3L435.2-302l69.4 69.4-103.3 103.3-.5-.5-53 53 .5.5-51.2 51.2-103.3-103.3 103.8-103.7zM88.7-24.2l.4-.4L-15-128.9 88.3-232.2 244.1-76.3l51.6 51.6L88.3 182.8-14.6 80l-.5-.5L88.7-24.2zM-15.4 80.9L87.4 183.7-15.9 287l-16.2-16.2-34.6-34.6 52.1-52.1-52.1-52.1 51.3-51.1zm-103.3 103.3l51.2-51.2 51.2 51.2-51.2 51.2-51.2-51.2zm0-104.2l-52.1-52.1 51.2-51.2L-16.8 79.5l.5.5-51.7 51.6-51.7 51.7-51.2-51.2 52.2-52.1zm-104.2 104.2l-52.1-52.1 51.2-51.2 51.2 51.2 52.1 52.1-103.3 103.3-51.2-51.2 52.1-52.1zm51.2 52.9l51.2 51.2-51.2 51.2-51.2-51.2 51.2-51.2zm-52.6 259.2L-328 600l-103.3-103.3L-327.6 393l.4-.4-104.2-104.2L-328 185l207.5 207.5-103.8 103.8zm104.2-105.1l-50.8-50.8 52.1-52.1-52.1-52.1 51.2-51.2 86.1 86.1 16.8 16.8-103.3 103.3zm208.4 625.1l-207.5-207.5L88.7 600.9l.4-.4-208.3-208.3 104.6-103.8-.4-.4L88.4 184.6l323.4 323.5 92.3 92.3-207.9 208-207.9 207.9zm312.5-310.8L504.4 809 401.1 912.3 297.5 808.8l103.3-103.3zm-103.9 519.4l-103.3-103.3 103.7-103.7.4-.4-104.1-104.3 103.3-103.3 181.7 181.7 25.8 25.8-207.5 207.5zm208.4-208.4L402 913.2l103.7-103.7.4-.4L402 704.8l103.3-103.3L712.7 809 597.5 924.3l-92.2 92.2zm208.3 625.1l-207.5-207.5L714 1226.2l.4-.4L506 1017.4l103.5-103.5L713.4 810l311.7 311.7 104.2 104.2-207.9 207.9-207.8 207.8zm312.6-310.8l103.5 103.5-103.3 103.3-103.5-103.5 103.3-103.3zm-104 519.4l-103.3-103.3 103.7-103.7.4-.4-104.2-104.2 103.3-103.3 177.9 177.9 29.6 29.6-207.4 207.4zm312.1-312.1l-103.7 103.7-103.3-103.3 103.7-103.7.4-.4-104.2-104.2 103.3-103.3 207.5 207.5-103.7 103.7zm104.7-104.6l-51.2-51.2 52.1-52.1-52.1-52.1 51.2-51.2 51.5 51.5 51.8 51.8-103.3 103.3zm104.1-104.2L1339.8 1226l103.7-103.7.4-.4-104.2-104.2L1443 914.4l207.5 207.5-207.4 207.4zm312.2-312.1l-103.7 103.7-103.3-103.3L1652 913.9l.4-.4-104.2-104.2L1651.5 706l155.6 155.6 51.9 51.9-103.7 103.7zm208.3-208.4l-103.7 103.7-103.3-103.3 103.7-103.7.4-.4-104.2-104.2 103.3-103.3 166 166 41.5 41.5-103.7 103.7zm104.7-104.6L2017 653l52.1-52.1-52.1-52.1 51.2-51.2 51.5 51.5 51.8 51.8-103.2 103.3zm207.9-207.9L2172.4 600l-103.3-103.3L2172.9 393l.4-.4-104.2-104.2L2172.4 185l207.5 207.5-103.7 103.8z"/></svg>