<svg version="1.1" id="Layer_2" xmlns="http://www.w3.org/2000/svg" xmlns:xlink="http://www.w3.org/1999/xlink" x="0" y="0" viewBox="0 0 1700 524" xml:space="preserve"><style type="text/css">.st0{opacity:.7;clip-path:url(#SVGID_2_)}.st1{fill:#f1f1f2}</style><defs><path id="SVGID_1_" d="M-1 0h1700.4v524H-1z"/></defs><use xlink:href="#SVGID_1_" overflow="visible" fill="#c8c9cb"/><clipPath id="SVGID_2_"><use xlink:href="#SVGID_1_" overflow="visible"/></clipPath><g class="st0"><path class="st1" d="M58.3 193.1l-.4-.4-264.1-264.1.4-.4 132.3-132.3.4.4L58.3-72.3l131.8-131.8.4.4L322.8-71.4l-.4.4L58.3 193.1zM-204.5-71.4L58.3 191.3 189.7 60l.4.4-.4-.4L321.1-71.4l-131-131L58.3-70.5l-.4-.5-131.4-131.4-131 131z"/><path class="st1" d="M190.1 324.9l-.4-.4L58.3 193.1-73.5 324.9l-.4-.4-132.3-132.3.4-.4L58.3-72.3l.4.4 264.1 264.1-.4.4-132.3 132.3zM58.3 191.3l.4.4 131.4 131.4L321 192.2 58.3-70.5-73.1 60.8l-.4-.4.4.4-131.4 131.4 130.9 130.9L58.3 191.3z"/><path class="st1" d="M58.3 328.3l-.4-.4-264.1-264.1.4-.4L-73.5-68.9l.4.4L58.3 62.9 190.1-68.9l.4.4L322.8 63.8l-.4.4L58.3 328.3zM-204.5 63.8L58.3 326.5l131.4-131.4.4.4-.4-.4L321.1 63.8l-131-131L58.3 64.7l-.4-.4L-73.5-67.2l-131 131z"/><path class="st1" d="M190.1 460.1l-.4-.4L58.3 328.3-73.5 460.1l-.4-.4-132.3-132.3.4-.4L58.3 62.9l.4.4 264.1 264.1-.4.4-132.3 132.3zM58.3 326.5l.4.4 131.4 131.4L321 327.4 58.3 64.7-73.1 196l-.4-.4.4.4-131.4 131.4 130.9 130.9L58.3 326.5z"/><path class="st1" d="M58.3 720.4l-.4-.4-264.1-264.1.4-.4 132.3-132.3.4.4L58.3 455l131.8-131.8.4.4 132.3 132.3-.4.4L58.3 720.4zm-262.8-264.5L58.3 718.6l131.4-131.4.4.4-.4-.4 131.4-131.4-131-130.9L58.3 456.7l-.4-.4-131.4-131.4-131 131z"/><path class="st1" d="M190.1 852.2l-.4-.4L58.3 720.4-73.5 852.2l-.4-.4-132.3-132.3.4-.4L58.3 455l.4.4 264.1 264.1-.4.4-132.3 132.3zM58.3 718.6l.4.4 131.4 131.4L321 719.5 58.3 456.7-73.1 588.1l-.4-.4.4.4-131.4 131.4 130.9 130.9L58.3 718.6z"/><path class="st1" d="M717.4 852.2l-.4-.4-131.4-131.4-131.8 131.8-.4-.4-132.3-132.3.4-.4L585.6 455l.4.4 264.1 264.1-.4.4-132.3 132.3zM585.6 718.6l.4.4 131.4 131.4 130.9-130.9-262.7-262.8-262.8 262.8 130.9 130.9 131.9-131.8z"/><path class="st1" d="M585.6 720.4l-.4-.4-264.1-264.1.4-.4 132.3-132.3.4.4L585.6 455l131.8-131.8.4.4 132.3 132.3-.4.4-264.1 264.1zM454.2 587.2l131.4 131.4 262.8-262.8-131-130.9-131.8 131.8-.4-.4-131.4-131.4-131 131 131.4 131.3z"/><path class="st1" d="M717.4 723.8l-.4-.4-131.4-131.5-131.8 131.9-.4-.4-132.3-132.3.4-.4 264.1-264.1.4.4 264.1 264.1-.4.4-132.3 132.3zM585.6 590.2l.4.4L717.4 722l130.9-130.9-262.7-262.8-262.8 262.8 131 130.9 131.8-131.8z"/><path class="st1" d="M585.6 591.9l-.4-.4-264.1-264.1.4-.4 132.3-132.3.4.4 131.4 131.4 131.8-131.8.4.4 132.3 132.3-.4.4-264.1 264.1zM454.2 458.8l131.4 131.4 262.8-262.8-131-130.9-131.8 131.8-.4-.4-131.4-131.4-131 130.9 131.4 131.4z"/><path class="st1" d="M717.4 324.9l-.4-.4-131.4-131.4-131.8 131.8-.4-.4-132.3-132.3.4-.4L585.6-72.3l.4.4 264.1 264.1-.4.4-132.3 132.3zM585.6 191.3l.4.4 131.4 131.4 130.9-130.9L585.6-70.5 322.8 192.2l130.9 130.9 131.9-131.8z"/><path class="st1" d="M585.6 193.1l-.4-.4L321.1-71.4l.4-.4 132.3-132.3.4.4L585.6-72.3l131.8-131.8.4.4L850.1-71.4l-.4.4-264.1 264.1zM454.2 60l131.4 131.4L848.3-71.4l-130.9-131L585.6-70.5l-.4-.4-131.4-131.5-131 131L454.2 60z"/><path class="st1" d="M1112.9 193.1l-.4-.4L848.3-71.4l.4-.4L981-204.1l.4.4 131.4 131.4 131.8-131.8.4.4 132.3 132.3-.4.4-264 264.1zM850.1-71.4l262.8 262.8L1244.2 60l.4.4-.4-.4 131.4-131.4-130.9-130.9-131.8 131.8-.4-.4L981-202.4l-130.9 131z"/><path class="st1" d="M1244.7 324.9l-.4-.4-131.4-131.4L981 324.9l-.4-.4-132.3-132.3.4-.4 264.1-264.1.4.4 264.1 264.1-.4.4-132.2 132.3zm-131.8-133.6l.4.4 131.4 131.4 130.9-130.9-262.7-262.7L981.5 60.8l-.4-.4.4.4-131.4 131.4 130.9 131 131.9-131.9z"/><path class="st1" d="M1112.9 328.3l-.4-.4L848.3 63.8l.4-.4L981-68.9l.4.4 131.4 131.4 131.8-131.8.4.4 132.3 132.3-.4.4-264 264.1zM850.1 63.8l262.8 262.8 131.4-131.4.4.4-.4-.4 131.4-131.4-131-131-131.8 131.9-.4-.4L981-67.2l-130.9 131z"/><path class="st1" d="M1244.7 460.1l-.4-.4-131.4-131.4L981 460.1l-.4-.4-132.3-132.3.4-.4 264.1-264.1.4.4 264.1 264.1-.4.4-132.2 132.3zm-131.8-133.6l.4.4 131.4 131.4 130.9-130.9-262.7-262.7L981.5 196l-.4-.4.4.4-131.4 131.4L981 458.3l131.9-131.8z"/><path class="st1" d="M1112.9 720.4l-.4-.4-264.2-264.1.4-.4L981 323.2l.4.4L1112.9 455l131.8-131.8.4.4 132.3 132.3-.4.4-264.1 264.1zM850.1 455.9l262.8 262.8 131.4-131.4.4.4-.4-.4 131.4-131.4L1244.8 325 1113 456.8l-.4-.4L981 324.9l-130.9 131z"/><path class="st1" d="M1244.7 852.2l-.4-.4-131.4-131.4L981 852.2l-.4-.4-132.3-132.3.4-.4L1112.9 455l.4.4 264.1 264.1-.4.4-132.3 132.3zm-131.8-133.6l.4.4 131.4 131.4 130.9-130.9-262.8-262.8-131.3 131.4-.4-.4.4.4-131.4 131.4L981 850.4l131.9-131.8z"/><path class="st1" d="M1772 852.2l-.4-.4-131.4-131.4-131.8 131.8-.4-.4-132.3-132.3.4-.4 264-264.1.4.4 264.1 264.1-.4.4L1772 852.2zm-131.9-133.6l.4.4L1772 850.4l130.9-130.9-262.8-262.8-262.8 262.8 130.9 130.9 131.9-131.8z"/><path class="st1" d="M1640.1 720.4l-.4-.4-264.1-264.1.4-.4 132.3-132.3.4.4L1640.1 455 1772 323.2l.4.4 132.3 132.3-.4.4-264.2 264.1zm-131.3-133.2l131.4 131.4L1903 455.8l-131-130.9-131.8 131.8-.4-.4-131.4-131.4-130.9 130.9 131.3 131.4z"/><path class="st1" d="M1772 723.8l-.4-.4L1640.2 592l-131.8 131.8-.4-.4-132.3-132.3.4-.4 264.1-264.1.4.4 264.1 264.1-.4.4L1772 723.8zm-131.9-133.6l.4.4L1772 722l130.9-130.9-262.8-262.8-262.8 262.8 131 130.9 131.8-131.8z"/><path class="st1" d="M1640.1 591.9l-.4-.4-264.1-264.1.4-.4 132.3-132.3.4.4 131.4 131.4L1772 194.7l.4.4 132.3 132.3-.4.4-264.2 264.1zm-131.3-133.1l131.4 131.4L1903 327.4l-131-130.9-131.8 131.8-.4-.4-131.4-131.4-130.9 130.9 131.3 131.4z"/><path class="st1" d="M1772 324.9l-.4-.4-131.4-131.4-131.8 131.8-.4-.4-132.3-132.3.4-.4 264.1-264.1.4.4 264.1 264.1-.4.4L1772 324.9zm-131.9-133.6l.4.4L1772 323.2l130.9-130.9-262.8-262.8-262.8 262.8 130.9 130.9 131.9-131.9z"/><path class="st1" d="M1640.1 193.1l-.4-.4-264.1-264.1.4-.4 132.3-132.3.4.4 131.4 131.4L1772-204.1l.4.4 132.3 132.3-.4.4-264.2 264.1zM1508.8 60l131.4 131.4L1903-71.4l-131-131-131.9 131.9-.4-.4-131.4-131.4-130.9 130.9L1508.8 60z"/></g></svg>