<svg version="1.1" id="Layer_1" xmlns="http://www.w3.org/2000/svg" xmlns:xlink="http://www.w3.org/1999/xlink" x="0" y="0" viewBox="0 0 1700 524" xml:space="preserve"><style type="text/css">.st0{clip-path:url(#SVGID_2_)}.st1{opacity:.7}.st2{fill:#d99e88}</style><defs><path id="SVGID_1_" d="M-.6 0h1700.8v524H-.6z"/></defs><use xlink:href="#SVGID_1_" overflow="visible" fill="#cc886d"/><clipPath id="SVGID_2_"><use xlink:href="#SVGID_1_" overflow="visible"/></clipPath><g class="st0"><g class="st1"><path class="st2" d="M-32.2.8l-.4-.4-111.3-111.3.4-.4 110.4-110.4-110.8-110.8.4-.4 111.3-111.3.4.4 222.1 222.1-.4.4L-32.2.8zm-110-111.7l110 110L78.2-111.4l.4.4-.4-.4 110.4-110.4-220.8-220.8-110 110 110.8 110.8-.4.4-110.4 110.5z"/><path class="st2" d="M56.8.8l-.4-.4-111.3-111.3.4-.4L55.9-221.8-54.9-332.6l.4-.4L56.8-444.3l.4.4 222.1 222.1-.4.4L56.8.8zM-53.1-110.9L56.8-1l220.8-220.8L56.8-442.6l-110 110L57.7-221.8l-.4.4-110.4 110.5z"/><path class="st2" d="M145.8.8l-.4-.4L34.1-110.9l.4-.4L145-221.8 34.1-332.6l.4-.4 111.3-111.3.4.4 222.1 222.1-.4.4L145.8.8zM35.9-110.9l110 110 220.8-220.8-220.9-220.9-110 110 110.8 110.8-.4.4L35.9-110.9z"/><path class="st2" d="M234.9.8l-.4-.4-111.3-111.3.4-.4L234-221.8 123.2-332.6l.4-.4 111.3-111.3.4.4 222.1 222.1-.4.4L234.9.8zm-110-111.7l110 110 220.8-220.8-220.8-220.9-110 110 110.8 110.8-.4.4-110.4 110.5z"/><path class="st2" d="M323.9.8l-.4-.4-111.3-111.3.4-.4L323-221.8 212.2-332.6l.4-.4 111.3-111.3.4.4 222.1 222.1-.4.4L323.9.8zM214-110.9L324-.9l220.8-220.8-220.9-220.9-110 110 110.8 110.8-.4.4L214-110.9z"/><path class="st2" d="M412.9.8l-.4-.4-111.3-111.3.4-.4L412-221.7 301.2-332.6l.4-.4 111.3-111.3.4.4 222.1 222.1-.4.4L412.9.8zM303-110.9L413-.9l220.8-220.8-220.9-220.9-110 110 110.8 110.8-.4.4L303-110.9z"/><path class="st2" d="M502 .8l-.4-.4-111.3-111.3.4-.4 110.4-110.4-110.8-110.9.4-.4L502-444.3l.4.4 222.1 222.1-.4.4L502 .8zM392-110.9L502-1l220.8-220.8L502-442.6l-110 110 110.8 110.8-.4.4L392-110.9z"/><path class="st2" d="M591 .8l-.4-.4-111.3-111.3.4-.4 110.4-110.4-110.8-110.9.4-.4L591-444.3l.4.4 222.1 222.1-.4.4L591 .8zM481.1-110.9L591-1l220.8-220.8L591-442.6l-110 110 110.8 110.8-.4.4-110.3 110.5z"/><path class="st2" d="M680.1.8l-.4-.4-111.4-111.3.4-.4 110.4-110.4-110.8-110.9.4-.4L680-444.3l.4.4 222.1 222.1-.4.4L680.1.8zm-110-111.7l110 110 220.8-220.8-220.8-220.9-110 110 110.8 110.8-.4.4-110.4 110.5z"/><path class="st2" d="M769.1.8l-.4-.4-111.3-111.3.4-.4 110.4-110.4-110.8-110.9.4-.4 111.3-111.3.4.4 222.1 222.1-.4.4L769.1.8zm-110-111.7l110 110 220.8-220.8-220.8-220.9-110 110L770-221.8l-.4.4-110.5 110.5z"/><path class="st2" d="M858.1.8l-.4-.4-111.3-111.3.4-.4 110.4-110.4-110.8-110.9.4-.4 111.3-111.3.4.4 222.1 222.1-.4.4L858.1.8zM748.2-110.9l110 110L1079-221.7 858.1-442.6l-110 110L859-221.8l-.4.4-110.4 110.5z"/><path class="st2" d="M947.2.8l-.4-.4-111.4-111.3.4-.4 110.4-110.4-110.8-110.9.4-.4 111.3-111.3.4.4 222.1 222.1-.4.4L947.2.8zm-110-111.7l110 110L1168-221.7 947.2-442.6l-110 110L948-221.8l-.4.4-110.4 110.5z"/><path class="st2" d="M1036.2.8l-.4-.4-111.3-111.3.4-.4 110.4-110.4-110.8-110.9.4-.4 111.3-111.3.4.4 222.1 222.1-.4.4L1036.2.8zm-110-111.7l110 110L1257-221.8l-220.8-220.8-110 110L1037-221.8l-.4.4-110.4 110.5z"/><path class="st2" d="M1125.2.8l-.4-.4-111.3-111.3.4-.4 110.4-110.4-110.8-110.8.4-.4 111.3-111.3.4.4 222.1 222.1-.4.4L1125.2.8zm-109.9-111.7l110 110L1346-221.8l-220.8-220.8-110 110L1126-221.8l-.4.4-110.3 110.5z"/><path class="st2" d="M1214.3.8l-.4-.4-111.3-111.3.4-.4 110.4-110.4-110.8-110.8.4-.4 111.3-111.3.4.4 222.1 222.1-.4.4L1214.3.8zm-110-111.7l110 110L1435-221.8l-220.8-220.8-110 110L1215-221.8l-.4.4-110.3 110.5z"/><path class="st2" d="M1303.3.8l-.4-.4-111.3-111.3.4-.4 110.4-110.4-110.8-110.8.4-.4 111.3-111.3.4.4 222.1 222.1-.4.4L1303.3.8zm-110-111.7l110 110 220.8-220.8-220.8-220.8-110 110 110.8 110.8-.4.4-110.4 110.4z"/><path class="st2" d="M1392.3.8l-.4-.4-111.3-111.3.4-.4 110.4-110.4-110.8-110.8.4-.4 111.3-111.3.4.4 222.1 222.1-.4.4L1392.3.8zm-109.9-111.7l110 110 220.8-220.8-220.8-220.8-110 110 110.8 110.8-.4.4-110.4 110.4z"/><path class="st2" d="M1481.4.8l-.4-.4-111.3-111.3.4-.4 110.4-110.4-110.8-110.8.4-.4 111.3-111.3.4.4 222.1 222.1-.4.4L1481.4.8zm-110-111.7l110 110 220.8-220.8-220.8-220.8-110 110 110.8 110.8-.4.4-110.4 110.4z"/><path class="st2" d="M1570.4.8l-.4-.4-111.3-111.3.4-.4 110.4-110.4-110.8-110.8.4-.4 111.3-111.3.4.4 222.1 222.1-.4.4L1570.4.8zm-110-111.7l110 110 220.8-220.8-220.8-220.8-110 110 110.8 110.8-.4.4-110.4 110.4z"/></g><g class="st1"><path class="st2" d="M-32.2 444.1l-.4-.4-111.3-111.3.4-.4 110.4-110.4-110.8-110.8.4-.4L-32.2-1l.4.4 222.1 222.1-.4.4-222.1 222.2zm-110-111.7l110 110L78.2 332l.4.4-.4-.4 110.4-110.4L-32.2.8l-110 110 110.8 110.8-.4.4-110.4 110.4z"/><path class="st2" d="M56.8 444.1l-.4-.4-111.3-111.3.4-.4L55.9 221.6-54.9 110.7l.4-.4L56.8-1l.4.4 222.1 222.1-.4.4L56.8 444.1zM-53.1 332.4l110 110 220.8-220.8L56.8.8l-110 110L57.7 221.6l-.4.4-110.4 110.4z"/><path class="st2" d="M145.8 444.1l-.4-.4L34.1 332.4l.4-.4L145 221.6 34.1 110.7l.4-.4L145.8-1l.4.4 222.1 222.1-.3.5-222.2 222.1zM35.9 332.4l110 110 220.8-220.8L145.8.8l-110 110 110.8 110.8-.4.4L35.9 332.4z"/><path class="st2" d="M234.9 444.1l-.4-.4-111.3-111.3.4-.4L234 221.6 123.2 110.7l.4-.4L234.9-1l.4.4 222.1 222.1-.4.5-222.1 222.1zm-110-111.7l110 110 220.8-220.8L234.9.8l-110 110 110.8 110.8-.4.4-110.4 110.4z"/><path class="st2" d="M323.9 444.1l-.4-.4-111.3-111.3.4-.4L323 221.6 212.2 110.7l.4-.4L323.9-1l.4.4 222.1 222.1-.4.5-222.1 222.1zM214 332.4l110 110 220.8-220.8L323.9.8l-110 110 110.8 110.8-.4.4L214 332.4z"/><path class="st2" d="M412.9 444.1l-.4-.4-111.3-111.3.4-.4L412 221.6 301.2 110.7l.4-.4L412.9-1l.4.4 222.1 222.1-.4.4-222.1 222.2zM303 332.4l110 110 220.8-220.8L412.9.8l-110 110 110.8 110.8-.4.4L303 332.4z"/><path class="st2" d="M502 444.1l-.4-.4-111.3-111.3.4-.4 110.4-110.4-110.8-110.9.4-.4L502-1l.4.4 222.1 222.1-.4.4L502 444.1zM392 332.4l110 110 220.8-220.8L502 .8l-110 110 110.8 110.8-.4.4L392 332.4z"/><path class="st2" d="M591 444.1l-.4-.4-111.3-111.3.4-.4 110.4-110.4-110.8-110.9.4-.4L591-1l.4.4 222.1 222.1-.4.4L591 444.1zM481.1 332.4l110 110 220.8-220.8L591 .8l-110 110 110.8 110.8-.4.4-110.3 110.4z"/><path class="st2" d="M680.1 444.1l-.4-.4-111.4-111.3.4-.4 110.4-110.4-110.8-110.9.4-.4L680.1-1l.4.4 222.1 222.1-.4.4-222.1 222.2zm-110-111.7l110 110 220.8-220.8L680.1.8l-110 110 110.8 110.8-.4.4-110.4 110.4z"/><path class="st2" d="M769.1 444.1l-.4-.4-111.3-111.3.4-.4 110.4-110.4-110.8-110.9.4-.4L769.1-1l.4.4 222.1 222.1-.4.4-222.1 222.2zm-110-111.7l110 110 220.8-220.8L769.1.8l-110 110L770 221.6l-.4.4-110.5 110.4z"/><path class="st2" d="M858.1 444.1l-.4-.4-111.3-111.3.4-.4 110.4-110.4-110.8-110.9.4-.4L858.1-1l.4.4 222.1 222.1-.4.4-222.1 222.2zM748.2 332.4l110 110L1079 221.6 858.1.8l-110 110L859 221.6l-.4.4-110.4 110.4z"/><path class="st2" d="M947.2 444.1l-.4-.4-111.4-111.3.4-.4 110.4-110.4-110.8-110.9.4-.4L947.2-1l.4.4 222.1 222.1-.4.4-222.1 222.2zm-110-111.7l110 110L1168 221.6 947.2.8l-110 110L948 221.6l-.4.4-110.4 110.4z"/><path class="st2" d="M1036.2 444.1l-.4-.4-111.3-111.3.4-.4 110.4-110.4-110.8-110.9.4-.4L1036.2-1l.4.4 222.1 222.1-.4.4-222.1 222.2zm-110-111.7l110 110L1257 221.6 1036.2.8l-110 110L1037 221.6l-.4.4-110.4 110.4z"/><path class="st2" d="M1125.2 444.1l-.4-.4-111.3-111.3.4-.4 110.4-110.4-110.8-110.8.4-.4L1125.2-1l.4.4 222.1 222.1-.4.4-222.1 222.2zm-109.9-111.7l110 110L1346 221.6 1125.2.8l-110 110L1126 221.6l-.4.4-110.3 110.4z"/><path class="st2" d="M1214.3 444.1l-.4-.4-111.3-111.3.4-.4 110.4-110.4-110.8-110.8.4-.4L1214.3-1l.4.4 222.1 222.1-.4.4-222.1 222.2zm-110-111.7l110 110L1435 221.6 1214.3.8l-110 110 110.8 110.8-.4.4-110.4 110.4z"/><path class="st2" d="M1303.3 444.1l-.4-.4-111.3-111.3.4-.4 110.4-110.4-110.8-110.8.4-.4L1303.3-1l.4.4 222.1 222.1-.4.4-222.1 222.2zm-110-111.7l110 110 220.8-220.8L1303.3.8l-110 110 110.8 110.8-.4.4-110.4 110.4z"/><path class="st2" d="M1392.3 444.1l-.4-.4-111.3-111.3.4-.4 110.4-110.4-110.8-110.8.4-.4L1392.3-1l.4.4 222.1 222.1-.4.4-222.1 222.2zm-109.9-111.7l110 110 220.8-220.8L1392.3.8l-110 110 110.8 110.8-.4.4-110.3 110.4z"/><path class="st2" d="M1481.4 444.1l-.4-.4-111.3-111.3.4-.4 110.4-110.4-110.8-110.8.4-.4L1481.4-1l.4.4 222.1 222.1-.4.4-222.1 222.2zm-110-111.7l110 110 220.8-220.8L1481.4.8l-110 110 110.8 110.8-.4.4-110.4 110.4z"/><path class="st2" d="M1570.4 444.1l-.4-.4-111.3-111.3.4-.4 110.4-110.4-110.8-110.8.4-.4L1570.4-1l.4.4 222.1 222.1-.4.4-222.1 222.2zm-110-111.7l110 110L1680.8 332l.4.4-.4-.4 110.4-110.4L1570.4.8l-110 110 110.8 110.8-.4.4-110.4 110.4z"/></g><g class="st1"><path class="st2" d="M-32.2 887.5l-.4-.4-111.3-111.3.4-.4L-33.1 665l-110.8-110.8.4-.4 111.3-111.3.4.4L190.3 665l-.4.4-222.1 222.1zm-110-111.8l110 110L78.2 775.3l.4.4-.4-.4 110.4-110.4-220.8-220.8-110 110 110.8 110.8-.4.4-110.4 110.4z"/><path class="st2" d="M56.8 887.5l-.4-.4-111.3-111.4.4-.4L55.9 664.9-54.9 554.1l.4-.4L56.8 442.3l.4.4 222.1 222.1-.4.4L56.8 887.5zM-53.1 775.7l110 110 220.8-220.8L56.8 444.1l-110 110L57.7 664.9l-.4.4-110.4 110.4z"/><path class="st2" d="M145.8 887.5l-.4-.4L34.1 775.7l.4-.4L145 664.9 34.1 554.1l.4-.4 111.3-111.3.4.4 222.1 222.1-.4.4-222.1 222.2zM35.9 775.7l110 110 220.8-220.8-220.9-220.8-110 110 110.8 110.8-.4.4L35.9 775.7z"/><path class="st2" d="M234.9 887.5l-.4-.4-111.3-111.4.4-.4L234 664.9 123.2 554.1l.4-.4 111.3-111.3.4.4 222.1 222.1-.4.4-222.1 222.2zm-110-111.8l110 110 220.8-220.8-220.8-220.8-110 110 110.8 110.8-.4.4-110.4 110.4z"/><path class="st2" d="M323.9 887.5l-.4-.4-111.3-111.4.4-.4L323 664.9 212.2 554.1l.4-.4 111.3-111.3.4.4 222.1 222.1-.4.4-222.1 222.2zM214 775.7l110 110 220.8-220.8-220.9-220.8-110 110 110.8 110.8-.4.4L214 775.7z"/><path class="st2" d="M412.9 887.5l-.4-.4-111.3-111.4.4-.4L412 664.9 301.2 554.1l.4-.4 111.3-111.3.4.4 222.1 222.1-.4.4-222.1 222.2zM303 775.7l110 110 220.8-220.8-220.9-220.8-110 110 110.8 110.8-.4.4L303 775.7z"/><path class="st2" d="M502 887.5l-.4-.4-111.3-111.4.4-.4 110.4-110.4-110.8-110.8.4-.4L502 442.3l.4.4 222.1 222.1-.4.4L502 887.5zM392 775.7l110 110 220.8-220.8L502 444.1l-110 110 110.8 110.8-.4.4L392 775.7z"/><path class="st2" d="M591 887.5l-.4-.4-111.3-111.4.4-.4 110.4-110.4-110.8-110.8.4-.4L591 442.3l.4.4 222.1 222.1-.4.4L591 887.5zM481.1 775.7l110 110 220.8-220.8L591 444.1l-110 110 110.8 110.8-.4.4-110.3 110.4z"/><path class="st2" d="M680.1 887.5l-.4-.4-111.4-111.4.4-.4 110.4-110.4-110.8-110.8.4-.4L680 442.4l.4.4 222.1 222.1-.4.4-222 222.2zm-110-111.8l110 110 220.8-220.8-220.8-220.8-110 110 110.8 110.8-.4.4-110.4 110.4z"/><path class="st2" d="M769.1 887.5l-.4-.4-111.3-111.4.4-.4 110.4-110.4-110.8-110.8.4-.4 111.3-111.3.4.4 222.1 222.1-.4.4-222.1 222.2zm-110-111.8l110 110 220.8-220.8-220.8-220.8-110 110L770 664.9l-.4.4-110.5 110.4z"/><path class="st2" d="M858.1 887.5l-.4-.4-111.3-111.4.4-.4 110.4-110.4-110.8-110.8.4-.4 111.3-111.3.4.4 222.1 222.1-.4.4-222.1 222.2zM748.2 775.7l110 110L1079 664.9 858.1 444.1l-110 110L859 664.9l-.4.4-110.4 110.4z"/><path class="st2" d="M947.2 887.5l-.4-.4-111.4-111.4.4-.4 110.4-110.4-110.8-110.8.4-.4 111.3-111.3.4.4 222.1 222.1-.4.4-222 222.2zm-110-111.8l110 110L1168 664.9 947.2 444.1l-110 110L948 664.9l-.4.4-110.4 110.4z"/><path class="st2" d="M1036.2 887.5l-.4-.4-111.3-111.4.4-.4 110.4-110.4-110.8-110.8.4-.4 111.3-111.3.4.4 222.1 222.1-.4.4-222.1 222.2zm-110-111.8l110 110L1257 664.9l-220.8-220.8-110 110L1037 664.9l-.4.4-110.4 110.4z"/><path class="st2" d="M1125.2 887.5l-.4-.4-111.3-111.3.4-.4L1124.3 665l-110.8-110.8.4-.4 111.3-111.3.4.4L1347.7 665l-.4.4-222.1 222.1zm-109.9-111.8l110 110L1346 664.9l-220.8-220.8-110 110L1126 664.9l-.4.4-110.3 110.4z"/><path class="st2" d="M1214.3 887.5l-.4-.4-111.3-111.3.4-.4L1213.4 665l-110.8-110.8.4-.4 111.3-111.3.4.4L1436.8 665l-.4.4-222.1 222.1zm-110-111.8l110 110L1435 664.9l-220.8-220.8-110 110L1215 664.9l-.4.4-110.3 110.4z"/><path class="st2" d="M1303.3 887.5l-.4-.4-111.3-111.3.4-.4L1302.4 665l-110.8-110.8.4-.4 111.3-111.3.4.4L1525.8 665l-.4.4-222.1 222.1zm-110-111.8l110 110 220.8-220.8-220.8-220.8-110 110 110.8 110.8-.4.4-110.4 110.4z"/><path class="st2" d="M1392.3 887.5l-.4-.4-111.3-111.3.4-.4L1391.4 665l-110.8-110.8.4-.4 111.3-111.3.4.4L1614.8 665l-.4.4-222.1 222.1zm-109.9-111.8l110 110 220.8-220.8-220.8-220.8-110 110 110.8 110.8-.4.4-110.4 110.4z"/><path class="st2" d="M1481.4 887.5l-.4-.4-111.3-111.3.4-.4L1480.5 665l-110.8-110.8.4-.4 111.3-111.3.4.4L1703.9 665l-.4.4-222.1 222.1zm-110-111.8l110 110 220.8-220.8-220.8-220.8-110 110 110.8 110.8-.4.4-110.4 110.4z"/><path class="st2" d="M1570.4 887.5l-.4-.4-111.3-111.3.4-.4L1569.5 665l-110.8-110.8.4-.4 111.3-111.3.4.4L1792.9 665l-.4.4-222.1 222.1zm-110-111.8l110 110 220.8-220.8-220.8-220.8-110 110 110.8 110.8-.4.4-110.4 110.4z"/></g></g></svg>