<svg version="1.1" id="Layer_1" xmlns="http://www.w3.org/2000/svg" xmlns:xlink="http://www.w3.org/1999/xlink" x="0" y="0" viewBox="0 0 1700 606" xml:space="preserve"><style type="text/css">.st0{opacity:.7;clip-path:url(#SVGID_2_)}.st1{fill:#07448c}</style><defs><path id="SVGID_1_" d="M0 0h1700v606H0z"/></defs><use xlink:href="#SVGID_1_" overflow="visible" fill="#02264f"/><clipPath id="SVGID_2_"><use xlink:href="#SVGID_1_" overflow="visible"/></clipPath><g class="st0"><path class="st1" d="M1262.5 196.9L1051.2-14.4l106-106 105.3 105.3 105.3-105.3 106 106-211.3 211.3zm-105-106.4l104.9 104.9 209.9-209.9L1367.8-119 1262.5-13.7 1157.2-119 1052.6-14.4l104.9 104.9z"/><path class="st1" d="M1367.8 302.2l-105.3-105.3-105.3 105.3-106-106 211.3-211.3 211.3 211.3-106 106zm-105.3-106.8l105.3 105.3 104.6-104.6-209.9-209.8-209.9 209.9 104.6 104.6 105.3-105.4z"/><path class="st1" d="M1262.5 304.8L1051.2 93.6l106-106 105.3 105.3 105.3-105.3 106 106-211.3 211.2zm-105-106.3l104.9 104.9 209.9-209.9L1367.8-11 1262.5 94.3 1157.2-11 1052.6 93.6l104.9 104.9z"/><path class="st1" d="M1367.8 410.1l-105.3-105.3-105.3 105.3-106-106 211.3-211.3 211.3 211.3-106 106zm-105.3-106.7l105.3 105.3 104.6-104.6-209.9-209.8-209.9 209.9 104.6 104.6 105.3-105.4z"/><path class="st1" d="M1262.5 618l-211.3-211.3 106-106L1262.5 406l105.3-105.3 106 106L1262.5 618zm-105-106.3l104.9 104.9 209.9-209.9-104.6-104.6-105.3 105.3-105.3-105.3-104.6 104.6 105 105z"/><path class="st1" d="M1367.8 723.3L1262.5 618l-105.3 105.3-106-106L1262.5 406l211.3 211.3-106 106zm-105.3-106.7l105.3 105.3 104.6-104.6-209.9-209.9-209.9 209.9 104.6 104.6 105.3-105.3z"/><path class="st1" d="M946.6 723.3L841.3 618 736 723.3l-106-106L841.3 406l211.3 211.3-106 106zM841.3 616.6l105.3 105.3 104.6-104.6-209.9-209.9-104.9 105-.4-.4.4.4-105 104.9L736 721.9l105.3-105.3z"/><path class="st1" d="M841.3 618L630 406.7l106-106L841.3 406l105.3-105.3 106 106L841.3 618zM631.4 406.7l209.9 209.9 104.9-104.9.4.4-.4-.4 104.9-104.9-104.5-104.6-105.3 105.2L736 302.2 631.4 406.7z"/><path class="st1" d="M946.6 620.7L841.3 515.4 736 620.7l-106-106 211.3-211.3 211.3 211.3-106 106zM841.3 514l105.3 105.3 104.6-104.6-209.9-209.9-104.9 105-.4-.4.4.4-105 104.9L736 619.3 841.3 514z"/><path class="st1" d="M841.3 515.4L630 304.1l106-106 105.3 105.3 105.3-105.3 106 106-211.3 211.3zM631.4 304.1L841.3 514l104.9-104.9.4.4-.4-.4 104.9-104.9-104.5-104.6-105.3 105.2L736 199.6 631.4 304.1z"/><path class="st1" d="M946.6 302.2L841.3 196.9 736 302.2l-106-106L841.3-15.1l211.3 211.3-106 106zM841.3 195.4l105.3 105.3 104.6-104.6L841.3-13.7 736.4 91.2l-.4-.4.4.4-105 105L736 300.7l105.3-105.3z"/><path class="st1" d="M841.3 196.9L630-14.4l106-106L841.3-15.1l105.3-105.3 106 106-211.3 211.3zM631.4-14.4l209.9 209.9 105-105 .4.4-.4-.4 104.9-104.9L946.6-119 841.3-13.7 736-119 631.4-14.4z"/><path class="st1" d="M420.2 196.9L208.9-14.4l106-106L420.2-15.1l105.3-105.3 106 106-211.3 211.3zm-105-106.4l104.9 104.9L630-14.4 525.5-119 420.2-13.7 314.9-119 210.3-14.4 315.2 90.5z"/><path class="st1" d="M525.5 302.2L420.2 196.9 314.9 302.2l-106-106L420.2-15.1l211.3 211.3-106 106zM420.2 195.4l105.3 105.3L630 196.2 420.2-13.7 210.3 196.2l104.6 104.6 105.3-105.4z"/><path class="st1" d="M420.2 304.8L208.9 93.6l106-106L420.2 92.9 525.5-12.4l106 106-211.3 211.2zm-105-106.3l104.9 104.9L630 93.6 525.5-11 420.2 94.3 314.9-11 210.3 93.6l104.9 104.9z"/><path class="st1" d="M525.5 410.1L420.2 304.8 314.9 410.1l-106-106L420.2 92.9l211.3 211.3-106 105.9zM420.2 303.4l105.3 105.3L630 304.1 420.2 94.3 210.3 304.1l104.6 104.6 105.3-105.3z"/><path class="st1" d="M420.2 618L208.9 406.7l106-106L420.2 406l105.3-105.3 106 106L420.2 618zm-105-106.3l104.9 104.9L630 406.7 525.5 302.2 420.2 407.4 314.9 302.2 210.3 406.7l104.9 105z"/><path class="st1" d="M525.5 723.3L420.2 618 314.9 723.3l-106-106L420.2 406l211.3 211.3-106 106zM420.2 616.6l105.3 105.3L630 617.3 420.2 407.4 210.3 617.3l104.6 104.6 105.3-105.3z"/><path class="st1" d="M104.3 723.3L-1 618l-105.3 105.3-106-106L-1 406l211.3 211.3-106 106zM-1 616.6l105.3 105.3 104.6-104.6L-1 407.4l-209.9 209.9 104.6 104.6L-1 616.6z"/><path class="st1" d="M-1 618l-211.3-211.3 106-106L-1 406l105.3-105.3 106 106L-1 618zm-209.9-211.3L-1 616.6l105-104.9.4.4-.4-.4 104.9-104.9-104.6-104.6L-1 407.4l-105.3-105.3-104.6 104.6z"/><path class="st1" d="M104.3 620.7L-1 515.4l-105.3 105.3-106-106L-1 303.4l211.3 211.3-106 106zM-1 514l105.3 105.3 104.6-104.6L-1 304.8l-104.9 104.9-.4-.4.4.4-104.9 104.9 104.6 104.6L-1 514z"/><path class="st1" d="M-1 515.4l-211.3-211.3 106-106L-1 303.4l105.3-105.3 106 106L-1 515.4zm-209.9-211.3L-1 514l105-104.9.4.4-.4-.4 104.9-104.9-104.6-104.6L-1 304.8l-105.3-105.3-104.6 104.6z"/><path class="st1" d="M104.3 302.2L-1 196.9l-105.3 105.3-106-106L-1-15.1l211.3 211.3-106 106zM-1 195.4l105.3 105.3 104.6-104.6L-1-13.7-105.9 91.2l-.4-.4.4.4-104.9 104.9 104.6 104.6L-1 195.4z"/><path class="st1" d="M-1 196.9L-212.3-14.4l106-106L-1-15.1l105.3-105.3 106 106L-1 196.9zM-210.9-14.4L-1 195.4 104 90.5l.4.4-.4-.4L208.9-14.4 104.3-119-1-13.7-106.3-119-210.9-14.4z"/></g><g class="st0"><path class="st1" d="M2947.1 196.9L2735.8-14.4l106-106 105.3 105.3 105.3-105.3 106 106-211.3 211.3zm-105-106.4L2947 195.4l209.9-209.9L3052.4-119 2947.1-13.7 2841.8-119 2737.2-14.4l104.9 104.9z"/><path class="st1" d="M3052.4 302.2l-105.3-105.3-105.3 105.3-106-106 211.3-211.3 211.3 211.3-106 106zm-315.2-106l104.6 104.6 105.3-105.3 105.3 105.3L3157 196.2 2947.1-13.7l-209.9 209.9z"/><path class="st1" d="M2947.1 304.8L2735.8 93.6l106-106 105.3 105.3 105.3-105.3 106 106-211.3 211.2zm-105-106.3L2947 303.4l209.9-209.9L3052.4-11 2947.1 94.3 2841.8-11 2737.2 93.6l104.9 104.9z"/><path class="st1" d="M3052.4 410.1l-105.3-105.3-105.3 105.3-106-106 211.3-211.3 211.3 211.3-106 106zm-315.2-106l104.6 104.6 105.3-105.3 105.3 105.3L3157 304.1 2947.1 94.3l-209.9 209.8z"/><path class="st1" d="M2947.1 618l-211.3-211.3 106-106L2947.1 406l105.3-105.3 106 106L2947.1 618zm-105-106.3L2947 616.6l209.9-209.9-104.6-104.6L2947 407.4l-105.3-105.3-104.6 104.6 105 105z"/><path class="st1" d="M3052.4 723.3L2947.1 618l-105.3 105.3-106-106L2947.1 406l211.3 211.3-106 106zm-315.2-106l104.6 104.6 105.3-105.3 105.3 105.3L3157 617.3l-209.9-209.9-209.9 209.9z"/><path class="st1" d="M2631.2 723.3L2525.9 618l-105.3 105.3-106-106L2525.9 406l211.3 211.3-106 106zm-105.3-106.7l105.3 105.3 104.6-104.6-209.9-209.9L2316 617.3l104.6 104.6 105.3-105.3z"/><path class="st1" d="M2525.9 618l-211.3-211.3 106-106L2525.9 406l105.3-105.3 106 106L2525.9 618zm-209.8-211.3L2526 616.6l104.9-104.9.4.4-.4-.4 104.9-104.9-104.6-104.6-105.3 105.3-105.3-105.3-104.5 104.5z"/><path class="st1" d="M2631.2 620.7l-105.3-105.3-105.3 105.3-106-106 211.3-211.3 211.3 211.3-106 106zM2525.9 514l105.3 105.3 104.6-104.6-209.9-209.9-104.9 105-.4-.4.4.4-104.9 104.9 104.6 104.6L2525.9 514z"/><path class="st1" d="M2525.9 515.4l-211.3-211.3 106-106 105.3 105.3 105.3-105.3 106 106-211.3 211.3zm-209.8-211.3L2525.9 514l104.9-104.9.4.4-.4-.4 104.9-104.9-104.6-104.6-105.3 105.3-105.3-105.3-104.4 104.5z"/><path class="st1" d="M2631.2 302.2l-105.3-105.3-105.3 105.3-106-106 211.3-211.3 211.3 211.3-106 106zm-105.3-106.8l105.3 105.3 104.6-104.6-209.9-209.8L2421 91.2l-.4-.4.4.4-104.9 104.9 104.6 104.6 105.2-105.3z"/><path class="st1" d="M2525.9 196.9L2314.6-14.4l106-106 105.3 105.3 105.3-105.3 106 106-211.3 211.3zM2316.1-14.4L2526 195.5l104.9-104.9.4.4-.4-.4 104.9-104.9L2631.2-119 2525.9-13.7 2420.6-119 2316.1-14.4z"/><path class="st1" d="M2104.8 196.9L1893.5-14.4l106-106 105.3 105.3 105.3-105.3 106 106-211.3 211.3zm-105-106.4l104.9 104.9 209.9-209.9L2210.1-119 2104.8-13.7 1999.5-119 1894.9-14.4l104.9 104.9z"/><path class="st1" d="M2210.1 302.2l-105.3-105.3-105.3 105.3-106-106 211.3-211.3 211.3 211.3-106 106zm-105.3-106.8l105.3 105.3 104.6-104.6-209.9-209.8-209.9 209.9 104.6 104.6 105.3-105.4z"/><path class="st1" d="M2104.8 304.8L1893.5 93.6l106-106 105.3 105.3 105.3-105.3 106 106-211.3 211.2zm-105-106.3l104.9 104.9 209.9-209.9L2210.1-11 2104.8 94.3 1999.5-11 1894.9 93.6l104.9 104.9z"/><path class="st1" d="M2210.1 410.1l-105.3-105.3-105.3 105.3-106-106 211.3-211.3 211.3 211.3-106 106zm-105.3-106.7l105.3 105.3 104.6-104.6-209.9-209.8-209.9 209.9 104.6 104.6 105.3-105.4z"/><path class="st1" d="M2104.8 618l-211.3-211.3 106-106L2104.8 406l105.3-105.3 106 106L2104.8 618zm-105-106.3l104.9 104.9 209.9-209.9L2210 302.1l-105.3 105.3-105.3-105.3-104.6 104.6 105 105z"/><path class="st1" d="M2210.1 723.3L2104.8 618l-105.3 105.3-106-106L2104.8 406l211.3 211.3-106 106zm-105.3-106.7l105.3 105.3 104.6-104.6-209.9-209.9-209.9 209.9 104.6 104.6 105.3-105.3z"/><path class="st1" d="M1788.9 723.3L1683.6 618l-105.3 105.3-106-106L1683.6 406l211.3 211.3-106 106zm-315.2-106l104.6 104.6 105.3-105.3 105.3 105.3 104.6-104.6-209.9-209.9-209.9 209.9z"/><path class="st1" d="M1683.6 618l-211.3-211.3 106-106L1683.6 406l105.3-105.3 106 106L1683.6 618zm-209.9-211.3l209.9 209.9 104.9-104.9.4.4-.4-.4 104.9-104.9-104.6-104.6-105.3 105.3-105.3-105.3-104.5 104.5z"/><path class="st1" d="M1788.9 620.7l-105.3-105.3-105.3 105.3-106-106 211.3-211.3 211.3 211.3-106 106zm-315.2-106l104.6 104.6L1683.6 514l105.3 105.3 104.6-104.6-209.9-209.9-104.9 104.9-.4-.4.4.4-105 105z"/><path class="st1" d="M1683.6 515.4l-211.3-211.3 106-106 105.3 105.3 105.3-105.3 106 106-211.3 211.3zm-209.9-211.3L1683.6 514l104.9-104.9.4.4-.4-.4 104.9-104.9-104.6-104.6-105.3 105.3-105.3-105.3-104.5 104.5z"/><path class="st1" d="M1788.9 302.2l-105.3-105.3-105.3 105.3-106-106 211.3-211.3 211.3 211.3-106 106zm-315.2-106l104.6 104.6 105.3-105.3 105.3 105.3 104.6-104.6-209.9-209.9-104.9 104.9-.4-.4.4.4-105 105z"/><path class="st1" d="M1683.6 196.9L1472.3-14.4l106-106 105.3 105.3 105.3-105.3 106 106-211.3 211.3zM1473.7-14.4l209.9 209.9 104.9-104.9.4.4-.4-.4 104.9-104.9L1788.9-119 1683.6-13.7 1578.3-119 1473.7-14.4z"/></g></svg>