<svg version="1.1" id="Layer_1" xmlns="http://www.w3.org/2000/svg" xmlns:xlink="http://www.w3.org/1999/xlink" x="0" y="0" viewBox="0 0 1700 606" xml:space="preserve"><style type="text/css">.st0{opacity:.7;clip-path:url(#SVGID_2_)}.st1{opacity:.75}.st2{fill:#07448c}</style><defs><path id="SVGID_1_" d="M0 0h1700v606H0z"/></defs><use xlink:href="#SVGID_1_" overflow="visible" fill="#03264f"/><clipPath id="SVGID_2_"><use xlink:href="#SVGID_1_" overflow="visible"/></clipPath><g class="st0"><g class="st1"><path class="st2" d="M210.2-16.5l-.4-.4-213-213 .4-.4L104-337.2l.4.4L210.2-231l106.3-106.3.4.4L423.7-230l-.4.4L210.2-16.5zM-1.4-230L210.2-18.3 316-124.1l.4.4-.4-.4L421.9-230 316.5-335.4 210.2-229.1l-.4-.4L104-335.4-1.4-230z"/></g><g class="st1"><path class="st2" d="M316.5 89.7l-.4-.4L210.2-16.5 104 89.7l-.4-.4L-3.2-17.4l.4-.4 213-213 .4.4 213 213-.4.4L316.5 89.7zm-106.3-108l.4.4L316.5 88 421.9-17.4 210.2-229.1 104.4-123.3l-.4-.4.4.4L-1.4-17.4 104 88 210.2-18.3z"/></g><g class="st1"><path class="st2" d="M210.2 92.5l-.4-.4-213-213 .4-.4L104-228.2l.4.4L210.2-122l106.3-106.3.4.4L423.7-121l-.4.4L210.2 92.5zM-1.4-121L210.2 90.7 316.1-15.2l.4.4-.4-.4L421.9-121 316.5-226.4 210.2-120.1l-.4-.4L104-226.4-1.4-121z"/></g><g class="st1"><path class="st2" d="M316.5 198.7l-.4-.4L210.2 92.5 104 198.7l-.4-.4L-3.2 91.6l.4-.4 213-213 .4.4 213 213-.4.4-106.7 106.7zm-106.3-108l.4.4L316.5 197 421.9 91.6 210.2-120.1 104.4-14.3l-.4-.4.4.4L-1.4 91.6 104 197 210.2 90.7z"/></g><g class="st1"><path class="st2" d="M210.2 408.6l-.4-.4-213-213 .4-.4L104 88l.4.4 105.8 105.8L316.5 88l.4.4 106.7 106.7-.4.4-213 213.1zM-1.4 195.1l211.7 211.7L316.1 301l.4.4-.4-.4 105.8-105.8L316.5 89.7 210.2 196l-.4-.4L104 89.7-1.4 195.1z"/></g><g class="st1"><path class="st2" d="M316.5 514.9l-.4-.4-105.9-105.9L104 514.9l-.4-.4L-3.2 407.7l.4-.4 213-213 .4.4 213 213-.4.4-106.7 106.8zM210.2 406.8l.4.4L316.4 513l105.4-105.4L210.2 196 104.4 301.9l-.4-.4.4.4L-1.4 407.7 104 513.1l106.2-106.3z"/></g><g class="st1"><path class="st2" d="M741.6 514.9l-.4-.4-105.8-105.9-106.3 106.3-.4-.4-106.8-106.8.4-.4 213-213 .4.4 213 213-.4.4-106.7 106.8zM635.4 406.8l.4.4L741.6 513 847 407.7 635.4 196 423.7 407.7l105.4 105.4 106.3-106.3z"/></g><g class="st1"><path class="st2" d="M635.4 408.6l-.4-.4-213-213 .4-.4L529.1 88l.4.4 105.8 105.8L741.6 88l.4.4 106.7 106.7-.4.4-212.9 213.1zM529.5 301l105.8 105.8L847 195.1 741.6 89.7 635.4 196l-.4-.4L529.1 89.7 423.7 195.1 529.5 301z"/></g><g class="st1"><path class="st2" d="M741.6 411.3l-.4-.4L635.4 305 529.1 411.3l-.4-.4-106.8-106.8.4-.4 213-213 .4.4 213 213-.4.4-106.7 106.8zM635.4 303.2l.4.4 105.8 105.8L847 304.1 635.4 92.4 423.7 304.1l105.4 105.4 106.3-106.3z"/></g><g class="st1"><path class="st2" d="M635.4 305l-.4-.4-213-213 .4-.4L529.1-15.6l.4.4L635.4 90.7 741.6-15.6l.4.4L848.8 91.6l-.4.4-213 213zM529.5 197.4l105.8 105.8L847 91.6 741.6-13.8 635.4 92.4l-.4-.4L529.1-13.8 423.7 91.6l105.8 105.8z"/></g><g class="st1"><path class="st2" d="M741.6 89.7l-.4-.4L635.4-16.5 529.1 89.7l-.4-.4L421.9-17.4l.4-.4 213-213 .4.4 213 213-.4.4L741.6 89.7zm-106.2-108l.4.4L741.6 88 847-17.4 635.4-229.1 423.7-17.4 529.1 88 635.4-18.3z"/></g><g class="st1"><path class="st2" d="M635.4-16.5l-.4-.4-213-213 .4-.4L529.1-337l.4.4 105.8 105.8 106.3-106.3.4.4L848.8-230l-.4.4-213 213.1zM529.5-124.2L635.4-18.3 847-230 741.6-335.4 635.4-229.1l-.4-.4-105.9-105.9L423.7-230l105.8 105.8z"/></g><g class="st1"><path class="st2" d="M1060.5-16.5l-.5-.5-213-213 .4-.4 106.7-106.7.4.4 105.8 105.8 106.3-106.3.4.4L1273.9-230l-.4.4-213 213.1zM848.8-230l211.7 211.7 105.8-105.8.4.4-.4-.4L1272.2-230l-105.4-105.4-106.3 106.3-.4-.4-105.9-105.9L848.8-230z"/></g><g class="st1"><path class="st2" d="M1166.8 89.7l-.4-.4-105.9-105.8L954.2 89.7l-.4-.4L847-17.4l.4-.4 213-213 .4.4 213 213-.4.4-106.6 106.7zm-318-107.1L954.2 88l106.3-106.3.4.4L1166.8 88l105.4-105.4-211.7-211.7L848.8-17.4z"/></g><g class="st1"><path class="st2" d="M1060.5 92.5l-.5-.5-213-213 .4-.4 106.7-106.7.4.4 105.8 105.8 106.3-106.3.4.4L1273.9-121l-.4.4-213 213.1zM848.8-121l211.7 211.7 105.8-105.8.4.4-.4-.4L1272.2-121l-105.4-105.4-106.3 106.3-.4-.4-105.9-105.9L848.8-121z"/></g><g class="st1"><path class="st2" d="M1166.8 198.7l-.4-.4-105.9-105.8-106.3 106.2-.4-.4L847 91.6l.4-.4 213-213 .4.4 213 213-.4.4-106.6 106.7zm-318-107.1L954.2 197l106.3-106.3.4.4L1166.8 197l105.4-105.4-211.7-211.7L848.8 91.6z"/></g><g class="st1"><path class="st2" d="M1060.5 408.6l-.4-.4-213-213 .4-.4L954.2 88l.4.4 105.8 105.8L1166.8 88l.4.4 106.7 106.7-.4.4-213 213.1zM848.8 195.1l211.7 211.7L1166.3 301l.4.4-.4-.4 105.8-105.8-105.3-105.5L1060.5 196l-.4-.4L954.2 89.7 848.8 195.1z"/></g><g class="st1"><path class="st2" d="M1166.8 514.9l-.4-.4-105.8-105.8-106.4 106.2-.4-.4L847 407.7l.4-.4 213-213 .4.4 213 213-.4.4-106.6 106.8zm-318-107.2l105.4 105.4 106.3-106.3.4.4L1166.7 513l105.4-105.4L1060.5 196 848.8 407.7z"/></g><g class="st1"><path class="st2" d="M1591.9 514.9l-.4-.4-105.8-105.8L1379.4 515l-.4-.4-106.7-106.7.4-.4 213-213 .4.4 213 213-.4.4-106.8 106.6zm-106.3-108.1l.4.4L1591.8 513l105.4-105.4L1485.6 196l-211.7 211.7 105.4 105.4 106.3-106.3z"/></g><g class="st1"><path class="st2" d="M1485.6 408.6l-.4-.4-213-213 .4-.4L1379.3 88l.4.4 105.8 105.8L1591.9 88l.4.4L1699 195.1l-.4.4-213 213.1zM1379.8 301l105.8 105.8 211.7-211.7-105.4-105.4L1485.6 196l-.4-.4-105.9-105.9-105.4 105.4L1379.8 301z"/></g><g class="st1"><path class="st2" d="M1591.9 411.3l-.4-.4L1485.6 305l-106.3 106.3-.4-.4-106.7-106.7.4-.4 213-213 .4.4 213 213-.4.4-106.7 106.7zm-106.3-108.1l.4.4 105.8 105.8L1697.2 304 1485.6 92.4l-211.7 211.7 105.4 105.4 106.3-106.3z"/></g><g class="st1"><path class="st2" d="M1485.6 305l-.4-.4-213-213 .4-.4 106.7-106.7.4.4 105.8 105.8 106.3-106.3.4.4L1699 91.6l-.4.4-213 213zm-105.8-107.6l105.8 105.8 211.7-211.7-105.4-105.3-106.3 106.2-.4-.4-105.9-105.8-105.4 105.4 105.9 105.8z"/></g><g class="st1"><path class="st2" d="M1591.9 89.7l-.4-.4-105.9-105.8-106.3 106.2-.4-.4-106.7-106.7.4-.4 213-213 .4.4 213 213-.4.4-106.7 106.7zm-106.3-108l.4.4L1591.9 88l105.4-105.4-211.7-211.7-211.7 211.7L1379.3 88l106.3-106.3z"/></g><g class="st1"><path class="st2" d="M1485.6-16.5l-.4-.4-213-213 .4-.4L1379.3-337l.4.4 105.8 105.8 106.3-106.3.4.4L1699-230l-.4.4-213 213.1zm-105.8-107.7l105.8 105.8L1697.3-230l-105.4-105.4-106.3 106.3-.4-.4-105.8-105.8L1273.9-230l105.9 105.8z"/></g></g><g class="st0"><g class="st1"><path class="st2" d="M210.2 730.5l-.4-.4-213-213 .4-.4L104 409.9l.4.4 105.8 105.8 106.3-106.3.4.4 106.7 106.7-.4.4-213 213.2zM-1.4 517.1l211.7 211.7L316.1 623l.4.4-.4-.4 105.8-105.8-105.4-105.5L210.2 518l-.4-.4L104 411.7-1.4 517.1z"/></g><g class="st1"><path class="st2" d="M316.5 836.8l-.4-.4-105.9-105.9L104 836.8l-.4-.4L-3.2 729.6l.4-.4 213-213 .4.4 213 213-.4.4-106.7 106.8zm-106.3-108l.4.4L316.5 835l105.4-105.4L210.2 518 104.4 623.8l-.4-.4.4.4L-1.4 729.6 104 835l106.2-106.2z"/></g><g class="st1"><path class="st2" d="M210.2 839.5l-.4-.4-213-213 .4-.4L104 518.9l.4.4 105.8 105.8 106.3-106.3.4.4 106.7 106.7-.4.4-213 213.2zM-1.4 626.1l211.7 211.7L316.1 732l.4.4-.4-.4 105.8-105.8-105.4-105.5L210.2 627l-.4-.4L104 520.7-1.4 626.1z"/></g><g class="st1"><path class="st2" d="M316.5 945.8l-.4-.4-105.9-105.9L104 945.8l-.4-.4L-3.2 838.6l.4-.4 213-213 .4.4 213 213-.4.4-106.7 106.8zM210.2 837.7l.4.4L316.5 944l105.4-105.4L210.2 627 104.4 732.8l-.4-.4.4.4L-1.4 838.6 104 944l106.2-106.3z"/></g><g class="st1"><path class="st2" d="M210.2 1155.6l-.4-.4-213-213 .4-.4L104 835l.4.4 105.8 105.8L316.5 835l.4.4 106.7 106.7-.4.4-213 213.1zM-1.4 942.2l211.7 211.7L316.1 1048l.4.4-.4-.4 105.8-105.8-105.4-105.4-106.3 106.3-.4-.4L104 836.8-1.4 942.2z"/></g><g class="st1"><path class="st2" d="M316.5 1261.9l-.4-.4-105.8-105.8L104 1261.9l-.4-.4-106.8-106.7.4-.4 213-213 .4.4 213 213-.4.4-106.7 106.7zm-106.3-108l.4.4 105.8 105.8 105.4-105.4-211.6-211.6-105.8 105.8-.4-.4.4.4-105.8 105.9L104 1260.2l106.2-106.3z"/></g><g class="st1"><path class="st2" d="M741.6 1261.9l-.4-.4-105.8-105.8L529.1 1262l-.4-.4L422 1154.9l.4-.4 213-213 .4.4 213 213-.4.4-106.8 106.6zm-106.2-108l.4.4 105.8 105.8L847 1154.8 635.4 943.1l-211.7 211.7 105.4 105.4 106.3-106.3z"/></g><g class="st1"><path class="st2" d="M635.4 1155.6l-.4-.4-213-213 .4-.4L529.1 835l.4.4 105.8 105.8L741.6 835l.4.4 106.7 106.7-.4.4-212.9 213.1zM529.5 1048l105.8 105.8L847 942.2 741.6 836.8 635.4 943.1l-.4-.4-105.9-105.9-105.4 105.4L529.5 1048z"/></g><g class="st1"><path class="st2" d="M741.6 1158.4l-.4-.4-105.8-105.8-106.3 106.3-.4-.4L422 1051.4l.4-.4 213-213 .4.4 213 213-.4.4-106.8 106.6zm-106.2-108.1l.4.4 105.8 105.8L847 1051.2 635.4 839.5l-211.7 211.7 105.4 105.4 106.3-106.3z"/></g><g class="st1"><path class="st2" d="M635.4 1052.1l-.4-.4-213-213 .4-.4 106.7-106.7.4.4 105.8 105.8 106.3-106.3.4.4 106.7 106.7-.4.4-212.9 213.1zM529.5 944.5l105.8 105.8L847 838.6 741.6 733.2 635.4 839.5l-.4-.4-105.9-105.9-105.4 105.4 105.8 105.9z"/></g><g class="st1"><path class="st2" d="M741.6 836.8l-.4-.4-105.8-105.9-106.3 106.3-.4-.4-106.8-106.8.4-.4 213-213 .4.4 213 213-.4.4-106.7 106.8zm-106.2-108l.4.4L741.6 835 847 729.6 635.4 518 423.7 729.6 529.1 835l106.3-106.2z"/></g><g class="st1"><path class="st2" d="M635.4 730.5l-.4-.4-213-213 .4-.4L529.1 410l.4.4 105.8 105.8 106.3-106.3.4.4L848.7 517l-.4.4-212.9 213.1zM529.5 622.9l105.8 105.8L847 517.1 741.6 411.7 635.4 518l-.4-.4-105.9-105.9-105.4 105.4 105.8 105.8z"/></g><g class="st1"><path class="st2" d="M1060.5 730.5l-.4-.4-213-213 .4-.4L954.2 410l.4.4 105.8 105.8 106.3-106.3.4.4L1273.8 517l-.4.4-212.9 213.1zM848.8 517.1l211.7 211.7L1166.3 623l.4.4-.4-.4 105.8-105.8-105.4-105.4L1060.5 518l-.4-.4-105.9-105.9-105.4 105.4z"/></g><g class="st1"><path class="st2" d="M1166.8 836.8l-.4-.4-105.8-105.8-106.4 106.2-.4-.4L847 729.6l.4-.4 213-213 .4.4 213 213-.4.4-106.6 106.8zm-318-107.2L954.2 835l106.3-106.3.4.4L1166.8 835l105.4-105.4L1060.5 518 848.8 729.6z"/></g><g class="st1"><path class="st2" d="M1060.5 839.5l-.4-.4-213-213 .4-.4L954.2 519l.4.4 105.8 105.8 106.3-106.3.4.4L1273.8 626l-.4.4-212.9 213.1zM848.8 626.1l211.7 211.7L1166.3 732l.4.4-.4-.4 105.8-105.8-105.4-105.4L1060.5 627l-.4-.4-105.9-105.9-105.4 105.4z"/></g><g class="st1"><path class="st2" d="M1166.8 945.8l-.4-.4-105.8-105.8-106.4 106.2-.4-.4L847 838.6l.4-.4 213-213 .4.4 213 213-.4.4-106.6 106.8zm-318-107.2L954.2 944l106.3-106.3.4.4L1166.8 944l105.4-105.4L1060.5 627 848.8 838.6z"/></g><g class="st1"><path class="st2" d="M1060.5 1155.6l-.4-.4-213-213 .4-.4L954.2 835l.4.4 105.8 105.8L1166.8 835l.4.4 106.7 106.7-.4.4-213 213.1zM848.8 942.2l211.7 211.7 105.8-105.8.4.4-.4-.4 105.8-105.8-105.4-105.4-106.3 106.3-.4-.4-105.8-106-105.4 105.4z"/></g><g class="st1"><path class="st2" d="M1166.8 1261.9l-.4-.4-105.8-105.8L954.3 1262l-.4-.4L847 1154.8l.4-.4 213-213 .4.4 213 213-.4.4-106.6 106.7zm-318-107.1l105.4 105.4 106.3-106.3.4.4 105.8 105.8 105.4-105.4L1060.4 943l-211.6 211.8z"/></g><g class="st1"><path class="st2" d="M1591.9 1261.9l-.4-.4-105.8-105.8-106.3 106.3-.4-.4-106.7-106.7.4-.4 213-213 .4.4 213 213-.4.4-106.8 106.6zm-106.3-108l.4.4 105.8 105.8 105.4-105.4L1485.5 943l-211.7 211.7 105.4 105.4 106.4-106.2z"/></g><g class="st1"><path class="st2" d="M1485.6 1155.6l-.4-.4-213-213 .4-.4L1379.3 835l.4.4 105.8 105.8L1591.9 835l.4.4L1699 942.2l-.4.4-213 213zM1379.8 1048l105.8 105.8 211.7-211.7-105.4-105.4L1485.6 943l-.4-.4-105.8-105.8L1274 942.2l105.8 105.8z"/></g><g class="st1"><path class="st2" d="M1591.9 1158.4l-.4-.4-105.8-105.8-106.3 106.3-.4-.4-106.7-106.7.4-.4 213-213 .4.4 213 213-.4.4-106.8 106.6zm-106.3-108.1l.4.4 105.8 105.8 105.4-105.4-211.7-211.7-211.7 211.7 105.4 105.4 106.4-106.2z"/></g><g class="st1"><path class="st2" d="M1485.6 1052.1l-.4-.4-213-213 .4-.4 106.7-106.7.4.4 105.8 105.8 106.3-106.3.4.4L1699 838.6l-.4.4-213 213.1zm-105.8-107.6l105.8 105.8 211.7-211.7-105.4-105.4-106.3 106.3-.4-.4-105.8-105.8L1274 838.7l105.8 105.8z"/></g><g class="st1"><path class="st2" d="M1591.9 836.8l-.4-.4-105.8-105.8-106.3 106.3-.4-.4-106.7-106.7.4-.4 213-213 .4.4 213 213-.4.4-106.8 106.6zm-106.3-108l.4.4L1591.9 835l105.4-105.4L1485.6 518l-211.7 211.7L1379.3 835l106.3-106.2z"/></g><g class="st1"><path class="st2" d="M1485.6 730.5l-.4-.4-213-213 .4-.4L1379.3 410l.4.4 105.8 105.8 106.3-106.3.4.4L1699 517.1l-.4.4-213 213zm-105.8-107.6l105.8 105.8L1697.3 517l-105.4-105.4L1485.6 518l-.4-.4-105.8-105.8L1274 517.2l105.8 105.7z"/></g></g><use xlink:href="#SVGID_1_" overflow="visible" fill="none" stroke="#07448c" stroke-width="1.25" stroke-miterlimit="10"/></svg>