<svg version="1.1" id="Layer_1" xmlns="http://www.w3.org/2000/svg" xmlns:xlink="http://www.w3.org/1999/xlink" x="0" y="0" viewBox="0 0 1226.8 766" xml:space="preserve"><style type="text/css">.st0{clip-path:url(#SVGID_2_)}.st1{opacity:.7}.st2{fill:none;stroke:#07448c;stroke-miterlimit:10}</style><defs><path id="SVGID_1_" d="M0 0h1226.8v766H0z"/></defs><use xlink:href="#SVGID_1_" overflow="visible" fill="#03264f"/><clipPath id="SVGID_2_"><use xlink:href="#SVGID_1_" overflow="visible"/></clipPath><g class="st0"><g class="st1"><path class="st2" d="M57.2 147.9l-80 79.9-79.9-79.9L-22.8 68l-79.9-80 79.9-79.9 80 79.9 79.9 80z"/><path class="st2" d="M201.3 68l-79.9 79.9-80 79.9-79.9-79.9L41.4 68l-79.9-80 79.9-79.9 80 79.9z"/><path class="st2" d="M265.5 68l-79.9 79.9-79.9 79.9-80-79.9 80-79.9-80-80 80-79.9L185.6-12z"/><path class="st2" d="M329.8 68l-80 79.9-79.9 79.9-80-79.9 80-79.9-80-80 80-79.9L249.8-12z"/><path class="st2" d="M394 68l-80 79.9-79.9 79.9-79.9-79.9L234.1 68l-79.9-80 79.9-79.9L314-12z"/><path class="st2" d="M458.2 68l-79.9 79.9-80 79.9-79.9-79.9L298.3 68l-79.9-80 79.9-79.9 80 79.9z"/><path class="st2" d="M522.4 68l-79.9 79.9-80 79.9-79.9-79.9L362.5 68l-79.9-80 79.9-79.9 80 79.9z"/><path class="st2" d="M586.6 68l-79.9 79.9-80 79.9-79.9-79.9L426.7 68l-79.9-80 79.9-79.9 80 79.9z"/><path class="st2" d="M650.8 68l-79.9 79.9-79.9 79.9-80-79.9L491 68l-80-80 80-79.9L570.9-12z"/><path class="st2" d="M715.1 68l-80 79.9-79.9 79.9-80-79.9 80-79.9-80-80 80-79.9L635.1-12z"/><path class="st2" d="M779.3 68l-80 79.9-79.9 79.9-79.9-79.9L619.4 68l-79.9-80 79.9-79.9L699.3-12z"/><path class="st2" d="M843.5 68l-79.9 79.9-80 79.9-79.9-79.9L683.6 68l-79.9-80 79.9-79.9 80 79.9z"/><path class="st2" d="M907.7 68l-79.9 79.9-80 79.9-79.9-79.9L747.8 68l-79.9-80 79.9-79.9 80 79.9z"/><path class="st2" d="M971.9 68L892 147.9l-79.9 79.9-80-79.9 80-79.9-80-80 80-79.9L892-12z"/><path class="st2" d="M1036.2 68l-80 79.9-79.9 79.9-80-79.9 80-79.9-80-80 80-79.9L956.2-12z"/><path class="st2" d="M1100.4 68l-80 79.9-79.9 79.9-80-79.9 80-79.9-80-80 80-79.9 79.9 79.9z"/><path class="st2" d="M1164.6 68l-80 79.9-79.9 79.9-79.9-79.9 79.9-79.9-79.9-80 79.9-79.9 79.9 79.9z"/><path class="st2" d="M1228.8 68l-79.9 79.9-80 79.9-79.9-79.9 79.9-79.9L989-12l79.9-79.9 80 79.9z"/><path class="st2" d="M1213.1 147.9l-80 79.9-79.9-79.9 79.9-79.9-79.9-80 79.9-79.9 80 79.9 79.9 80z"/></g><g class="st1"><path class="st2" d="M57.2 467.7l-80 79.9-79.9-79.9 79.9-80-79.9-79.9 79.9-80 80 80 79.9 79.9z"/><path class="st2" d="M201.3 387.7l-79.9 80-80 79.9-79.9-79.9 79.9-80-79.9-79.9 79.9-80 80 80z"/><path class="st2" d="M265.5 387.7l-79.9 80-79.9 79.9-80-79.9 80-80-80-79.9 80-80 79.9 80z"/><path class="st2" d="M329.8 387.7l-80 80-79.9 79.9-80-79.9 80-80-80-79.9 80-80 79.9 80z"/><path class="st2" d="M394 387.7l-80 80-79.9 79.9-79.9-79.9 79.9-80-79.9-79.9 79.9-80 79.9 80z"/><path class="st2" d="M458.2 387.7l-79.9 80-80 79.9-79.9-79.9 79.9-80-79.9-79.9 79.9-80 80 80z"/><path class="st2" d="M522.4 387.7l-79.9 80-80 79.9-79.9-79.9 79.9-80-79.9-79.9 79.9-80 80 80z"/><path class="st2" d="M586.6 387.7l-79.9 80-80 79.9-79.9-79.9 79.9-80-79.9-79.9 79.9-80 80 80z"/><path class="st2" d="M650.8 387.7l-79.9 80-79.9 79.9-80-79.9 80-80-80-79.9 80-80 79.9 80z"/><path class="st2" d="M715.1 387.7l-80 80-79.9 79.9-80-79.9 80-80-80-79.9 80-80 79.9 80z"/><path class="st2" d="M779.3 387.7l-80 80-79.9 79.9-79.9-79.9 79.9-80-79.9-79.9 79.9-80 79.9 80z"/><path class="st2" d="M843.5 387.7l-79.9 80-80 79.9-79.9-79.9 79.9-80-79.9-79.9 79.9-80 80 80z"/><path class="st2" d="M907.7 387.7l-79.9 80-80 79.9-79.9-79.9 79.9-80-79.9-79.9 79.9-80 80 80z"/><path class="st2" d="M971.9 387.7l-79.9 80-79.9 79.9-80-79.9 80-80-80-79.9 80-80 79.9 80z"/><path class="st2" d="M1036.2 387.7l-80 80-79.9 79.9-80-79.9 80-80-80-79.9 80-80 79.9 80z"/><path class="st2" d="M1100.4 387.7l-80 80-79.9 79.9-80-79.9 80-80-80-79.9 80-80 79.9 80z"/><path class="st2" d="M1164.6 387.7l-80 80-79.9 79.9-79.9-79.9 79.9-80-79.9-79.9 79.9-80 79.9 80z"/><path class="st2" d="M1228.8 387.7l-79.9 80-80 79.9-79.9-79.9 79.9-80-79.9-79.9 79.9-80 80 80z"/><path class="st2" d="M1213.1 467.7l-80 79.9-79.9-79.9 79.9-80-79.9-79.9 79.9-80 80 80 79.9 79.9z"/></g><g class="st1"><path class="st2" d="M57.2 787.4l-80 80-79.9-80 79.9-79.9-79.9-79.9 79.9-80 80 80 79.9 79.9z"/><path class="st2" d="M201.3 707.5l-79.9 79.9-80 80-79.9-80 79.9-79.9-79.9-79.9 79.9-80 80 80z"/><path class="st2" d="M265.5 707.5l-79.9 79.9-79.9 80-80-80 80-79.9-80-79.9 80-80 79.9 80z"/><path class="st2" d="M329.8 707.5l-80 79.9-79.9 80-80-80 80-79.9-80-79.9 80-80 79.9 80z"/><path class="st2" d="M394 707.5l-80 79.9-79.9 80-79.9-80 79.9-79.9-79.9-79.9 79.9-80 79.9 80z"/><path class="st2" d="M458.2 707.5l-79.9 79.9-80 80-79.9-80 79.9-79.9-79.9-79.9 79.9-80 80 80z"/><path class="st2" d="M522.4 707.5l-79.9 79.9-80 80-79.9-80 79.9-79.9-79.9-79.9 79.9-80 80 80z"/><path class="st2" d="M586.6 707.5l-79.9 79.9-80 80-79.9-80 79.9-79.9-79.9-79.9 79.9-80 80 80z"/><path class="st2" d="M650.8 707.5l-79.9 79.9-79.9 80-80-80 80-79.9-80-79.9 80-80 79.9 80z"/><path class="st2" d="M715.1 707.5l-80 79.9-79.9 80-80-80 80-79.9-80-79.9 80-80 79.9 80z"/><path class="st2" d="M779.3 707.5l-80 79.9-79.9 80-79.9-80 79.9-79.9-79.9-79.9 79.9-80 79.9 80z"/><path class="st2" d="M843.5 707.5l-79.9 79.9-80 80-79.9-80 79.9-79.9-79.9-79.9 79.9-80 80 80z"/><path class="st2" d="M907.7 707.5l-79.9 79.9-80 80-79.9-80 79.9-79.9-79.9-79.9 79.9-80 80 80z"/><path class="st2" d="M971.9 707.5L892 787.4l-79.9 80-80-80 80-79.9-80-79.9 80-80 79.9 80z"/><path class="st2" d="M1036.2 707.5l-80 79.9-79.9 80-80-80 80-79.9-80-79.9 80-80 79.9 80z"/><path class="st2" d="M1100.4 707.5l-80 79.9-79.9 80-80-80 80-79.9-80-79.9 80-80 79.9 80z"/><path class="st2" d="M1164.6 707.5l-80 79.9-79.9 80-79.9-80 79.9-79.9-79.9-79.9 79.9-80 79.9 80z"/><path class="st2" d="M1228.8 707.5l-79.9 79.9-80 80-79.9-80 79.9-79.9-79.9-79.9 79.9-80 80 80z"/><path class="st2" d="M1213.1 787.4l-80 80-79.9-80 79.9-79.9-79.9-79.9 79.9-80 80 80 79.9 79.9z"/></g></g></svg>