<svg version="1.1" id="Layer_1" xmlns="http://www.w3.org/2000/svg" xmlns:xlink="http://www.w3.org/1999/xlink" x="0" y="0" viewBox="0 0 1700 606" xml:space="preserve"><style type="text/css">.st0{clip-path:url(#SVGID_2_)}.st1{opacity:.7}.st2{fill:#07448c}</style><defs><path id="SVGID_1_" d="M0 0h1700v606H0z"/></defs><use xlink:href="#SVGID_1_" overflow="visible" fill="#03264f"/><clipPath id="SVGID_2_"><use xlink:href="#SVGID_1_" overflow="visible"/></clipPath><g class="st0"><g class="st1"><path class="st2" d="M-102.4 379.1l-.4-.4-126.4-126.4.4-.4 125.5-125.5-126-126 .4-.4 126.4-126.4.4.4 252.4 252.4-.4.4-252.3 252.3zm-125.1-126.9l125.1 125.1L23.1 251.8l.4.4-.4-.4 125.5-125.5-251.1-251.1L-227.5.3l126 126-.4.4-125.6 125.5z"/><path class="st2" d="M-1.2 379.1l-.4-.4L-128 252.3l.4-.4L-2.1 126.2l-126-126 .4-.4L-1.2-126.6l.4.4 252.4 252.4-.4.4L-1.2 379.1zm-125.1-126.9L-1.2 377.3l251.1-251.1-251.1-251L-126.3.3l126 126-.4.4-125.6 125.5z"/><path class="st2" d="M99.9 379.1l-.4-.4-126.4-126.5.4-.4L99.1 126.2-26.9.2l.4-.4L99.9-126.6l.4.4 252.4 252.4-.4.4L99.9 379.1zm-125-126.9l125 125.1L351 126.2l-251.1-251L-25.1.3l126 126-.4.4-125.6 125.5z"/><path class="st2" d="M201.1 379.1l-.4-.4L74.3 252.2l.4-.4 125.5-125.5L74.2.3l.4-.4L201-126.5l.4.4L454 126.2l-.4.4-252.5 252.5zm-125-126.9l125.1 125.1 251.1-251.1-251.2-251L76.1.3l126 126-.4.4L76.1 252.2z"/><path class="st2" d="M302.3 379.1l-.4-.4-126.4-126.5.4-.4 125.5-125.5-126-126 .4-.4 126.4-126.4.4.4L555 126.3l-.4.4-252.3 252.4zM177.2 252.2l125.1 125.1 251.1-251.1-251.1-251L177.2.3l126 126-.4.4-125.6 125.5z"/><path class="st2" d="M403.5 379.1l-.4-.4-126.4-126.5.4-.4 125.5-125.5-126-126 .4-.4 126.4-126.4.4.4 252.4 252.4-.4.4-252.3 252.4zM278.4 252.2l125.1 125.1 251.1-251.1-251.1-251L278.4.3l126 126-.4.4-125.6 125.5z"/><path class="st2" d="M504.7 379.1l-.4-.4-126.4-126.5.4-.4 125.5-125.5-126-126 .4-.4 126.4-126.4.4.4 252.4 252.4-.4.4-252.3 252.4zM379.6 252.2l125.1 125.1 251.1-251.1-251.1-251L379.6.3l126 126-.4.4-125.6 125.5z"/><path class="st2" d="M605.9 379.1l-.4-.4-126.4-126.5.4-.4L605 126.2 479 .2l.4-.4 126.4-126.4.4.4 252.4 252.4-.4.4-252.3 252.5zM480.8 252.2l125.1 125.1L857 126.2l-251.1-251L480.8.3l126 126-.4.4-125.6 125.5z"/><path class="st2" d="M707.1 379.1l-.4-.4-126.5-126.5.4-.4 125.5-125.5-126-126 .4-.4 126.4-126.4.4.4 252.4 252.4-.4.4-252.2 252.4zM582 252.2l125.1 125.1 251.1-251.1-251.1-251L582 .3l126 126-.4.4L582 252.2z"/><path class="st2" d="M808.3 379.1l-.4-.4-126.5-126.5.4-.4 125.5-125.5-126-126 .4-.4 126.4-126.4.4.4 252.4 252.4-.4.4-252.2 252.4zM683.2 252.2l125.1 125.1 251.1-251.1-251.1-251L683.2.3l126 126-.4.4-125.6 125.5z"/><path class="st2" d="M909.5 379.1l-.4-.4-126.5-126.5.4-.4 125.5-125.5-126-126 .4-.4 126.4-126.4.4.4 252.4 252.4-.4.4-252.2 252.4zM784.4 252.2l125.1 125.1 251.1-251.1-251.1-251L784.4.3l126 126-.4.4-125.6 125.5z"/><path class="st2" d="M1010.7 379.1l-.4-.4-126.5-126.5.4-.4 125.5-125.5-126-126 .4-.4 126.4-126.4.4.4 252.4 252.4-.4.4-252.2 252.4zM885.6 252.2l125.1 125.1 251.1-251.1-251.1-251.1L885.6.3l126 126-.4.4-125.6 125.5z"/><path class="st2" d="M1111.9 379.1l-.4-.4L985 252.2l.4-.4L1111 126.2 985 .3l.4-.4 126.4-126.4.4.4 252.4 252.4-.4.4-252.3 252.4zM986.8 252.2l125.1 125.1L1363 126.2l-251.1-251.1L986.8.3l126 126-.4.4-125.6 125.5z"/><path class="st2" d="M1213.1 379.1l-.4-.4-126.4-126.4.4-.4 125.5-125.5-126-126 .4-.4L1213-126.4l.4.4 252.4 252.4-.4.4-252.3 252.3zM1088 252.2l125.1 125.1 251.1-251.1-251.1-251.1L1088 .3l126 126-.4.4L1088 252.2z"/><path class="st2" d="M1314.2 379.1l-.4-.4-126.4-126.4.4-.4 125.5-125.5-126-126 .4-.4 126.4-126.4.4.4 252.4 252.4-.4.4-252.3 252.3zm-125-126.9l125.1 125.1 251.1-251.1-251.1-251.1L1189.2.3l126 126-.4.4-125.6 125.5z"/><path class="st2" d="M1415.4 379.1l-.4-.4-126.4-126.4.4-.4 125.5-125.5-126-126 .4-.4 126.4-126.4.4.4 252.4 252.4-.4.4-252.3 252.3zm-125-126.9l125.1 125.1 251.1-251.1-251.1-251.1L1290.4.3l126 126-.4.4-125.6 125.5z"/><path class="st2" d="M1516.6 379.1l-.4-.4-126.4-126.4.4-.4 125.5-125.5-126-126 .4-.4 126.4-126.4.4.4 252.4 252.4-.4.4-252.3 252.3zm-125.1-126.9l125.1 125.1 251.1-251.1-251.1-251.1L1391.5.3l126 126-.4.4-125.6 125.5z"/><path class="st2" d="M1617.8 379.1l-.4-.4L1491 252.2l.4-.4 125.5-125.5-126-126 .4-.4 126.4-126.4.4.4 252.4 252.4-.4.4-252.3 252.4zm-125.1-126.9l125.1 125.1 251.1-251.1-251.1-251.1L1492.7.3l126 126-.4.4-125.6 125.5z"/><path class="st2" d="M1719 379.1l-.4-.4-126.4-126.4.4-.4 125.5-125.5-126-126 .4-.4L1719-126.6l.4.4 252.4 252.4-.4.4L1719 379.1zm-125.1-126.9L1719 377.3l125.5-125.5.4.4-.4-.4L1970 126.3l-251-251.1L1593.9.3l126 126-.4.4-125.6 125.5z"/></g><g class="st1"><path class="st2" d="M-102.4 882.9l-.4-.4-126.4-126.4.4-.4 125.5-125.5-126-126 .4-.4 126.4-126.4.4.4 252.4 252.4-.4.4-252.3 252.3zm-125.1-126.8l125.1 125.1L23.1 755.7l.4.4-.4-.4 125.5-125.5-251.1-251.1-125.1 125.1 126 126-.4.4-125.5 125.5z"/><path class="st2" d="M-1.2 882.9l-.4-.4L-128 756.1l.4-.4L-2.1 630.1l-126-126 .4-.4L-1.2 377.3l.4.4 252.4 252.4-.4.4L-1.2 882.9zm-125.1-126.8L-1.2 881.2l251.1-251.1-251.1-251-125.1 125.1 126 126-.4.4-125.6 125.5z"/><path class="st2" d="M99.9 882.9l-.4-.4-126.4-126.4.4-.4L99.1 630.1l-126-126 .4-.4L99.9 377.3l.4.4 252.4 252.4-.4.4L99.9 882.9zm-125-126.8l125 125.1L351 630.1l-251.1-251-125 125.1 126 126-.4.4-125.6 125.5z"/><path class="st2" d="M201.1 882.9l-.4-.4L74.3 756.1l.4-.4 125.5-125.5-126-126 .4-.4L201 377.4l.4.4L454 630.1l-.4.4-252.5 252.4zm-125-126.8l125.1 125.1 251.1-251.1-251.2-251-125 125.1 126 126-.4.4L76.1 756.1z"/><path class="st2" d="M302.3 882.9l-.4-.4-126.4-126.4.4-.4 125.5-125.5-126-126 .4-.4 126.4-126.4.4.4L555 630.2l-.4.4-252.3 252.3zM177.2 756.1l125.1 125.1 251.1-251.1-251.1-251-125.1 125.1 126 126-.4.4-125.6 125.5z"/><path class="st2" d="M403.5 882.9l-.4-.4-126.4-126.4.4-.4 125.5-125.5-126-126 .4-.4 126.4-126.4.4.4 252.4 252.4-.4.4-252.3 252.3zM278.4 756.1l125.1 125.1 251.1-251.1-251.1-251-125.1 125.1 126 126-.4.4-125.6 125.5z"/><path class="st2" d="M504.7 882.9l-.4-.4-126.4-126.4.4-.4 125.5-125.5-126-126 .4-.4 126.4-126.4.4.4 252.4 252.4-.4.4-252.3 252.3zM379.6 756.1l125.1 125.1 251.1-251.1-251.1-251-125.1 125.1 126 126-.4.4-125.6 125.5z"/><path class="st2" d="M605.9 882.9l-.4-.4-126.4-126.4.4-.4L605 630.1l-126-126 .4-.4 126.4-126.4.4.4 252.4 252.4-.4.4-252.3 252.4zM480.8 756.1l125.1 125.1L857 630.1l-251.1-251-125.1 125.1 126 126-.4.4-125.6 125.5z"/><path class="st2" d="M707.1 882.9l-.4-.4-126.5-126.4.4-.4 125.5-125.5-126-126 .4-.4 126.4-126.4.4.4 252.4 252.4-.4.4-252.2 252.3zM582 756.1l125.1 125.1 251.1-251.1-251.1-251L582 504.2l126 126-.4.4L582 756.1z"/><path class="st2" d="M808.3 882.9l-.4-.4-126.5-126.4.4-.4 125.5-125.5-126-126 .4-.4 126.4-126.4.4.4 252.4 252.4-.4.4-252.2 252.3zM683.2 756.1l125.1 125.1 251.1-251.1-251.1-251-125.1 125.1 126 126-.4.4-125.6 125.5z"/><path class="st2" d="M909.5 882.9l-.4-.4-126.5-126.4.4-.4 125.5-125.5-126-126 .4-.4 126.4-126.4.4.4 252.4 252.4-.4.4-252.2 252.3zM784.4 756.1l125.1 125.1 251.1-251.1-251.1-251-125.1 125.1 126 126-.4.4-125.6 125.5z"/><path class="st2" d="M1010.7 882.9l-.4-.4-126.5-126.4.4-.4 125.5-125.5-126-126 .4-.4 126.4-126.4.4.4 252.4 252.4-.4.4-252.2 252.3zM885.6 756.1l125.1 125.1 251.1-251.1L1010.7 379 885.6 504.2l126 126-.4.4-125.6 125.5z"/><path class="st2" d="M1111.9 882.9l-.4-.4L985 756.1l.4-.4L1111 630.1l-126-126 .4-.4 126.4-126.4.4.4 252.4 252.4-.4.4-252.3 252.4zM986.8 756.1l125.1 125.1L1363 630.1 1111.9 379 986.8 504.2l126 126-.4.4-125.6 125.5z"/><path class="st2" d="M1213.1 882.9l-.4-.4-126.4-126.4.4-.4 125.5-125.5-126-126 .4-.4L1213 377.4l.4.4 252.4 252.4-.4.4-252.3 252.3zM1088 756.1l125.1 125.1 251.1-251.1L1213.1 379 1088 504.2l126 126-.4.4L1088 756.1z"/><path class="st2" d="M1314.2 882.9l-.4-.4-126.4-126.4.4-.4 125.5-125.5-126-126 .4-.4 126.4-126.4.4.4 252.4 252.4-.4.4-252.3 252.3zm-125-126.8l125.1 125.1 251.1-251.1L1314.3 379l-125.1 125.1 126 126-.4.4-125.6 125.6z"/><path class="st2" d="M1415.4 882.9l-.4-.4-126.4-126.4.4-.4 125.5-125.5-126-126 .4-.4 126.4-126.4.4.4 252.4 252.4-.4.4-252.3 252.3zm-125-126.8l125.1 125.1 251.1-251.1L1415.5 379l-125.1 125.1 126 126-.4.4-125.6 125.6z"/><path class="st2" d="M1516.6 882.9l-.4-.4-126.4-126.4.4-.4 125.5-125.5-126-126 .4-.4 126.4-126.4.4.4 252.4 252.4-.4.4-252.3 252.3zm-125.1-126.8l125.1 125.1 251.1-251.1L1516.6 379l-125.1 125.1 126 126-.4.4-125.6 125.6z"/><path class="st2" d="M1617.8 882.9l-.4-.4L1491 756.1l.4-.4 125.5-125.5-126-126 .4-.4 126.4-126.4.4.4 252.4 252.4-.4.4-252.3 252.3zm-125.1-126.8l125.1 125.1 251.1-251.1L1617.8 379l-125.1 125.1 126 126-.4.4-125.6 125.6z"/><path class="st2" d="M1719 882.9l-.4-.4-126.4-126.4.4-.4 125.5-125.5-126-126 .4-.4L1719 377.3l.4.4 252.4 252.4-.4.4L1719 882.9zm-125.1-126.8L1719 881.2l125.5-125.5.4.4-.4-.4L1970 630.2l-251-251.1-125.1 125.1 126 126-.4.4-125.6 125.5z"/></g><g class="st1"><path class="st2" d="M-102.4 1386.8l-.4-.4-126.5-126.4.4-.4 125.5-125.5-126-126 .4-.4 126.4-126.4.4.4L150.4 1134l-.4.4-252.4 252.4zM-227.5 1260l125.1 125.1 125.5-125.5.4.4-.4-.4L148.6 1134l-251.1-251.1-125 125.1 126 126-.4.4-125.6 125.6z"/><path class="st2" d="M-1.2 1386.8l-.4-.4-126.5-126.4.4-.4L-2.1 1134l-126-126 .4-.4L-1.2 881.2l.4.4L251.6 1134l-.4.4-252.4 252.4zM-126.3 1260l125.1 125.1 251-251.1-251-251.1-125.1 125.1 126 126-.4.4-125.6 125.6z"/><path class="st2" d="M99.9 1386.8l-.4-.4L-26.9 1260l.4-.4L99.1 1134l-126-126 .4-.4L99.9 881.2l.4.4L352.8 1134l-.4.4-252.5 252.4zm-125-126.8L100 1385.1 351 1134 99.9 882.9l-125 125.1 126 126-.4.4L-25.1 1260z"/><path class="st2" d="M201.1 1386.8l-.4-.4L74.3 1260l.4-.4L200.3 1134l-126-126 .4-.4 126.4-126.4.4.4L454 1134l-.4.4-252.5 252.4zM76.1 1260l125.1 125.1 251-251.1-251.1-251.1-125 125.1 126 126-.4.4L76.1 1260z"/><path class="st2" d="M302.3 1386.8l-.4-.4L175.5 1260l.4-.4L301.4 1134l-126-126 .4-.4 126.4-126.4.4.4L555.2 1134l-.4.4-252.5 252.4zM177.2 1260l125.1 125.1L553.4 1134 302.3 882.9 177.2 1008l126 126-.4.4L177.2 1260z"/><path class="st2" d="M403.5 1386.8l-.4-.4L276.7 1260l.4-.4L402.6 1134l-126-126 .4-.4 126.4-126.4.4.4L656.3 1134l-.4.4-252.4 252.4zM278.4 1260l125.1 125.1L654.6 1134 403.5 882.9 278.4 1008l126 126-.4.4L278.4 1260z"/><path class="st2" d="M504.7 1386.8l-.4-.4L377.9 1260l.4-.4L503.8 1134l-126-126 .4-.4 126.4-126.4.4.4L757.5 1134l-.4.4-252.4 252.4zM379.6 1260l125.1 125.1L755.8 1134 504.7 882.9 379.6 1008l126 126-.4.4L379.6 1260z"/><path class="st2" d="M605.9 1386.8l-.4-.4L479.1 1260l.4-.4L605 1134l-126-126 .4-.4 126.4-126.4.4.4L858.7 1134l-.4.4-252.4 252.4zM480.8 1260l125.1 125.1L857 1134 605.9 882.9 480.8 1008l126 126-.4.4L480.8 1260z"/><path class="st2" d="M707.1 1386.8l-.4-.4L580.2 1260l.4-.4L706.2 1134l-126-126 .4-.4L707 881.2l.4.4L959.9 1134l-.4.4-252.4 252.4zM582 1260l125.1 125.1L958.2 1134 707.1 882.9 582 1008l126 126-.4.4L582 1260z"/><path class="st2" d="M808.3 1386.8l-.4-.4L681.4 1260l.4-.4L807.4 1134l-126-126 .4-.4 126.4-126.4.4.4L1061 1134l-.4.4-252.3 252.4zM683.2 1260l125.1 125.1 251.1-251.1-251.1-251.1L683.2 1008l126 126-.4.4L683.2 1260z"/><path class="st2" d="M909.5 1386.8l-.4-.4L782.6 1260l.4-.4L908.6 1134l-126-126 .4-.4 126.4-126.4.4.4 252.4 252.4-.4.4-252.3 252.4zM784.4 1260l125.1 125.1 251.1-251.1-251.1-251.1L784.4 1008l126 126-.4.4L784.4 1260z"/><path class="st2" d="M1010.7 1386.8l-.4-.4L883.8 1260l.4-.4 125.5-125.5-126-126 .4-.4 126.4-126.4.4.4 252.4 252.4-.4.4-252.2 252.3zM885.6 1260l125.1 125.1 251.1-251.1-251.1-251.1L885.6 1008l126 126-.4.4L885.6 1260z"/><path class="st2" d="M1111.9 1386.8l-.4-.4L985 1260l.4-.4L1111 1134l-126-126 .4-.4 126.4-126.4.4.4 252.4 252.4-.4.4-252.3 252.4zM986.8 1260l125.1 125.1L1363 1134l-251.1-251.1L986.8 1008l126 126-.4.4L986.8 1260z"/><path class="st2" d="M1213.1 1386.8l-.4-.4-126.5-126.4.4-.4 125.5-125.5-126-126 .4-.4 126.4-126.4.4.4 252.4 252.4-.4.4-252.2 252.3zM1088 1260l125.1 125.1 251.1-251.1-251.1-251.1L1088 1008l126 126-.4.4L1088 1260z"/><path class="st2" d="M1314.2 1386.8l-.4-.4-126.4-126.4.4-.4 125.5-125.5-126-126 .4-.4 126.4-126.4.4.4 252.4 252.4-.4.4-252.3 252.3zm-125-126.8l125.1 125.1 251.1-251.1-251.1-251.1-125.1 125.1 126 126-.4.4-125.6 125.6z"/><path class="st2" d="M1415.4 1386.8l-.4-.4-126.4-126.4.4-.4 125.5-125.5-126-126 .4-.4 126.4-126.4.4.4 252.4 252.4-.4.4-252.3 252.3zm-125-126.8l125.1 125.1 251.1-251.1-251.1-251.1-125.1 125.1 126 126-.4.4-125.6 125.6z"/><path class="st2" d="M1516.6 1386.8l-.4-.4-126.4-126.4.4-.4 125.5-125.5-126-126 .4-.4 126.4-126.4.4.4 252.4 252.4-.4.4-252.3 252.3zM1391.5 1260l125.1 125.1 251.1-251.1-251.1-251.1-125.1 125.1 126 126-.4.4-125.6 125.6z"/><path class="st2" d="M1617.8 1386.8l-.4-.4L1491 1260l.4-.4 125.5-125.5-126-126 .4-.4 126.4-126.4.4.4 252.4 252.4-.4.4-252.3 252.3zM1492.7 1260l125.1 125.1 251.1-251.1-251.1-251.1-125.1 125.1 126 126-.4.4-125.6 125.6z"/><path class="st2" d="M1719 1386.8l-.4-.4-126.4-126.4.4-.4 125.5-125.5-126-126 .4-.4L1719 881.2l.4.4 252.4 252.4-.4.4-252.4 252.4zM1593.9 1260l125.1 125.1 125.5-125.5.4.4-.4-.4 125.5-125.5-251-251.2-125.1 125.1 126 126-.4.4-125.6 125.6z"/></g></g></svg>