<svg version="1.1" id="Layer_1" xmlns="http://www.w3.org/2000/svg" x="0" y="0" viewBox="0 0 34.3 40.2" xml:space="preserve"><style type="text/css">.st0{fill:#f1f1f2}</style><path class="st0" d="M31.6 6l.8.8-.8.8.8.8.8-.8.8-.8-.8-.8-.8-.8zm-.9-1.8l-.8-.8-.9-.8-.8.8.8.8-.8.8.8.8.9-.8zm-3.8-1.8l-.8-.8-.8-.8-.8.8.8.8-.8.8.8.8.8-.8zM21.3 0l-.8.8.8.8-.8.8.8.8.8-.8.8-.8-.8-.8zm-4.9.9l.8.8-.8.8.8.8.8-.8.8-.8-.8-.8-.8-.8zm-1.6 1.7l-.8-.8-.8-.8-.8.8.8.8-.8.8.8.8.8-.8zM11 4.4l-.8-.8-.8-.8-.8.8.8.8-.8.8.8.9.8-.9zM7.7 7.1l-.8-.8-.8-.8-.8.8.8.8-.8.8.8.8.8-.8zM5 10.5l-.8-.8-.8-.8-.8.8.8.8-.8.8.8.8.8-.8zm-4.1 3l.8.8-.8.8.8.8.8-.8.8-.8-.8-.8-.8-.8zm-.9 4l.8.8-.8.8.8.8.8-.8.8-.8-.8-.8-.8-.8zm0 4l.8.8-.8.8.8.8.8-.8.8-.8-.8-.8-.8-.8zm1 4l.8.8-.8.8.8.8.8-.8.8-.8-.8-.8-.8-.8zm4.2 4.6l-.8-.8-.8-.8-.8.8.8.8-.8.8.8.8.8-.8zm2.7 3.3l-.8-.8-.8-.8-.8.8.8.8-.8.8.8.8.8-.8zm3.4 2.6l-.8-.8-.9-.8-.8.8.8.8-.8.8.8.8.9-.8zm1.3.9l.8.8-.8.8.8.8.8-.8.8-.8-.8-.8-.8-.8zm4.1.9l.8.8-.8.8.8.8.8-.8.8-.8-.8-.8-.8-.8zm4.1-.1l.8.9-.8.8.8.8.8-.8.8-.8-.8-.9-.8-.8zm4-.8l.8.8-.8.8.8.8.8-.8.8-.8-.8-.8-.8-.8zm6.2-1l-.8-.8-.9-.8-.8.8.8.8-.8.8.8.8.9-.8zm.9-3.5l.8.9-.8.8.8.8.8-.8.8-.8-.8-.9-.8-.8zM30.2 9.2l-.7-.6-.6.6.6.6-.6.6.6.7.7-.7.6-.6zm-2-1.4l-.6-.7-.6-.6-.7.6.7.7-.7.6.7.6.6-.6zm-2.9-1.4l-.6-.6-.7-.6-.6.6.6.6-.6.7.6.6.7-.6zm-3.1-.6l-.6-.6-.6-.6-.7.6.7.6-.7.6.7.6.6-.6zm-3.2 0l-.6-.6-.6-.6-.6.6.6.6-.6.7.6.6.6-.6zm-3.1.8l-.6-.6-.6-.7-.6.7.6.6-.6.6.6.6.6-.6zM13 8l-.6-.6-.6-.7-.6.7.6.6-.6.6.6.6.6-.6zm-2.5 2.1l-.7-.7-.6-.6-.6.6.6.7-.6.6.6.6.6-.6zm-2.1 2.6l-.6-.7-.6-.6-.7.6.7.7-.7.6.7.6.6-.6zM7 15.6l-.6-.6-.6-.7-.6.7.6.6-.6.6.6.6.6-.6zm-.6 3.1l-.7-.7-.6-.6-.6.6.6.7-.6.6.6.6.6-.6zm0 3.1l-.6-.6-.6-.6-.7.6.7.6-.7.6.7.7.6-.7zm.7 3.1l-.6-.6-.6-.6-.7.6.7.6-.7.6.7.6.6-.6zm1.4 2.9l-.6-.6-.6-.7-.7.7.7.6-.7.6.7.6.6-.6zm2.1 2.6l-.6-.7-.6-.6-.7.6.7.7-.7.6.7.6.6-.6zm2.6 2l-.6-.6-.6-.7-.7.7.7.6-.7.6.7.6.6-.6zm2.9 1.3l-.6-.6-.6-.6-.6.6.6.6-.6.6.6.6.6-.6zm3.1.7l-.6-.7-.6-.6-.6.6.6.7-.6.6.6.6.6-.6zm3.2-.1l-.6-.6-.6-.6-.6.6.6.6-.6.7.6.6.6-.6zm3.1-.6l-.6-.7-.6-.6-.6.6.6.7-.6.6.6.6.6-.6zm2.9-1.4l-.6-.6-.6-.7-.6.7.6.6-.6.6.6.6.6-.6zm2-2.7l-.6-.6-.7.6.7.6-.7.7.7.6.6-.6.6-.7zm-2.7-17.8l-.5-.5-.5.5.5.4-.5.5.5.5.5-.5.5-.5zm-1.5-1.1l-.5-.5-.5-.5-.4.5.4.5-.4.4.4.5.5-.5zM24 9.6l-.5-.4-.5-.5-.5.5.5.4-.5.5.5.5.5-.5zm-2.4-.4l-.5-.5-.4-.5-.5.5.5.5-.5.4.5.5.4-.5zm-2.4 0l-.5-.5-.5-.5-.4.5.4.5-.4.5.4.4.5-.4zm-2.4.6l-.4-.5-.5-.5-.5.5.5.5-.5.4.5.5.5-.5zm-2.2 1l-.5-.4-.4-.5-.5.5.5.4-.5.5.5.5.4-.5zm-2 1.6l-.4-.5-.5-.4-.5.4.5.5-.5.5.5.5.5-.5zm-1.5 2l-.5-.5-.5-.4-.5.4.5.5-.5.5.5.5.5-.5zM10 16.6l-.4-.4-.5-.5-.5.5.5.4-.5.5.5.5.5-.5zM9.5 19l-.5-.5-.4-.5-.5.5.5.5-.5.5.5.4.4-.4zm0 2.4l-.4-.5-.5-.5-.5.5.5.5-.5.5.5.4.5-.4zm.6 2.3l-.5-.4-.5-.5-.4.5.4.4-.4.5.4.5.5-.5zm1.1 2.3l-.5-.5-.5-.5-.5.5.5.5-.5.4.5.5.5-.5zm1.6 1.9l-.5-.4-.5-.5-.5.5.5.4-.5.5.5.5.5-.5zm1.9 1.6l-.4-.5-.5-.5-.5.5.5.5-.5.4.5.5.5-.5zm2.3 1l-.5-.5-.5-.5-.5.5.5.5-.5.4.5.5.5-.5zm2.3.5l-.4-.5-.5-.5-.5.5.5.5-.5.4.5.5.5-.5zm2.5 0l-.5-.5-.5-.5-.5.5.5.5-.5.4.5.5.5-.5zm2.3-.6l-.4-.4-.5-.5-.5.5.5.4-.5.5.5.5.5-.5zm2.3-1l-.5-.5-.5-.5-.5.5.5.5-.5.5.5.4.5-.4zm1.5-2l-.5-.5-.5.5.5.4-.5.5.5.5.5-.5.4-.5zm-3.3-13.2l.4.4-.4.3.4.3.3-.3.3-.3-.3-.4-.3-.3zm-1.4-1.1l.4.4-.4.3.4.3.3-.3.3-.3-.3-.4-.3-.3zm-1.5-.7l.3.4-.3.3.3.3.3-.3.4-.3-.4-.4-.3-.3zm-1.7-.3l.4.3-.4.3.4.4.3-.4.3-.3-.3-.3-.3-.3zm-1.7 0l.4.3-.4.4.4.3.3-.3.3-.4-.3-.3-.3-.3zm-1.6.4l.3.3-.3.4.3.3.4-.3.3-.4-.3-.3-.4-.3zm-1.6.8l.4.3-.4.3.4.4.3-.4.3-.3-.3-.3-.3-.4zm-1.4 1.1l.4.3-.4.3.4.4.3-.4.3-.3-.3-.3-.3-.4zm-1.1 1.4l.4.3-.4.3.4.4.3-.4.3-.3-.3-.3-.3-.4zm-.7 1.5l.4.3-.4.4.4.3.3-.3.3-.4-.3-.3-.3-.3zm-.3 1.7l.3.3-.3.3.3.4.3-.4.4-.3-.4-.3-.3-.4zm0 1.7l.3.3-.3.3.3.3.3-.3.4-.3-.4-.3-.3-.4zm.4 1.6l.3.3-.3.4.3.3.3-.3.4-.4-.4-.3-.3-.3zm.7 1.5l.3.4-.3.3.3.3.4-.3.3-.3-.3-.4-.4-.3zm1.1 1.4l.4.4-.4.3.4.3.3-.3.3-.3-.3-.4-.3-.3zm1.4 1.1l.4.3-.4.4.4.3.3-.3.3-.4-.3-.3-.3-.3zm1.6.7l.3.3-.3.4.3.3.3-.3.4-.4-.4-.3-.3-.3zm1.6.4l.4.3-.4.3.4.4.3-.4.3-.3-.3-.3-.3-.4zm1.7 0l.4.3-.4.3.4.3.3-.3.3-.3-.3-.3-.3-.4zm1.7-.4l.3.3-.3.3.3.4.4-.4.3-.3-.3-.3-.4-.3zm1.6-.7l.3.3-.3.3.3.3.3-.3.4-.3-.4-.3-.3-.4zm1.3-1.1l.4.3-.4.3.4.4.3-.4.3-.3-.3-.3-.3-.4z"/></svg>