<svg version="1.1" id="Layer_1" xmlns="http://www.w3.org/2000/svg" x="0" y="0" viewBox="0 0 248.5 63.7" xml:space="preserve"><style type="text/css">.st0{fill:#fff}</style><path class="st0" d="M88.4 40.7c-2.7 2.8-6 4.3-9.7 4.3-3.5 0-6.4-1.2-8.7-3.6-2.3-2.4-3.5-5.3-3.5-8.8 0-3.5 1.2-6.4 3.5-8.8 2.3-2.4 5.3-3.6 8.9-3.6 3.7 0 6.8 1.2 9.4 3.7L85.5 27c-2.2-2-4.4-3-6.7-3s-4.2.8-5.7 2.5c-1.5 1.6-2.2 3.7-2.2 6.1 0 2.4.8 4.4 2.3 6.1 1.5 1.7 3.4 2.5 5.7 2.5 2.4 0 4.7-1 6.9-3.1l2.6 2.6zm17.7-20.4l10.6 24.2h-4.5l-2.4-5.8H98.4l-2.5 5.8h-4.3l10.6-24.2h3.9zm2.1 14.7l-4.2-9.6-4.1 9.6h8.3zm32-6.4c0 2.6-.9 4.7-2.8 6.1-1.8 1.4-4 2.1-6.8 2.1h-4.8v7.7h-4.2v-24h9.5c2.8 0 5 .7 6.7 2.2 1.6 1.5 2.4 3.4 2.4 5.9m-4.3.1c0-1.4-.5-2.5-1.4-3.2-.9-.7-2.2-1.1-3.8-1.1h-4.9V33h4.9c1.6 0 2.8-.4 3.8-1.2.9-.8 1.4-1.8 1.4-3.1m29.9 15.8h-5l-5.9-8.4h-5.3v8.4h-4.2v-24h10.7c2.8 0 4.9.7 6.5 2s2.4 3.2 2.4 5.6c0 3.8-1.9 6.3-5.7 7.3l6.5 9.1zm-5.1-16.1c0-2.7-1.7-4-5-4h-6.1v8.1h6.2c1.5 0 2.7-.4 3.6-1.1.9-.8 1.3-1.8 1.3-3m34.4 4.1c0 3.5-1.2 6.4-3.6 8.8-2.4 2.4-5.4 3.6-9 3.6-3.6 0-6.6-1.2-9-3.6-2.4-2.4-3.5-5.3-3.5-8.8 0-3.5 1.2-6.4 3.6-8.8 2.4-2.4 5.4-3.6 9-3.6s6.6 1.2 9 3.6c2.3 2.4 3.5 5.3 3.5 8.8m-4.4 0c0-2.4-.8-4.4-2.3-6.1-1.5-1.7-3.5-2.5-5.9-2.5s-4.3.8-5.8 2.5c-1.5 1.6-2.3 3.7-2.3 6 0 2.4.8 4.4 2.3 6.1 1.5 1.7 3.5 2.5 5.9 2.5 2.4 0 4.3-.8 5.8-2.5 1.5-1.6 2.3-3.6 2.3-6m31.3 8.2c-2.7 2.8-6 4.3-9.7 4.3-3.5 0-6.4-1.2-8.7-3.6-2.3-2.4-3.5-5.3-3.5-8.8 0-3.5 1.2-6.4 3.5-8.8 2.3-2.4 5.3-3.6 8.9-3.6 3.7 0 6.8 1.2 9.4 3.7l-2.7 3.1c-2.2-2-4.4-3-6.7-3s-4.2.8-5.7 2.5c-1.5 1.6-2.2 3.7-2.2 6.1 0 2.4.8 4.4 2.3 6.1 1.5 1.7 3.4 2.5 5.7 2.5 2.4 0 4.7-1 6.9-3.1l2.5 2.6zm16.1-9.9l10.4 13.7h-5.1l-8.2-10.8-3.7 3.9v6.9h-4.2v-24h4.2v12.1l11.4-12.1h5.2zM52.6 9.5l-1.3-1.3-1.2 1.3 1.2 1.3-1.2 1.3 1.2 1.2 1.3-1.2 1.3-1.3zm-4-2.9l-1.3-1.3L46 4l-1.3 1.3L46 6.6l-1.3 1.3L46 9.1l1.3-1.2zm-6-2.7l-1.3-1.3-1.2-1.3-1.3 1.3 1.3 1.3-1.3 1.2 1.3 1.3 1.2-1.3zm-6.3-1.4L35 1.3 33.7 0l-1.3 1.3 1.3 1.2-1.3 1.3 1.3 1.3L35 3.8zm-6.5.1l-1.3-1.2L27.2.1 26 1.4l1.2 1.2L26 3.9l1.2 1.3 1.3-1.3zm-6.4 1.6l-1.2-1.3-1.3-1.3-1.3 1.3 1.3 1.3-1.3 1.2 1.3 1.3 1.3-1.3zM17.5 7l-1.3-1.2L15 4.5l-1.3 1.3L15 7l-1.3 1.3L15 9.6l1.2-1.3zm-5.3 4.3L10.9 10 9.6 8.7 8.4 10l1.2 1.3-1.2 1.3 1.2 1.2 1.3-1.2zM8 16.6l-1.3-1.2-1.3-1.3-1.2 1.3 1.2 1.2-1.2 1.3 1.2 1.3 1.3-1.3zm-2.8 6l-1.3-1.3-1.3-1.2-1.2 1.2 1.2 1.3-1.2 1.3 1.2 1.2 1.3-1.2zm-1.4 6.3l-1.3-1.2-1.2-1.3L0 27.7l1.3 1.2L0 30.2l1.3 1.3 1.2-1.3zm.1 6.5l-1.3-1.3-1.3-1.3L0 34.1l1.3 1.3L0 36.7l1.3 1.2 1.3-1.2zm1.4 6.3l-1.2-1.3-1.3-1.2-1.3 1.2 1.3 1.3L1.5 43l1.3 1.3L4.1 43zm2.9 5.9l-1.3-1.2-1.2-1.3-1.3 1.3 1.3 1.2-1.3 1.3 1.3 1.3 1.2-1.3zm4.3 5.3l-1.3-1.2-1.2-1.3-1.3 1.3 1.3 1.2-1.3 1.3 1.3 1.3 1.2-1.3zm5.3 4.1l-1.2-1.2-1.3-1.3-1.3 1.3 1.3 1.2-1.3 1.3 1.3 1.3 1.3-1.3zm6 2.8l-1.3-1.3-1.2-1.3-1.3 1.3 1.3 1.3L20 61l1.3 1.3 1.2-1.3zm6.4 1.3l-1.3-1.3-1.2-1.2-1.3 1.2 1.3 1.3-1.3 1.3 1.3 1.3 1.2-1.3zm6.5 0l-1.3-1.3-1.2-1.3-1.3 1.3 1.3 1.3-1.3 1.2 1.3 1.3 1.2-1.3zm6.4-1.4l-1.3-1.3-1.3-1.3-1.2 1.3 1.2 1.3-1.2 1.2 1.2 1.3 1.3-1.3zm5.9-2.8l-1.2-1.3-1.3-1.3-1.3 1.3 1.3 1.3-1.3 1.2 1.3 1.3 1.3-1.3zm4.1-5.5l-1.3-1.3-1.3 1.3 1.3 1.3-1.3 1.3 1.3 1.2 1.3-1.2 1.2-1.3zm-5.3-36.8l-1-1-1 1 1 .9-1 1 1 1 1-1 1-1zm-3.1-2.3l-1-1-1-1-1 1 1 1-1 1 1 1 1-1zm-4.6-2.1l-1-1-1-1-1 1 1 1-1 1 1 1 1-1zm-4.9-1l-1-1-1-1-1 1 1 1-1 1 1 .9 1-.9zm-5 .1l-1-1-1-1-1 1 1 1-1 .9 1 1 1-1zm-4.9 1.1l-1-1-1-.9-1 .9 1 1-1 1 1 1 1-1zm-4.6 2.3l-1-1-1-1-1 1 1 1-1 .9 1 1 1-1zm-4.1 3.2l-1-.9-1-1-1 1 1 .9-1 1 1 1 1-1zm-3.3 4.2l-1-1-1-1-.9 1 .9 1-.9.9.9 1 1-1zm-2.1 4.6l-1-1-1-1-1 1 1 1-1 1 1 .9 1-.9zm-1.1 4.9l-1-1-1-1-1 1 1 1-1 1 1 .9 1-.9zm0 5l-1-1-.9-1-1 1 1 1-1 .9 1 1 .9-1zm1.2 4.8l-1-.9-1-1-1 1 1 .9-1 1 1 1 1-1zm2.2 4.6l-1-1-1-.9-1 .9 1 1-1 1 1 1 1-1zm3.3 4.1l-1-1-1-1-1 1 1 1-1 1 1 1 1-1zm4.1 3.2l-1-1-.9-1-1 1 1 1-1 1 1 .9.9-.9zm4.6 2.1l-.9-1-1-1-1 1 1 1-1 1 1 1 1-1zm5 1l-1-1-1-.9-1 .9 1 1-1 1 1 1 1-1zm5 0l-1-1-1-1-.9 1 .9 1-.9 1 .9 1 1-1zm4.9-1.1l-1-1-.9-1-1 1 1 1-1 1 1 1 .9-1zm4.6-2.2l-.9-.9-1-1-1 1 1 .9-1 1 1 1 1-1zm3.1-4.2l-.9-.9-1 .9 1 1-1 1 1 1 .9-1 1-1zm-4.2-28.3l-.8-.7-.7.7.7.8-.7.7.7.8.8-.8.7-.7zm-2.4-1.7l-.8-.8-.7-.7-.8.7.8.8-.8.7.8.8.7-.8zM38 15.3l-.8-.8-.7-.7-.8.7.8.8-.8.7.8.8.7-.8zm-3.8-.8l-.7-.7-.8-.8-.7.8.7.7-.7.8.7.7.8-.7zm-3.8.1l-.7-.8-.8-.7-.7.7.7.8-.7.7.7.8.8-.8zm-3.7.9l-.8-.8-.7-.7-.8.7.8.8-.8.7.8.8.7-.8zm-3.6 1.7l-.7-.8-.8-.7-.7.7.7.8-.7.7.7.8.8-.8zM20 19.7l-.7-.8-.8-.7-.7.7.7.8-.7.7.7.8.8-.8zm-2.5 3.1l-.7-.7-.8-.8-.7.8.7.7-.7.8.7.7.8-.7zm-1.6 3.5l-.8-.7-.7-.8-.8.8.8.7-.8.8.8.7.7-.7zm-.8 3.8l-.8-.8-.7-.7-.8.7.8.8-.8.7.8.8.7-.8zm0 3.8l-.7-.8-.8-.7-.7.7.7.8-.7.7.7.8.8-.8zm.9 3.7l-.8-.7-.7-.8-.8.8.8.7-.8.8.8.7.7-.7zm1.7 3.5l-.8-.7-.7-.8-.8.8.8.7-.8.8.8.7.7-.7zm2.5 3.1l-.8-.7-.7-.8-.8.8.8.7-.8.8.8.7.7-.7zm3.1 2.5l-.7-.8-.8-.7-.7.7.7.8-.7.7.7.8.8-.8zm3.6 1.6l-.8-.8-.7-.7-.8.7.8.8-.8.7.8.8.7-.8zm3.7.8l-.7-.8-.8-.7-.7.7.7.8-.7.7.7.8.8-.8zm3.9-.1l-.8-.7-.7-.8-.8.8.8.7-.8.8.8.7.7-.7zm3.7-.8l-.7-.7-.8-.8-.7.8.7.7-.7.8.7.7.8-.7zm3.6-1.6l-.8-.8-.7-.7-.8.7.8.8-.8.7.8.8.7-.8zm2.3-3.3l-.7-.7-.8.7.8.8-.8.7.8.8.7-.8.8-.7zm-4-20.8l-.6-.5-.5.5.5.6-.5.5.5.5.6-.5.5-.5zm-1.7-1.2l-.5-.5-.6-.5-.5.5.5.5-.5.6.5.5.6-.5zm-2.5-1.1l-.5-.5-.5-.5-.6.5.6.5-.6.5.6.6.5-.6zm-2.6-.5l-.5-.6-.5-.5-.6.5.6.6-.6.5.6.5.5-.5zm-2.7 0l-.5-.5-.5-.5-.5.5.5.5-.5.5.5.6.5-.6zm-2.6.6l-.5-.5-.5-.5-.6.5.6.5-.6.6.6.5.5-.5zm-2.4 1.2L25 21l-.5-.5-.5.5.5.5-.5.6.5.5.5-.5zm-2.2 1.8l-.6-.5-.5-.6-.5.6.5.5-.5.5.5.5.5-.5zm-1.8 2.2l-.5-.5-.5-.6-.6.6.6.5-.6.5.6.5.5-.5zM20.5 28l-.6-.6-.5-.5-.5.5.5.6-.5.5.5.5.5-.5zm-.6 2.6l-.5-.6-.6-.5-.5.5.5.6-.5.5.5.5.6-.5zm0 2.6l-.5-.5-.5-.5-.6.5.6.5-.6.6.6.5.5-.5zm.6 2.7l-.5-.6-.5-.5-.6.5.6.6-.6.5.6.5.5-.5zm1.2 2.4l-.5-.5-.5-.5-.6.5.6.5-.6.5.6.6.5-.6zm1.8 2.2L23 40l-.6-.6-.5.6.5.5-.5.5.5.5.6-.5zm2.2 1.7l-.5-.5-.6-.6-.5.6.5.5-.5.5.5.5.6-.5zm2.5 1.1l-.6-.5-.5-.5-.5.5.5.5-.5.5.5.6.5-.6zm2.6.6l-.5-.6-.6-.5-.5.5.5.6-.5.5.5.5.6-.5zm2.7 0l-.5-.6-.6-.5-.5.5.5.6-.5.5.5.5.6-.5zm2.6-.6l-.5-.6-.5-.5-.6.5.6.6-.6.5.6.5.5-.5zm2.5-1.2l-.5-.5-.6-.5-.5.5.5.5-.5.5.5.6.6-.6zm1.6-2.2l-.5-.6-.5.6.5.5-.5.5.5.5.5-.5.6-.5z"/></svg>