<svg version="1.1" id="Layer_1" xmlns="http://www.w3.org/2000/svg" x="0" y="0" viewBox="0 0 54.5 63.7" xml:space="preserve"><style type="text/css">.st0{fill:#03264f}</style><path class="st0" d="M52.6 9.5l-1.3-1.3-1.2 1.3 1.2 1.3-1.2 1.3 1.2 1.2 1.3-1.2 1.3-1.3zm-4-2.9l-1.3-1.3L46 4l-1.3 1.3L46 6.6l-1.3 1.3L46 9.1l1.3-1.2zm-6-2.7l-1.3-1.3-1.2-1.3-1.3 1.3 1.3 1.3-1.3 1.2 1.3 1.3 1.2-1.3zm-6.3-1.4L35 1.3 33.7 0l-1.3 1.3 1.3 1.2-1.3 1.3 1.3 1.3L35 3.8zm-6.5.1l-1.3-1.2L27.2.1 26 1.4l1.2 1.2L26 3.9l1.2 1.3 1.3-1.3zm-6.4 1.6l-1.2-1.3-1.3-1.3-1.3 1.3 1.3 1.3-1.3 1.2 1.3 1.3 1.3-1.3zM17.5 7l-1.3-1.2L15 4.5l-1.3 1.3L15 7l-1.3 1.3L15 9.6l1.2-1.3zm-5.3 4.3L10.9 10 9.6 8.7 8.4 10l1.2 1.3-1.2 1.3 1.2 1.2 1.3-1.2zM8 16.6l-1.3-1.2-1.3-1.3-1.2 1.3 1.2 1.2-1.2 1.3 1.2 1.3 1.3-1.3zm-2.8 6l-1.3-1.3-1.3-1.2-1.2 1.2 1.2 1.3-1.2 1.3 1.2 1.2 1.3-1.2zm-1.4 6.3l-1.3-1.2-1.2-1.3L0 27.7l1.3 1.2L0 30.2l1.3 1.3 1.2-1.3zm.1 6.5l-1.3-1.3-1.3-1.3L0 34.1l1.3 1.3L0 36.7l1.3 1.2 1.3-1.2zm1.4 6.3l-1.2-1.3-1.3-1.2-1.3 1.2 1.3 1.3L1.5 43l1.3 1.3L4.1 43zm2.9 5.9l-1.3-1.2-1.2-1.3-1.3 1.3 1.3 1.2-1.3 1.3 1.3 1.3 1.2-1.3zm4.3 5.3l-1.3-1.2-1.2-1.3-1.3 1.3 1.3 1.2-1.3 1.3 1.3 1.3 1.2-1.3zm5.3 4.1l-1.2-1.2-1.3-1.3-1.3 1.3 1.3 1.2-1.3 1.3 1.3 1.3 1.3-1.3zm6 2.8l-1.3-1.3-1.2-1.3-1.3 1.3 1.3 1.3L20 61l1.3 1.3 1.2-1.3zm6.4 1.3l-1.3-1.3-1.2-1.2-1.3 1.2 1.3 1.3-1.3 1.3 1.3 1.3 1.2-1.3zm6.5 0l-1.3-1.3-1.2-1.3-1.3 1.3 1.3 1.3-1.3 1.2 1.3 1.3 1.2-1.3zm6.4-1.4l-1.3-1.3-1.3-1.3-1.2 1.3 1.2 1.3-1.2 1.2 1.2 1.3 1.3-1.3zm5.9-2.8l-1.2-1.3-1.3-1.3-1.3 1.3 1.3 1.3-1.3 1.2 1.3 1.3 1.3-1.3zm4.1-5.5l-1.3-1.3-1.3 1.3 1.3 1.3-1.3 1.3 1.3 1.2 1.3-1.2 1.2-1.3zm-5.3-36.8l-1-1-1 1 1 .9-1 1 1 1 1-1 1-1zm-3.1-2.3l-1-1-1-1-1 1 1 1-1 1 1 1 1-1zm-4.6-2.1l-1-1-1-1-1 1 1 1-1 1 1 1 1-1zm-4.9-1l-1-1-1-1-1 1 1 1-1 1 1 .9 1-.9zm-5 .1l-1-1-1-1-1 1 1 1-1 .9 1 1 1-1zm-4.9 1.1l-1-1-1-.9-1 .9 1 1-1 1 1 1 1-1zm-4.6 2.3l-1-1-1-1-1 1 1 1-1 .9 1 1 1-1zm-4.1 3.2l-1-.9-1-1-1 1 1 .9-1 1 1 1 1-1zm-3.3 4.2l-1-1-1-1-.9 1 .9 1-.9.9.9 1 1-1zm-2.1 4.6l-1-1-1-1-1 1 1 1-1 1 1 .9 1-.9zm-1.1 4.9l-1-1-1-1-1 1 1 1-1 1 1 .9 1-.9zm0 5l-1-1-.9-1-1 1 1 1-1 .9 1 1 .9-1zm1.2 4.8l-1-.9-1-1-1 1 1 .9-1 1 1 1 1-1zm2.2 4.6l-1-1-1-.9-1 .9 1 1-1 1 1 1 1-1zm3.3 4.1l-1-1-1-1-1 1 1 1-1 1 1 1 1-1zm4.1 3.2l-1-1-.9-1-1 1 1 1-1 1 1 .9.9-.9zm4.6 2.1l-.9-1-1-1-1 1 1 1-1 1 1 1 1-1zm5 1l-1-1-1-.9-1 .9 1 1-1 1 1 1 1-1zm5 0l-1-1-1-1-.9 1 .9 1-.9 1 .9 1 1-1zm4.9-1.1l-1-1-.9-1-1 1 1 1-1 1 1 1 .9-1zm4.6-2.2l-.9-.9-1-1-1 1 1 .9-1 1 1 1 1-1zm3.1-4.2l-.9-.9-1 .9 1 1-1 1 1 1 .9-1 1-1zm-4.2-28.3l-.8-.7-.7.7.7.8-.7.7.7.8.8-.8.7-.7zm-2.4-1.7l-.8-.8-.7-.7-.8.7.8.8-.8.7.8.8.7-.8zM38 15.3l-.8-.8-.7-.7-.8.7.8.8-.8.7.8.8.7-.8zm-3.8-.8l-.7-.7-.8-.8-.7.8.7.7-.7.8.7.7.8-.7zm-3.8.1l-.7-.8-.8-.7-.7.7.7.8-.7.7.7.8.8-.8zm-3.7.9l-.8-.8-.7-.7-.8.7.8.8-.8.7.8.8.7-.8zm-3.6 1.7l-.7-.8-.8-.7-.7.7.7.8-.7.7.7.8.8-.8zM20 19.7l-.7-.8-.8-.7-.7.7.7.8-.7.7.7.8.8-.8zm-2.5 3.1l-.7-.7-.8-.8-.7.8.7.7-.7.8.7.7.8-.7zm-1.6 3.5l-.8-.7-.7-.8-.8.8.8.7-.8.8.8.7.7-.7zm-.8 3.8l-.8-.8-.7-.7-.8.7.8.8-.8.7.8.8.7-.8zm0 3.8l-.7-.8-.8-.7-.7.7.7.8-.7.7.7.8.8-.8zm.9 3.7l-.8-.7-.7-.8-.8.8.8.7-.8.8.8.7.7-.7zm1.7 3.5l-.8-.7-.7-.8-.8.8.8.7-.8.8.8.7.7-.7zm2.5 3.1l-.8-.7-.7-.8-.8.8.8.7-.8.8.8.7.7-.7zm3.1 2.5l-.7-.8-.8-.7-.7.7.7.8-.7.7.7.8.8-.8zm3.6 1.6l-.8-.8-.7-.7-.8.7.8.8-.8.7.8.8.7-.8zm3.7.8l-.7-.8-.8-.7-.7.7.7.8-.7.7.7.8.8-.8zm3.9-.1l-.8-.7-.7-.8-.8.8.8.7-.8.8.8.7.7-.7zm3.7-.8l-.7-.7-.8-.8-.7.8.7.7-.7.8.7.7.8-.7zm3.6-1.6l-.8-.8-.7-.7-.8.7.8.8-.8.7.8.8.7-.8zm2.3-3.3l-.7-.7-.8.7.8.8-.8.7.8.8.7-.8.8-.7zm-4-20.8l-.6-.5-.5.5.5.6-.5.5.5.5.6-.5.5-.5zm-1.7-1.2l-.5-.5-.6-.5-.5.5.5.5-.5.6.5.5.6-.5zm-2.5-1.1l-.5-.5-.5-.5-.6.5.6.5-.6.5.6.6.5-.6zm-2.6-.5l-.5-.6-.5-.5-.6.5.6.6-.6.5.6.5.5-.5zm-2.7 0l-.5-.5-.5-.5-.5.5.5.5-.5.5.5.6.5-.6zm-2.6.6l-.5-.5-.5-.5-.6.5.6.5-.6.6.6.5.5-.5zm-2.4 1.2L25 21l-.5-.5-.5.5.5.5-.5.6.5.5.5-.5zm-2.2 1.8l-.6-.5-.5-.6-.5.6.5.5-.5.5.5.5.5-.5zm-1.8 2.2l-.5-.5-.5-.6-.6.6.6.5-.6.5.6.5.5-.5zM20.5 28l-.6-.6-.5-.5-.5.5.5.6-.5.5.5.5.5-.5zm-.6 2.6l-.5-.6-.6-.5-.5.5.5.6-.5.5.5.5.6-.5zm0 2.6l-.5-.5-.5-.5-.6.5.6.5-.6.6.6.5.5-.5zm.6 2.7l-.5-.6-.5-.5-.6.5.6.6-.6.5.6.5.5-.5zm1.2 2.4l-.5-.5-.5-.5-.6.5.6.5-.6.5.6.6.5-.6zm1.8 2.2L23 40l-.6-.6-.5.6.5.5-.5.5.5.5.6-.5zm2.2 1.7l-.5-.5-.6-.6-.5.6.5.5-.5.5.5.5.6-.5zm2.5 1.1l-.6-.5-.5-.5-.5.5.5.5-.5.5.5.6.5-.6zm2.6.6l-.5-.6-.6-.5-.5.5.5.6-.5.5.5.5.6-.5zm2.7 0l-.5-.6-.6-.5-.5.5.5.6-.5.5.5.5.6-.5zm2.6-.6l-.5-.6-.5-.5-.6.5.6.6-.6.5.6.5.5-.5zm2.5-1.2l-.5-.5-.6-.5-.5.5.5.5-.5.5.5.6.6-.6zm1.6-2.2l-.5-.6-.5.6.5.5-.5.5.5.5.5-.5.6-.5z"/></svg>