<svg version="1.1" id="Layer_1" xmlns="http://www.w3.org/2000/svg" xmlns:xlink="http://www.w3.org/1999/xlink" x="0" y="0" viewBox="0 0 1229.9 767.5" xml:space="preserve"><style type="text/css">.st0{fill:#c8c9cb}.st0,.st1{clip-path:url(#SVGID_2_)}.st2{opacity:.7;clip-path:url(#SVGID_4_)}.st3{clip-path:url(#SVGID_6_);fill:none;stroke:#f1f1f2;stroke-miterlimit:10}</style><defs><path id="SVGID_1_" d="M0 0h1527.8v767.5H0z"/></defs><clipPath id="SVGID_2_"><use xlink:href="#SVGID_1_" overflow="visible"/></clipPath><path class="st0" d="M.7 0h1229.2v767.5H.7z"/><g class="st1"><defs><path id="SVGID_3_" d="M.7 0h1229.2v767.5H.7z"/></defs><clipPath id="SVGID_4_"><use xlink:href="#SVGID_3_" overflow="visible"/></clipPath><g class="st2"><defs><path id="SVGID_5_" d="M0 1.3h1527.8v764.6H0z"/></defs><clipPath id="SVGID_6_"><use xlink:href="#SVGID_5_" overflow="visible"/></clipPath><path class="st3" d="M286.9 192.8l95.4-95.4L286.9 2l-95.4 95.4L96.1 2 .7 97.4l95.4 95.4 95.4 95.4z"/><path class="st3" d="M96.1 192.8L.7 288.2l95.4 95.4 95.4-95.4 95.4 95.4 95.4-95.4-95.4-95.4-95.4-95.4z"/><path class="st3" d="M286.9 290.6l95.4-95.4-95.4-95.4-95.4 95.4-95.4-95.4L.7 195.2l95.4 95.4 95.4 95.4z"/><path class="st3" d="M96.1 290.6L.7 386l95.4 95.4 95.4-95.4 95.4 95.4 95.4-95.4-95.4-95.4-95.4-95.4z"/><path class="st3" d="M286.9 574.4l95.4-95.4-95.4-95.4-95.4 95.4-95.4-95.4L.7 479l95.4 95.4 95.4 95.4z"/><path class="st3" d="M96.1 574.4L.7 669.8l95.4 95.4 95.4-95.4 95.4 95.4 95.4-95.4-95.4-95.4-95.4-95.4zm572.4 0l95.4 95.4-95.4 95.4-95.4-95.4-95.4 95.4-95.4-95.4 95.4-95.4 95.4-95.4z"/><path class="st3" d="M477.7 574.4L382.3 479l95.4-95.4 95.4 95.4 95.4-95.4 95.4 95.4-95.4 95.4-95.4 95.4z"/><path class="st3" d="M668.5 481.4l95.4 95.4-95.4 95.4-95.4-95.4-95.4 95.4-95.4-95.4 95.4-95.4 95.4-95.4z"/><path class="st3" d="M477.7 481.4L382.3 386l95.4-95.4 95.4 95.4 95.4-95.4 95.4 95.4-95.4 95.4-95.4 95.4z"/><path class="st3" d="M668.5 192.8l95.4 95.4-95.4 95.4-95.4-95.4-95.4 95.4-95.4-95.4 95.4-95.4 95.4-95.4z"/><path class="st3" d="M477.7 192.8l-95.4-95.4L477.7 2l95.4 95.4L668.5 2l95.4 95.4-95.4 95.4-95.4 95.4zm572.4 0l95.4-95.4L1050.1 2l-95.4 95.4L859.3 2l-95.4 95.4 95.4 95.4 95.4 95.4z"/><path class="st3" d="M859.3 192.8l-95.4 95.4 95.4 95.4 95.4-95.4 95.4 95.4 95.4-95.4-95.4-95.4-95.4-95.4z"/><path class="st3" d="M1050.1 290.6l95.4-95.4-95.4-95.4-95.4 95.4-95.4-95.4-95.4 95.4 95.4 95.4 95.4 95.4z"/><path class="st3" d="M859.3 290.6L763.9 386l95.4 95.4 95.4-95.4 95.4 95.4 95.4-95.4-95.4-95.4-95.4-95.4z"/><path class="st3" d="M1050.1 574.4l95.4-95.4-95.4-95.4-95.4 95.4-95.4-95.4-95.4 95.4 95.4 95.4 95.4 95.4z"/><path class="st3" d="M859.3 574.4l-95.4 95.4 95.4 95.4 95.4-95.4 95.4 95.4 95.4-95.4-95.4-95.4-95.4-95.4z"/><path class="st3" d="M1431.7 574.4l95.4 95.4-95.4 95.4-95.4-95.4-95.4 95.4-95.4-95.4 95.4-95.4 95.4-95.4z"/><path class="st3" d="M1240.9 574.4l-95.4-95.4 95.4-95.4 95.4 95.4 95.4-95.4 95.4 95.4-95.4 95.4-95.4 95.4z"/><path class="st3" d="M1431.7 481.4l95.4 95.4-95.4 95.4-95.4-95.4-95.4 95.4-95.4-95.4 95.4-95.4 95.4-95.4z"/><path class="st3" d="M1240.9 481.4l-95.4-95.4 95.4-95.4 95.4 95.4 95.4-95.4 95.4 95.4-95.4 95.4-95.4 95.4z"/><path class="st3" d="M1431.7 192.8l95.4 95.4-95.4 95.4-95.4-95.4-95.4 95.4-95.4-95.4 95.4-95.4 95.4-95.4z"/><path class="st3" d="M1240.9 192.8l-95.4-95.4L1240.9 2l95.4 95.4L1431.7 2l95.4 95.4-95.4 95.4-95.4 95.4z"/></g></g></svg>