<svg version="1.1" id="Layer_1" xmlns="http://www.w3.org/2000/svg" xmlns:xlink="http://www.w3.org/1999/xlink" x="0" y="0" viewBox="0 0 1700 1055" xml:space="preserve"><style type="text/css">.st0{opacity:.7;clip-path:url(#SVGID_2_)}.st1{opacity:.5}.st2{fill:#4370b1}</style><defs><path id="SVGID_1_" d="M0 0h1700v1055H0z"/></defs><clipPath id="SVGID_2_"><use xlink:href="#SVGID_1_" overflow="visible"/></clipPath><g class="st0"><g class="st1"><path class="st2" d="M132.6 396.5l-.4-.4L-132 131.9l.4-.4L.7-.9l.4.4L132.6 131 264.4-.9l.4.4 132.3 132.3-.4.4-264.1 264.3zm-262.9-264.6l262.9 262.9L264 263.3l.4.4-.4-.4 131.4-131.4-131-131-131.8 131.9-.4-.4L.7.9l-131 131z"/></g><g class="st1"><path class="st2" d="M264.4 528.4l-.4-.4-131.4-131.5L.7 528.4l-.4-.4L-132 395.7l.4-.4L132.6 131l.4.4 264.2 264.2-.4.4-132.4 132.4zM132.6 394.7l.4.4 131.4 131.4 131-131-262.8-262.7-262.9 262.9 131 131 131.9-132z"/></g><g class="st1"><path class="st2" d="M132.6 531.8l-.4-.4L-132 267.2l.4-.4L.7 134.4l.4.4 131.4 131.4 131.9-131.9.4.4L397.1 267l-.4.4-264.1 264.4zm-262.9-264.7L132.6 530 264 398.6l.4.4-.4-.4 131.4-131.4-131-131L132.6 268l-.4-.4L.7 136.1l-131 131z"/></g><g class="st1"><path class="st2" d="M264.4 663.6l-.4-.4-131.4-131.4L.7 663.6l-.4-.4L-132 530.9l.4-.4 264.2-264.2.4.4 264.2 264.2-.4.4-132.4 132.3zM132.6 530l.4.4 131.4 131.4 131-131L132.6 268l-262.9 262.9 131 131L132.6 530z"/></g><g class="st1"><path class="st2" d="M132.6 924l-.4-.4L-132 659.4l.4-.4L.7 526.6l.4.4 131.4 131.4 131.9-131.9.4.4 132.3 132.3-.4.4L132.6 924zm-262.9-264.6l262.9 262.9L264 790.8l.4.4-.4-.4 131.4-131.4-131-131-131.8 131.9-.4-.4L.7 528.4l-131 131z"/></g><g class="st1"><path class="st2" d="M264.4 1055.9l-.4-.4L132.6 924 .7 1055.9l-.4-.4L-132 923.2l.4-.4 264.2-264.2.4.4 264.2 264.2-.4.4-132.4 132.3zM132.6 922.2l.4.4L264.4 1054l131-131-262.8-262.7-262.9 262.9 131 131 131.9-132z"/></g><g class="st1"><path class="st2" d="M791.9 1055.9l-.4-.4L660.1 924l-131.9 131.9-.4-.4-132.4-132.4.4-.4L660 658.5l.4.4 264.2 264.2-.4.4-132.3 132.4zM660.1 922.2l.4.4L791.9 1054l131-131-262.8-262.7-262.9 262.8 131 131 131.9-131.9z"/></g><g class="st1"><path class="st2" d="M660.1 924l-.4-.4-264.3-264.2.4-.4 132.3-132.3.4.4 131.4 131.4 131.9-131.9.4.4 132.3 132.3-.4.4-264 264.3zM528.6 790.8L660 922.2l262.9-262.9-131-131-131.8 132-.4-.4-131.5-131.5-131 131 131.4 131.4z"/></g><g class="st1"><path class="st2" d="M791.9 927.4l-.4-.4-131.4-131.5-131.9 131.9-.4-.4-132.4-132.4.4-.4L660.1 530l.4.4 264.2 264.2-.4.4-132.4 132.4zM660.1 793.7l.4.4 131.4 131.4 131-131-262.8-262.7-262.9 262.8 131 131 131.9-131.9z"/></g><g class="st1"><path class="st2" d="M660.1 795.5l-.4-.4-264.3-264.2.4-.4 132.3-132.3.4.4L660.1 530 792 398.1l.4.4 132.3 132.3-.4.4-264.2 264.3zM528.6 662.3L660 793.7l262.9-262.9-131-131-131.8 132-.4-.4-131.5-131.5-131 131 131.4 131.4z"/></g><g class="st1"><path class="st2" d="M791.9 528.4l-.4-.4-131.4-131.5-131.9 131.9-.4-.4-132.4-132.4.4-.4L660.1 131l.4.4 264.2 264.2-.4.4-132.4 132.4zM660.1 394.7l.4.4 131.4 131.4 131-131-262.8-262.7-262.9 262.8 131 131 131.9-131.9z"/></g><g class="st1"><path class="st2" d="M660.1 396.5l-.4-.4-264.3-264.2.4-.4L528.2-.9l.4.4L660.1 131 791.9-.9l.4.4 132.3 132.3-.4.4-264.1 264.3zM528.6 263.3L660 394.7l262.9-262.9-131-131-131.8 132-.4-.4L528.2.9l-131 131 131.4 131.4z"/></g><g class="st1"><path class="st2" d="M1187.6 396.5l-.4-.4-264.3-264.2.4-.4L1055.7-.9l.4.4L1187.6 131 1319.4-.9l.4.4 132.3 132.3-.4.4-264.1 264.3zM924.7 131.9l262.9 262.9L1319 263.3l.4.4-.4-.4 131.4-131.4-131-131-131.9 131.9-.4-.4L1055.7.9l-131 131z"/></g><g class="st1"><path class="st2" d="M1319.4 528.4l-.4-.4-131.4-131.4-131.9 131.9-.4-.4-132.4-132.5.4-.4L1187.6 131l.4.4 264.2 264.2-.4.4-132.4 132.4zm-131.8-133.7l.4.4 131.4 131.4 131-131-262.9-262.9L1056.1 264l-.4-.4.4.4-131.4 131.6 131 131 131.9-131.9z"/></g><g class="st1"><path class="st2" d="M1187.6 531.8l-.4-.4-264.3-264.3.4-.4 132.3-132.3.4.4 131.4 131.4 131.9-131.9.4.4L1452 267l-.4.4-264 264.4zM924.7 267.1L1187.6 530 1319 398.6l.4.4-.4-.4 131.4-131.4-131-131L1187.6 268l-.4-.4-131.4-131.4-131.1 130.9z"/></g><g class="st1"><path class="st2" d="M1319.4 663.6l-.4-.4-131.4-131.4-131.9 131.9-.4-.4-132.4-132.4.4-.4 264.2-264.2.4.4 264.2 264.2-.4.4-132.3 132.3zM1187.6 530l.4.4 131.4 131.4 131-131L1187.6 268l-131.4 131.4-.4-.4.4.4-131.5 131.5 131 131L1187.6 530z"/></g><g class="st1"><path class="st2" d="M1187.6 924l-.4-.4-264.3-264.2.4-.4 132.3-132.3.4.4 131.4 131.4 131.9-131.9.4.4L1452 659.3l-.4.4-264 264.3zM924.7 659.4l262.9 262.9L1319 790.8l.4.4-.4-.4 131.4-131.4-131-131-131.9 131.9-.4-.4-131.4-131.4-131 130.9z"/></g><g class="st1"><path class="st2" d="M1319.4 1055.9l-.4-.4L1187.6 924l-131.9 131.9-.4-.4-132.4-132.4.4-.4 264.2-264.2.4.4 264.2 264.2-.4.4-132.3 132.4zm-131.8-133.7l.4.4 131.4 131.4 131-131-262.9-262.9-131.4 131.4-.4-.4.4.4-131.4 131.6 131 131 131.9-131.9z"/></g><g class="st1"><path class="st2" d="M1846.9 1055.9l-.4-.4L1715.1 924l-131.9 131.9-.4-.4-132.3-132.3.4-.4 264.2-264.2.4.4 264.2 264.2-.4.4-132.4 132.3zm-131.8-133.7l.4.4 131.4 131.4 131-131L1715 660.1 1452.1 923l131 131 132-131.8z"/></g><g class="st1"><path class="st2" d="M1715.1 924l-.4-.4-264.2-264.2.4-.4 132.3-132.3.4.4L1715 658.5l131.9-131.9.4.4 132.3 132.3-.4.4L1715.1 924zm-131.5-133.2L1715 922.2l262.9-262.9-131-131L1715 660.2l-.4-.4-131.4-131.4-131 131 131.4 131.4z"/></g><g class="st1"><path class="st2" d="M1846.9 927.4l-.4-.4-131.4-131.4-131.9 131.9-.4-.4-132.3-132.3.4-.4L1715.1 530l.4.4 264.2 264.2-.4.4-132.4 132.4zm-131.8-133.7l.4.4 131.4 131.4 131-131L1715 531.6l-262.9 262.9 131 131 132-131.8z"/></g><g class="st1"><path class="st2" d="M1715.1 795.5l-.4-.4-264.2-264.2.4-.4 132.3-132.3.4.4L1715.1 530 1847 398.1l.4.4 132.3 132.3-.4.4-264.2 264.3zm-131.5-133.2L1715 793.7l262.9-262.9-131-131L1715 531.7l-.4-.4-131.4-131.4-131 131 131.4 131.4z"/></g><g class="st1"><path class="st2" d="M1846.9 528.4l-.4-.4-131.4-131.4-131.9 131.9-.4-.4-132.3-132.3.4-.4L1715.1 131l.4.4 264.2 264.2-.4.4-132.4 132.4zm-131.8-133.7l.4.4 131.4 131.4 131-131L1715 132.6l-262.9 262.9 131 131 132-131.8z"/></g><g class="st1"><path class="st2" d="M1715.1 396.5l-.4-.4-264.2-264.2.4-.4L1583.2-.9l.4.4L1715.1 131 1846.9-.9l.4.4 132.3 132.3-.4.4-264.1 264.3zm-131.5-133.2L1715 394.7l262.9-262.9-131-131L1715 132.7l-.4-.4L1583.2.9l-131 131 131.4 131.4z"/></g></g></svg>