<svg version="1.1" id="Layer_1" xmlns="http://www.w3.org/2000/svg" xmlns:xlink="http://www.w3.org/1999/xlink" x="0" y="0" viewBox="0 0 1230 768" xml:space="preserve"><style type="text/css">.st0{clip-path:url(#SVGID_2_)}.st1{opacity:.7;fill:none;stroke:#dda692;stroke-width:1.2;stroke-miterlimit:10}</style><defs><path id="SVGID_1_" d="M0 0h1230v768H0z"/></defs><use xlink:href="#SVGID_1_" overflow="visible" fill="#cc886d"/><clipPath id="SVGID_2_"><use xlink:href="#SVGID_1_" overflow="visible"/></clipPath><g class="st0"><path class="st1" d="M214.6 687.7L63.9 838.5-86.9 687.7 63.9 537-86.9 386.2 63.9 235.4l150.7 150.8L365.4 537z"/><path class="st1" d="M290 310.8l-75.4 75.4-75.3-75.4 75.3-75.4-75.3-75.3 75.3-75.4 75.4 75.4 75.4 75.3z"/><path class="st1" d="M327.7 122.4L290 160.1l-37.7-37.7L290 84.7 252.3 47 290 9.3 327.7 47l37.7 37.7zm75.4 75.3l-37.7 37.7-37.7-37.7 37.7-37.6-37.7-37.7 37.7-37.7 37.7 37.7 37.7 37.7z"/><path class="st1" d="M478.5 273.1l-37.7 37.7-37.7-37.7 37.7-37.7-37.7-37.7 37.7-37.6 37.7 37.6 37.7 37.7z"/><path class="st1" d="M553.9 348.5l-37.7 37.7-37.7-37.7 37.7-37.7-37.7-37.7 37.7-37.7 37.7 37.7 37.7 37.7zm-75.2 226.3L441 612.5l-37.7-37.7 37.7-37.7-37.7-37.7 37.7-37.6 37.7 37.6 37.6 37.7z"/><path class="st1" d="M554 650.2l-37.7 37.7-37.6-37.7 37.6-37.7-37.6-37.7 37.6-37.7 37.7 37.7 37.7 37.7zM440.8 461.6L365.4 537 290 461.6l75.4-75.4-75.4-75.4 75.4-75.4 75.4 75.4 75.4 75.4zM139.3 160.1l-75.4 75.3-75.4-75.3 75.4-75.4-75.4-75.4 75.4-75.4 75.4 75.4 75.3 75.4zm301.5-301.6l-75.4 75.4-75.4-75.4 75.4-75.4-75.4-75.3 75.4-75.4 75.4 75.4 75.4 75.3z"/><path class="st1" d="M667.1 537.1l-75.4 75.4-75.4-75.4 75.4-75.3-75.4-75.4 75.4-75.4 75.4 75.4 75.4 75.4zM290.2 914l-75.4 75.4-75.4-75.4 75.4-75.3-75.4-75.4 75.4-75.4 75.4 75.4 75.4 75.4zM441 763.3l-75.4 75.4-75.4-75.4 75.4-75.4-75.4-75.4 75.4-75.4 75.4 75.4 75.3 75.4z"/><path class="st1" d="M667.1 1140.2L516.3 1291l-150.7-150.8 150.7-150.8-150.7-150.7 150.7-150.8 150.8 150.8 150.8 150.7z"/><path class="st1" d="M742.5 763.3l-75.4 75.4-75.4-75.4 75.4-75.4-75.4-75.4 75.4-75.4 75.4 75.4 75.4 75.4z"/><path class="st1" d="M780.2 574.8l-37.7 37.7-37.7-37.7 37.7-37.7-37.7-37.7 37.7-37.6 37.7 37.6 37.7 37.7z"/><path class="st1" d="M855.6 650.2l-37.7 37.7-37.7-37.7 37.7-37.7-37.7-37.7 37.7-37.7 37.7 37.7 37.7 37.7z"/><path class="st1" d="M930.9 725.6l-37.6 37.7-37.7-37.7 37.7-37.7-37.7-37.7 37.7-37.7 37.6 37.7 37.7 37.7z"/><path class="st1" d="M1006.3 801l-37.7 37.7-37.7-37.7 37.7-37.7-37.7-37.7 37.7-37.7 37.7 37.7 37.7 37.7zm-75.2 226.3l-37.7 37.7-37.7-37.7 37.7-37.7-37.7-37.7 37.7-37.7 37.7 37.7 37.7 37.7z"/><path class="st1" d="M1006.5 1102.7l-37.7 37.7-37.7-37.7 37.7-37.7-37.7-37.7 37.7-37.7 37.7 37.7 37.7 37.7zM893.3 914l-75.4 75.4-75.4-75.4 75.4-75.3-75.4-75.4 75.4-75.4 75.4 75.4 75.3 75.4z"/><path class="st1" d="M1119.6 989.6l-75.4 75.4-75.4-75.4 75.4-75.4-75.4-75.4 75.4-75.4 75.4 75.4 75.4 75.4zm-376.9 376.9l-75.4 75.4-75.4-75.4 75.4-75.4-75.4-75.4 75.4-75.3 75.4 75.3 75.3 75.4z"/><path class="st1" d="M893.4 1215.7l-75.4 75.4-75.3-75.4 75.3-75.3-75.3-75.4 75.3-75.4 75.4 75.4 75.4 75.4zM742.3 160.1L591.6 310.8 440.8 160.1 591.6 9.3 440.8-141.5l150.8-150.7 150.7 150.7L893.1 9.3zm75.4-377l-75.4 75.4-75.4-75.4 75.4-75.3-75.4-75.4 75.4-75.4 75.4 75.4 75.4 75.4z"/><path class="st1" d="M855.4-405.3l-37.7 37.7-37.7-37.7 37.7-37.7-37.7-37.7 37.7-37.7 37.7 37.7 37.7 37.7z"/><path class="st1" d="M930.8-329.9l-37.7 37.7-37.7-37.7 37.7-37.7-37.7-37.7 37.7-37.7 37.7 37.7 37.7 37.7zM-161.9 461.9l-75.4 75.4-75.4-75.4 75.4-75.4-75.4-75.3 75.4-75.4 75.4 75.4 75.3 75.3zM290.4 9.6L215 85 139.6 9.6 215-65.8l-75.4-75.3 75.4-75.4 75.4 75.4 75.3 75.3zm452.3-452.3l-75.4 75.4-75.4-75.4 75.4-75.4-75.4-75.3 75.4-75.4 75.4 75.4 75.3 75.3zm-866.9 716.2l-37.7 37.7-37.7-37.7 37.7-37.7-37.7-37.7 37.7-37.7 37.7 37.7 37.6 37.7zm75.3 75.3l-37.7 37.7-37.6-37.7 37.6-37.6-37.6-37.7 37.6-37.7 37.7 37.7 37.7 37.7z"/><path class="st1" d="M1006.2-254.5l-37.7 37.6-37.7-37.6 37.7-37.7-37.7-37.7 37.7-37.7 37.7 37.7 37.7 37.7z"/><path class="st1" d="M1081.5-179.2l-37.6 37.7-37.7-37.7 37.7-37.7-37.7-37.7 37.7-37.6 37.6 37.6 37.7 37.7zM-48.9 198.1l-37.7 37.7-37.6-37.7 37.6-37.7-37.6-37.7L-86.6 85l37.7 37.7 37.7 37.7zm75.4 75.4l-37.7 37.7-37.7-37.7 37.7-37.7-37.7-37.7 37.7-37.7 37.7 37.7 37.7 37.7zm452.3-603.1l-37.7 37.7-37.7-37.7 37.7-37.7-37.7-37.7 37.7-37.7 37.7 37.7 37.7 37.7zm75.4 75.4l-37.7 37.7-37.7-37.7 37.7-37.7-37.7-37.7 37.7-37.7 37.7 37.7 37.7 37.7z"/><path class="st1" d="M554.2-405l-37.7 37.7-37.7-37.7 37.7-37.7-37.7-37.7 37.7-37.7 37.7 37.7 37.7 37.7z"/><path class="st1" d="M629.6-329.6l-37.7 37.7-37.7-37.7 37.7-37.7-37.7-37.7 37.7-37.7 37.7 37.7 37.7 37.7zm376.7 376.7l-37.7 37.7-37.7-37.7 37.7-37.6-37.7-37.7 37.7-37.7 37.7 37.7L1044 9.5z"/><path class="st1" d="M1081.7 122.5l-37.7 37.7-37.7-37.7 37.7-37.7-37.7-37.7L1044 9.5l37.7 37.6 37.7 37.7zM968.5-66.1L893.1 9.3l-75.4-75.4 75.4-75.4-75.4-75.4 75.4-75.3 75.4 75.3 75.4 75.4z"/><path class="st1" d="M1194.8 9.5l-75.4 75.3L1044 9.5l75.4-75.4-75.4-75.4 75.4-75.4 75.4 75.4 75.4 75.4zM817.9 386.4l-75.4 75.4-75.4-75.4 75.4-75.4-75.4-75.4 75.4-75.4 75.4 75.4 75.4 75.4z"/><path class="st1" d="M968.6 235.6L893.3 311l-75.4-75.4 75.4-75.4-75.4-75.4 75.4-75.3 75.3 75.3 75.4 75.4z"/><path class="st1" d="M1194.8 612.5L1044 763.3 893.3 612.5 1044 461.8 893.3 311 1044 160.2 1194.8 311l150.8 150.8z"/><path class="st1" d="M1270.2 235.6l-75.4 75.4-75.4-75.4 75.4-75.4-75.4-75.4 75.4-75.3 75.4 75.3 75.4 75.4z"/><path class="st1" d="M1307.9 47.1l-37.7 37.7-37.7-37.7 37.7-37.6-37.7-37.7 37.7-37.7 37.7 37.7 37.7 37.7z"/><path class="st1" d="M1383.2 122.5l-37.6 37.7-37.7-37.7 37.7-37.7-37.7-37.7 37.7-37.6 37.6 37.6 37.7 37.7z"/><path class="st1" d="M1458.6 197.9l-37.7 37.7-37.7-37.7 37.7-37.7-37.7-37.7 37.7-37.7 37.7 37.7 37.7 37.7z"/><path class="st1" d="M1534 273.3l-37.7 37.7-37.7-37.7 37.7-37.7-37.7-37.7 37.7-37.7 37.7 37.7 37.7 37.7zm-75.2 226.3l-37.7 37.7-37.7-37.7 37.7-37.7-37.7-37.7 37.7-37.7 37.7 37.7 37.7 37.7z"/><path class="st1" d="M1534.2 575l-37.7 37.7-37.7-37.7 37.7-37.7-37.7-37.7 37.7-37.7 37.7 37.7 37.7 37.7zm-113.3-188.6l-75.3 75.4-75.4-75.4 75.4-75.4-75.4-75.4 75.4-75.4 75.3 75.4 75.4 75.4z"/><path class="st1" d="M1647.2 461.9l-75.3 75.4-75.4-75.4 75.4-75.4-75.4-75.3 75.4-75.4 75.3 75.4 75.4 75.3zm-376.9 376.9l-75.3 75.4-75.4-75.4 75.4-75.4-75.4-75.3 75.4-75.4 75.3 75.4 75.4 75.3z"/><path class="st1" d="M1421.1 688.1l-75.4 75.3-75.4-75.3 75.4-75.4-75.4-75.4 75.4-75.4 75.4 75.4 75.4 75.4z"/></g></svg>