<?xml version="1.0" encoding="utf-8"?>
<!-- Generator: Adobe Illustrator 20.1.0, SVG Export Plug-In . SVG Version: 6.00 Build 0)  -->
<svg version="1.1" id="Layer_1" xmlns="http://www.w3.org/2000/svg" xmlns:xlink="http://www.w3.org/1999/xlink" x="0px" y="0px"
	 viewBox="0 0 1700 524" style="enable-background:new 0 0 1700 524;" xml:space="preserve">
<style type="text/css">
	.st0{clip-path:url(#SVGID_2_);}
	.st1{opacity:0.7;}
	.st2{fill:#0E5896;}
</style>
<g>
	<defs>
		<rect id="SVGID_1_" width="1700" height="524"/>
	</defs>
	<use xlink:href="#SVGID_1_"  style="overflow:visible;fill:#033572;"/>
	<clipPath id="SVGID_2_">
		<use xlink:href="#SVGID_1_"  style="overflow:visible;"/>
	</clipPath>
	<g class="st0">
		<g class="st1">
			<g>
				<path class="st2" d="M48.3,310.5l-0.4-0.4L-61.3,200.9l0.4-0.4L47.4,92.2L-61.3-16.4l0.4-0.4L48.3-126l0.4,0.4L266.5,92.2
					l-0.4,0.4L48.3,310.5z M-59.5,200.9L48.3,308.7l108.2-108.2l0.4,0.4l-0.4-0.4L264.7,92.2L48.3-124.2L-59.5-16.4L49.2,92.2
					l-0.4,0.4L-59.5,200.9z"/>
			</g>
			<g>
				<path class="st2" d="M135.6,310.5l-0.4-0.4L26,200.9l0.4-0.4L134.7,92.2L26-16.4l0.4-0.4L135.6-126l0.4,0.4L353.8,92.2l-0.4,0.4
					L135.6,310.5z M27.8,200.9l107.8,107.8L352,92.2L135.6-124.2L27.8-16.4L136.4,92.2l-0.4,0.4L27.8,200.9z"/>
			</g>
			<g>
				<path class="st2" d="M222.9,310.5l-0.4-0.4L113.3,200.9l0.4-0.4L222,92.2L113.3-16.4l0.4-0.4L222.9-126l0.4,0.4L441.1,92.2
					l-0.4,0.4L222.9,310.5z M115.1,200.9l107.8,107.8L439.3,92.2L222.9-124.2L115.1-16.4L223.7,92.2l-0.4,0.4L115.1,200.9z"/>
			</g>
			<g>
				<path class="st2" d="M310.2,310.5l-0.4-0.4L200.6,200.9l0.4-0.4L309.3,92.2L200.6-16.4l0.4-0.4L310.2-126l0.4,0.4L528.4,92.2
					l-0.4,0.4L310.2,310.5z M202.4,200.9l107.8,107.8L526.6,92.2L310.2-124.2L202.4-16.4L311,92.2l-0.4,0.4L202.4,200.9z"/>
			</g>
			<g>
				<path class="st2" d="M397.5,310.5L397,310L287.9,200.9l0.4-0.4L396.6,92.2L287.9-16.4l0.4-0.4L397.5-126l0.4,0.4L615.7,92.2
					l-0.4,0.4L397.5,310.5z M289.7,200.9l107.8,107.8L613.9,92.2L397.5-124.2L289.7-16.4L398.3,92.2l-0.4,0.4L289.7,200.9z"/>
			</g>
			<g>
				<path class="st2" d="M484.8,310.5l-0.4-0.4L375.2,200.9l0.4-0.4L483.9,92.2L375.2-16.4l0.4-0.4L484.8-126l0.4,0.4L703,92.2
					l-0.4,0.4L484.8,310.5z M377,200.9l107.8,107.8L701.2,92.2L484.8-124.2L377-16.4L485.6,92.2l-0.4,0.4L377,200.9z"/>
			</g>
			<g>
				<path class="st2" d="M572,310.5l-0.4-0.4L462.5,200.9l0.4-0.4L571.2,92.2L462.5-16.4l0.4-0.4L572-126l0.4,0.4L790.3,92.2
					l-0.4,0.4L572,310.5z M464.3,200.9L572,308.7L788.5,92.2L572-124.2L464.3-16.4L572.9,92.2l-0.4,0.4L464.3,200.9z"/>
			</g>
			<g>
				<path class="st2" d="M659.3,310.5l-0.4-0.4L549.8,200.9l0.4-0.4L658.5,92.2L549.8-16.4l0.4-0.4L659.3-126l0.4,0.4L877.6,92.2
					l-0.4,0.4L659.3,310.5z M551.6,200.9l107.8,107.8L875.8,92.2L659.3-124.2L551.6-16.4L660.2,92.2l-0.4,0.4L551.6,200.9z"/>
			</g>
			<g>
				<path class="st2" d="M746.6,310.5l-0.4-0.4L637.1,200.9l0.4-0.4L745.8,92.2L637.1-16.4l0.4-0.4L746.6-126l0.4,0.4L964.9,92.2
					l-0.4,0.4L746.6,310.5z M638.9,200.9l107.8,107.8L963.1,92.2L746.6-124.2L638.9-16.4L747.5,92.2l-0.4,0.4L638.9,200.9z"/>
			</g>
			<g>
				<path class="st2" d="M833.9,310.5l-0.4-0.4L724.4,200.9l0.4-0.4L833.1,92.2L724.4-16.4l0.4-0.4L833.9-126l0.4,0.4l217.8,217.8
					l-0.4,0.4L833.9,310.5z M726.2,200.9l107.8,107.8l216.5-216.5L833.9-124.2L726.2-16.4L834.8,92.2l-0.4,0.4L726.2,200.9z"/>
			</g>
			<g>
				<path class="st2" d="M921.2,310.5l-0.4-0.4L811.7,200.9l0.4-0.4L920.4,92.2L811.7-16.4l0.4-0.4L921.2-126l0.4,0.4l217.8,217.8
					l-0.4,0.4L921.2,310.5z M813.4,200.9l107.8,107.8l216.5-216.5L921.2-124.2L813.4-16.4L922.1,92.2l-0.4,0.4L813.4,200.9z"/>
			</g>
			<g>
				<path class="st2" d="M1008.5,310.5l-0.4-0.4L899,200.9l0.4-0.4l108.2-108.2L899-16.4l0.4-0.4L1008.5-126l0.4,0.4l217.8,217.8
					l-0.4,0.4L1008.5,310.5z M900.7,200.9l107.8,107.8L1225,92.2l-216.5-216.5L900.7-16.4l108.7,108.7l-0.4,0.4L900.7,200.9z"/>
			</g>
			<g>
				<path class="st2" d="M1095.8,310.5l-0.4-0.4L986.3,200.9l0.4-0.4l108.2-108.2L986.3-16.4l0.4-0.4L1095.8-126l0.4,0.4
					l217.8,217.8l-0.4,0.4L1095.8,310.5z M988,200.9l107.8,107.8l216.5-216.5l-216.5-216.5L988-16.4l108.7,108.7l-0.4,0.4L988,200.9
					z"/>
			</g>
			<g>
				<path class="st2" d="M1183.1,310.5l-0.4-0.4l-109.1-109.1l0.4-0.4l108.2-108.2L1073.6-16.4l0.4-0.4L1183.1-126l0.4,0.4
					l217.8,217.8l-0.4,0.4L1183.1,310.5z M1075.3,200.9l107.8,107.8l216.5-216.5l-216.5-216.5L1075.3-16.4L1184,92.2l-0.4,0.4
					L1075.3,200.9z"/>
			</g>
			<g>
				<path class="st2" d="M1270.4,310.5l-0.4-0.4l-109.1-109.1l0.4-0.4l108.2-108.2L1160.9-16.4l0.4-0.4L1270.4-126l0.4,0.4
					l217.8,217.8l-0.4,0.4L1270.4,310.5z M1162.6,200.9l107.8,107.8l216.5-216.5l-216.5-216.5L1162.6-16.4l108.7,108.7l-0.4,0.4
					L1162.6,200.9z"/>
			</g>
			<g>
				<path class="st2" d="M1357.7,310.5l-0.4-0.4l-109.1-109.1l0.4-0.4l108.2-108.2L1248.2-16.4l0.4-0.4L1357.7-126l0.4,0.4
					l217.8,217.8l-0.4,0.4L1357.7,310.5z M1249.9,200.9l107.8,107.8l216.5-216.5l-216.5-216.5L1249.9-16.4l108.7,108.7l-0.4,0.4
					L1249.9,200.9z"/>
			</g>
			<g>
				<path class="st2" d="M1445,310.5l-0.4-0.4l-109.1-109.1l0.4-0.4l108.2-108.2L1335.5-16.4l0.4-0.4L1445-126l0.4,0.4l217.8,217.8
					l-0.4,0.4L1445,310.5z M1337.2,200.9L1445,308.7l216.5-216.5L1445-124.2L1337.2-16.4l108.7,108.7l-0.4,0.4L1337.2,200.9z"/>
			</g>
			<g>
				<path class="st2" d="M1532.3,310.5l-0.4-0.4l-109.1-109.1l0.4-0.4l108.2-108.2L1422.8-16.4l0.4-0.4L1532.3-126l0.4,0.4
					l217.8,217.8l-0.4,0.4L1532.3,310.5z M1424.5,200.9l107.8,107.8l216.5-216.5l-216.5-216.5L1424.5-16.4l108.7,108.7l-0.4,0.4
					L1424.5,200.9z"/>
			</g>
			<g>
				<path class="st2" d="M1619.6,310.5l-0.4-0.4l-109.1-109.1l0.4-0.4l108.2-108.2L1510.1-16.4l0.4-0.4L1619.6-126l0.4,0.4
					l217.8,217.8l-0.4,0.4L1619.6,310.5z M1511.8,200.9l107.8,107.8l108.2-108.2l0.4,0.4l-0.4-0.4l108.2-108.2l-216.5-216.5
					L1511.8-16.4l108.7,108.7l-0.4,0.4L1511.8,200.9z"/>
			</g>
		</g>
		<g class="st1">
			<g>
				<path class="st2" d="M48.3,745.2l-0.4-0.4L-61.3,635.6l0.4-0.4L47.4,526.9L-61.3,418.3l0.4-0.4L48.3,308.7l0.4,0.4l217.8,217.8
					l-0.4,0.4L48.3,745.2z M-59.5,635.6L48.3,743.4l108.2-108.2l0.4,0.4l-0.4-0.4l108.2-108.2L48.3,310.5L-59.5,418.3L49.2,526.9
					l-0.4,0.4L-59.5,635.6z"/>
			</g>
			<g>
				<path class="st2" d="M135.6,745.2l-0.4-0.4L26,635.6l0.4-0.4l108.2-108.2L26,418.3l0.4-0.4l109.1-109.1l0.4,0.4l217.8,217.8
					l-0.4,0.4L135.6,745.2z M27.8,635.6l107.8,107.8L352,526.9L135.6,310.5L27.8,418.3l108.7,108.7l-0.4,0.4L27.8,635.6z"/>
			</g>
			<g>
				<path class="st2" d="M222.9,745.2l-0.4-0.4L113.3,635.6l0.4-0.4L222,526.9L113.3,418.3l0.4-0.4l109.1-109.1l0.4,0.4l217.8,217.8
					l-0.4,0.4L222.9,745.2z M115.1,635.6l107.8,107.8l216.5-216.5L222.9,310.5L115.1,418.3l108.7,108.7l-0.4,0.4L115.1,635.6z"/>
			</g>
			<g>
				<path class="st2" d="M310.2,745.2l-0.4-0.4L200.6,635.6l0.4-0.4l108.2-108.2L200.6,418.3l0.4-0.4l109.1-109.1l0.4,0.4
					l217.8,217.8l-0.4,0.4L310.2,745.2z M202.4,635.6l107.8,107.8l216.5-216.5L310.2,310.5L202.4,418.3L311,526.9l-0.4,0.4
					L202.4,635.6z"/>
			</g>
			<g>
				<path class="st2" d="M397.5,745.2l-0.4-0.4L287.9,635.6l0.4-0.4l108.2-108.2L287.9,418.3l0.4-0.4l109.1-109.1l0.4,0.4
					l217.8,217.8l-0.4,0.4L397.5,745.2z M289.7,635.6l107.8,107.8l216.5-216.5L397.5,310.5L289.7,418.3l108.7,108.7l-0.4,0.4
					L289.7,635.6z"/>
			</g>
			<g>
				<path class="st2" d="M484.8,745.2l-0.4-0.4L375.2,635.6l0.4-0.4l108.2-108.2L375.2,418.3l0.4-0.4l109.1-109.1l0.4,0.4L703,526.9
					l-0.4,0.4L484.8,745.2z M377,635.6l107.8,107.8l216.5-216.5L484.8,310.5L377,418.3l108.7,108.7l-0.4,0.4L377,635.6z"/>
			</g>
			<g>
				<path class="st2" d="M572,745.2l-0.4-0.4L462.5,635.6l0.4-0.4l108.2-108.2L462.5,418.3l0.4-0.4L572,308.7l0.4,0.4l217.8,217.8
					l-0.4,0.4L572,745.2z M464.3,635.6L572,743.4l216.5-216.5L572,310.5L464.3,418.3l108.7,108.7l-0.4,0.4L464.3,635.6z"/>
			</g>
			<g>
				<path class="st2" d="M659.3,745.2l-0.4-0.4L549.8,635.6l0.4-0.4l108.2-108.2L549.8,418.3l0.4-0.4l109.1-109.1l0.4,0.4
					l217.8,217.8l-0.4,0.4L659.3,745.2z M551.6,635.6l107.8,107.8l216.5-216.5L659.3,310.5L551.6,418.3l108.7,108.7l-0.4,0.4
					L551.6,635.6z"/>
			</g>
			<g>
				<path class="st2" d="M746.6,745.2l-0.4-0.4L637.1,635.6l0.4-0.4l108.2-108.2L637.1,418.3l0.4-0.4l109.1-109.1l0.4,0.4
					l217.8,217.8l-0.4,0.4L746.6,745.2z M638.9,635.6l107.8,107.8l216.5-216.5L746.6,310.5L638.9,418.3l108.7,108.7l-0.4,0.4
					L638.9,635.6z"/>
			</g>
			<g>
				<path class="st2" d="M833.9,745.2l-0.4-0.4L724.4,635.6l0.4-0.4l108.2-108.2L724.4,418.3l0.4-0.4l109.1-109.1l0.4,0.4
					l217.8,217.8l-0.4,0.4L833.9,745.2z M726.2,635.6l107.8,107.8l216.5-216.5L833.9,310.5L726.2,418.3l108.7,108.7l-0.4,0.4
					L726.2,635.6z"/>
			</g>
			<g>
				<path class="st2" d="M921.2,745.2l-0.4-0.4L811.7,635.6l0.4-0.4l108.2-108.2L811.7,418.3l0.4-0.4l109.1-109.1l0.4,0.4
					l217.8,217.8l-0.4,0.4L921.2,745.2z M813.4,635.6l107.8,107.8l216.5-216.5L921.2,310.5L813.4,418.3l108.7,108.7l-0.4,0.4
					L813.4,635.6z"/>
			</g>
			<g>
				<path class="st2" d="M1008.5,745.2l-0.4-0.4L899,635.6l0.4-0.4l108.2-108.2L899,418.3l0.4-0.4l109.1-109.1l0.4,0.4l217.8,217.8
					l-0.4,0.4L1008.5,745.2z M900.7,635.6l107.8,107.8L1225,526.9l-216.5-216.5L900.7,418.3l108.7,108.7l-0.4,0.4L900.7,635.6z"/>
			</g>
			<g>
				<path class="st2" d="M1095.8,745.2l-0.4-0.4L986.3,635.6l0.4-0.4l108.2-108.2L986.3,418.3l0.4-0.4l109.1-109.1l0.4,0.4
					l217.8,217.8l-0.4,0.4L1095.8,745.2z M988,635.6l107.8,107.8l216.5-216.5l-216.5-216.5L988,418.3l108.7,108.7l-0.4,0.4
					L988,635.6z"/>
			</g>
			<g>
				<path class="st2" d="M1183.1,745.2l-0.4-0.4l-109.1-109.1l0.4-0.4l108.2-108.2l-108.7-108.7l0.4-0.4l109.1-109.1l0.4,0.4
					l217.8,217.8l-0.4,0.4L1183.1,745.2z M1075.3,635.6l107.8,107.8l216.5-216.5l-216.5-216.5l-107.8,107.8L1184,526.9l-0.4,0.4
					L1075.3,635.6z"/>
			</g>
			<g>
				<path class="st2" d="M1270.4,745.2l-0.4-0.4l-109.1-109.1l0.4-0.4l108.2-108.2l-108.7-108.7l0.4-0.4l109.1-109.1l0.4,0.4
					l217.8,217.8l-0.4,0.4L1270.4,745.2z M1162.6,635.6l107.8,107.8l216.5-216.5l-216.5-216.5l-107.8,107.8l108.7,108.7l-0.4,0.4
					L1162.6,635.6z"/>
			</g>
			<g>
				<path class="st2" d="M1357.7,745.2l-0.4-0.4l-109.1-109.1l0.4-0.4l108.2-108.2l-108.7-108.7l0.4-0.4l109.1-109.1l0.4,0.4
					l217.8,217.8l-0.4,0.4L1357.7,745.2z M1249.9,635.6l107.8,107.8l216.5-216.5l-216.5-216.5l-107.8,107.8l108.7,108.7l-0.4,0.4
					L1249.9,635.6z"/>
			</g>
			<g>
				<path class="st2" d="M1445,745.2l-0.4-0.4l-109.1-109.1l0.4-0.4l108.2-108.2l-108.7-108.7l0.4-0.4L1445,308.7l0.4,0.4
					l217.8,217.8l-0.4,0.4L1445,745.2z M1337.2,635.6L1445,743.4l216.5-216.5L1445,310.5l-107.8,107.8l108.7,108.7l-0.4,0.4
					L1337.2,635.6z"/>
			</g>
			<g>
				<path class="st2" d="M1532.3,745.2l-0.4-0.4l-109.1-109.1l0.4-0.4l108.2-108.2l-108.7-108.7l0.4-0.4l109.1-109.1l0.4,0.4
					l217.8,217.8l-0.4,0.4L1532.3,745.2z M1424.5,635.6l107.8,107.8l216.5-216.5l-216.5-216.5l-107.8,107.8l108.7,108.7l-0.4,0.4
					L1424.5,635.6z"/>
			</g>
			<g>
				<path class="st2" d="M1619.6,745.2l-0.4-0.4l-109.1-109.1l0.4-0.4l108.2-108.2l-108.7-108.7l0.4-0.4l109.1-109.1l0.4,0.4
					l217.8,217.8l-0.4,0.4L1619.6,745.2z M1511.8,635.6l107.8,107.8l108.2-108.2l0.4,0.4l-0.4-0.4l108.2-108.2l-216.5-216.5
					l-107.8,107.8l108.7,108.7l-0.4,0.4L1511.8,635.6z"/>
			</g>
		</g>
		<g class="st1">
			<g>
				<path class="st2" d="M48.3,1179.8l-0.4-0.4l-109.1-109.1l0.4-0.4L47.4,961.6L-61.3,852.9l0.4-0.4L48.3,743.4l0.4,0.4
					l217.8,217.8l-0.4,0.4L48.3,1179.8z M-59.5,1070.3l107.8,107.8l108.2-108.2l0.4,0.4l-0.4-0.4l108.2-108.2L48.3,745.2
					L-59.5,852.9L49.2,961.6l-0.4,0.4L-59.5,1070.3z"/>
			</g>
			<g>
				<path class="st2" d="M135.6,1179.8l-0.4-0.4L26,1070.3l0.4-0.4l108.2-108.2L26,852.9l0.4-0.4l109.1-109.1l0.4,0.4l217.8,217.8
					l-0.4,0.4L135.6,1179.8z M27.8,1070.3l107.8,107.8L352,961.6L135.6,745.2L27.8,852.9l108.7,108.7l-0.4,0.4L27.8,1070.3z"/>
			</g>
			<g>
				<path class="st2" d="M222.9,1179.8l-0.4-0.4l-109.1-109.1l0.4-0.4L222,961.6L113.3,852.9l0.4-0.4l109.1-109.1l0.4,0.4
					l217.8,217.8l-0.4,0.4L222.9,1179.8z M115.1,1070.3l107.8,107.8l216.5-216.5L222.9,745.2L115.1,852.9l108.7,108.7l-0.4,0.4
					L115.1,1070.3z"/>
			</g>
			<g>
				<path class="st2" d="M310.2,1179.8l-0.4-0.4l-109.1-109.1l0.4-0.4l108.2-108.2L200.6,852.9l0.4-0.4l109.1-109.1l0.4,0.4
					l217.8,217.8l-0.4,0.4L310.2,1179.8z M202.4,1070.3l107.8,107.8l216.5-216.5L310.2,745.2L202.4,852.9L311,961.6l-0.4,0.4
					L202.4,1070.3z"/>
			</g>
			<g>
				<path class="st2" d="M397.5,1179.8l-0.4-0.4l-109.1-109.1l0.4-0.4l108.2-108.2L287.9,852.9l0.4-0.4l109.1-109.1l0.4,0.4
					l217.8,217.8l-0.4,0.4L397.5,1179.8z M289.7,1070.3l107.8,107.8l216.5-216.5L397.5,745.2L289.7,852.9l108.7,108.7l-0.4,0.4
					L289.7,1070.3z"/>
			</g>
			<g>
				<path class="st2" d="M484.8,1179.8l-0.4-0.4l-109.1-109.1l0.4-0.4l108.2-108.2L375.2,852.9l0.4-0.4l109.1-109.1l0.4,0.4
					L703,961.6l-0.4,0.4L484.8,1179.8z M377,1070.3l107.8,107.8l216.5-216.5L484.8,745.2L377,852.9l108.7,108.7l-0.4,0.4L377,1070.3
					z"/>
			</g>
			<g>
				<path class="st2" d="M572,1179.8l-0.4-0.4l-109.1-109.1l0.4-0.4l108.2-108.2L462.5,852.9l0.4-0.4L572,743.4l0.4,0.4l217.8,217.8
					l-0.4,0.4L572,1179.8z M464.3,1070.3L572,1178.1l216.5-216.5L572,745.2L464.3,852.9l108.7,108.7l-0.4,0.4L464.3,1070.3z"/>
			</g>
			<g>
				<path class="st2" d="M659.3,1179.8l-0.4-0.4l-109.1-109.1l0.4-0.4l108.2-108.2L549.8,852.9l0.4-0.4l109.1-109.1l0.4,0.4
					l217.8,217.8l-0.4,0.4L659.3,1179.8z M551.6,1070.3l107.8,107.8l216.5-216.5L659.3,745.2L551.6,852.9l108.7,108.7l-0.4,0.4
					L551.6,1070.3z"/>
			</g>
			<g>
				<path class="st2" d="M746.6,1179.8l-0.4-0.4l-109.1-109.1l0.4-0.4l108.2-108.2L637.1,852.9l0.4-0.4l109.1-109.1l0.4,0.4
					l217.8,217.8l-0.4,0.4L746.6,1179.8z M638.9,1070.3l107.8,107.8l216.5-216.5L746.6,745.2L638.9,852.9l108.7,108.7l-0.4,0.4
					L638.9,1070.3z"/>
			</g>
			<g>
				<path class="st2" d="M833.9,1179.8l-0.4-0.4l-109.1-109.1l0.4-0.4l108.2-108.2L724.4,852.9l0.4-0.4l109.1-109.1l0.4,0.4
					l217.8,217.8l-0.4,0.4L833.9,1179.8z M726.2,1070.3l107.8,107.8l216.5-216.5L833.9,745.2L726.2,852.9l108.7,108.7l-0.4,0.4
					L726.2,1070.3z"/>
			</g>
			<g>
				<path class="st2" d="M921.2,1179.8l-0.4-0.4l-109.1-109.1l0.4-0.4l108.2-108.2L811.7,852.9l0.4-0.4l109.1-109.1l0.4,0.4
					l217.8,217.8l-0.4,0.4L921.2,1179.8z M813.4,1070.3l107.8,107.8l216.5-216.5L921.2,745.2L813.4,852.9l108.7,108.7l-0.4,0.4
					L813.4,1070.3z"/>
			</g>
			<g>
				<path class="st2" d="M1008.5,1179.8l-0.4-0.4L899,1070.3l0.4-0.4l108.2-108.2L899,852.9l0.4-0.4l109.1-109.1l0.4,0.4
					l217.8,217.8l-0.4,0.4L1008.5,1179.8z M900.7,1070.3l107.8,107.8L1225,961.6l-216.5-216.5L900.7,852.9l108.7,108.7l-0.4,0.4
					L900.7,1070.3z"/>
			</g>
			<g>
				<path class="st2" d="M1095.8,1179.8l-0.4-0.4l-109.1-109.1l0.4-0.4l108.2-108.2L986.3,852.9l0.4-0.4l109.1-109.1l0.4,0.4
					l217.8,217.8l-0.4,0.4L1095.8,1179.8z M988,1070.3l107.8,107.8l216.5-216.5l-216.5-216.5L988,852.9l108.7,108.7l-0.4,0.4
					L988,1070.3z"/>
			</g>
			<g>
				<path class="st2" d="M1183.1,1179.8l-0.4-0.4l-109.1-109.1l0.4-0.4l108.2-108.2l-108.7-108.7l0.4-0.4l109.1-109.1l0.4,0.4
					l217.8,217.8l-0.4,0.4L1183.1,1179.8z M1075.3,1070.3l107.8,107.8l216.5-216.5l-216.5-216.5l-107.8,107.8L1184,961.6l-0.4,0.4
					L1075.3,1070.3z"/>
			</g>
			<g>
				<path class="st2" d="M1270.4,1179.8l-0.4-0.4l-109.1-109.1l0.4-0.4l108.2-108.2l-108.7-108.7l0.4-0.4l109.1-109.1l0.4,0.4
					l217.8,217.8l-0.4,0.4L1270.4,1179.8z M1162.6,1070.3l107.8,107.8l216.5-216.5l-216.5-216.5l-107.8,107.8l108.7,108.7l-0.4,0.4
					L1162.6,1070.3z"/>
			</g>
			<g>
				<path class="st2" d="M1357.7,1179.8l-0.4-0.4l-109.1-109.1l0.4-0.4l108.2-108.2l-108.7-108.7l0.4-0.4l109.1-109.1l0.4,0.4
					l217.8,217.8l-0.4,0.4L1357.7,1179.8z M1249.9,1070.3l107.8,107.8l216.5-216.5l-216.5-216.5l-107.8,107.8l108.7,108.7l-0.4,0.4
					L1249.9,1070.3z"/>
			</g>
			<g>
				<path class="st2" d="M1445,1179.8l-0.4-0.4l-109.1-109.1l0.4-0.4l108.2-108.2l-108.7-108.7l0.4-0.4L1445,743.4l0.4,0.4
					l217.8,217.8l-0.4,0.4L1445,1179.8z M1337.2,1070.3l107.8,107.8l216.5-216.5L1445,745.2l-107.8,107.8l108.7,108.7l-0.4,0.4
					L1337.2,1070.3z"/>
			</g>
			<g>
				<path class="st2" d="M1532.3,1179.8l-0.4-0.4l-109.1-109.1l0.4-0.4l108.2-108.2l-108.7-108.7l0.4-0.4l109.1-109.1l0.4,0.4
					l217.8,217.8l-0.4,0.4L1532.3,1179.8z M1424.5,1070.3l107.8,107.8l216.5-216.5l-216.5-216.5l-107.8,107.8l108.7,108.7l-0.4,0.4
					L1424.5,1070.3z"/>
			</g>
			<g>
				<path class="st2" d="M1619.6,1179.8l-0.4-0.4l-109.1-109.1l0.4-0.4l108.2-108.2l-108.7-108.7l0.4-0.4l109.1-109.1l0.4,0.4
					l217.8,217.8l-0.4,0.4L1619.6,1179.8z M1511.8,1070.3l107.8,107.8l108.2-108.2l0.4,0.4l-0.4-0.4l108.2-108.2l-216.5-216.5
					l-107.8,107.8l108.7,108.7l-0.4,0.4L1511.8,1070.3z"/>
			</g>
		</g>
	</g>
</g>
</svg>
