<?xml version="1.0" encoding="utf-8"?>
<!-- Generator: Adobe Illustrator 20.1.0, SVG Export Plug-In . SVG Version: 6.00 Build 0)  -->
<svg version="1.1" id="Layer_1" xmlns="http://www.w3.org/2000/svg" xmlns:xlink="http://www.w3.org/1999/xlink" x="0px" y="0px"
	 viewBox="0 0 1700 524" style="enable-background:new 0 0 1700 524;" xml:space="preserve">
<style type="text/css">
	.st0{opacity:0.65;clip-path:url(#SVGID_2_);fill:#07448C;}
</style>
<g>
	<defs>
		<rect id="SVGID_1_" width="1700" height="524"/>
	</defs>
	<use xlink:href="#SVGID_1_"  style="overflow:visible;fill:#02264F;"/>
	<clipPath id="SVGID_2_">
		<use xlink:href="#SVGID_1_"  style="overflow:visible;"/>
	</clipPath>
	<path class="st0" d="M2381.7,392.5l-208.6-208.6l0,0L2068.9,79.7l0,0L1964.7-24.4l0,0l-104.2-104.2l0,0l-104.2-104.2l0,0
		l-208.6-208.6l0,0l-104.2-104.2l0,0l-104.2-104.2l0,0L1235.2-754l0,0l-103.7-103.7l0,0l-209.3-209.3L817.6-962.3l-0.4,0.4
		l104.2,104.2L818-754.4L713.9-858.6l-53,53l52.1,52.1l-51.2,51.2l-52.1-52.1l-53,53l52.1,52.1l-51.2,51.2l-52.1-52.1l-0.4-0.4
		L400.4-546l-0.4,0.4l104.2,104.2L400.8-338.1L297.6-441.4l-0.4-0.4L192.5-337.2l-0.4,0.4l104.2,104.2L192.9-129.3L88.7-233.5
		l-0.4-0.4L-16.3-129.3l-0.4,0.4L87.4-24.7L-15.9,78.6L-119.6-25.1l-53,53l52.1,52.1l-51.2,51.2l-52.1-52.1l-53,53l52.1,52.1
		l-51.2,51.2l-51.7-51.7l-0.4-0.4l-104.6,104.6l-0.4,0.4l104.2,104.2l-103.7,103.7l-0.4,0.4l104.6,104.6l0.4,0.4l208.4-208.4
		l207,207l-207.9,207.9l-0.4,0.4l208.8,208.8l0.4,0.4l104.2-104.2L296,1017.4l-103.7,103.7l-0.4,0.4l104.6,104.6l0.4,0.4
		l208.4-208.4l207.5,207.5l-207.9,207.9l-0.4,0.4L713.2,1643l0.4,0.4l104.2-104.2l103.5,103.5l-103.7,103.7l-0.4,0.4l104.6,104.6
		l0.4,0.4l208.8-208.8l0.4-0.4l0,0l207.9-207.9l0.4-0.4l0,0l51.7-51.6l52.5-52.5l0,0l207.9-207.9l0.4-0.4l0,0l207.9-207.9l0.4-0.4
		l0,0l207.9-207.9l0.4-0.4h0l104.2-104.2l0,0L2381.3,393L2381.7,392.5z M2171.3,183.9l-51.7,51.7l-51.7,51.7l-51.2-51.2l52.1-52.1
		l-52.1-52.1l51.2-51.2L2171.3,183.9z M2015.7,548.4l-51.7,51.7l-51.2-51.2l52.1-52.1l-52.1-52.1l51.2-51.2l103.3,103.3
		L2015.7,548.4z M2016.2,549.7l51.2,51.2l-51.2,51.2l-51.2-51.2L2016.2,549.7z M1650.8,704.4l-207.9,207.9l-207.5-207.5l207.9-207.9
		l0.4-0.4l-208.4-208.4l207.5-207.5l415.9,415.9L1650.8,704.4z M1755.5,601.5L1859,705.1l-103.3,103.3l-103.5-103.5L1755.5,601.5z
		 M1443.8,913.2l103.3-103.3l103.5,103.5l-103.3,103.3L1443.8,913.2L1443.8,913.2L1443.8,913.2z M1234.8,1329.3l-51.2-51.2
		l52.1-52.1l-52.1-52.1l51.2-51.2l103.3,103.3L1234.8,1329.3z M1286.9,1279l51.2,51.2l-51.2,51.2l-51.2-51.2L1286.9,1279z
		 M505.9,600.4l51.2-51.2l51.4,51.4l-51.2,51.2L505.9,600.4L505.9,600.4L505.9,600.4z M89.2,183.7L192.5,80.4l103.3,103.3L192.5,287
		L89.6,184.2l0,0L89.2,183.7z M297.1,184.1l0.4-0.4L193.4,79.5l68.9-68.9l34.4-34.4L458,137.6l46.1,46.1L400.4,287.4l0,0
		L296.7,391.2L193.4,287.9L297.1,184.1z M505.9-233l103.3-103.3l207.5,207.5L609.2,78.6L505.9-24.7l0,0L402.2-128.4l103.7-103.7
		l0.4-0.4L505.9-233z M714.7-545.1l-52.1-52.1l51.2-51.2l102.8,102.8L713.4-442.3L662.6-493L714.7-545.1z M661.8-493.9l-51.2-51.2
		l51.2-51.2l51.2,51.2L661.8-493.9z M714.7-649.3l51.2-51.2l51.2,51.2l-51.2,51.2L714.7-649.3z M713.9-440.1L818-544.3l377.7,377.7
		l37.7,37.7L817.6,287L714.3,183.7l0,0l-35-35l-69.2-69.2L818-128.4l0.4-0.4L610.1-337.2l103.3-103.3L713.9-440.1z M818.9-545.1
		l103.3-103.3l102.8,102.8L921.8-442.3L818.9-545.1L818.9-545.1L818.9-545.1z M1181.3-597.7L1181.3-597.7l52.1,52.1l-103.7,103.7
		l0,0l-103.7,103.7L922.6-441.4l103.7-103.7l0.4-0.4L923.1-649.3l103.3-103.3L1181.3-597.7z M1027.3-753.5l51.2-51.2l50.8,50.8
		l-51.2,51.2L1027.3-753.5z M1131-649.8l51.2-51.2l51.2,51.2l-51.2,51.2L1131-649.8z M1235.2-545.6l51.2-51.2l51.2,51.2l-51.2,51.2
		L1235.2-545.6L1235.2-545.6L1235.2-545.6z M1389.9-389.1l51.9,51.9l-103.7,103.7l-103.7,103.7L1131-233l103.7-103.7l0.4-0.4
		L1131-441.4l51.5-51.5l51.8-51.8L1389.9-389.1z M1339.4-441.4l51.2-51.2l51.2,51.2l-51.2,51.2L1339.4-441.4z M1806.9,27.9
		l51.9,51.9l-207.5,207.5L1548,183.9l103.7-103.7l0.4-0.4L1548-24.4l103.3-103.3L1806.9,27.9z M1652.2-128.6l51.2-51.2l51.2,51.2
		l-51.2,51.2L1652.2-128.6z M1756.4-24.4l51.2-51.2l51.2,51.2l-51.2,51.2L1756.4-24.4z M1755.5,184.8l103.3,103.3l-103.3,103.3
		l-103.3-103.3L1755.5,184.8z M1650.4,79.7L1547.1,183L1443.8,79.7l0,0l0,0l103.3-103.3L1650.4,79.7z M1494.6,27.2l-51.7,51.7
		l-51.2-51.2l52.1-52.1l-52.1-52.1l51.2-51.2l103.3,103.3L1494.6,27.2z M1234.5,912.3l-51.2-51.2l52.1-52.1l-52.1-52.1l51.2-51.2
		L1337.8,809l-25.8,25.8L1234.5,912.3z M1286.6,862l51.2,51.2l-51.2,51.2l-51.2-51.2L1286.6,862z M1131.2,809l51.2-51.2l51.2,51.2
		l-51.2,51.2L1131.2,809L1131.2,809L1131.2,809z M505.9,79.5l-52.1-52.1L505-23.8L608.3,79.5L505,182.8l-51.2-51.2L505.9,79.5z
		 M452.9,130.7l-51.2-51.2l51.2-51.2l51.2,51.2L452.9,130.7z M505.9,183.7l51.2-51.2l51.2,51.2l-51.2,51.2L505.9,183.7L505.9,183.7
		L505.9,183.7z M610.1,183.7L558,131.6l51.2-51.2l59,59l44.3,44.3L609.2,287L558,235.8L610.1,183.7z M661.3,236.7l51.2,51.2
		l-51.2,51.2l-51.2-51.2L661.3,236.7z M714.3,287.9l-52.1-52.1l51.2-51.2l103.3,103.3L765,339.5l-51.7,51.7L662.2,340L714.3,287.9z
		 M713.4,392.9l103.5,103.5L713.6,599.8L610.1,496.2L713.4,392.9z M818.2,496.9l0.4-0.4L714.3,392.2l103.3-103.3L983.8,455
		l41.5,41.5l-52.1,52.1h0L817.8,704l-51.7-51.6l-51.6-51.6L818.2,496.9z M1233.7,288.1l-103.7,103.7l-103.7,103.7L922.9,392.3
		l103.7-103.7l0.4-0.4L922.6,183.7l103.3-103.3L1233.7,288.1z M1026.8,79.5l103.3-103.3l103.5,103.5L1130.4,183L1026.8,79.5z
		 M1025.3,288.1L922,391.4L818.5,287.9l0,0l0,0l103.3-103.3L1025.3,288.1z M974.1,549.5l51.2,51.2l-51.2,51.2l-51.2-51.2
		L974.1,549.5z M1027.1,600.7L975,548.6l51.2-51.2l103.3,103.3l-51.7,51.7l-51.7,51.7L975,652.8L1027.1,600.7z M1078.3,653.6
		l51.2,51.2l-51.2,51.2l-51.2-51.2L1078.3,653.6z M1131.2,704.8l-52.1-52.1l51.2-51.2l103.3,103.3l-103.3,103.3l-51.2-51.2
		L1131.2,704.8z M1131.2,600.7L1131.2,600.7l-104.2-104.2l0,0l0,0L1234.5,289L1442,496.5L1234.5,704L1131.2,600.7z M1234.5,287.2
		l-103.3-103.3L1235,80.2l0.4-0.4L1131.2-24.4l103.3-103.3l155.6,155.6l51.9,51.9L1234.5,287.2z M1389.9-76.5l-51.2,51.2l-51.2-51.2
		l52.1-52.1l-52.1-52.1l51.2-51.2L1442-128.6L1389.9-76.5L1389.9-76.5z M1390.8-75.7l51.2,51.2l-51.2,51.2l-51.2-51.2L1390.8-75.7z
		 M1337.8-128.6l-51.2,51.2l-51.4-51.4l0,0l0,0l51.2-51.2L1337.8-128.6z M1339.4-233l103.3-103.3l103.5,103.5l-103.3,103.3
		L1339.4-233z M1130.1-233.9l-103.3-103.3l103.3-103.3l103.3,103.3L1130.1-233.9z M504.1-24.7L452.5,27l-51.7,51.7l-51.2-51.2
		l52.1-52.1l-51.6-51.6l51.2-51.2L504.1-24.7z M400-24.7l-51.2,51.2L298-24.2l51.2-51.2L400-24.7z M400.8,288.8l103.3,103.3
		L400.8,495.4L297.5,392.1L400.8,288.8z M505.5,392.5l0.4-0.4L401.7,287.9l57.4-57.4l45.9-45.9l207.5,207.5L505,599.5L401.7,496.2
		L505.5,392.5z M610.3,600.7l-52.1-52.1l51.2-51.2l103.3,103.3L609.4,704l-51.2-51.2L610.3,600.7z M661.5,653.6l51.2,51.2
		l-51.2,51.2l-51.2-51.2L661.5,653.6z M714.5,704.8l-52.1-52.1l51.2-51.2l41.2,41.2l62.1,62.1L713.6,808.1l-51.2-51.2L714.5,704.8z
		 M714.5,809l103.3-103.3L921.1,809L817.8,912.3L714.5,809L714.5,809L714.5,809z M922.4,809.5l0.4-0.4L818.7,704.8L922,601.5
		L1129.5,809l-103.7,103.7l-0.4,0.4L922,1016.5L818.7,913.2L922.4,809.5z M1026.2,914.1l103.3,103.3l-103.3,103.3l-103.3-103.3
		L1026.2,914.1z M1130.8,1017.8l0.4-0.4l-104.2-104.2l103.3-103.3l155.4,155.4h0l52.1,52.1l-103.7,103.7l-103.7,103.7l-103.3-103.3
		L1130.8,1017.8z M1131.2,1225.8l51.2-51.2l51.4,51.4l-51.2,51.2L1131.2,1225.8L1131.2,1225.8L1131.2,1225.8z M1235.4,1121.6
		l103.3-103.3l103.5,103.5L1339,1225.1L1235.4,1121.6z M1338.7,1016.5l-51.2-51.2l52.1-52.1l-52.1-52.1l25.8-25.8l25.4-25.4
		L1442,913.2L1338.7,1016.5z M1756.4,392.3l103.7-103.7l0.4-0.4l-104.2-104.2l103.3-103.3l207.5,207.5l-103.7,103.7l-103.7,103.7
		L1756.4,392.3z M1860.5,79.7l51.2-51.2l51.2,51.2l-51.2,51.2L1860.5,79.7L1860.5,79.7L1860.5,79.7z M1964.7,183.9l51.2-51.2
		l51.2,51.2l-51.2,51.2L1964.7,183.9z M1860.5,496.5l51.2-51.2l51.4,51.4l-51.2,51.2L1860.5,496.5L1860.5,496.5L1860.5,496.5z
		 M1964.7,392.3L2068,289l103.5,103.5l-103.3,103.3L1964.7,392.3z M2067.1,79.7L1963.8,183l-51.2-51.2l52.1-52.1l-52.1-52.1
		l51.2-51.2L2067.1,79.7z M1963-24.4l-51.7,51.7l-51.7,51.7l-51.2-51.2l52.1-52.1l-52.1-52.1l51.2-51.2L1963-24.4z M1858.8-128.6
		l-52.1,52.1h0l-51.2,51.2l-51.2-51.2l52.1-52.1l-52.1-52.1l51.2-51.2L1858.8-128.6z M1754.6-232.8l-51.9,51.9l-51.9,51.9
		L1547.1-25.3l-103.3-103.3l103.7-103.7l0.4-0.4L1443.8-337l103.3-103.3L1754.6-232.8z M1546-441.4l-103.3,103.3l-51.2-51.2
		l52.1-52.1l-52.1-52.1l51.2-51.2L1546-441.4z M1441.8-545.6l-52.1,52.1l0,0l-51.2,51.2l-51.2-51.2l52.1-52.1l-52.1-52.1l51.2-51.2
		L1441.8-545.6z M1337.6-649.8l-52.1,52.1h0l-51.2,51.2l-51.2-51.2l52.1-52.1l-52.1-52.1l25.8-25.8l25.4-25.4L1337.6-649.8z
		 M1233.4-754l-25.8,25.8l-77.5,77.5l-51.2-51.2L1131-754l-51.6-51.6l51.2-51.2L1233.4-754z M922.7-857.3l0.4-0.4L818.9-961.9
		l103.3-103.3l207,207l-52.1,52.1l0.5,0.5l-51.2,51.2l0,0l-0.4-0.4L921.8-650.7L818.9-753.5L922.7-857.3z M886.9-683.8l34.4,34.4
		l-51.7,51.6L818-546l-51.2-51.2l52.1-52.1l-52.1-52.1l51.2-51.2L886.9-683.8z M714.7-753.5l-52.1-52.1l51.2-51.2l103.3,103.3
		L713.9-650.2l-51.2-51.2L714.7-753.5z M610.6-649.3l-52.1-52.1l51.2-51.2L713-649.3l-51.7,51.6L609.7-546l-51.2-51.2L610.6-649.3z
		 M505.5-441l0.4-0.4L401.7-545.6L505-648.9l161.4,161.4l46.1,46.1L505-233.9l-68.4-68.4l-34.9-34.9L505.5-441z M297.6-232.1
		l0.4-0.4L193.8-336.8l103.3-103.3L435.2-302l69.4,69.4l0,0L401.3-129.3l-0.5-0.5l-53,53l0.5,0.5l-51.2,51.2L193.8-128.4
		L297.6-232.1z M88.7-24.2l0.4-0.4L-15-128.9L88.3-232.2L244.1-76.3l51.6,51.6L88.3,182.8L-14.6,80h0l-0.5-0.5L88.7-24.2z
		 M-15.4,80.9L87.4,183.7L-15.9,287l-16.2-16.2l-34.6-34.6l52.1-52.1l-52.1-52.1L-15.4,80.9z M-118.7,184.2l51.2-51.2l51.2,51.2
		l-51.2,51.2L-118.7,184.2L-118.7,184.2L-118.7,184.2z M-118.7,80l-52.1-52.1l51.2-51.2L-16.8,79.5h0l0.5,0.5L-68,131.6l-51.7,51.7
		l-51.2-51.2L-118.7,80z M-222.9,184.2l-52.1-52.1l51.2-51.2l51.2,51.2l52.1,52.1l-103.3,103.3l-51.2-51.2L-222.9,184.2z
		 M-171.7,237.1l51.2,51.2l-51.2,51.2l-51.2-51.2L-171.7,237.1z M-224.3,496.3L-328,600l-103.3-103.3L-327.6,393l0.4-0.4
		l-104.2-104.2L-328,185l207.5,207.5L-224.3,496.3z M-120.1,391.2l-50.8-50.8l52.1-52.1l-52.1-52.1l51.2-51.2l86.1,86.1l16.8,16.8
		L-120.1,391.2z M88.3,1016.3l-207.5-207.5L88.7,600.9l0.4-0.4l-208.3-208.3l104.6-103.8l-0.4-0.4L88.4,184.6l323.4,323.5l92.3,92.3
		L296.2,808.4L88.3,1016.3z M400.8,705.5L504.4,809L401.1,912.3L297.5,808.8L400.8,705.5z M296.9,1224.9l-103.3-103.3l103.7-103.7
		l0.4-0.4L193.6,913.2l103.3-103.3l181.7,181.7l25.8,25.8L296.9,1224.9z M505.3,1016.5L402,913.2l103.7-103.7l0.4-0.4L402,704.8
		l103.3-103.3L712.7,809L597.5,924.3L505.3,1016.5z M713.6,1641.6l-207.5-207.5l207.9-207.9l0.4-0.4l-208.4-208.4l103.5-103.5
		l103.9-103.9l311.7,311.7h0l104.2,104.2l-207.9,207.9L713.6,1641.6z M1026.2,1330.8l103.5,103.5l-103.3,103.3l-103.5-103.5
		L1026.2,1330.8z M922.2,1850.2l-103.3-103.3l103.7-103.7l0.4-0.4l-104.2-104.2l103.3-103.3l177.9,177.9l29.6,29.6L922.2,1850.2z
		 M1234.3,1538.1l-103.7,103.7l-103.3-103.3l103.7-103.7l0.4-0.4l-104.2-104.2l103.3-103.3l207.5,207.5L1234.3,1538.1z M1339,1433.5
		l-51.2-51.2l52.1-52.1l-52.1-52.1l51.2-51.2l51.5,51.5l51.8,51.8L1339,1433.5z M1443.1,1329.3L1339.8,1226l103.7-103.7l0.4-0.4
		l-104.2-104.2l103.3-103.3l207.5,207.5L1443.1,1329.3z M1755.3,1017.2l-103.7,103.7l-103.3-103.3L1652,913.9l0.4-0.4l-104.2-104.2
		L1651.5,706l155.6,155.6l51.9,51.9L1755.3,1017.2z M1963.6,808.8l-103.7,103.7l-103.3-103.3l103.7-103.7l0.4-0.4l-104.2-104.2
		l103.3-103.3l166,166l41.5,41.5L1963.6,808.8z M2068.3,704.2L2017,653l52.1-52.1l-52.1-52.1l51.2-51.2l51.5,51.5l51.8,51.8
		L2068.3,704.2z M2276.2,496.3L2172.4,600l-103.3-103.3L2172.9,393l0.4-0.4l-104.2-104.2L2172.4,185l207.5,207.5L2276.2,496.3z"/>
</g>
</svg>
