<?xml version="1.0" encoding="utf-8"?>
<!-- Generator: Adobe Illustrator 20.1.0, SVG Export Plug-In . SVG Version: 6.00 Build 0)  -->
<svg version="1.1" id="Layer_1" xmlns="http://www.w3.org/2000/svg" xmlns:xlink="http://www.w3.org/1999/xlink" x="0px" y="0px"
	 viewBox="0 0 1700 524" style="enable-background:new 0 0 1700 524;" xml:space="preserve">
<style type="text/css">
	.st0{clip-path:url(#SVGID_2_);}
	.st1{opacity:0.7;}
	.st2{fill:#D99E88;}
</style>
<g>
	<defs>
		<rect id="SVGID_1_" x="-0.6" width="1700.8" height="524"/>
	</defs>
	<use xlink:href="#SVGID_1_"  style="overflow:visible;fill:#CC886D;"/>
	<clipPath id="SVGID_2_">
		<use xlink:href="#SVGID_1_"  style="overflow:visible;"/>
	</clipPath>
	<g class="st0">
		<g class="st1">
			<g>
				<path class="st2" d="M-32.2,0.8l-0.4-0.4l-111.3-111.3l0.4-0.4l110.4-110.4l-110.8-110.8l0.4-0.4l111.3-111.3l0.4,0.4
					l222.1,222.1l-0.4,0.4L-32.2,0.8z M-142.2-110.9l110,110L78.2-111.4l0.4,0.4l-0.4-0.4l110.4-110.4L-32.2-442.6l-110,110
					l110.8,110.8l-0.4,0.4L-142.2-110.9z"/>
			</g>
			<g>
				<path class="st2" d="M56.8,0.8l-0.4-0.4L-54.9-110.9l0.4-0.4L55.9-221.8L-54.9-332.6l0.4-0.4L56.8-444.3l0.4,0.4l222.1,222.1
					l-0.4,0.4L56.8,0.8z M-53.1-110.9L56.8-1l220.8-220.8L56.8-442.6l-110,110L57.7-221.8l-0.4,0.4L-53.1-110.9z"/>
			</g>
			<g>
				<path class="st2" d="M145.8,0.8l-0.4-0.4L34.1-110.9l0.4-0.4L145-221.8L34.1-332.6l0.4-0.4l111.3-111.3l0.4,0.4l222.1,222.1
					l-0.4,0.4L145.8,0.8z M35.9-110.9l110,110l220.8-220.8L145.8-442.6l-110,110l110.8,110.8l-0.4,0.4L35.9-110.9z"/>
			</g>
			<g>
				<path class="st2" d="M234.9,0.8l-0.4-0.4L123.2-110.9l0.4-0.4L234-221.8L123.2-332.6l0.4-0.4l111.3-111.3l0.4,0.4l222.1,222.1
					l-0.4,0.4L234.9,0.8z M124.9-110.9l110,110l220.8-220.8L234.9-442.6l-110,110l110.8,110.8l-0.4,0.4L124.9-110.9z"/>
			</g>
			<g>
				<path class="st2" d="M323.9,0.8l-0.4-0.4L212.2-110.9l0.4-0.4L323-221.8L212.2-332.6l0.4-0.4l111.3-111.3l0.4,0.4l222.1,222.1
					l-0.4,0.4L323.9,0.8z M214-110.9l110,110l220.8-220.8L323.9-442.6l-110,110l110.8,110.8l-0.4,0.4L214-110.9z"/>
			</g>
			<g>
				<path class="st2" d="M412.9,0.8l-0.4-0.4L301.2-110.9l0.4-0.4l110.4-110.4L301.2-332.6l0.4-0.4l111.3-111.3l0.4,0.4l222.1,222.1
					l-0.4,0.4L412.9,0.8z M303-110.9l110,110l220.8-220.8L412.9-442.6l-110,110l110.8,110.8l-0.4,0.4L303-110.9z"/>
			</g>
			<g>
				<path class="st2" d="M502,0.8l-0.4-0.4L390.3-110.9l0.4-0.4l110.4-110.4L390.3-332.6l0.4-0.4L502-444.3l0.4,0.4l222.1,222.1
					l-0.4,0.4L502,0.8z M392-110.9L502-1l220.8-220.8L502-442.6l-110,110l110.8,110.8l-0.4,0.4L392-110.9z"/>
			</g>
			<g>
				<path class="st2" d="M591,0.8l-0.4-0.4L479.3-110.9l0.4-0.4l110.4-110.4L479.3-332.6l0.4-0.4L591-444.3l0.4,0.4l222.1,222.1
					l-0.4,0.4L591,0.8z M481.1-110.9L591-1l220.8-220.8L591-442.6l-110,110l110.8,110.8l-0.4,0.4L481.1-110.9z"/>
			</g>
			<g>
				<path class="st2" d="M680.1,0.8l-0.4-0.4L568.3-110.9l0.4-0.4l110.4-110.4L568.3-332.6l0.4-0.4l111.3-111.3l0.4,0.4l222.1,222.1
					l-0.4,0.4L680.1,0.8z M570.1-110.9l110,110l220.8-220.8L680.1-442.6l-110,110l110.8,110.8l-0.4,0.4L570.1-110.9z"/>
			</g>
			<g>
				<path class="st2" d="M769.1,0.8l-0.4-0.4L657.4-110.9l0.4-0.4l110.4-110.4L657.4-332.6l0.4-0.4l111.3-111.3l0.4,0.4l222.1,222.1
					l-0.4,0.4L769.1,0.8z M659.1-110.9l110,110l220.8-220.8L769.1-442.6l-110,110L770-221.8l-0.4,0.4L659.1-110.9z"/>
			</g>
			<g>
				<path class="st2" d="M858.1,0.8l-0.4-0.4L746.4-110.9l0.4-0.4l110.4-110.4L746.4-332.6l0.4-0.4l111.3-111.3l0.4,0.4l222.1,222.1
					l-0.4,0.4L858.1,0.8z M748.2-110.9l110,110l220.8-220.8L858.1-442.6l-110,110L859-221.8l-0.4,0.4L748.2-110.9z"/>
			</g>
			<g>
				<path class="st2" d="M947.2,0.8l-0.4-0.4L835.4-110.9l0.4-0.4l110.4-110.4L835.4-332.6l0.4-0.4l111.3-111.3l0.4,0.4l222.1,222.1
					l-0.4,0.4L947.2,0.8z M837.2-110.9l110,110l220.8-220.8L947.2-442.6l-110,110L948-221.8l-0.4,0.4L837.2-110.9z"/>
			</g>
			<g>
				<path class="st2" d="M1036.2,0.8l-0.4-0.4L924.5-110.9l0.4-0.4l110.4-110.4L924.5-332.6l0.4-0.4l111.3-111.3l0.4,0.4
					l222.1,222.1l-0.4,0.4L1036.2,0.8z M926.2-110.9l110,110L1257-221.8l-220.8-220.8l-110,110l110.8,110.8l-0.4,0.4L926.2-110.9z"
					/>
			</g>
			<g>
				<path class="st2" d="M1125.2,0.8l-0.4-0.4l-111.3-111.3l0.4-0.4l110.4-110.4l-110.8-110.8l0.4-0.4l111.3-111.3l0.4,0.4
					l222.1,222.1l-0.4,0.4L1125.2,0.8z M1015.3-110.9l110,110L1346-221.8l-220.8-220.8l-110,110l110.8,110.8l-0.4,0.4L1015.3-110.9z
					"/>
			</g>
			<g>
				<path class="st2" d="M1214.3,0.8l-0.4-0.4l-111.3-111.3l0.4-0.4l110.4-110.4l-110.8-110.8l0.4-0.4l111.3-111.3l0.4,0.4
					l222.1,222.1l-0.4,0.4L1214.3,0.8z M1104.3-110.9l110,110L1435-221.8l-220.8-220.8l-110,110l110.8,110.8l-0.4,0.4L1104.3-110.9z
					"/>
			</g>
			<g>
				<path class="st2" d="M1303.3,0.8l-0.4-0.4l-111.3-111.3l0.4-0.4l110.4-110.4l-110.8-110.8l0.4-0.4l111.3-111.3l0.4,0.4
					l222.1,222.1l-0.4,0.4L1303.3,0.8z M1193.3-110.9l110,110l220.8-220.8l-220.8-220.8l-110,110l110.8,110.8l-0.4,0.4L1193.3-110.9
					z"/>
			</g>
			<g>
				<path class="st2" d="M1392.3,0.8l-0.4-0.4l-111.3-111.3l0.4-0.4l110.4-110.4l-110.8-110.8l0.4-0.4l111.3-111.3l0.4,0.4
					l222.1,222.1l-0.4,0.4L1392.3,0.8z M1282.4-110.9l110,110l220.8-220.8l-220.8-220.8l-110,110l110.8,110.8l-0.4,0.4L1282.4-110.9
					z"/>
			</g>
			<g>
				<path class="st2" d="M1481.4,0.8l-0.4-0.4l-111.3-111.3l0.4-0.4l110.4-110.4l-110.8-110.8l0.4-0.4l111.3-111.3l0.4,0.4
					l222.1,222.1l-0.4,0.4L1481.4,0.8z M1371.4-110.9l110,110l220.8-220.8l-220.8-220.8l-110,110l110.8,110.8l-0.4,0.4L1371.4-110.9
					z"/>
			</g>
			<g>
				<path class="st2" d="M1570.4,0.8l-0.4-0.4l-111.3-111.3l0.4-0.4l110.4-110.4l-110.8-110.8l0.4-0.4l111.3-111.3l0.4,0.4
					l222.1,222.1l-0.4,0.4L1570.4,0.8z M1460.4-110.9l110,110l220.8-220.8l-220.8-220.8l-110,110l110.8,110.8l-0.4,0.4L1460.4-110.9
					z"/>
			</g>
		</g>
		<g class="st1">
			<g>
				<path class="st2" d="M-32.2,444.1l-0.4-0.4l-111.3-111.3l0.4-0.4l110.4-110.4l-110.8-110.8l0.4-0.4L-32.2-1l0.4,0.4l222.1,222.1
					l-0.4,0.4L-32.2,444.1z M-142.2,332.4l110,110L78.2,332l0.4,0.4l-0.4-0.4l110.4-110.4L-32.2,0.8l-110,110l110.8,110.8l-0.4,0.4
					L-142.2,332.4z"/>
			</g>
			<g>
				<path class="st2" d="M56.8,444.1l-0.4-0.4L-54.9,332.4l0.4-0.4L55.9,221.6L-54.9,110.7l0.4-0.4L56.8-1l0.4,0.4l222.1,222.1
					l-0.4,0.4L56.8,444.1z M-53.1,332.4l110,110l220.8-220.8L56.8,0.8l-110,110L57.7,221.6l-0.4,0.4L-53.1,332.4z"/>
			</g>
			<g>
				<path class="st2" d="M145.8,444.1l-0.4-0.4L34.1,332.4l0.4-0.4L145,221.6L34.1,110.7l0.4-0.4L145.8-1l0.4,0.4l222.1,222.1
					L368,222L145.8,444.1z M35.9,332.4l110,110l220.8-220.8L145.8,0.8l-110,110l110.8,110.8l-0.4,0.4L35.9,332.4z"/>
			</g>
			<g>
				<path class="st2" d="M234.9,444.1l-0.4-0.4L123.2,332.4l0.4-0.4L234,221.6L123.2,110.7l0.4-0.4L234.9-1l0.4,0.4l222.1,222.1
					L457,222L234.9,444.1z M124.9,332.4l110,110l220.8-220.8L234.9,0.8l-110,110l110.8,110.8l-0.4,0.4L124.9,332.4z"/>
			</g>
			<g>
				<path class="st2" d="M323.9,444.1l-0.4-0.4L212.2,332.4l0.4-0.4L323,221.6L212.2,110.7l0.4-0.4L323.9-1l0.4,0.4l222.1,222.1
					L546,222L323.9,444.1z M214,332.4l110,110l220.8-220.8L323.9,0.8l-110,110l110.8,110.8l-0.4,0.4L214,332.4z"/>
			</g>
			<g>
				<path class="st2" d="M412.9,444.1l-0.4-0.4L301.2,332.4l0.4-0.4l110.4-110.4L301.2,110.7l0.4-0.4L412.9-1l0.4,0.4l222.1,222.1
					l-0.4,0.4L412.9,444.1z M303,332.4l110,110l220.8-220.8L412.9,0.8l-110,110l110.8,110.8l-0.4,0.4L303,332.4z"/>
			</g>
			<g>
				<path class="st2" d="M502,444.1l-0.4-0.4L390.3,332.4l0.4-0.4l110.4-110.4L390.3,110.7l0.4-0.4L502-1l0.4,0.4l222.1,222.1
					l-0.4,0.4L502,444.1z M392,332.4l110,110l220.8-220.8L502,0.8l-110,110l110.8,110.8l-0.4,0.4L392,332.4z"/>
			</g>
			<g>
				<path class="st2" d="M591,444.1l-0.4-0.4L479.3,332.4l0.4-0.4l110.4-110.4L479.3,110.7l0.4-0.4L591-1l0.4,0.4l222.1,222.1
					l-0.4,0.4L591,444.1z M481.1,332.4l110,110l220.8-220.8L591,0.8l-110,110l110.8,110.8l-0.4,0.4L481.1,332.4z"/>
			</g>
			<g>
				<path class="st2" d="M680.1,444.1l-0.4-0.4L568.3,332.4l0.4-0.4l110.4-110.4L568.3,110.7l0.4-0.4L680.1-1l0.4,0.4l222.1,222.1
					l-0.4,0.4L680.1,444.1z M570.1,332.4l110,110l220.8-220.8L680.1,0.8l-110,110l110.8,110.8l-0.4,0.4L570.1,332.4z"/>
			</g>
			<g>
				<path class="st2" d="M769.1,444.1l-0.4-0.4L657.4,332.4l0.4-0.4l110.4-110.4L657.4,110.7l0.4-0.4L769.1-1l0.4,0.4l222.1,222.1
					l-0.4,0.4L769.1,444.1z M659.1,332.4l110,110l220.8-220.8L769.1,0.8l-110,110L770,221.6l-0.4,0.4L659.1,332.4z"/>
			</g>
			<g>
				<path class="st2" d="M858.1,444.1l-0.4-0.4L746.4,332.4l0.4-0.4l110.4-110.4L746.4,110.7l0.4-0.4L858.1-1l0.4,0.4l222.1,222.1
					l-0.4,0.4L858.1,444.1z M748.2,332.4l110,110l220.8-220.8L858.1,0.8l-110,110L859,221.6l-0.4,0.4L748.2,332.4z"/>
			</g>
			<g>
				<path class="st2" d="M947.2,444.1l-0.4-0.4L835.4,332.4l0.4-0.4l110.4-110.4L835.4,110.7l0.4-0.4L947.2-1l0.4,0.4l222.1,222.1
					l-0.4,0.4L947.2,444.1z M837.2,332.4l110,110l220.8-220.8L947.2,0.8l-110,110L948,221.6l-0.4,0.4L837.2,332.4z"/>
			</g>
			<g>
				<path class="st2" d="M1036.2,444.1l-0.4-0.4L924.5,332.4l0.4-0.4l110.4-110.4L924.5,110.7l0.4-0.4L1036.2-1l0.4,0.4l222.1,222.1
					l-0.4,0.4L1036.2,444.1z M926.2,332.4l110,110L1257,221.6L1036.2,0.8l-110,110l110.8,110.8l-0.4,0.4L926.2,332.4z"/>
			</g>
			<g>
				<path class="st2" d="M1125.2,444.1l-0.4-0.4l-111.3-111.3l0.4-0.4l110.4-110.4l-110.8-110.8l0.4-0.4L1125.2-1l0.4,0.4
					l222.1,222.1l-0.4,0.4L1125.2,444.1z M1015.3,332.4l110,110L1346,221.6L1125.2,0.8l-110,110l110.8,110.8l-0.4,0.4L1015.3,332.4z
					"/>
			</g>
			<g>
				<path class="st2" d="M1214.3,444.1l-0.4-0.4l-111.3-111.3l0.4-0.4l110.4-110.4l-110.8-110.8l0.4-0.4L1214.3-1l0.4,0.4
					l222.1,222.1l-0.4,0.4L1214.3,444.1z M1104.3,332.4l110,110L1435,221.6L1214.3,0.8l-110,110l110.8,110.8l-0.4,0.4L1104.3,332.4z
					"/>
			</g>
			<g>
				<path class="st2" d="M1303.3,444.1l-0.4-0.4l-111.3-111.3l0.4-0.4l110.4-110.4l-110.8-110.8l0.4-0.4L1303.3-1l0.4,0.4
					l222.1,222.1l-0.4,0.4L1303.3,444.1z M1193.3,332.4l110,110l220.8-220.8L1303.3,0.8l-110,110l110.8,110.8l-0.4,0.4L1193.3,332.4
					z"/>
			</g>
			<g>
				<path class="st2" d="M1392.3,444.1l-0.4-0.4l-111.3-111.3l0.4-0.4l110.4-110.4l-110.8-110.8l0.4-0.4L1392.3-1l0.4,0.4
					l222.1,222.1l-0.4,0.4L1392.3,444.1z M1282.4,332.4l110,110l220.8-220.8L1392.3,0.8l-110,110l110.8,110.8l-0.4,0.4L1282.4,332.4
					z"/>
			</g>
			<g>
				<path class="st2" d="M1481.4,444.1l-0.4-0.4l-111.3-111.3l0.4-0.4l110.4-110.4l-110.8-110.8l0.4-0.4L1481.4-1l0.4,0.4
					l222.1,222.1l-0.4,0.4L1481.4,444.1z M1371.4,332.4l110,110l220.8-220.8L1481.4,0.8l-110,110l110.8,110.8l-0.4,0.4L1371.4,332.4
					z"/>
			</g>
			<g>
				<path class="st2" d="M1570.4,444.1l-0.4-0.4l-111.3-111.3l0.4-0.4l110.4-110.4l-110.8-110.8l0.4-0.4L1570.4-1l0.4,0.4
					l222.1,222.1l-0.4,0.4L1570.4,444.1z M1460.4,332.4l110,110L1680.8,332l0.4,0.4l-0.4-0.4l110.4-110.4L1570.4,0.8l-110,110
					l110.8,110.8l-0.4,0.4L1460.4,332.4z"/>
			</g>
		</g>
		<g class="st1">
			<g>
				<path class="st2" d="M-32.2,887.5l-0.4-0.4l-111.3-111.3l0.4-0.4l110.4-110.4l-110.8-110.8l0.4-0.4l111.3-111.3l0.4,0.4
					l222.1,222.1l-0.4,0.4L-32.2,887.5z M-142.2,775.7l110,110L78.2,775.3l0.4,0.4l-0.4-0.4l110.4-110.4L-32.2,444.1l-110,110
					l110.8,110.8l-0.4,0.4L-142.2,775.7z"/>
			</g>
			<g>
				<path class="st2" d="M56.8,887.5l-0.4-0.4L-54.9,775.7l0.4-0.4L55.9,664.9L-54.9,554.1l0.4-0.4L56.8,442.3l0.4,0.4l222.1,222.1
					l-0.4,0.4L56.8,887.5z M-53.1,775.7l110,110l220.8-220.8L56.8,444.1l-110,110L57.7,664.9l-0.4,0.4L-53.1,775.7z"/>
			</g>
			<g>
				<path class="st2" d="M145.8,887.5l-0.4-0.4L34.1,775.7l0.4-0.4L145,664.9L34.1,554.1l0.4-0.4l111.3-111.3l0.4,0.4l222.1,222.1
					l-0.4,0.4L145.8,887.5z M35.9,775.7l110,110l220.8-220.8L145.8,444.1l-110,110l110.8,110.8l-0.4,0.4L35.9,775.7z"/>
			</g>
			<g>
				<path class="st2" d="M234.9,887.5l-0.4-0.4L123.2,775.7l0.4-0.4L234,664.9L123.2,554.1l0.4-0.4l111.3-111.3l0.4,0.4l222.1,222.1
					l-0.4,0.4L234.9,887.5z M124.9,775.7l110,110l220.8-220.8L234.9,444.1l-110,110l110.8,110.8l-0.4,0.4L124.9,775.7z"/>
			</g>
			<g>
				<path class="st2" d="M323.9,887.5l-0.4-0.4L212.2,775.7l0.4-0.4L323,664.9L212.2,554.1l0.4-0.4l111.3-111.3l0.4,0.4l222.1,222.1
					l-0.4,0.4L323.9,887.5z M214,775.7l110,110l220.8-220.8L323.9,444.1l-110,110l110.8,110.8l-0.4,0.4L214,775.7z"/>
			</g>
			<g>
				<path class="st2" d="M412.9,887.5l-0.4-0.4L301.2,775.7l0.4-0.4l110.4-110.4L301.2,554.1l0.4-0.4l111.3-111.3l0.4,0.4
					l222.1,222.1l-0.4,0.4L412.9,887.5z M303,775.7l110,110l220.8-220.8L412.9,444.1l-110,110l110.8,110.8l-0.4,0.4L303,775.7z"/>
			</g>
			<g>
				<path class="st2" d="M502,887.5l-0.4-0.4L390.3,775.7l0.4-0.4l110.4-110.4L390.3,554.1l0.4-0.4L502,442.3l0.4,0.4l222.1,222.1
					l-0.4,0.4L502,887.5z M392,775.7l110,110l220.8-220.8L502,444.1l-110,110l110.8,110.8l-0.4,0.4L392,775.7z"/>
			</g>
			<g>
				<path class="st2" d="M591,887.5l-0.4-0.4L479.3,775.7l0.4-0.4l110.4-110.4L479.3,554.1l0.4-0.4L591,442.3l0.4,0.4l222.1,222.1
					l-0.4,0.4L591,887.5z M481.1,775.7l110,110l220.8-220.8L591,444.1l-110,110l110.8,110.8l-0.4,0.4L481.1,775.7z"/>
			</g>
			<g>
				<path class="st2" d="M680.1,887.5l-0.4-0.4L568.3,775.7l0.4-0.4l110.4-110.4L568.3,554.1l0.4-0.4l111.3-111.3l0.4,0.4
					l222.1,222.1l-0.4,0.4L680.1,887.5z M570.1,775.7l110,110l220.8-220.8L680.1,444.1l-110,110l110.8,110.8l-0.4,0.4L570.1,775.7z"
					/>
			</g>
			<g>
				<path class="st2" d="M769.1,887.5l-0.4-0.4L657.4,775.7l0.4-0.4l110.4-110.4L657.4,554.1l0.4-0.4l111.3-111.3l0.4,0.4
					l222.1,222.1l-0.4,0.4L769.1,887.5z M659.1,775.7l110,110l220.8-220.8L769.1,444.1l-110,110L770,664.9l-0.4,0.4L659.1,775.7z"/>
			</g>
			<g>
				<path class="st2" d="M858.1,887.5l-0.4-0.4L746.4,775.7l0.4-0.4l110.4-110.4L746.4,554.1l0.4-0.4l111.3-111.3l0.4,0.4
					l222.1,222.1l-0.4,0.4L858.1,887.5z M748.2,775.7l110,110l220.8-220.8L858.1,444.1l-110,110L859,664.9l-0.4,0.4L748.2,775.7z"/>
			</g>
			<g>
				<path class="st2" d="M947.2,887.5l-0.4-0.4L835.4,775.7l0.4-0.4l110.4-110.4L835.4,554.1l0.4-0.4l111.3-111.3l0.4,0.4
					l222.1,222.1l-0.4,0.4L947.2,887.5z M837.2,775.7l110,110l220.8-220.8L947.2,444.1l-110,110L948,664.9l-0.4,0.4L837.2,775.7z"/>
			</g>
			<g>
				<path class="st2" d="M1036.2,887.5l-0.4-0.4L924.5,775.7l0.4-0.4l110.4-110.4L924.5,554.1l0.4-0.4l111.3-111.3l0.4,0.4
					l222.1,222.1l-0.4,0.4L1036.2,887.5z M926.2,775.7l110,110L1257,664.9l-220.8-220.8l-110,110l110.8,110.8l-0.4,0.4L926.2,775.7z
					"/>
			</g>
			<g>
				<path class="st2" d="M1125.2,887.5l-0.4-0.4l-111.3-111.3l0.4-0.4l110.4-110.4l-110.8-110.8l0.4-0.4l111.3-111.3l0.4,0.4
					l222.1,222.1l-0.4,0.4L1125.2,887.5z M1015.3,775.7l110,110L1346,664.9l-220.8-220.8l-110,110l110.8,110.8l-0.4,0.4
					L1015.3,775.7z"/>
			</g>
			<g>
				<path class="st2" d="M1214.3,887.5l-0.4-0.4l-111.3-111.3l0.4-0.4l110.4-110.4l-110.8-110.8l0.4-0.4l111.3-111.3l0.4,0.4
					l222.1,222.1l-0.4,0.4L1214.3,887.5z M1104.3,775.7l110,110L1435,664.9l-220.8-220.8l-110,110l110.8,110.8l-0.4,0.4
					L1104.3,775.7z"/>
			</g>
			<g>
				<path class="st2" d="M1303.3,887.5l-0.4-0.4l-111.3-111.3l0.4-0.4l110.4-110.4l-110.8-110.8l0.4-0.4l111.3-111.3l0.4,0.4
					l222.1,222.1l-0.4,0.4L1303.3,887.5z M1193.3,775.7l110,110l220.8-220.8l-220.8-220.8l-110,110l110.8,110.8l-0.4,0.4
					L1193.3,775.7z"/>
			</g>
			<g>
				<path class="st2" d="M1392.3,887.5l-0.4-0.4l-111.3-111.3l0.4-0.4l110.4-110.4l-110.8-110.8l0.4-0.4l111.3-111.3l0.4,0.4
					l222.1,222.1l-0.4,0.4L1392.3,887.5z M1282.4,775.7l110,110l220.8-220.8l-220.8-220.8l-110,110l110.8,110.8l-0.4,0.4
					L1282.4,775.7z"/>
			</g>
			<g>
				<path class="st2" d="M1481.4,887.5l-0.4-0.4l-111.3-111.3l0.4-0.4l110.4-110.4l-110.8-110.8l0.4-0.4l111.3-111.3l0.4,0.4
					l222.1,222.1l-0.4,0.4L1481.4,887.5z M1371.4,775.7l110,110l220.8-220.8l-220.8-220.8l-110,110l110.8,110.8l-0.4,0.4
					L1371.4,775.7z"/>
			</g>
			<g>
				<path class="st2" d="M1570.4,887.5l-0.4-0.4l-111.3-111.3l0.4-0.4l110.4-110.4l-110.8-110.8l0.4-0.4l111.3-111.3l0.4,0.4
					l222.1,222.1l-0.4,0.4L1570.4,887.5z M1460.4,775.7l110,110l220.8-220.8l-220.8-220.8l-110,110l110.8,110.8l-0.4,0.4
					L1460.4,775.7z"/>
			</g>
		</g>
	</g>
</g>
</svg>
