<?xml version="1.0" encoding="utf-8"?>
<!-- Generator: Adobe Illustrator 20.1.0, SVG Export Plug-In . SVG Version: 6.00 Build 0)  -->
<svg version="1.1" id="Layer_2" xmlns="http://www.w3.org/2000/svg" xmlns:xlink="http://www.w3.org/1999/xlink" x="0px" y="0px"
	 viewBox="0 0 1700 524" style="enable-background:new 0 0 1700 524;" xml:space="preserve">
<style type="text/css">
	.st0{opacity:0.7;clip-path:url(#SVGID_2_);}
	.st1{fill:#F1F1F2;}
</style>
<g>
	<defs>
		<rect id="SVGID_1_" x="-1" width="1700.4" height="524"/>
	</defs>
	<use xlink:href="#SVGID_1_"  style="overflow:visible;fill:#C8C9CB;"/>
	<clipPath id="SVGID_2_">
		<use xlink:href="#SVGID_1_"  style="overflow:visible;"/>
	</clipPath>
	<g class="st0">
		<g>
			<g>
				<g>
					<path class="st1" d="M58.3,193.1l-0.4-0.4L-206.2-71.4l0.4-0.4l132.3-132.3l0.4,0.4L58.3-72.3l131.8-131.8l0.4,0.4L322.8-71.4
						l-0.4,0.4L58.3,193.1z M-204.5-71.4L58.3,191.3L189.7,60l0.4,0.4l-0.4-0.4L321.1-71.4L190.1-202.4L58.3-70.5L57.9-71
						L-73.5-202.4L-204.5-71.4z"/>
				</g>
				<g>
					<path class="st1" d="M190.1,324.9l-0.4-0.4L58.3,193.1L-73.5,324.9l-0.4-0.4l-132.3-132.3l0.4-0.4L58.3-72.3l0.4,0.4
						l264.1,264.1l-0.4,0.4L190.1,324.9z M58.3,191.3l0.4,0.4l131.4,131.4l130.9-130.9L58.3-70.5L-73.1,60.8l-0.4-0.4l0.4,0.4
						l-131.4,131.4l130.9,130.9L58.3,191.3z"/>
				</g>
			</g>
			<g>
				<g>
					<path class="st1" d="M58.3,328.3l-0.4-0.4L-206.2,63.8l0.4-0.4L-73.5-68.9l0.4,0.4L58.3,62.9L190.1-68.9l0.4,0.4L322.8,63.8
						l-0.4,0.4L58.3,328.3z M-204.5,63.8L58.3,326.5l131.4-131.4l0.4,0.4l-0.4-0.4L321.1,63.8L190.1-67.2L58.3,64.7l-0.4-0.4
						L-73.5-67.2L-204.5,63.8z"/>
				</g>
				<g>
					<path class="st1" d="M190.1,460.1l-0.4-0.4L58.3,328.3L-73.5,460.1l-0.4-0.4l-132.3-132.3l0.4-0.4L58.3,62.9l0.4,0.4
						l264.1,264.1l-0.4,0.4L190.1,460.1z M58.3,326.5l0.4,0.4l131.4,131.4l130.9-130.9L58.3,64.7L-73.1,196l-0.4-0.4l0.4,0.4
						l-131.4,131.4l130.9,130.9L58.3,326.5z"/>
				</g>
			</g>
			<g>
				<g>
					<path class="st1" d="M58.3,720.4l-0.4-0.4l-264.1-264.1l0.4-0.4l132.3-132.3l0.4,0.4L58.3,455l131.8-131.8l0.4,0.4l132.3,132.3
						l-0.4,0.4L58.3,720.4z M-204.5,455.9L58.3,718.6l131.4-131.4l0.4,0.4l-0.4-0.4l131.4-131.4L190.1,324.9L58.3,456.7l-0.4-0.4
						L-73.5,324.9L-204.5,455.9z"/>
				</g>
				<g>
					<path class="st1" d="M190.1,852.2l-0.4-0.4L58.3,720.4L-73.5,852.2l-0.4-0.4l-132.3-132.3l0.4-0.4L58.3,455l0.4,0.4
						l264.1,264.1l-0.4,0.4L190.1,852.2z M58.3,718.6l0.4,0.4l131.4,131.4l130.9-130.9L58.3,456.7L-73.1,588.1l-0.4-0.4l0.4,0.4
						l-131.4,131.4l130.9,130.9L58.3,718.6z"/>
				</g>
			</g>
			<g>
				<g>
					<path class="st1" d="M717.4,852.2l-0.4-0.4L585.6,720.4L453.8,852.2l-0.4-0.4L321.1,719.5l0.4-0.4L585.6,455l0.4,0.4
						l264.1,264.1l-0.4,0.4L717.4,852.2z M585.6,718.6l0.4,0.4l131.4,131.4l130.9-130.9L585.6,456.7L322.8,719.5l130.9,130.9
						L585.6,718.6z"/>
				</g>
				<g>
					<path class="st1" d="M585.6,720.4l-0.4-0.4L321.1,455.9l0.4-0.4l132.3-132.3l0.4,0.4L585.6,455l131.8-131.8l0.4,0.4
						l132.3,132.3l-0.4,0.4L585.6,720.4z M454.2,587.2l131.4,131.4l262.8-262.8L717.4,324.9L585.6,456.7l-0.4-0.4L453.8,324.9
						L322.8,455.9L454.2,587.2z"/>
				</g>
			</g>
			<g>
				<g>
					<path class="st1" d="M717.4,723.8l-0.4-0.4L585.6,591.9L453.8,723.8l-0.4-0.4L321.1,591.1l0.4-0.4l264.1-264.1l0.4,0.4
						l264.1,264.1l-0.4,0.4L717.4,723.8z M585.6,590.2l0.4,0.4L717.4,722l130.9-130.9L585.6,328.3L322.8,591.1L453.8,722
						L585.6,590.2z"/>
				</g>
				<g>
					<path class="st1" d="M585.6,591.9l-0.4-0.4L321.1,327.4l0.4-0.4l132.3-132.3l0.4,0.4l131.4,131.4l131.8-131.8l0.4,0.4
						l132.3,132.3l-0.4,0.4L585.6,591.9z M454.2,458.8l131.4,131.4l262.8-262.8L717.4,196.5L585.6,328.3l-0.4-0.4L453.8,196.5
						L322.8,327.4L454.2,458.8z"/>
				</g>
			</g>
			<g>
				<g>
					<path class="st1" d="M717.4,324.9l-0.4-0.4L585.6,193.1L453.8,324.9l-0.4-0.4L321.1,192.2l0.4-0.4L585.6-72.3l0.4,0.4
						l264.1,264.1l-0.4,0.4L717.4,324.9z M585.6,191.3l0.4,0.4l131.4,131.4l130.9-130.9L585.6-70.5L322.8,192.2l130.9,130.9
						L585.6,191.3z"/>
				</g>
				<g>
					<path class="st1" d="M585.6,193.1l-0.4-0.4L321.1-71.4l0.4-0.4l132.3-132.3l0.4,0.4L585.6-72.3l131.8-131.8l0.4,0.4L850.1-71.4
						l-0.4,0.4L585.6,193.1z M454.2,60l131.4,131.4L848.3-71.4L717.4-202.4L585.6-70.5l-0.4-0.4L453.8-202.4L322.8-71.4L454.2,60z"
						/>
				</g>
			</g>
		</g>
		<g>
			<g>
				<g>
					<path class="st1" d="M1112.9,193.1l-0.4-0.4L848.3-71.4l0.4-0.4L981-204.1l0.4,0.4l131.4,131.4l131.8-131.8l0.4,0.4
						l132.3,132.3l-0.4,0.4L1112.9,193.1z M850.1-71.4l262.8,262.8L1244.2,60l0.4,0.4l-0.4-0.4l131.4-131.4l-130.9-130.9
						L1112.9-70.5l-0.4-0.4L981-202.4L850.1-71.4z"/>
				</g>
				<g>
					<path class="st1" d="M1244.7,324.9l-0.4-0.4l-131.4-131.4L981,324.9l-0.4-0.4L848.3,192.2l0.4-0.4l264.1-264.1l0.4,0.4
						l264.1,264.1l-0.4,0.4L1244.7,324.9z M1112.9,191.3l0.4,0.4l131.4,131.4l130.9-130.9L1112.9-70.5L981.5,60.8l-0.4-0.4l0.4,0.4
						L850.1,192.2L981,323.2L1112.9,191.3z"/>
				</g>
			</g>
			<g>
				<g>
					<path class="st1" d="M1112.9,328.3l-0.4-0.4L848.3,63.8l0.4-0.4L981-68.9l0.4,0.4l131.4,131.4l131.8-131.8l0.4,0.4l132.3,132.3
						l-0.4,0.4L1112.9,328.3z M850.1,63.8l262.8,262.8l131.4-131.4l0.4,0.4l-0.4-0.4l131.4-131.4L1244.7-67.2L1112.9,64.7l-0.4-0.4
						L981-67.2L850.1,63.8z"/>
				</g>
				<g>
					<path class="st1" d="M1244.7,460.1l-0.4-0.4l-131.4-131.4L981,460.1l-0.4-0.4L848.3,327.4l0.4-0.4l264.1-264.1l0.4,0.4
						l264.1,264.1l-0.4,0.4L1244.7,460.1z M1112.9,326.5l0.4,0.4l131.4,131.4l130.9-130.9L1112.9,64.7L981.5,196l-0.4-0.4l0.4,0.4
						L850.1,327.4L981,458.3L1112.9,326.5z"/>
				</g>
			</g>
			<g>
				<g>
					<path class="st1" d="M1112.9,720.4l-0.4-0.4L848.3,455.9l0.4-0.4L981,323.2l0.4,0.4L1112.9,455l131.8-131.8l0.4,0.4
						l132.3,132.3l-0.4,0.4L1112.9,720.4z M850.1,455.9l262.8,262.8l131.4-131.4l0.4,0.4l-0.4-0.4l131.4-131.4l-130.9-130.9
						l-131.8,131.8l-0.4-0.4L981,324.9L850.1,455.9z"/>
				</g>
				<g>
					<path class="st1" d="M1244.7,852.2l-0.4-0.4l-131.4-131.4L981,852.2l-0.4-0.4L848.3,719.5l0.4-0.4L1112.9,455l0.4,0.4
						l264.1,264.1l-0.4,0.4L1244.7,852.2z M1112.9,718.6l0.4,0.4l131.4,131.4l130.9-130.9l-262.8-262.8L981.5,588.1l-0.4-0.4
						l0.4,0.4L850.1,719.5L981,850.4L1112.9,718.6z"/>
				</g>
			</g>
			<g>
				<g>
					<path class="st1" d="M1772,852.2l-0.4-0.4l-131.4-131.4l-131.8,131.8l-0.4-0.4l-132.3-132.3l0.4-0.4L1640.1,455l0.4,0.4
						l264.1,264.1l-0.4,0.4L1772,852.2z M1640.1,718.6l0.4,0.4L1772,850.4l130.9-130.9l-262.8-262.8l-262.8,262.8l130.9,130.9
						L1640.1,718.6z"/>
				</g>
				<g>
					<path class="st1" d="M1640.1,720.4l-0.4-0.4l-264.1-264.1l0.4-0.4l132.3-132.3l0.4,0.4L1640.1,455L1772,323.2l0.4,0.4
						l132.3,132.3l-0.4,0.4L1640.1,720.4z M1508.8,587.2l131.4,131.4l262.8-262.8L1772,324.9l-131.8,131.8l-0.4-0.4l-131.4-131.4
						l-130.9,130.9L1508.8,587.2L1508.8,587.2z"/>
				</g>
			</g>
			<g>
				<g>
					<path class="st1" d="M1772,723.8l-0.4-0.4l-131.4-131.4l-131.8,131.8l-0.4-0.4l-132.3-132.3l0.4-0.4l264.1-264.1l0.4,0.4
						l264.1,264.1l-0.4,0.4L1772,723.8z M1640.1,590.2l0.4,0.4L1772,722l130.9-130.9l-262.8-262.8l-262.8,262.8L1508.3,722
						L1640.1,590.2z"/>
				</g>
				<g>
					<path class="st1" d="M1640.1,591.9l-0.4-0.4l-264.1-264.1l0.4-0.4l132.3-132.3l0.4,0.4l131.4,131.4L1772,194.7l0.4,0.4
						l132.3,132.3l-0.4,0.4L1640.1,591.9z M1508.8,458.8l131.4,131.4l262.8-262.8L1772,196.5l-131.8,131.8l-0.4-0.4l-131.4-131.4
						l-130.9,130.9L1508.8,458.8z"/>
				</g>
			</g>
			<g>
				<g>
					<path class="st1" d="M1772,324.9l-0.4-0.4l-131.4-131.4l-131.8,131.8l-0.4-0.4l-132.3-132.3l0.4-0.4l264.1-264.1l0.4,0.4
						l264.1,264.1l-0.4,0.4L1772,324.9z M1640.1,191.3l0.4,0.4L1772,323.2l130.9-130.9L1640.1-70.5l-262.8,262.8l130.9,130.9
						L1640.1,191.3z"/>
				</g>
				<g>
					<path class="st1" d="M1640.1,193.1l-0.4-0.4L1375.6-71.4l0.4-0.4l132.3-132.3l0.4,0.4l131.4,131.4L1772-204.1l0.4,0.4
						l132.3,132.3l-0.4,0.4L1640.1,193.1z M1508.8,60l131.4,131.4l262.8-262.8L1772-202.4L1640.1-70.5l-0.4-0.4l-131.4-131.4
						L1377.4-71.4L1508.8,60z"/>
				</g>
			</g>
		</g>
	</g>
</g>
</svg>
