<?xml version="1.0" encoding="utf-8"?>
<!-- Generator: Adobe Illustrator 20.1.0, SVG Export Plug-In . SVG Version: 6.00 Build 0)  -->
<svg version="1.1" id="Layer_1" xmlns="http://www.w3.org/2000/svg" xmlns:xlink="http://www.w3.org/1999/xlink" x="0px" y="0px"
	 viewBox="0 0 1700 524" style="enable-background:new 0 0 1700 524;" xml:space="preserve">
<style type="text/css">
	.st0{clip-path:url(#SVGID_2_);}
	.st1{fill:#07448C;}
</style>
<g>
	<defs>
		<rect id="SVGID_1_" width="1700" height="524"/>
	</defs>
	<use xlink:href="#SVGID_1_"  style="overflow:visible;fill:#02264F;"/>
	<clipPath id="SVGID_2_">
		<use xlink:href="#SVGID_1_"  style="overflow:visible;"/>
	</clipPath>
	<g class="st0">
		<g>
			<path class="st1" d="M88.3,1018.1l-0.4-0.4L-121,808.8l0.4-0.4L87.4,600.4L-121,392.1l0.4-0.4L88.3,182.8l0.4,0.4l417.2,417.2
				l-0.4,0.4L88.3,1018.1z M-119.2,808.8l207.5,207.5l207.9-207.9l0.4,0.4l-0.4-0.4l207.9-207.9L88.3,184.6l-207.5,207.5L89.2,600.4
				l-0.4,0.4L-119.2,808.8z"/>
		</g>
		<g>
			<path class="st1" d="M296.7,392.9l-0.4-0.4L191.6,287.9l0.4-0.4l103.7-103.7L191.6,79.5l0.4-0.4L296.7-25.6l0.4,0.4l208.8,208.8
				l-0.4,0.4L296.7,392.9z M193.4,287.9l103.3,103.3l103.7-103.7l0.4,0.4l-0.4-0.4l103.7-103.7L296.7-23.8L193.4,79.5l104.2,104.2
				l-0.4,0.4L193.4,287.9z"/>
		</g>
		<g>
			<path class="st1" d="M400.8,80.4l-53-53L400-24.7l-52.1-52.1l53-53L505.9-24.7L400.8,80.4z M349.6,27.4l51.2,51.2L452.5,27
				l0.4,0.4l-0.4-0.4l51.7-51.7L400.8-128l-51.2,51.2l52.1,52.1L349.6,27.4z"/>
		</g>
		<g>
			<path class="st1" d="M505,184.6l-53-53l52.1-52.1l-52.1-52.1l53-53L610.1,79.5L505,184.6z M453.8,131.6l51.2,51.2L608.3,79.5
				L505-23.8l-51.2,51.2l52.1,52.1L453.8,131.6z"/>
		</g>
		<g>
			<path class="st1" d="M609.2,288.8l-53-53l52.1-52.1l-52.1-52.1l53-53l105.1,105.1L609.2,288.8z M558,235.8l51.2,51.2l103.3-103.3
				L609.2,80.4L558,131.6l52.1,52.1L558,235.8z"/>
		</g>
		<g>
			<path class="st1" d="M713.4,392.9l-53-53l52.1-52.1l-52.1-52.1l53-53l105.1,105.1L713.4,392.9z M662.2,340l51.2,51.2l51.7-51.7
				l0.4,0.4l-0.4-0.4l51.7-51.6L713.4,184.6l-51.2,51.2l52.1,52.1L662.2,340z"/>
		</g>
		<g>
			<path class="st1" d="M609.4,705.7l-53-53l52.1-52.1l-52.1-52.1l53-53l105.1,105.1L609.4,705.7z M558.2,652.8l51.2,51.2
				l103.3-103.3L609.4,497.4l-51.2,51.2l52.1,52.1L558.2,652.8z"/>
		</g>
		<g>
			<path class="st1" d="M713.6,809.9l-53-53l52.1-52.1l-52.1-52.1l53-53l105.1,105.1L713.6,809.9z M662.4,756.9l51.2,51.2
				l103.3-103.3L713.6,601.5l-51.2,51.2l52.1,52.1L662.4,756.9z"/>
		</g>
		<g>
			<path class="st1" d="M505,601.3l-0.4-0.4L400,496.2l0.4-0.4l103.7-103.7L400,287.9l0.4-0.4L505,182.8l0.4,0.4l208.8,208.8
				l-0.4,0.4L505,601.3z M401.7,496.2L505,599.5l207.5-207.5L505,184.6L401.7,287.9l104.2,104.2l-0.4,0.4L401.7,496.2z"/>
		</g>
		<g>
			<path class="st1" d="M88.3,184.6l-0.4-0.4L-16.8,79.5l0.4-0.4L87.4-24.7L-16.8-128.9l0.4-0.4L88.3-233.9l0.4,0.4L297.5-24.7
				l-0.4,0.4L88.3,184.6z M-15,79.5L88.3,182.8L295.8-24.7L88.3-232.2L-15-128.9L89.2-24.7l-0.4,0.4L-15,79.5z"/>
		</g>
		<g>
			<path class="st1" d="M505-232.2l-0.4-0.4L400-337.2l0.4-0.4l103.7-103.7L400-545.6l0.4-0.4L505-650.7l0.4,0.4l208.8,208.8
				l-0.4,0.4L505-232.2z M401.7-337.2L505-233.9l207.5-207.5L505-648.9L401.7-545.6l104.2,104.2l-0.4,0.4L401.7-337.2z"/>
		</g>
		<g>
			<path class="st1" d="M817.8,705.7l-0.4-0.4L712.7,600.7l0.4-0.4l103.7-103.7L712.7,392.3l0.4-0.4l104.6-104.6l0.4,0.4
				l208.8,208.8l-0.4,0.4L817.8,705.7z M714.5,600.7L817.8,704l207.5-207.5L817.8,289L714.5,392.3l104.2,104.2l-0.4,0.4L714.5,600.7
				z"/>
		</g>
		<g>
			<path class="st1" d="M296.9,1226.7l-0.4-0.4l-104.6-104.6l0.4-0.4L296,1017.4L191.8,913.2l0.4-0.4l104.6-104.6l0.4,0.4
				l208.8,208.8l-0.4,0.4L296.9,1226.7z M193.6,1121.6l103.3,103.3l207.5-207.5L296.9,809.9L193.6,913.2l104.2,104.2l-0.4,0.4
				L193.6,1121.6z"/>
		</g>
		<g>
			<path class="st1" d="M505.3,1018.3l-0.4-0.4L400.2,913.2l0.4-0.4L504.4,809L400.2,704.8l0.4-0.4l104.6-104.6l0.4,0.4L714.5,809
				l-0.4,0.4L505.3,1018.3z M402,913.2l103.3,103.3L609,912.8l0.4,0.4l-0.4-0.4L712.7,809L505.3,601.5L402,704.8L506.1,809l-0.4,0.4
				L402,913.2z"/>
		</g>
		<g>
			<g>
				<path class="st1" d="M713.6,1643.4l-0.4-0.4l-208.8-208.8l0.4-0.4l207.9-207.9l-208.4-208.4l0.4-0.4l208.8-208.8l0.4,0.4
					l417.2,417.2l-0.4,0.4L713.6,1643.4z M506.1,1434.1l207.5,207.5l207.9-207.9l0.4,0.4l-0.4-0.4l207.9-207.9L713.6,809.9
					l-207.5,207.5l208.4,208.4l-0.4,0.4L506.1,1434.1z"/>
			</g>
			<g>
				<path class="st1" d="M922,1018.3l-0.4-0.4L816.9,913.2l0.4-0.4L921.1,809L816.9,704.8l0.4-0.4L922,599.8l0.4,0.4L1131.2,809
					l-0.4,0.4L922,1018.3z M818.7,913.2L922,1016.5l103.7-103.7l0.4,0.4l-0.4-0.4L1129.5,809L922,601.5L818.7,704.8L922.9,809
					l-0.4,0.4L818.7,913.2z"/>
			</g>
			<g>
				<path class="st1" d="M1026.2,705.7l-53-53l52.1-52.1l-52.1-52.1l53-53l105.1,105.1L1026.2,705.7z M975,652.8l51.2,51.2
					l51.7-51.7l0.4,0.4l-0.4-0.4l51.7-51.7l-103.3-103.3L975,548.6l52.1,52.1L975,652.8z"/>
			</g>
			<g>
				<path class="st1" d="M1130.4,809.9l-53-53l52.1-52.1l-52.1-52.1l53-53l105.1,105.1L1130.4,809.9z M1079.2,756.9l51.2,51.2
					l103.3-103.3l-103.3-103.3l-51.2,51.2l52.1,52.1L1079.2,756.9z"/>
			</g>
			<g>
				<path class="st1" d="M1234.5,914.1l-53-53l52.1-52.1l-52.1-52.1l53-53L1339.6,809L1234.5,914.1z M1183.3,861.1l51.2,51.2
					L1337.8,809l-103.3-103.3l-51.2,51.2l52.1,52.1L1183.3,861.1z"/>
			</g>
			<g>
				<path class="st1" d="M1338.7,1018.3l-53-53l52.1-52.1l-52.1-52.1l53-53l105.1,105.1L1338.7,1018.3z M1287.5,965.3l51.2,51.2
					L1442,913.2l-103.3-103.3l-51.2,51.2l52.1,52.1L1287.5,965.3z"/>
			</g>
			<g>
				<path class="st1" d="M1234.8,1331.1l-53-53l52.1-52.1l-52.1-52.1l53-53l105.1,105.1L1234.8,1331.1z M1183.6,1278.1l51.2,51.2
					l103.3-103.3l-103.3-103.3l-51.2,51.2l52.1,52.1L1183.6,1278.1z"/>
			</g>
			<g>
				<path class="st1" d="M1339,1435.3l-53-53l52.1-52.1l-52.1-52.1l53-53l105.1,105.1l-52.5,52.5l-0.4-0.4l0.4,0.4L1339,1435.3z
					 M1287.8,1382.3l51.2,51.2l103.3-103.3L1339,1226.9l-51.2,51.2l52.1,52.1L1287.8,1382.3z"/>
			</g>
			<g>
				<path class="st1" d="M1130.4,1226.7l-0.4-0.4l-104.6-104.6l0.4-0.4l103.7-103.7l-104.2-104.2l0.4-0.4l104.6-104.6l0.4,0.4
					l208.8,208.8l-0.4,0.4L1130.4,1226.7z M1027.1,1121.6l103.3,103.3l103.7-103.7l0.4,0.4l-0.4-0.4l103.7-103.7l-207.5-207.5
					l-103.3,103.3l104.2,104.2l-0.4,0.4L1027.1,1121.6z"/>
			</g>
			<g>
				<path class="st1" d="M1443.1,1331.1l-0.4-0.4L1338.1,1226l0.4-0.4l103.7-103.7l-104.2-104.2l0.4-0.4l104.6-104.6l0.4,0.4
					l208.8,208.8l-0.4,0.4L1443.1,1331.1z M1339.8,1226l103.3,103.3l207.5-207.5l-207.5-207.5l-103.3,103.3l104.2,104.2l-0.4,0.4
					L1339.8,1226z"/>
			</g>
			<g>
				<path class="st1" d="M922.2,1852l-0.4-0.4l-104.6-104.6l0.4-0.4l103.7-103.7l-104.2-104.2l0.4-0.4l104.6-104.6l0.4,0.4
					l208.8,208.8l-0.4,0.4L922.2,1852z M818.9,1746.9l103.3,103.3l207.5-207.5l-207.5-207.5l-103.3,103.3l104.2,104.2l-0.4,0.4
					L818.9,1746.9z"/>
			</g>
			<g>
				<path class="st1" d="M1130.6,1643.6l-0.4-0.4l-104.6-104.6l0.4-0.4l103.7-103.7l-104.2-104.2l0.4-0.4l104.6-104.6l0.4,0.4
					l208.8,208.8l-0.4,0.4L1130.6,1643.6z M1027.3,1538.6l103.3,103.3l103.7-103.7l0.4,0.4l-0.4-0.4l103.7-103.7l-207.5-207.5
					l-103.3,103.3l104.2,104.2l-0.4,0.4L1027.3,1538.6z"/>
			</g>
		</g>
		<g>
			<path class="st1" d="M817.6,288.8l-0.4-0.4L608.3,79.5l0.4-0.4l207.9-207.9L608.3-337.2l0.4-0.4l208.8-208.8l0.4,0.4l417.2,417.2
				l-0.4,0.4L817.6,288.8z M610.1,79.5L817.6,287l415.9-415.9L817.6-544.7L610.1-337.2l208.4,208.4l-0.4,0.4L610.1,79.5z"/>
		</g>
		<g>
			<g>
				<path class="st1" d="M1025.9-336.3l-0.4-0.4L920.9-441.4l0.4-0.4l103.7-103.7L920.9-649.8l0.4-0.4l104.6-104.6l0.4,0.4
					l208.8,208.8l-0.4,0.4L1025.9-336.3z M922.6-441.4l103.3,103.3l103.7-103.7l0.4,0.4l-0.4-0.4l103.7-103.7l-207.5-207.5
					L922.6-649.8l104.2,104.2l-0.4,0.4L922.6-441.4z"/>
			</g>
			<g>
				<path class="st1" d="M1130.1-648.9l-53-53l52.1-52.1l-52.1-52.1l53-53L1235.2-754L1130.1-648.9z M1078.9-701.9l51.2,51.2
					L1233.4-754l-103.3-103.3l-51.2,51.2L1131-754L1078.9-701.9z"/>
			</g>
			<g>
				<path class="st1" d="M1234.3-544.7l-53-53l52.1-52.1l-52.1-52.1l53-53l105.1,105.1L1234.3-544.7z M1183.1-597.7l51.2,51.2
					l103.3-103.3l-103.3-103.3l-51.2,51.2l52.1,52.1L1183.1-597.7z"/>
			</g>
		</g>
		<g>
			<path class="st1" d="M-328,601.8l-0.4-0.4l-104.6-104.6l0.4-0.4l103.7-103.7l-104.2-104.2l0.4-0.4L-328,183.3l0.4,0.4
				l208.8,208.8l-0.4,0.4L-328,601.8z M-431.3,496.7L-328,600l103.7-103.7l0.4,0.4l-0.4-0.4l103.7-103.7L-328,185l-103.3,103.3
				l104.2,104.2l-0.4,0.4L-431.3,496.7z"/>
		</g>
		<g>
			<path class="st1" d="M297.1-23.3l-0.4-0.4L192-128.4l0.4-0.4l103.7-103.7L192-336.8l0.4-0.4l104.6-104.6l0.4,0.4l208.8,208.8
				l-0.4,0.4L297.1-23.3z M193.8-128.4L297.1-25.1l207.5-207.5L297.1-440.1L193.8-336.8L298-232.6l-0.4,0.4L193.8-128.4z"/>
		</g>
		<g>
			<path class="st1" d="M922.2-648.4l-0.4-0.4L817.2-753.5l0.4-0.4l103.7-103.7L817.2-961.9l0.4-0.4l104.6-104.6l209.3,209.3
				l-0.4,0.4L922.2-648.4z M818.9-753.5l103.3,103.3l207.5-207.5l-207.5-207.5L818.9-961.9l104.2,104.2l-0.4,0.4L818.9-753.5z"/>
		</g>
		<g>
			<path class="st1" d="M-223.8,289.2l-53-53l52.1-52.1l-52.1-52.1l53-53l105.1,105.1L-223.8,289.2z M-275,236.2l51.2,51.2
				l103.3-103.3L-223.8,80.9l-51.2,51.2l52.1,52.1L-275,236.2z"/>
		</g>
		<g>
			<path class="st1" d="M-119.6,393.4l-53-53l52.1-52.1l-52.1-52.1l53-53l105.1,105.1L-119.6,393.4z M-170.8,340.4l51.2,51.2
				l103.3-103.3L-119.6,185l-51.2,51.2l52.1,52.1L-170.8,340.4z"/>
		</g>
		<g>
			<path class="st1" d="M1338.5-440.5l-53-53l52.1-52.1l-52.1-52.1l53-53l105.1,105.1L1338.5-440.5z M1287.3-493.5l51.2,51.2
				l51.7-51.7l0.4,0.4l-0.4-0.4l51.7-51.7l-103.3-103.3l-51.2,51.2l52.1,52.1L1287.3-493.5z"/>
		</g>
		<g>
			<path class="st1" d="M1442.7-336.3l-53-53l52.1-52.1l-52.1-52.1l53-53l105.1,105.1L1442.7-336.3z M1391.5-389.3l51.2,51.2
				L1546-441.4l-103.3-103.3l-51.2,51.2l52.1,52.1L1391.5-389.3z"/>
		</g>
		<g>
			<path class="st1" d="M-119.6,185l-53-53l52.1-52.1l-52.1-52.1l53-53L-14.6,80L-119.6,185z M-170.8,132.1l51.2,51.2L-16.3,80
				L-119.6-23.3l-51.2,51.2l52.1,52.1L-170.8,132.1z"/>
		</g>
		<g>
			<path class="st1" d="M-15.4,289.2l-53-53l52.1-52.1l-52.1-52.1l53-53L89.6,184.2L-15.4,289.2z M-66.6,236.2l51.2,51.2L87.9,184.2
				L-15.4,80.9l-51.2,51.2l52.1,52.1L-66.6,236.2z"/>
		</g>
		<g>
			<path class="st1" d="M609.7-544.3l-53-53l52.1-52.1l-52.1-52.1l53-53l105.1,105.1L609.7-544.3z M558.5-597.2l51.2,51.2l51.7-51.7
				l0.4,0.4l-0.4-0.4l51.7-51.6L609.7-752.6l-51.2,51.2l52.1,52.1L558.5-597.2z"/>
		</g>
		<g>
			<path class="st1" d="M713.9-440.1l-53-53l52.1-52.1l-52.1-52.1l53-53l105.1,105.1L713.9-440.1z M662.6-493l51.2,51.2l103.3-103.3
				L713.9-648.4l-51.2,51.2l52.1,52.1L662.6-493z"/>
		</g>
		<g>
			<path class="st1" d="M713.9-648.4l-53-53l52.1-52.1l-52.1-52.1l53-53l105.1,105.1L713.9-648.4z M662.6-701.4l51.2,51.2
				l103.3-103.3L713.9-856.8l-51.2,51.2l52.1,52.1L662.6-701.4z"/>
		</g>
		<g>
			<path class="st1" d="M818-544.3l-53-53l52.1-52.1l-52.1-52.1l53-53l105.1,105.1L818-544.3z M766.8-597.2L818-546l51.7-51.7
				l0.4,0.4l-0.4-0.4l51.7-51.6L818-752.6l-51.2,51.2l52.1,52.1L766.8-597.2z"/>
		</g>
		<g>
			<path class="st1" d="M1338.7-23.6l-53-53l52.1-52.1l-52.1-52.1l53-53l105.1,105.1L1338.7-23.6z M1287.5-76.5l51.2,51.2
				L1442-128.6l-103.3-103.3l-51.2,51.2l52.1,52.1L1287.5-76.5z"/>
		</g>
		<g>
			<path class="st1" d="M1442.9,80.6l-53-53l52.1-52.1l-52.1-52.1l53-53L1548-24.4L1442.9,80.6z M1391.7,27.6l51.2,51.2l51.7-51.7
				l0.4,0.4l-0.4-0.4l51.7-51.7l-103.3-103.3l-51.2,51.2l52.1,52.1L1391.7,27.6z"/>
		</g>
		<g>
			<path class="st1" d="M1234.3-128l-0.4-0.4L1129.3-233l0.4-0.4l103.7-103.7l-104.2-104.2l0.4-0.4l104.6-104.6l0.4,0.4l208.8,208.8
				l-0.4,0.4L1234.3-128z M1131-233l103.3,103.3l103.7-103.7l0.4,0.4l-0.4-0.4l103.7-103.7l-207.5-207.5L1131-441.4l104.2,104.2
				l-0.4,0.4L1131-233z"/>
		</g>
		<g>
			<path class="st1" d="M1547.1-23.6l-0.4-0.4L1442-128.6l0.4-0.4l103.7-103.7L1442-337l0.4-0.4l104.6-104.6l0.4,0.4l208.8,208.8
				l-0.4,0.4L1547.1-23.6z M1443.8-128.6l103.3,103.3l103.7-103.7l0.4,0.4l-0.4-0.4l103.7-103.7l-207.5-207.5L1443.8-337L1548-232.8
				l-0.4,0.4L1443.8-128.6z"/>
		</g>
		<g>
			<path class="st1" d="M1026.2,497.4l-0.4-0.4L921.1,392.3l0.4-0.4l103.7-103.7L921.1,183.9l0.4-0.4l104.6-104.6l0.4,0.4
				l208.8,208.8l-0.4,0.4L1026.2,497.4z M922.9,392.3l103.3,103.3l103.7-103.7l0.4,0.4l-0.4-0.4l103.7-103.7L1026.2,80.6
				L922.9,183.9l104.2,104.2l-0.4,0.4L922.9,392.3z"/>
		</g>
		<g>
			<path class="st1" d="M1234.5,289l-0.4-0.4l-104.6-104.6l0.4-0.4l103.7-103.7L1129.5-24.4l0.4-0.4l104.6-104.6l0.4,0.4
				l208.8,208.8l-0.4,0.4L1234.5,289z M1131.2,183.9l103.3,103.3L1442,79.7l-207.5-207.5L1131.2-24.4l104.2,104.2l-0.4,0.4
				L1131.2,183.9z"/>
		</g>
		<g>
			<g>
				<path class="st1" d="M1442.9,914.1l-0.4-0.4l-208.8-208.8l0.4-0.4L1442,496.5l-208.4-208.4l0.4-0.4l208.8-208.8l0.4,0.4
					l417.2,417.2l-0.4,0.4L1442.9,914.1z M1235.4,704.8l207.5,207.5l207.9-207.9l0.4,0.4l-0.4-0.4l207.9-207.9L1442.9,80.6
					l-207.5,207.5l208.4,208.4l-0.4,0.4L1235.4,704.8z"/>
			</g>
			<g>
				<path class="st1" d="M1651.3,289l-0.4-0.4l-104.6-104.6l0.4-0.4l103.7-103.7L1546.2-24.4l0.4-0.4l104.6-104.6l0.4,0.4
					l208.8,208.8l-0.4,0.4L1651.3,289z M1548,183.9l103.3,103.3l207.5-207.5l-207.5-207.5L1548-24.4l104.2,104.2l-0.4,0.4
					L1548,183.9z"/>
			</g>
			<g>
				<path class="st1" d="M1755.5-23.6l-53-53l52.1-52.1l-52.1-52.1l53-53l105.1,105.1L1755.5-23.6z M1704.3-76.5l51.2,51.2
					l103.3-103.3l-103.3-103.3l-51.2,51.2l52.1,52.1L1704.3-76.5z"/>
			</g>
			<g>
				<path class="st1" d="M1859.7,80.6l-53-53l52.1-52.1l-52.1-52.1l53-53l105.1,105.1L1859.7,80.6z M1808.4,27.6l51.2,51.2
					L1963-24.4l-103.3-103.3l-51.2,51.2l52.1,52.1L1808.4,27.6z"/>
			</g>
			<g>
				<path class="st1" d="M1963.8,184.8l-53-53l52.1-52.1l-52.1-52.1l53-53l105.1,105.1L1963.8,184.8z M1912.6,131.8l51.2,51.2
					l103.3-103.3L1963.8-23.6l-51.2,51.2l52.1,52.1L1912.6,131.8z"/>
			</g>
			<g>
				<path class="st1" d="M2068,289l-53-53l52.1-52.1l-52.1-52.1l53-53l105.1,105.1L2068,289z M2016.8,236l51.2,51.2l51.7-51.7
					l0.4,0.4l-0.4-0.4l51.7-51.7L2068,80.6l-51.2,51.2l52.1,52.1L2016.8,236z"/>
			</g>
			<g>
				<path class="st1" d="M1964.1,601.8l-53-53l52.1-52.1l-52.1-52.1l53-53l105.1,105.1L1964.1,601.8z M1912.9,548.8l51.2,51.2
					l103.3-103.3l-103.3-103.3l-51.2,51.2l52.1,52.1L1912.9,548.8z"/>
			</g>
			<g>
				<path class="st1" d="M2068.3,706l-53-53l52.1-52.1l-52.1-52.1l53-53l105.1,105.1L2068.3,706z M2017,653l51.2,51.2l103.3-103.3
					l-103.3-103.3l-51.2,51.2l52.1,52.1L2017,653z"/>
			</g>
			<g>
				<path class="st1" d="M1859.7,497.4l-0.4-0.4l-104.6-104.6l0.4-0.4l103.7-103.7l-104.2-104.2l0.4-0.4l104.6-104.6l0.4,0.4
					l208.8,208.8l-0.4,0.4L1859.7,497.4z M1756.4,392.3l103.3,103.3l103.7-103.7l0.4,0.4l-0.4-0.4l103.7-103.7L1859.7,80.6
					l-103.3,103.3l104.2,104.2l-0.4,0.4L1756.4,392.3z"/>
			</g>
			<g>
				<path class="st1" d="M2172.4,601.8l-0.4-0.4l-104.6-104.6l0.4-0.4l103.7-103.7l-104.2-104.2l0.4-0.4l104.6-104.6l0.4,0.4
					l208.8,208.8l-0.4,0.4L2172.4,601.8z M2069.1,496.7L2172.4,600l103.7-103.7l0.4,0.4l-0.4-0.4l103.7-103.7L2172.4,185
					l-103.3,103.3l104.2,104.2l-0.4,0.4L2069.1,496.7z"/>
			</g>
			<g>
				<path class="st1" d="M1651.5,1122.7l-0.4-0.4l-104.6-104.6l0.4-0.4l103.7-103.7l-104.2-104.2l0.4-0.4l104.6-104.6l0.4,0.4
					l208.8,208.8l-0.4,0.4L1651.5,1122.7z M1548.2,1017.6l103.3,103.3l103.7-103.7l0.4,0.4l-0.4-0.4L1859,913.4L1651.5,706
					l-103.3,103.3l104.2,104.2l-0.4,0.4L1548.2,1017.6z"/>
			</g>
			<g>
				<path class="st1" d="M1859.9,914.3l-0.4-0.4l-104.6-104.6l0.4-0.4L1859,705.1l-104.2-104.2l0.4-0.4l104.6-104.6l0.4,0.4
					l208.8,208.8l-0.4,0.4L1859.9,914.3z M1756.6,809.3l103.3,103.3l103.7-103.7l0.4,0.4l-0.4-0.4l103.7-103.7l-207.5-207.5
					l-103.3,103.3l104.2,104.2l-0.4,0.4L1756.6,809.3z"/>
			</g>
		</g>
	</g>
</g>
</svg>
