<?xml version="1.0" encoding="utf-8"?>
<!-- Generator: Adobe Illustrator 20.1.0, SVG Export Plug-In . SVG Version: 6.00 Build 0)  -->
<svg version="1.1" id="Layer_1" xmlns="http://www.w3.org/2000/svg" xmlns:xlink="http://www.w3.org/1999/xlink" x="0px" y="0px"
	 viewBox="0 0 1700 606" style="enable-background:new 0 0 1700 606;" xml:space="preserve">
<style type="text/css">
	.st0{opacity:0.7;clip-path:url(#SVGID_2_);}
	.st1{fill:#07448C;}
</style>
<g>
	<defs>
		<rect id="SVGID_1_" width="1700" height="606"/>
	</defs>
	<use xlink:href="#SVGID_1_"  style="overflow:visible;fill:#02264F;"/>
	<clipPath id="SVGID_2_">
		<use xlink:href="#SVGID_1_"  style="overflow:visible;"/>
	</clipPath>
	<g class="st0">
		<g>
			<g>
				<path class="st1" d="M1262.5,196.9L1051.2-14.4l106-106l105.3,105.3l105.3-105.3l106,106L1262.5,196.9z M1157.5,90.5
					l104.9,104.9l209.9-209.9L1367.8-119L1262.5-13.7L1157.2-119L1052.6-14.4L1157.5,90.5z"/>
				<path class="st1" d="M1367.8,302.2l-105.3-105.3l-105.3,105.3l-106-106l211.3-211.3l211.3,211.3L1367.8,302.2z M1262.5,195.4
					l105.3,105.3l104.6-104.6L1262.5-13.7l-209.9,209.9l104.6,104.6L1262.5,195.4z"/>
			</g>
			<g>
				<path class="st1" d="M1262.5,304.8L1051.2,93.6l106-106l105.3,105.3l105.3-105.3l106,106L1262.5,304.8z M1157.5,198.5
					l104.9,104.9l209.9-209.9L1367.8-11L1262.5,94.3L1157.2-11L1052.6,93.6L1157.5,198.5z"/>
				<path class="st1" d="M1367.8,410.1l-105.3-105.3l-105.3,105.3l-106-106l211.3-211.3l211.3,211.3L1367.8,410.1z M1262.5,303.4
					l105.3,105.3l104.6-104.6L1262.5,94.3l-209.9,209.9l104.6,104.6L1262.5,303.4z"/>
			</g>
			<g>
				<path class="st1" d="M1262.5,618l-211.3-211.3l106-106L1262.5,406l105.3-105.3l106,106L1262.5,618z M1157.5,511.7l104.9,104.9
					l209.9-209.9l-104.6-104.6l-105.3,105.3l-105.3-105.3l-104.6,104.6L1157.5,511.7z"/>
				<path class="st1" d="M1367.8,723.3L1262.5,618l-105.3,105.3l-106-106L1262.5,406l211.3,211.3L1367.8,723.3z M1262.5,616.6
					l105.3,105.3l104.6-104.6l-209.9-209.9l-209.9,209.9l104.6,104.6L1262.5,616.6z"/>
			</g>
			<g>
				<path class="st1" d="M946.6,723.3L841.3,618L736,723.3l-106-106L841.3,406l211.3,211.3L946.6,723.3z M841.3,616.6l105.3,105.3
					l104.6-104.6L841.3,407.4L736.4,512.4L736,512l0.4,0.4L631.4,617.3L736,721.9L841.3,616.6z"/>
				<path class="st1" d="M841.3,618L630,406.7l106-106L841.3,406l105.3-105.3l106,106L841.3,618z M631.4,406.7l209.9,209.9
					l104.9-104.9l0.4,0.4l-0.4-0.4l104.9-104.9L946.6,302.2L841.3,407.4L736,302.2L631.4,406.7z"/>
			</g>
			<g>
				<path class="st1" d="M946.6,620.7L841.3,515.4L736,620.7l-106-106l211.3-211.3l211.3,211.3L946.6,620.7z M841.3,514l105.3,105.3
					l104.6-104.6L841.3,304.8L736.4,409.8l-0.4-0.4l0.4,0.4L631.4,514.7L736,619.3L841.3,514z"/>
				<path class="st1" d="M841.3,515.4L630,304.1l106-106l105.3,105.3l105.3-105.3l106,106L841.3,515.4z M631.4,304.1L841.3,514
					l104.9-104.9l0.4,0.4l-0.4-0.4l104.9-104.9L946.6,199.6L841.3,304.8L736,199.6L631.4,304.1z"/>
			</g>
			<g>
				<path class="st1" d="M946.6,302.2L841.3,196.9L736,302.2l-106-106L841.3-15.1l211.3,211.3L946.6,302.2z M841.3,195.4
					l105.3,105.3l104.6-104.6L841.3-13.7L736.4,91.2l-0.4-0.4l0.4,0.4L631.4,196.2L736,300.7L841.3,195.4z"/>
				<path class="st1" d="M841.3,196.9L630-14.4l106-106L841.3-15.1l105.3-105.3l106,106L841.3,196.9z M631.4-14.4l209.9,209.9
					L946.3,90.5l0.4,0.4l-0.4-0.4l104.9-104.9L946.6-119L841.3-13.7L736-119L631.4-14.4z"/>
			</g>
		</g>
		<g>
			<g>
				<path class="st1" d="M420.2,196.9L208.9-14.4l106-106L420.2-15.1l105.3-105.3l106,106L420.2,196.9z M315.2,90.5l104.9,104.9
					L630-14.4L525.5-119L420.2-13.7L314.9-119L210.3-14.4L315.2,90.5z"/>
				<path class="st1" d="M525.5,302.2L420.2,196.9L314.9,302.2l-106-106L420.2-15.1l211.3,211.3L525.5,302.2z M420.2,195.4
					l105.3,105.3L630,196.2L420.2-13.7L210.3,196.2l104.6,104.6L420.2,195.4z"/>
			</g>
			<g>
				<path class="st1" d="M420.2,304.8L208.9,93.6l106-106L420.2,92.9L525.5-12.4l106,106L420.2,304.8z M315.2,198.5l104.9,104.9
					L630,93.6L525.5-11L420.2,94.3L314.9-11L210.3,93.6L315.2,198.5z"/>
				<path class="st1" d="M525.5,410.1L420.2,304.8L314.9,410.1l-106-106L420.2,92.9l211.3,211.3L525.5,410.1z M420.2,303.4
					l105.3,105.3L630,304.1L420.2,94.3L210.3,304.1l104.6,104.6L420.2,303.4z"/>
			</g>
			<g>
				<path class="st1" d="M420.2,618L208.9,406.7l106-106L420.2,406l105.3-105.3l106,106L420.2,618z M315.2,511.7l104.9,104.9
					L630,406.7L525.5,302.2L420.2,407.4L314.9,302.2L210.3,406.7L315.2,511.7z"/>
				<path class="st1" d="M525.5,723.3L420.2,618L314.9,723.3l-106-106L420.2,406l211.3,211.3L525.5,723.3z M420.2,616.6l105.3,105.3
					L630,617.3L420.2,407.4L210.3,617.3l104.6,104.6L420.2,616.6z"/>
			</g>
			<g>
				<path class="st1" d="M104.3,723.3L-1,618l-105.3,105.3l-106-106L-1,406l211.3,211.3L104.3,723.3z M-1,616.6l105.3,105.3
					l104.6-104.6L-1,407.4l-209.9,209.9l104.6,104.6L-1,616.6z"/>
				<path class="st1" d="M-1,618l-211.3-211.3l106-106L-1,406l105.3-105.3l106,106L-1,618z M-210.9,406.7L-1,616.6L104,511.7
					l0.4,0.4l-0.4-0.4l104.9-104.9L104.3,302.2L-1,407.4l-105.3-105.3L-210.9,406.7z"/>
			</g>
			<g>
				<path class="st1" d="M104.3,620.7L-1,515.4l-105.3,105.3l-106-106L-1,303.4l211.3,211.3L104.3,620.7z M-1,514l105.3,105.3
					l104.6-104.6L-1,304.8l-104.9,104.9l-0.4-0.4l0.4,0.4l-104.9,104.9l104.6,104.6L-1,514z"/>
				<path class="st1" d="M-1,515.4l-211.3-211.3l106-106L-1,303.4l105.3-105.3l106,106L-1,515.4z M-210.9,304.1L-1,514L104,409.1
					l0.4,0.4l-0.4-0.4l104.9-104.9L104.3,199.6L-1,304.8l-105.3-105.3L-210.9,304.1z"/>
			</g>
			<g>
				<path class="st1" d="M104.3,302.2L-1,196.9l-105.3,105.3l-106-106L-1-15.1l211.3,211.3L104.3,302.2z M-1,195.4l105.3,105.3
					l104.6-104.6L-1-13.7L-105.9,91.2l-0.4-0.4l0.4,0.4l-104.9,104.9l104.6,104.6L-1,195.4z"/>
				<path class="st1" d="M-1,196.9L-212.3-14.4l106-106L-1-15.1l105.3-105.3l106,106L-1,196.9z M-210.9-14.4L-1,195.4L104,90.5
					l0.4,0.4l-0.4-0.4L208.9-14.4L104.3-119L-1-13.7L-106.3-119L-210.9-14.4z"/>
			</g>
		</g>
	</g>
	<g class="st0">
		<g>
			<g>
				<path class="st1" d="M2947.1,196.9L2735.8-14.4l106-106l105.3,105.3l105.3-105.3l106,106L2947.1,196.9z M2842.1,90.5
					l104.9,104.9l209.9-209.9L3052.4-119L2947.1-13.7L2841.8-119L2737.2-14.4L2842.1,90.5z"/>
				<path class="st1" d="M3052.4,302.2l-105.3-105.3l-105.3,105.3l-106-106l211.3-211.3l211.3,211.3L3052.4,302.2z M2737.2,196.2
					l104.6,104.6l105.3-105.3l105.3,105.3l104.6-104.6L2947.1-13.7L2737.2,196.2z"/>
			</g>
			<g>
				<path class="st1" d="M2947.1,304.8L2735.8,93.6l106-106l105.3,105.3l105.3-105.3l106,106L2947.1,304.8z M2842.1,198.5
					l104.9,104.9l209.9-209.9L3052.4-11L2947.1,94.3L2841.8-11L2737.2,93.6L2842.1,198.5z"/>
				<path class="st1" d="M3052.4,410.1l-105.3-105.3l-105.3,105.3l-106-106l211.3-211.3l211.3,211.3L3052.4,410.1z M2737.2,304.1
					l104.6,104.6l105.3-105.3l105.3,105.3l104.6-104.6L2947.1,94.3L2737.2,304.1z"/>
			</g>
			<g>
				<path class="st1" d="M2947.1,618l-211.3-211.3l106-106L2947.1,406l105.3-105.3l106,106L2947.1,618z M2842.1,511.7l104.9,104.9
					l209.9-209.9l-104.6-104.6l-105.3,105.3l-105.3-105.3l-104.6,104.6L2842.1,511.7z"/>
				<path class="st1" d="M3052.4,723.3L2947.1,618l-105.3,105.3l-106-106L2947.1,406l211.3,211.3L3052.4,723.3z M2737.2,617.3
					l104.6,104.6l105.3-105.3l105.3,105.3l104.6-104.6l-209.9-209.9L2737.2,617.3z"/>
			</g>
			<g>
				<path class="st1" d="M2631.2,723.3L2525.9,618l-105.3,105.3l-106-106L2525.9,406l211.3,211.3L2631.2,723.3z M2525.9,616.6
					l105.3,105.3l104.6-104.6l-209.9-209.9l-209.9,209.9l104.6,104.6L2525.9,616.6z"/>
				<path class="st1" d="M2525.9,618l-211.3-211.3l106-106L2525.9,406l105.3-105.3l106,106L2525.9,618z M2316.1,406.7l209.9,209.9
					l104.9-104.9l0.4,0.4l-0.4-0.4l104.9-104.9l-104.6-104.6l-105.3,105.3l-105.3-105.3L2316.1,406.7z"/>
			</g>
			<g>
				<path class="st1" d="M2631.2,620.7l-105.3-105.3l-105.3,105.3l-106-106l211.3-211.3l211.3,211.3L2631.2,620.7z M2525.9,514
					l105.3,105.3l104.6-104.6l-209.9-209.9L2421,409.8l-0.4-0.4l0.4,0.4l-104.9,104.9l104.6,104.6L2525.9,514z"/>
				<path class="st1" d="M2525.9,515.4l-211.3-211.3l106-106l105.3,105.3l105.3-105.3l106,106L2525.9,515.4z M2316.1,304.1
					L2525.9,514l104.9-104.9l0.4,0.4l-0.4-0.4l104.9-104.9l-104.6-104.6l-105.3,105.3l-105.3-105.3L2316.1,304.1z"/>
			</g>
			<g>
				<path class="st1" d="M2631.2,302.2l-105.3-105.3l-105.3,105.3l-106-106l211.3-211.3l211.3,211.3L2631.2,302.2z M2525.9,195.4
					l105.3,105.3l104.6-104.6L2525.9-13.7L2421,91.2l-0.4-0.4l0.4,0.4l-104.9,104.9l104.6,104.6L2525.9,195.4z"/>
				<path class="st1" d="M2525.9,196.9L2314.6-14.4l106-106l105.3,105.3l105.3-105.3l106,106L2525.9,196.9z M2316.1-14.4
					l209.9,209.9l104.9-104.9l0.4,0.4l-0.4-0.4l104.9-104.9L2631.2-119L2525.9-13.7L2420.6-119L2316.1-14.4z"/>
			</g>
		</g>
		<g>
			<g>
				<path class="st1" d="M2104.8,196.9L1893.5-14.4l106-106l105.3,105.3l105.3-105.3l106,106L2104.8,196.9z M1999.8,90.5
					l104.9,104.9l209.9-209.9L2210.1-119L2104.8-13.7L1999.5-119L1894.9-14.4L1999.8,90.5z"/>
				<path class="st1" d="M2210.1,302.2l-105.3-105.3l-105.3,105.3l-106-106l211.3-211.3l211.3,211.3L2210.1,302.2z M2104.8,195.4
					l105.3,105.3l104.6-104.6L2104.8-13.7l-209.9,209.9l104.6,104.6L2104.8,195.4z"/>
			</g>
			<g>
				<path class="st1" d="M2104.8,304.8L1893.5,93.6l106-106l105.3,105.3l105.3-105.3l106,106L2104.8,304.8z M1999.8,198.5
					l104.9,104.9l209.9-209.9L2210.1-11L2104.8,94.3L1999.5-11L1894.9,93.6L1999.8,198.5z"/>
				<path class="st1" d="M2210.1,410.1l-105.3-105.3l-105.3,105.3l-106-106l211.3-211.3l211.3,211.3L2210.1,410.1z M2104.8,303.4
					l105.3,105.3l104.6-104.6L2104.8,94.3l-209.9,209.9l104.6,104.6L2104.8,303.4z"/>
			</g>
			<g>
				<path class="st1" d="M2104.8,618l-211.3-211.3l106-106L2104.8,406l105.3-105.3l106,106L2104.8,618z M1999.8,511.7l104.9,104.9
					l209.9-209.9l-104.6-104.6l-105.3,105.3l-105.3-105.3l-104.6,104.6L1999.8,511.7z"/>
				<path class="st1" d="M2210.1,723.3L2104.8,618l-105.3,105.3l-106-106L2104.8,406l211.3,211.3L2210.1,723.3z M2104.8,616.6
					l105.3,105.3l104.6-104.6l-209.9-209.9l-209.9,209.9l104.6,104.6L2104.8,616.6z"/>
			</g>
			<g>
				<path class="st1" d="M1788.9,723.3L1683.6,618l-105.3,105.3l-106-106L1683.6,406l211.3,211.3L1788.9,723.3z M1473.7,617.3
					l104.6,104.6l105.3-105.3l105.3,105.3l104.6-104.6l-209.9-209.9L1473.7,617.3z"/>
				<path class="st1" d="M1683.6,618l-211.3-211.3l106-106L1683.6,406l105.3-105.3l106,106L1683.6,618z M1473.7,406.7l209.9,209.9
					l104.9-104.9l0.4,0.4l-0.4-0.4l104.9-104.9l-104.6-104.6l-105.3,105.3l-105.3-105.3L1473.7,406.7z"/>
			</g>
			<g>
				<path class="st1" d="M1788.9,620.7l-105.3-105.3l-105.3,105.3l-106-106l211.3-211.3l211.3,211.3L1788.9,620.7z M1473.7,514.7
					l104.6,104.6L1683.6,514l105.3,105.3l104.6-104.6l-209.9-209.9l-104.9,104.9l-0.4-0.4l0.4,0.4L1473.7,514.7z"/>
				<path class="st1" d="M1683.6,515.4l-211.3-211.3l106-106l105.3,105.3l105.3-105.3l106,106L1683.6,515.4z M1473.7,304.1
					L1683.6,514l104.9-104.9l0.4,0.4l-0.4-0.4l104.9-104.9l-104.6-104.6l-105.3,105.3l-105.3-105.3L1473.7,304.1z"/>
			</g>
			<g>
				<path class="st1" d="M1788.9,302.2l-105.3-105.3l-105.3,105.3l-106-106l211.3-211.3l211.3,211.3L1788.9,302.2z M1473.7,196.2
					l104.6,104.6l105.3-105.3l105.3,105.3l104.6-104.6L1683.6-13.7L1578.7,91.2l-0.4-0.4l0.4,0.4L1473.7,196.2z"/>
				<path class="st1" d="M1683.6,196.9L1472.3-14.4l106-106l105.3,105.3l105.3-105.3l106,106L1683.6,196.9z M1473.7-14.4
					l209.9,209.9l104.9-104.9l0.4,0.4l-0.4-0.4l104.9-104.9L1788.9-119L1683.6-13.7L1578.3-119L1473.7-14.4z"/>
			</g>
		</g>
	</g>
</g>
</svg>
