<?xml version="1.0" encoding="utf-8"?>
<!-- Generator: Adobe Illustrator 19.1.0, SVG Export Plug-In . SVG Version: 6.00 Build 0)  -->
<svg version="1.1" id="Layer_1" xmlns="http://www.w3.org/2000/svg" xmlns:xlink="http://www.w3.org/1999/xlink" x="0px" y="0px"
	 viewBox="0 0 9 9" style="enable-background:new 0 0 9 9;" xml:space="preserve">
<style type="text/css">
	.st0{fill:#FFFFFF;}
</style>
<polygon class="st0" points="3.3,6.5 2,7.8 3.3,9 4.5,7.8 5.8,9 7,7.8 5.8,6.5 4.5,5.2 "/>
<polygon class="st0" points="5.8,0 4.5,1.3 3.3,0 2,1.3 3.3,2.5 4.5,3.8 5.8,2.5 7,1.3 "/>
<polygon class="st0" points="6.5,3.3 5.2,4.5 6.5,5.8 7.8,7 9,5.8 7.8,4.5 9,3.3 7.8,2 "/>
<polygon class="st0" points="0,3.3 1.3,4.5 0,5.8 1.3,7 2.5,5.8 3.8,4.5 2.5,3.3 1.3,2 "/>
</svg>
