<?xml version="1.0" encoding="utf-8"?>
<!-- Generator: Adobe Illustrator 19.1.0, SVG Export Plug-In . SVG Version: 6.00 Build 0)  -->
<svg version="1.1" id="Layer_1" xmlns="http://www.w3.org/2000/svg" xmlns:xlink="http://www.w3.org/1999/xlink" x="0px" y="0px"
	 viewBox="0 0 1226.8 766" style="enable-background:new 0 0 1226.8 766;" xml:space="preserve">
<style type="text/css">
	.st0{clip-path:url(#SVGID_2_);}
	.st1{opacity:0.7;}
	.st2{fill:none;stroke:#07448C;stroke-miterlimit:10;}
</style>
<g>
	<defs>
		<rect id="SVGID_1_" width="1226.8" height="766"/>
	</defs>
	<use xlink:href="#SVGID_1_"  style="overflow:visible;fill:#03264F;"/>
	<clipPath id="SVGID_2_">
		<use xlink:href="#SVGID_1_"  style="overflow:visible;"/>
	</clipPath>
	<g class="st0">
		<g class="st1">
			<polygon class="st2" points="57.2,147.9 -22.8,227.8 -102.7,147.9 -22.8,68 -102.7,-12 -22.8,-91.9 57.2,-12 137.1,68 			"/>
			<polygon class="st2" points="201.3,68 121.4,147.9 41.4,227.8 -38.5,147.9 41.4,68 -38.5,-12 41.4,-91.9 121.4,-12 			"/>
			<polygon class="st2" points="265.5,68 185.6,147.9 105.7,227.8 25.7,147.9 105.7,68 25.7,-12 105.7,-91.9 185.6,-12 			"/>
			<polygon class="st2" points="329.8,68 249.8,147.9 169.9,227.8 89.9,147.9 169.9,68 89.9,-12 169.9,-91.9 249.8,-12 			"/>
			<polygon class="st2" points="394,68 314,147.9 234.1,227.8 154.2,147.9 234.1,68 154.2,-12 234.1,-91.9 314,-12 			"/>
			<polygon class="st2" points="458.2,68 378.3,147.9 298.3,227.8 218.4,147.9 298.3,68 218.4,-12 298.3,-91.9 378.3,-12 			"/>
			<polygon class="st2" points="522.4,68 442.5,147.9 362.5,227.8 282.6,147.9 362.5,68 282.6,-12 362.5,-91.9 442.5,-12 			"/>
			<polygon class="st2" points="586.6,68 506.7,147.9 426.7,227.8 346.8,147.9 426.7,68 346.8,-12 426.7,-91.9 506.7,-12 			"/>
			<polygon class="st2" points="650.8,68 570.9,147.9 491,227.8 411,147.9 491,68 411,-12 491,-91.9 570.9,-12 			"/>
			<polygon class="st2" points="715.1,68 635.1,147.9 555.2,227.8 475.2,147.9 555.2,68 475.2,-12 555.2,-91.9 635.1,-12 			"/>
			<polygon class="st2" points="779.3,68 699.3,147.9 619.4,227.8 539.5,147.9 619.4,68 539.5,-12 619.4,-91.9 699.3,-12 			"/>
			<polygon class="st2" points="843.5,68 763.6,147.9 683.6,227.8 603.7,147.9 683.6,68 603.7,-12 683.6,-91.9 763.6,-12 			"/>
			<polygon class="st2" points="907.7,68 827.8,147.9 747.8,227.8 667.9,147.9 747.8,68 667.9,-12 747.8,-91.9 827.8,-12 			"/>
			<polygon class="st2" points="971.9,68 892,147.9 812.1,227.8 732.1,147.9 812.1,68 732.1,-12 812.1,-91.9 892,-12 			"/>
			<polygon class="st2" points="1036.2,68 956.2,147.9 876.3,227.8 796.3,147.9 876.3,68 796.3,-12 876.3,-91.9 956.2,-12 			"/>
			<polygon class="st2" points="1100.4,68 1020.4,147.9 940.5,227.8 860.5,147.9 940.5,68 860.5,-12 940.5,-91.9 1020.4,-12 			"/>
			<polygon class="st2" points="1164.6,68 1084.6,147.9 1004.7,227.8 924.8,147.9 1004.7,68 924.8,-12 1004.7,-91.9 1084.6,-12 			
				"/>
			<polygon class="st2" points="1228.8,68 1148.9,147.9 1068.9,227.8 989,147.9 1068.9,68 989,-12 1068.9,-91.9 1148.9,-12 			"/>
			<polygon class="st2" points="1213.1,147.9 1133.1,227.8 1053.2,147.9 1133.1,68 1053.2,-12 1133.1,-91.9 1213.1,-12 1293,68 			
				"/>
		</g>
		<g class="st1">
			<polygon class="st2" points="57.2,467.7 -22.8,547.6 -102.7,467.7 -22.8,387.7 -102.7,307.8 -22.8,227.8 57.2,307.8 137.1,387.7 
							"/>
			<polygon class="st2" points="201.3,387.7 121.4,467.7 41.4,547.6 -38.5,467.7 41.4,387.7 -38.5,307.8 41.4,227.8 121.4,307.8 			
				"/>
			<polygon class="st2" points="265.5,387.7 185.6,467.7 105.7,547.6 25.7,467.7 105.7,387.7 25.7,307.8 105.7,227.8 185.6,307.8 
							"/>
			<polygon class="st2" points="329.8,387.7 249.8,467.7 169.9,547.6 89.9,467.7 169.9,387.7 89.9,307.8 169.9,227.8 249.8,307.8 
							"/>
			<polygon class="st2" points="394,387.7 314,467.7 234.1,547.6 154.2,467.7 234.1,387.7 154.2,307.8 234.1,227.8 314,307.8 			"/>
			<polygon class="st2" points="458.2,387.7 378.3,467.7 298.3,547.6 218.4,467.7 298.3,387.7 218.4,307.8 298.3,227.8 378.3,307.8 
							"/>
			<polygon class="st2" points="522.4,387.7 442.5,467.7 362.5,547.6 282.6,467.7 362.5,387.7 282.6,307.8 362.5,227.8 442.5,307.8 
							"/>
			<polygon class="st2" points="586.6,387.7 506.7,467.7 426.7,547.6 346.8,467.7 426.7,387.7 346.8,307.8 426.7,227.8 506.7,307.8 
							"/>
			<polygon class="st2" points="650.8,387.7 570.9,467.7 491,547.6 411,467.7 491,387.7 411,307.8 491,227.8 570.9,307.8 			"/>
			<polygon class="st2" points="715.1,387.7 635.1,467.7 555.2,547.6 475.2,467.7 555.2,387.7 475.2,307.8 555.2,227.8 635.1,307.8 
							"/>
			<polygon class="st2" points="779.3,387.7 699.3,467.7 619.4,547.6 539.5,467.7 619.4,387.7 539.5,307.8 619.4,227.8 699.3,307.8 
							"/>
			<polygon class="st2" points="843.5,387.7 763.6,467.7 683.6,547.6 603.7,467.7 683.6,387.7 603.7,307.8 683.6,227.8 763.6,307.8 
							"/>
			<polygon class="st2" points="907.7,387.7 827.8,467.7 747.8,547.6 667.9,467.7 747.8,387.7 667.9,307.8 747.8,227.8 827.8,307.8 
							"/>
			<polygon class="st2" points="971.9,387.7 892,467.7 812.1,547.6 732.1,467.7 812.1,387.7 732.1,307.8 812.1,227.8 892,307.8 			
				"/>
			<polygon class="st2" points="1036.2,387.7 956.2,467.7 876.3,547.6 796.3,467.7 876.3,387.7 796.3,307.8 876.3,227.8 
				956.2,307.8 			"/>
			<polygon class="st2" points="1100.4,387.7 1020.4,467.7 940.5,547.6 860.5,467.7 940.5,387.7 860.5,307.8 940.5,227.8 
				1020.4,307.8 			"/>
			<polygon class="st2" points="1164.6,387.7 1084.6,467.7 1004.7,547.6 924.8,467.7 1004.7,387.7 924.8,307.8 1004.7,227.8 
				1084.6,307.8 			"/>
			<polygon class="st2" points="1228.8,387.7 1148.9,467.7 1068.9,547.6 989,467.7 1068.9,387.7 989,307.8 1068.9,227.8 
				1148.9,307.8 			"/>
			<polygon class="st2" points="1213.1,467.7 1133.1,547.6 1053.2,467.7 1133.1,387.7 1053.2,307.8 1133.1,227.8 1213.1,307.8 
				1293,387.7 			"/>
		</g>
		<g class="st1">
			<polygon class="st2" points="57.2,787.4 -22.8,867.4 -102.7,787.4 -22.8,707.5 -102.7,627.6 -22.8,547.6 57.2,627.6 137.1,707.5 
							"/>
			<polygon class="st2" points="201.3,707.5 121.4,787.4 41.4,867.4 -38.5,787.4 41.4,707.5 -38.5,627.6 41.4,547.6 121.4,627.6 			
				"/>
			<polygon class="st2" points="265.5,707.5 185.6,787.4 105.7,867.4 25.7,787.4 105.7,707.5 25.7,627.6 105.7,547.6 185.6,627.6 
							"/>
			<polygon class="st2" points="329.8,707.5 249.8,787.4 169.9,867.4 89.9,787.4 169.9,707.5 89.9,627.6 169.9,547.6 249.8,627.6 
							"/>
			<polygon class="st2" points="394,707.5 314,787.4 234.1,867.4 154.2,787.4 234.1,707.5 154.2,627.6 234.1,547.6 314,627.6 			"/>
			<polygon class="st2" points="458.2,707.5 378.3,787.4 298.3,867.4 218.4,787.4 298.3,707.5 218.4,627.6 298.3,547.6 378.3,627.6 
							"/>
			<polygon class="st2" points="522.4,707.5 442.5,787.4 362.5,867.4 282.6,787.4 362.5,707.5 282.6,627.6 362.5,547.6 442.5,627.6 
							"/>
			<polygon class="st2" points="586.6,707.5 506.7,787.4 426.7,867.4 346.8,787.4 426.7,707.5 346.8,627.6 426.7,547.6 506.7,627.6 
							"/>
			<polygon class="st2" points="650.8,707.5 570.9,787.4 491,867.4 411,787.4 491,707.5 411,627.6 491,547.6 570.9,627.6 			"/>
			<polygon class="st2" points="715.1,707.5 635.1,787.4 555.2,867.4 475.2,787.4 555.2,707.5 475.2,627.6 555.2,547.6 635.1,627.6 
							"/>
			<polygon class="st2" points="779.3,707.5 699.3,787.4 619.4,867.4 539.5,787.4 619.4,707.5 539.5,627.6 619.4,547.6 699.3,627.6 
							"/>
			<polygon class="st2" points="843.5,707.5 763.6,787.4 683.6,867.4 603.7,787.4 683.6,707.5 603.7,627.6 683.6,547.6 763.6,627.6 
							"/>
			<polygon class="st2" points="907.7,707.5 827.8,787.4 747.8,867.4 667.9,787.4 747.8,707.5 667.9,627.6 747.8,547.6 827.8,627.6 
							"/>
			<polygon class="st2" points="971.9,707.5 892,787.4 812.1,867.4 732.1,787.4 812.1,707.5 732.1,627.6 812.1,547.6 892,627.6 			
				"/>
			<polygon class="st2" points="1036.2,707.5 956.2,787.4 876.3,867.4 796.3,787.4 876.3,707.5 796.3,627.6 876.3,547.6 
				956.2,627.6 			"/>
			<polygon class="st2" points="1100.4,707.5 1020.4,787.4 940.5,867.4 860.5,787.4 940.5,707.5 860.5,627.6 940.5,547.6 
				1020.4,627.6 			"/>
			<polygon class="st2" points="1164.6,707.5 1084.6,787.4 1004.7,867.4 924.8,787.4 1004.7,707.5 924.8,627.6 1004.7,547.6 
				1084.6,627.6 			"/>
			<polygon class="st2" points="1228.8,707.5 1148.9,787.4 1068.9,867.4 989,787.4 1068.9,707.5 989,627.6 1068.9,547.6 
				1148.9,627.6 			"/>
			<polygon class="st2" points="1213.1,787.4 1133.1,867.4 1053.2,787.4 1133.1,707.5 1053.2,627.6 1133.1,547.6 1213.1,627.6 
				1293,707.5 			"/>
		</g>
	</g>
</g>
</svg>
