<?xml version="1.0" encoding="utf-8"?>
<!-- Generator: Adobe Illustrator 20.1.0, SVG Export Plug-In . SVG Version: 6.00 Build 0)  -->
<svg version="1.1" id="Layer_1" xmlns="http://www.w3.org/2000/svg" xmlns:xlink="http://www.w3.org/1999/xlink" x="0px" y="0px"
	 viewBox="0 0 1700 606" style="enable-background:new 0 0 1700 606;" xml:space="preserve">
<style type="text/css">
	.st0{clip-path:url(#SVGID_2_);}
	.st1{opacity:0.7;}
	.st2{fill:#07448C;}
</style>
<g>
	<defs>
		<rect id="SVGID_1_" width="1700" height="606"/>
	</defs>
	<use xlink:href="#SVGID_1_"  style="overflow:visible;fill:#03264F;"/>
	<clipPath id="SVGID_2_">
		<use xlink:href="#SVGID_1_"  style="overflow:visible;"/>
	</clipPath>
	<g class="st0">
		<g class="st1">
			<g>
				<path class="st2" d="M-102.4,379.1l-0.4-0.4l-126.4-126.4l0.4-0.4l125.5-125.5l-126-126l0.4-0.4l126.4-126.4l0.4,0.4
					l252.4,252.4l-0.4,0.4L-102.4,379.1z M-227.5,252.2l125.1,125.1L23.1,251.8l0.4,0.4l-0.4-0.4l125.5-125.5l-251.1-251.1
					L-227.5,0.3l126,126l-0.4,0.4L-227.5,252.2z"/>
			</g>
			<g>
				<path class="st2" d="M-1.2,379.1l-0.4-0.4l-126.4-126.4l0.4-0.4L-2.1,126.2l-126-126l0.4-0.4L-1.2-126.6l0.4,0.4l252.4,252.4
					l-0.4,0.4L-1.2,379.1z M-126.3,252.2L-1.2,377.3l251.1-251.1L-1.2-124.8L-126.3,0.3l126,126l-0.4,0.4L-126.3,252.2z"/>
			</g>
			<g>
				<path class="st2" d="M99.9,379.1l-0.4-0.4L-26.9,252.2l0.4-0.4L99.1,126.2l-126-126l0.4-0.4L99.9-126.6l0.4,0.4l252.4,252.4
					l-0.4,0.4L99.9,379.1z M-25.1,252.2L99.9,377.3L351,126.2L99.9-124.8L-25.1,0.3l126,126l-0.4,0.4L-25.1,252.2z"/>
			</g>
			<g>
				<path class="st2" d="M201.1,379.1l-0.4-0.4L74.3,252.2l0.4-0.4l125.5-125.5l-126-126l0.4-0.4l126.4-126.4l0.4,0.4L454,126.2
					l-0.4,0.4L201.1,379.1z M76.1,252.2l125.1,125.1l251.1-251.1L201.1-124.8L76.1,0.3l126,126l-0.4,0.4L76.1,252.2z"/>
			</g>
			<g>
				<path class="st2" d="M302.3,379.1l-0.4-0.4L175.5,252.2l0.4-0.4l125.5-125.5l-126-126l0.4-0.4l126.4-126.4l0.4,0.4l252.4,252.4
					l-0.4,0.4L302.3,379.1z M177.2,252.2l125.1,125.1l251.1-251.1L302.3-124.8L177.2,0.3l126,126l-0.4,0.4L177.2,252.2z"/>
			</g>
			<g>
				<path class="st2" d="M403.5,379.1l-0.4-0.4L276.7,252.2l0.4-0.4l125.5-125.5l-126-126l0.4-0.4l126.4-126.4l0.4,0.4l252.4,252.4
					l-0.4,0.4L403.5,379.1z M278.4,252.2l125.1,125.1l251.1-251.1L403.5-124.8L278.4,0.3l126,126l-0.4,0.4L278.4,252.2z"/>
			</g>
			<g>
				<path class="st2" d="M504.7,379.1l-0.4-0.4L377.9,252.2l0.4-0.4l125.5-125.5l-126-126l0.4-0.4l126.4-126.4l0.4,0.4l252.4,252.4
					l-0.4,0.4L504.7,379.1z M379.6,252.2l125.1,125.1l251.1-251.1L504.7-124.8L379.6,0.3l126,126l-0.4,0.4L379.6,252.2z"/>
			</g>
			<g>
				<path class="st2" d="M605.9,379.1l-0.4-0.4L479.1,252.2l0.4-0.4L605,126.2l-126-126l0.4-0.4l126.4-126.4l0.4,0.4l252.4,252.4
					l-0.4,0.4L605.9,379.1z M480.8,252.2l125.1,125.1L857,126.2L605.9-124.8L480.8,0.3l126,126l-0.4,0.4L480.8,252.2z"/>
			</g>
			<g>
				<path class="st2" d="M707.1,379.1l-0.4-0.4L580.2,252.2l0.4-0.4l125.5-125.5l-126-126l0.4-0.4l126.4-126.4l0.4,0.4l252.4,252.4
					l-0.4,0.4L707.1,379.1z M582,252.2l125.1,125.1l251.1-251.1L707.1-124.8L582,0.3l126,126l-0.4,0.4L582,252.2z"/>
			</g>
			<g>
				<path class="st2" d="M808.3,379.1l-0.4-0.4L681.4,252.2l0.4-0.4l125.5-125.5l-126-126l0.4-0.4l126.4-126.4l0.4,0.4l252.4,252.4
					l-0.4,0.4L808.3,379.1z M683.2,252.2l125.1,125.1l251.1-251.1L808.3-124.8L683.2,0.3l126,126l-0.4,0.4L683.2,252.2z"/>
			</g>
			<g>
				<path class="st2" d="M909.5,379.1l-0.4-0.4L782.6,252.2l0.4-0.4l125.5-125.5l-126-126l0.4-0.4l126.4-126.4l0.4,0.4l252.4,252.4
					l-0.4,0.4L909.5,379.1z M784.4,252.2l125.1,125.1l251.1-251.1L909.5-124.8L784.4,0.3l126,126l-0.4,0.4L784.4,252.2z"/>
			</g>
			<g>
				<path class="st2" d="M1010.7,379.1l-0.4-0.4L883.8,252.2l0.4-0.4l125.5-125.5l-126-126l0.4-0.4l126.4-126.4l0.4,0.4l252.4,252.4
					l-0.4,0.4L1010.7,379.1z M885.6,252.2l125.1,125.1l251.1-251.1l-251.1-251.1L885.6,0.3l126,126l-0.4,0.4L885.6,252.2z"/>
			</g>
			<g>
				<path class="st2" d="M1111.9,379.1l-0.4-0.4L985,252.2l0.4-0.4L1111,126.2L985,0.3l0.4-0.4l126.4-126.4l0.4,0.4l252.4,252.4
					l-0.4,0.4L1111.9,379.1z M986.8,252.2l125.1,125.1l251.1-251.1l-251.1-251.1L986.8,0.3l126,126l-0.4,0.4L986.8,252.2z"/>
			</g>
			<g>
				<path class="st2" d="M1213.1,379.1l-0.4-0.4l-126.4-126.4l0.4-0.4l125.5-125.5l-126-126l0.4-0.4l126.4-126.4l0.4,0.4
					l252.4,252.4l-0.4,0.4L1213.1,379.1z M1088,252.2l125.1,125.1l251.1-251.1l-251.1-251.1L1088,0.3l126,126l-0.4,0.4L1088,252.2z"
					/>
			</g>
			<g>
				<path class="st2" d="M1314.2,379.1l-0.4-0.4l-126.4-126.4l0.4-0.4l125.5-125.5l-126-126l0.4-0.4l126.4-126.4l0.4,0.4
					l252.4,252.4l-0.4,0.4L1314.2,379.1z M1189.2,252.2l125.1,125.1l251.1-251.1l-251.1-251.1L1189.2,0.3l126,126l-0.4,0.4
					L1189.2,252.2z"/>
			</g>
			<g>
				<path class="st2" d="M1415.4,379.1l-0.4-0.4l-126.4-126.4l0.4-0.4l125.5-125.5l-126-126l0.4-0.4l126.4-126.4l0.4,0.4
					l252.4,252.4l-0.4,0.4L1415.4,379.1z M1290.4,252.2l125.1,125.1l251.1-251.1l-251.1-251.1L1290.4,0.3l126,126l-0.4,0.4
					L1290.4,252.2z"/>
			</g>
			<g>
				<path class="st2" d="M1516.6,379.1l-0.4-0.4l-126.4-126.4l0.4-0.4l125.5-125.5l-126-126l0.4-0.4l126.4-126.4l0.4,0.4
					l252.4,252.4l-0.4,0.4L1516.6,379.1z M1391.5,252.2l125.1,125.1l251.1-251.1l-251.1-251.1L1391.5,0.3l126,126l-0.4,0.4
					L1391.5,252.2z"/>
			</g>
			<g>
				<path class="st2" d="M1617.8,379.1l-0.4-0.4L1491,252.2l0.4-0.4l125.5-125.5l-126-126l0.4-0.4l126.4-126.4l0.4,0.4l252.4,252.4
					l-0.4,0.4L1617.8,379.1z M1492.7,252.2l125.1,125.1l251.1-251.1l-251.1-251.1L1492.7,0.3l126,126l-0.4,0.4L1492.7,252.2z"/>
			</g>
			<g>
				<path class="st2" d="M1719,379.1l-0.4-0.4l-126.4-126.4l0.4-0.4l125.5-125.5l-126-126l0.4-0.4L1719-126.6l0.4,0.4l252.4,252.4
					l-0.4,0.4L1719,379.1z M1593.9,252.2L1719,377.3l125.5-125.5l0.4,0.4l-0.4-0.4l125.5-125.5L1719-124.8L1593.9,0.3l126,126
					l-0.4,0.4L1593.9,252.2z"/>
			</g>
		</g>
		<g class="st1">
			<g>
				<path class="st2" d="M-102.4,882.9l-0.4-0.4l-126.4-126.4l0.4-0.4l125.5-125.5l-126-126l0.4-0.4l126.4-126.4l0.4,0.4
					l252.4,252.4l-0.4,0.4L-102.4,882.9z M-227.5,756.1l125.1,125.1L23.1,755.7l0.4,0.4l-0.4-0.4l125.5-125.5l-251.1-251.1
					l-125.1,125.1l126,126l-0.4,0.4L-227.5,756.1z"/>
			</g>
			<g>
				<path class="st2" d="M-1.2,882.9l-0.4-0.4l-126.4-126.4l0.4-0.4L-2.1,630.1l-126-126l0.4-0.4L-1.2,377.3l0.4,0.4l252.4,252.4
					l-0.4,0.4L-1.2,882.9z M-126.3,756.1L-1.2,881.2l251.1-251.1L-1.2,379.1l-125.1,125.1l126,126l-0.4,0.4L-126.3,756.1z"/>
			</g>
			<g>
				<path class="st2" d="M99.9,882.9l-0.4-0.4L-26.9,756.1l0.4-0.4L99.1,630.1l-126-126l0.4-0.4L99.9,377.3l0.4,0.4l252.4,252.4
					l-0.4,0.4L99.9,882.9z M-25.1,756.1L99.9,881.2L351,630.1L99.9,379.1L-25.1,504.2l126,126l-0.4,0.4L-25.1,756.1z"/>
			</g>
			<g>
				<path class="st2" d="M201.1,882.9l-0.4-0.4L74.3,756.1l0.4-0.4l125.5-125.5l-126-126l0.4-0.4l126.4-126.4l0.4,0.4L454,630.1
					l-0.4,0.4L201.1,882.9z M76.1,756.1l125.1,125.1l251.1-251.1L201.1,379.1L76.1,504.2l126,126l-0.4,0.4L76.1,756.1z"/>
			</g>
			<g>
				<path class="st2" d="M302.3,882.9l-0.4-0.4L175.5,756.1l0.4-0.4l125.5-125.5l-126-126l0.4-0.4l126.4-126.4l0.4,0.4l252.4,252.4
					l-0.4,0.4L302.3,882.9z M177.2,756.1l125.1,125.1l251.1-251.1L302.3,379.1L177.2,504.2l126,126l-0.4,0.4L177.2,756.1z"/>
			</g>
			<g>
				<path class="st2" d="M403.5,882.9l-0.4-0.4L276.7,756.1l0.4-0.4l125.5-125.5l-126-126l0.4-0.4l126.4-126.4l0.4,0.4l252.4,252.4
					l-0.4,0.4L403.5,882.9z M278.4,756.1l125.1,125.1l251.1-251.1L403.5,379.1L278.4,504.2l126,126l-0.4,0.4L278.4,756.1z"/>
			</g>
			<g>
				<path class="st2" d="M504.7,882.9l-0.4-0.4L377.9,756.1l0.4-0.4l125.5-125.5l-126-126l0.4-0.4l126.4-126.4l0.4,0.4l252.4,252.4
					l-0.4,0.4L504.7,882.9z M379.6,756.1l125.1,125.1l251.1-251.1L504.7,379.1L379.6,504.2l126,126l-0.4,0.4L379.6,756.1z"/>
			</g>
			<g>
				<path class="st2" d="M605.9,882.9l-0.4-0.4L479.1,756.1l0.4-0.4L605,630.1l-126-126l0.4-0.4l126.4-126.4l0.4,0.4l252.4,252.4
					l-0.4,0.4L605.9,882.9z M480.8,756.1l125.1,125.1L857,630.1L605.9,379.1L480.8,504.2l126,126l-0.4,0.4L480.8,756.1z"/>
			</g>
			<g>
				<path class="st2" d="M707.1,882.9l-0.4-0.4L580.2,756.1l0.4-0.4l125.5-125.5l-126-126l0.4-0.4l126.4-126.4l0.4,0.4l252.4,252.4
					l-0.4,0.4L707.1,882.9z M582,756.1l125.1,125.1l251.1-251.1L707.1,379.1L582,504.2l126,126l-0.4,0.4L582,756.1z"/>
			</g>
			<g>
				<path class="st2" d="M808.3,882.9l-0.4-0.4L681.4,756.1l0.4-0.4l125.5-125.5l-126-126l0.4-0.4l126.4-126.4l0.4,0.4l252.4,252.4
					l-0.4,0.4L808.3,882.9z M683.2,756.1l125.1,125.1l251.1-251.1L808.3,379.1L683.2,504.2l126,126l-0.4,0.4L683.2,756.1z"/>
			</g>
			<g>
				<path class="st2" d="M909.5,882.9l-0.4-0.4L782.6,756.1l0.4-0.4l125.5-125.5l-126-126l0.4-0.4l126.4-126.4l0.4,0.4l252.4,252.4
					l-0.4,0.4L909.5,882.9z M784.4,756.1l125.1,125.1l251.1-251.1L909.5,379.1L784.4,504.2l126,126l-0.4,0.4L784.4,756.1z"/>
			</g>
			<g>
				<path class="st2" d="M1010.7,882.9l-0.4-0.4L883.8,756.1l0.4-0.4l125.5-125.5l-126-126l0.4-0.4l126.4-126.4l0.4,0.4l252.4,252.4
					l-0.4,0.4L1010.7,882.9z M885.6,756.1l125.1,125.1l251.1-251.1l-251.1-251.1L885.6,504.2l126,126l-0.4,0.4L885.6,756.1z"/>
			</g>
			<g>
				<path class="st2" d="M1111.9,882.9l-0.4-0.4L985,756.1l0.4-0.4L1111,630.1l-126-126l0.4-0.4l126.4-126.4l0.4,0.4l252.4,252.4
					l-0.4,0.4L1111.9,882.9z M986.8,756.1l125.1,125.1l251.1-251.1l-251.1-251.1L986.8,504.2l126,126l-0.4,0.4L986.8,756.1z"/>
			</g>
			<g>
				<path class="st2" d="M1213.1,882.9l-0.4-0.4l-126.4-126.4l0.4-0.4l125.5-125.5l-126-126l0.4-0.4l126.4-126.4l0.4,0.4
					l252.4,252.4l-0.4,0.4L1213.1,882.9z M1088,756.1l125.1,125.1l251.1-251.1l-251.1-251.1L1088,504.2l126,126l-0.4,0.4L1088,756.1
					z"/>
			</g>
			<g>
				<path class="st2" d="M1314.2,882.9l-0.4-0.4l-126.4-126.4l0.4-0.4l125.5-125.5l-126-126l0.4-0.4l126.4-126.4l0.4,0.4
					l252.4,252.4l-0.4,0.4L1314.2,882.9z M1189.2,756.1l125.1,125.1l251.1-251.1l-251.1-251.1l-125.1,125.1l126,126l-0.4,0.4
					L1189.2,756.1z"/>
			</g>
			<g>
				<path class="st2" d="M1415.4,882.9l-0.4-0.4l-126.4-126.4l0.4-0.4l125.5-125.5l-126-126l0.4-0.4l126.4-126.4l0.4,0.4
					l252.4,252.4l-0.4,0.4L1415.4,882.9z M1290.4,756.1l125.1,125.1l251.1-251.1l-251.1-251.1l-125.1,125.1l126,126l-0.4,0.4
					L1290.4,756.1z"/>
			</g>
			<g>
				<path class="st2" d="M1516.6,882.9l-0.4-0.4l-126.4-126.4l0.4-0.4l125.5-125.5l-126-126l0.4-0.4l126.4-126.4l0.4,0.4
					l252.4,252.4l-0.4,0.4L1516.6,882.9z M1391.5,756.1l125.1,125.1l251.1-251.1l-251.1-251.1l-125.1,125.1l126,126l-0.4,0.4
					L1391.5,756.1z"/>
			</g>
			<g>
				<path class="st2" d="M1617.8,882.9l-0.4-0.4L1491,756.1l0.4-0.4l125.5-125.5l-126-126l0.4-0.4l126.4-126.4l0.4,0.4l252.4,252.4
					l-0.4,0.4L1617.8,882.9z M1492.7,756.1l125.1,125.1l251.1-251.1l-251.1-251.1l-125.1,125.1l126,126l-0.4,0.4L1492.7,756.1z"/>
			</g>
			<g>
				<path class="st2" d="M1719,882.9l-0.4-0.4l-126.4-126.4l0.4-0.4l125.5-125.5l-126-126l0.4-0.4L1719,377.3l0.4,0.4l252.4,252.4
					l-0.4,0.4L1719,882.9z M1593.9,756.1L1719,881.2l125.5-125.5l0.4,0.4l-0.4-0.4l125.5-125.5L1719,379.1l-125.1,125.1l126,126
					l-0.4,0.4L1593.9,756.1z"/>
			</g>
		</g>
		<g class="st1">
			<g>
				<path class="st2" d="M-102.4,1386.8l-0.4-0.4L-229.3,1260l0.4-0.4l125.5-125.5l-126-126l0.4-0.4l126.4-126.4l0.4,0.4L150.4,1134
					l-0.4,0.4L-102.4,1386.8z M-227.5,1260l125.1,125.1l125.5-125.5l0.4,0.4l-0.4-0.4L148.6,1134l-251.1-251.1L-227.5,1008l126,126
					l-0.4,0.4L-227.5,1260z"/>
			</g>
			<g>
				<path class="st2" d="M-1.2,1386.8l-0.4-0.4L-128.1,1260l0.4-0.4L-2.1,1134l-126-126l0.4-0.4L-1.2,881.2l0.4,0.4L251.6,1134
					l-0.4,0.4L-1.2,1386.8z M-126.3,1260l125.1,125.1L249.8,1134L-1.2,882.9L-126.3,1008l126,126l-0.4,0.4L-126.3,1260z"/>
			</g>
			<g>
				<path class="st2" d="M99.9,1386.8l-0.4-0.4L-26.9,1260l0.4-0.4L99.1,1134l-126-126l0.4-0.4L99.9,881.2l0.4,0.4L352.8,1134
					l-0.4,0.4L99.9,1386.8z M-25.1,1260l125.1,125.1L351,1134L99.9,882.9L-25.1,1008l126,126l-0.4,0.4L-25.1,1260z"/>
			</g>
			<g>
				<path class="st2" d="M201.1,1386.8l-0.4-0.4L74.3,1260l0.4-0.4L200.3,1134l-126-126l0.4-0.4l126.4-126.4l0.4,0.4L454,1134
					l-0.4,0.4L201.1,1386.8z M76.1,1260l125.1,125.1L452.2,1134L201.1,882.9L76.1,1008l126,126l-0.4,0.4L76.1,1260z"/>
			</g>
			<g>
				<path class="st2" d="M302.3,1386.8l-0.4-0.4L175.5,1260l0.4-0.4L301.4,1134l-126-126l0.4-0.4l126.4-126.4l0.4,0.4L555.2,1134
					l-0.4,0.4L302.3,1386.8z M177.2,1260l125.1,125.1L553.4,1134L302.3,882.9L177.2,1008l126,126l-0.4,0.4L177.2,1260z"/>
			</g>
			<g>
				<path class="st2" d="M403.5,1386.8l-0.4-0.4L276.7,1260l0.4-0.4L402.6,1134l-126-126l0.4-0.4l126.4-126.4l0.4,0.4L656.3,1134
					l-0.4,0.4L403.5,1386.8z M278.4,1260l125.1,125.1L654.6,1134L403.5,882.9L278.4,1008l126,126l-0.4,0.4L278.4,1260z"/>
			</g>
			<g>
				<path class="st2" d="M504.7,1386.8l-0.4-0.4L377.9,1260l0.4-0.4L503.8,1134l-126-126l0.4-0.4l126.4-126.4l0.4,0.4L757.5,1134
					l-0.4,0.4L504.7,1386.8z M379.6,1260l125.1,125.1L755.8,1134L504.7,882.9L379.6,1008l126,126l-0.4,0.4L379.6,1260z"/>
			</g>
			<g>
				<path class="st2" d="M605.9,1386.8l-0.4-0.4L479.1,1260l0.4-0.4L605,1134l-126-126l0.4-0.4l126.4-126.4l0.4,0.4L858.7,1134
					l-0.4,0.4L605.9,1386.8z M480.8,1260l125.1,125.1L857,1134L605.9,882.9L480.8,1008l126,126l-0.4,0.4L480.8,1260z"/>
			</g>
			<g>
				<path class="st2" d="M707.1,1386.8l-0.4-0.4L580.2,1260l0.4-0.4L706.2,1134l-126-126l0.4-0.4l126.4-126.4l0.4,0.4L959.9,1134
					l-0.4,0.4L707.1,1386.8z M582,1260l125.1,125.1L958.2,1134L707.1,882.9L582,1008l126,126l-0.4,0.4L582,1260z"/>
			</g>
			<g>
				<path class="st2" d="M808.3,1386.8l-0.4-0.4L681.4,1260l0.4-0.4L807.4,1134l-126-126l0.4-0.4l126.4-126.4l0.4,0.4l252.4,252.4
					l-0.4,0.4L808.3,1386.8z M683.2,1260l125.1,125.1l251.1-251.1L808.3,882.9L683.2,1008l126,126l-0.4,0.4L683.2,1260z"/>
			</g>
			<g>
				<path class="st2" d="M909.5,1386.8l-0.4-0.4L782.6,1260l0.4-0.4L908.6,1134l-126-126l0.4-0.4l126.4-126.4l0.4,0.4l252.4,252.4
					l-0.4,0.4L909.5,1386.8z M784.4,1260l125.1,125.1l251.1-251.1L909.5,882.9L784.4,1008l126,126l-0.4,0.4L784.4,1260z"/>
			</g>
			<g>
				<path class="st2" d="M1010.7,1386.8l-0.4-0.4L883.8,1260l0.4-0.4l125.5-125.5l-126-126l0.4-0.4l126.4-126.4l0.4,0.4l252.4,252.4
					l-0.4,0.4L1010.7,1386.8z M885.6,1260l125.1,125.1l251.1-251.1l-251.1-251.1L885.6,1008l126,126l-0.4,0.4L885.6,1260z"/>
			</g>
			<g>
				<path class="st2" d="M1111.9,1386.8l-0.4-0.4L985,1260l0.4-0.4L1111,1134l-126-126l0.4-0.4l126.4-126.4l0.4,0.4l252.4,252.4
					l-0.4,0.4L1111.9,1386.8z M986.8,1260l125.1,125.1l251.1-251.1l-251.1-251.1L986.8,1008l126,126l-0.4,0.4L986.8,1260z"/>
			</g>
			<g>
				<path class="st2" d="M1213.1,1386.8l-0.4-0.4L1086.2,1260l0.4-0.4l125.5-125.5l-126-126l0.4-0.4l126.4-126.4l0.4,0.4
					l252.4,252.4l-0.4,0.4L1213.1,1386.8z M1088,1260l125.1,125.1l251.1-251.1l-251.1-251.1L1088,1008l126,126l-0.4,0.4L1088,1260z"
					/>
			</g>
			<g>
				<path class="st2" d="M1314.2,1386.8l-0.4-0.4L1187.4,1260l0.4-0.4l125.5-125.5l-126-126l0.4-0.4l126.4-126.4l0.4,0.4
					l252.4,252.4l-0.4,0.4L1314.2,1386.8z M1189.2,1260l125.1,125.1l251.1-251.1l-251.1-251.1L1189.2,1008l126,126l-0.4,0.4
					L1189.2,1260z"/>
			</g>
			<g>
				<path class="st2" d="M1415.4,1386.8l-0.4-0.4L1288.6,1260l0.4-0.4l125.5-125.5l-126-126l0.4-0.4l126.4-126.4l0.4,0.4
					l252.4,252.4l-0.4,0.4L1415.4,1386.8z M1290.4,1260l125.1,125.1l251.1-251.1l-251.1-251.1L1290.4,1008l126,126l-0.4,0.4
					L1290.4,1260z"/>
			</g>
			<g>
				<path class="st2" d="M1516.6,1386.8l-0.4-0.4L1389.8,1260l0.4-0.4l125.5-125.5l-126-126l0.4-0.4l126.4-126.4l0.4,0.4
					l252.4,252.4l-0.4,0.4L1516.6,1386.8z M1391.5,1260l125.1,125.1l251.1-251.1l-251.1-251.1L1391.5,1008l126,126l-0.4,0.4
					L1391.5,1260z"/>
			</g>
			<g>
				<path class="st2" d="M1617.8,1386.8l-0.4-0.4L1491,1260l0.4-0.4l125.5-125.5l-126-126l0.4-0.4l126.4-126.4l0.4,0.4l252.4,252.4
					l-0.4,0.4L1617.8,1386.8z M1492.7,1260l125.1,125.1l251.1-251.1l-251.1-251.1L1492.7,1008l126,126l-0.4,0.4L1492.7,1260z"/>
			</g>
			<g>
				<path class="st2" d="M1719,1386.8l-0.4-0.4L1592.2,1260l0.4-0.4l125.5-125.5l-126-126l0.4-0.4L1719,881.2l0.4,0.4l252.4,252.4
					l-0.4,0.4L1719,1386.8z M1593.9,1260l125.1,125.1l125.5-125.5l0.4,0.4l-0.4-0.4l125.5-125.5L1719,882.9L1593.9,1008l126,126
					l-0.4,0.4L1593.9,1260z"/>
			</g>
		</g>
	</g>
</g>
</svg>
