<?xml version="1.0" encoding="utf-8"?>
<!-- Generator: Adobe Illustrator 19.1.0, SVG Export Plug-In . SVG Version: 6.00 Build 0)  -->
<svg version="1.1" id="Layer_1" xmlns="http://www.w3.org/2000/svg" xmlns:xlink="http://www.w3.org/1999/xlink" x="0px" y="0px"
	 viewBox="0 0 34.3 40.2" style="enable-background:new 0 0 34.3 40.2;" xml:space="preserve">
<style type="text/css">
	.st0{fill:#F1F1F2;}
</style>
<polygon class="st0" points="31.6,6 32.4,6.8 31.6,7.6 32.4,8.4 33.2,7.6 34,6.8 33.2,6 32.4,5.2 "/>
<polygon class="st0" points="30.7,4.2 29.9,3.4 29,2.6 28.2,3.4 29,4.2 28.2,5 29,5.8 29.9,5 "/>
<polygon class="st0" points="26.9,2.4 26.1,1.6 25.3,0.8 24.5,1.6 25.3,2.4 24.5,3.2 25.3,4 26.1,3.2 "/>
<polygon class="st0" points="21.3,0 20.5,0.8 21.3,1.6 20.5,2.4 21.3,3.2 22.1,2.4 22.9,1.6 22.1,0.8 "/>
<polygon class="st0" points="16.4,0.9 17.2,1.7 16.4,2.5 17.2,3.3 18,2.5 18.8,1.7 18,0.9 17.2,0.1 "/>
<polygon class="st0" points="14.8,2.6 14,1.8 13.2,1 12.4,1.8 13.2,2.6 12.4,3.4 13.2,4.2 14,3.4 "/>
<polygon class="st0" points="11,4.4 10.2,3.6 9.4,2.8 8.6,3.6 9.4,4.4 8.6,5.2 9.4,6.1 10.2,5.2 "/>
<polygon class="st0" points="7.7,7.1 6.9,6.3 6.1,5.5 5.3,6.3 6.1,7.1 5.3,7.9 6.1,8.7 6.9,7.9 "/>
<polygon class="st0" points="5,10.5 4.2,9.7 3.4,8.9 2.6,9.7 3.4,10.5 2.6,11.3 3.4,12.1 4.2,11.3 "/>
<polygon class="st0" points="0.9,13.5 1.7,14.3 0.9,15.1 1.7,15.9 2.5,15.1 3.3,14.3 2.5,13.5 1.7,12.7 "/>
<polygon class="st0" points="0,17.5 0.8,18.3 0,19.1 0.8,19.9 1.6,19.1 2.4,18.3 1.6,17.5 0.8,16.7 "/>
<polygon class="st0" points="0,21.5 0.8,22.3 0,23.1 0.8,23.9 1.6,23.1 2.4,22.3 1.6,21.5 0.8,20.7 "/>
<polygon class="st0" points="1,25.5 1.8,26.3 1,27.1 1.8,27.9 2.6,27.1 3.4,26.3 2.6,25.5 1.8,24.7 "/>
<polygon class="st0" points="5.2,30.1 4.4,29.3 3.6,28.5 2.8,29.3 3.6,30.1 2.8,30.9 3.6,31.7 4.4,30.9 "/>
<polygon class="st0" points="7.9,33.4 7.1,32.6 6.3,31.8 5.5,32.6 6.3,33.4 5.5,34.2 6.3,35 7.1,34.2 "/>
<polygon class="st0" points="11.3,36 10.5,35.2 9.6,34.4 8.8,35.2 9.6,36 8.8,36.8 9.6,37.6 10.5,36.8 "/>
<polygon class="st0" points="12.6,36.9 13.4,37.7 12.6,38.5 13.4,39.3 14.2,38.5 15,37.7 14.2,36.9 13.4,36.1 "/>
<polygon class="st0" points="16.7,37.8 17.5,38.6 16.7,39.4 17.5,40.2 18.3,39.4 19.1,38.6 18.3,37.8 17.5,37 "/>
<polygon class="st0" points="20.8,37.7 21.6,38.6 20.8,39.4 21.6,40.2 22.4,39.4 23.2,38.6 22.4,37.7 21.6,36.9 "/>
<polygon class="st0" points="24.8,36.9 25.6,37.7 24.8,38.5 25.6,39.3 26.4,38.5 27.2,37.7 26.4,36.9 25.6,36.1 "/>
<polygon class="st0" points="31,35.9 30.2,35.1 29.3,34.3 28.5,35.1 29.3,35.9 28.5,36.7 29.3,37.5 30.2,36.7 "/>
<polygon class="st0" points="31.9,32.4 32.7,33.3 31.9,34.1 32.7,34.9 33.5,34.1 34.3,33.3 33.5,32.4 32.7,31.6 "/>
<polygon class="st0" points="30.2,9.2 29.5,8.6 28.9,9.2 29.5,9.8 28.9,10.4 29.5,11.1 30.2,10.4 30.8,9.8 "/>
<polygon class="st0" points="28.2,7.8 27.6,7.1 27,6.5 26.3,7.1 27,7.8 26.3,8.4 27,9 27.6,8.4 "/>
<polygon class="st0" points="25.3,6.4 24.7,5.8 24,5.2 23.4,5.8 24,6.4 23.4,7.1 24,7.7 24.7,7.1 "/>
<polygon class="st0" points="22.2,5.8 21.6,5.2 21,4.6 20.3,5.2 21,5.8 20.3,6.4 21,7 21.6,6.4 "/>
<polygon class="st0" points="19,5.8 18.4,5.2 17.8,4.6 17.2,5.2 17.8,5.8 17.2,6.5 17.8,7.1 18.4,6.5 "/>
<polygon class="st0" points="15.9,6.6 15.3,6 14.7,5.3 14.1,6 14.7,6.6 14.1,7.2 14.7,7.8 15.3,7.2 "/>
<polygon class="st0" points="13,8 12.4,7.4 11.8,6.7 11.2,7.4 11.8,8 11.2,8.6 11.8,9.2 12.4,8.6 "/>
<polygon class="st0" points="10.5,10.1 9.8,9.4 9.2,8.8 8.6,9.4 9.2,10.1 8.6,10.7 9.2,11.3 9.8,10.7 "/>
<polygon class="st0" points="8.4,12.7 7.8,12 7.2,11.4 6.5,12 7.2,12.7 6.5,13.3 7.2,13.9 7.8,13.3 "/>
<polygon class="st0" points="7,15.6 6.4,15 5.8,14.3 5.2,15 5.8,15.6 5.2,16.2 5.8,16.8 6.4,16.2 "/>
<polygon class="st0" points="6.4,18.7 5.7,18 5.1,17.4 4.5,18 5.1,18.7 4.5,19.3 5.1,19.9 5.7,19.3 "/>
<polygon class="st0" points="6.4,21.8 5.8,21.2 5.2,20.6 4.5,21.2 5.2,21.8 4.5,22.4 5.2,23.1 5.8,22.4 "/>
<polygon class="st0" points="7.1,24.9 6.5,24.3 5.9,23.7 5.2,24.3 5.9,24.9 5.2,25.5 5.9,26.1 6.5,25.5 "/>
<polygon class="st0" points="8.5,27.8 7.9,27.2 7.3,26.5 6.6,27.2 7.3,27.8 6.6,28.4 7.3,29 7.9,28.4 "/>
<polygon class="st0" points="10.6,30.4 10,29.7 9.4,29.1 8.7,29.7 9.4,30.4 8.7,31 9.4,31.6 10,31 "/>
<polygon class="st0" points="13.2,32.4 12.6,31.8 12,31.1 11.3,31.8 12,32.4 11.3,33 12,33.6 12.6,33 "/>
<polygon class="st0" points="16.1,33.7 15.5,33.1 14.9,32.5 14.3,33.1 14.9,33.7 14.3,34.3 14.9,34.9 15.5,34.3 "/>
<polygon class="st0" points="19.2,34.4 18.6,33.7 18,33.1 17.4,33.7 18,34.4 17.4,35 18,35.6 18.6,35 "/>
<polygon class="st0" points="22.4,34.3 21.8,33.7 21.2,33.1 20.6,33.7 21.2,34.3 20.6,35 21.2,35.6 21.8,35 "/>
<polygon class="st0" points="25.5,33.7 24.9,33 24.3,32.4 23.7,33 24.3,33.7 23.7,34.3 24.3,34.9 24.9,34.3 "/>
<polygon class="st0" points="28.4,32.3 27.8,31.7 27.2,31 26.6,31.7 27.2,32.3 26.6,32.9 27.2,33.5 27.8,32.9 "/>
<polygon class="st0" points="30.4,29.6 29.8,29 29.1,29.6 29.8,30.2 29.1,30.9 29.8,31.5 30.4,30.9 31,30.2 "/>
<polygon class="st0" points="27.7,11.8 27.2,11.3 26.7,11.8 27.2,12.2 26.7,12.7 27.2,13.2 27.7,12.7 28.2,12.2 "/>
<polygon class="st0" points="26.2,10.7 25.7,10.2 25.2,9.7 24.8,10.2 25.2,10.7 24.8,11.1 25.2,11.6 25.7,11.1 "/>
<polygon class="st0" points="24,9.6 23.5,9.2 23,8.7 22.5,9.2 23,9.6 22.5,10.1 23,10.6 23.5,10.1 "/>
<polygon class="st0" points="21.6,9.2 21.1,8.7 20.7,8.2 20.2,8.7 20.7,9.2 20.2,9.6 20.7,10.1 21.1,9.6 "/>
<polygon class="st0" points="19.2,9.2 18.7,8.7 18.2,8.2 17.8,8.7 18.2,9.2 17.8,9.7 18.2,10.1 18.7,9.7 "/>
<polygon class="st0" points="16.8,9.8 16.4,9.3 15.9,8.8 15.4,9.3 15.9,9.8 15.4,10.2 15.9,10.7 16.4,10.2 "/>
<polygon class="st0" points="14.6,10.8 14.1,10.4 13.7,9.9 13.2,10.4 13.7,10.8 13.2,11.3 13.7,11.8 14.1,11.3 "/>
<polygon class="st0" points="12.6,12.4 12.2,11.9 11.7,11.5 11.2,11.9 11.7,12.4 11.2,12.9 11.7,13.4 12.2,12.9 "/>
<polygon class="st0" points="11.1,14.4 10.6,13.9 10.1,13.5 9.6,13.9 10.1,14.4 9.6,14.9 10.1,15.4 10.6,14.9 "/>
<polygon class="st0" points="10,16.6 9.6,16.2 9.1,15.7 8.6,16.2 9.1,16.6 8.6,17.1 9.1,17.6 9.6,17.1 "/>
<polygon class="st0" points="9.5,19 9,18.5 8.6,18 8.1,18.5 8.6,19 8.1,19.5 8.6,19.9 9,19.5 "/>
<polygon class="st0" points="9.5,21.4 9.1,20.9 8.6,20.4 8.1,20.9 8.6,21.4 8.1,21.9 8.6,22.3 9.1,21.9 "/>
<polygon class="st0" points="10.1,23.7 9.6,23.3 9.1,22.8 8.7,23.3 9.1,23.7 8.7,24.2 9.1,24.7 9.6,24.2 "/>
<polygon class="st0" points="11.2,26 10.7,25.5 10.2,25 9.7,25.5 10.2,26 9.7,26.4 10.2,26.9 10.7,26.4 "/>
<polygon class="st0" points="12.8,27.9 12.3,27.5 11.8,27 11.3,27.5 11.8,27.9 11.3,28.4 11.8,28.9 12.3,28.4 "/>
<polygon class="st0" points="14.7,29.5 14.3,29 13.8,28.5 13.3,29 13.8,29.5 13.3,29.9 13.8,30.4 14.3,29.9 "/>
<polygon class="st0" points="17,30.5 16.5,30 16,29.5 15.5,30 16,30.5 15.5,30.9 16,31.4 16.5,30.9 "/>
<polygon class="st0" points="19.3,31 18.9,30.5 18.4,30 17.9,30.5 18.4,31 17.9,31.4 18.4,31.9 18.9,31.4 "/>
<polygon class="st0" points="21.8,31 21.3,30.5 20.8,30 20.3,30.5 20.8,31 20.3,31.4 20.8,31.9 21.3,31.4 "/>
<polygon class="st0" points="24.1,30.4 23.7,30 23.2,29.5 22.7,30 23.2,30.4 22.7,30.9 23.2,31.4 23.7,30.9 "/>
<polygon class="st0" points="26.4,29.4 25.9,28.9 25.4,28.4 24.9,28.9 25.4,29.4 24.9,29.9 25.4,30.3 25.9,29.9 "/>
<polygon class="st0" points="27.9,27.4 27.4,26.9 26.9,27.4 27.4,27.8 26.9,28.3 27.4,28.8 27.9,28.3 28.3,27.8 "/>
<polygon class="st0" points="24.6,14.2 25,14.6 24.6,14.9 25,15.2 25.3,14.9 25.6,14.6 25.3,14.2 25,13.9 "/>
<polygon class="st0" points="23.2,13.1 23.6,13.5 23.2,13.8 23.6,14.1 23.9,13.8 24.2,13.5 23.9,13.1 23.6,12.8 "/>
<polygon class="st0" points="21.7,12.4 22,12.8 21.7,13.1 22,13.4 22.3,13.1 22.7,12.8 22.3,12.4 22,12.1 "/>
<polygon class="st0" points="20,12.1 20.4,12.4 20,12.7 20.4,13.1 20.7,12.7 21,12.4 20.7,12.1 20.4,11.8 "/>
<polygon class="st0" points="18.3,12.1 18.7,12.4 18.3,12.8 18.7,13.1 19,12.8 19.3,12.4 19,12.1 18.7,11.8 "/>
<polygon class="st0" points="16.7,12.5 17,12.8 16.7,13.2 17,13.5 17.4,13.2 17.7,12.8 17.4,12.5 17,12.2 "/>
<polygon class="st0" points="15.1,13.3 15.5,13.6 15.1,13.9 15.5,14.3 15.8,13.9 16.1,13.6 15.8,13.3 15.5,12.9 "/>
<polygon class="st0" points="13.7,14.4 14.1,14.7 13.7,15 14.1,15.4 14.4,15 14.7,14.7 14.4,14.4 14.1,14 "/>
<polygon class="st0" points="12.6,15.8 13,16.1 12.6,16.4 13,16.8 13.3,16.4 13.6,16.1 13.3,15.8 13,15.4 "/>
<polygon class="st0" points="11.9,17.3 12.3,17.6 11.9,18 12.3,18.3 12.6,18 12.9,17.6 12.6,17.3 12.3,17 "/>
<polygon class="st0" points="11.6,19 11.9,19.3 11.6,19.6 11.9,20 12.2,19.6 12.6,19.3 12.2,19 11.9,18.6 "/>
<polygon class="st0" points="11.6,20.7 11.9,21 11.6,21.3 11.9,21.6 12.2,21.3 12.6,21 12.2,20.7 11.9,20.3 "/>
<polygon class="st0" points="12,22.3 12.3,22.6 12,23 12.3,23.3 12.6,23 13,22.6 12.6,22.3 12.3,22 "/>
<polygon class="st0" points="12.7,23.8 13,24.2 12.7,24.5 13,24.8 13.4,24.5 13.7,24.2 13.4,23.8 13,23.5 "/>
<polygon class="st0" points="13.8,25.2 14.2,25.6 13.8,25.9 14.2,26.2 14.5,25.9 14.8,25.6 14.5,25.2 14.2,24.9 "/>
<polygon class="st0" points="15.2,26.3 15.6,26.6 15.2,27 15.6,27.3 15.9,27 16.2,26.6 15.9,26.3 15.6,26 "/>
<polygon class="st0" points="16.8,27 17.1,27.3 16.8,27.7 17.1,28 17.4,27.7 17.8,27.3 17.4,27 17.1,26.7 "/>
<polygon class="st0" points="18.4,27.4 18.8,27.7 18.4,28 18.8,28.4 19.1,28 19.4,27.7 19.1,27.4 18.8,27 "/>
<polygon class="st0" points="20.1,27.4 20.5,27.7 20.1,28 20.5,28.3 20.8,28 21.1,27.7 20.8,27.4 20.5,27 "/>
<polygon class="st0" points="21.8,27 22.1,27.3 21.8,27.6 22.1,28 22.5,27.6 22.8,27.3 22.5,27 22.1,26.7 "/>
<polygon class="st0" points="23.4,26.3 23.7,26.6 23.4,26.9 23.7,27.2 24,26.9 24.4,26.6 24,26.3 23.7,25.9 "/>
<polygon class="st0" points="24.7,25.2 25.1,25.5 24.7,25.8 25.1,26.2 25.4,25.8 25.7,25.5 25.4,25.2 25.1,24.8 "/>
</svg>
