<?xml version="1.0" encoding="utf-8"?>
<!-- Generator: Adobe Illustrator 19.1.0, SVG Export Plug-In . SVG Version: 6.00 Build 0)  -->
<svg version="1.1" id="Layer_1" xmlns="http://www.w3.org/2000/svg" xmlns:xlink="http://www.w3.org/1999/xlink" x="0px" y="0px"
	 viewBox="0 0 54.5 63.7" style="enable-background:new 0 0 54.5 63.7;" xml:space="preserve">
<style type="text/css">
	.st0{fill:#03264F;}
</style>
<g>
	<polygon class="st0" points="52.6,9.5 51.3,8.2 50.1,9.5 51.3,10.8 50.1,12.1 51.3,13.3 52.6,12.1 53.9,10.8 	"/>
	<polygon class="st0" points="48.6,6.6 47.3,5.3 46,4 44.7,5.3 46,6.6 44.7,7.9 46,9.1 47.3,7.9 	"/>
	<polygon class="st0" points="42.6,3.9 41.3,2.6 40.1,1.3 38.8,2.6 40.1,3.9 38.8,5.1 40.1,6.4 41.3,5.1 	"/>
	<polygon class="st0" points="36.3,2.5 35,1.3 33.7,0 32.4,1.3 33.7,2.5 32.4,3.8 33.7,5.1 35,3.8 	"/>
	<polygon class="st0" points="29.8,2.6 28.5,1.4 27.2,0.1 26,1.4 27.2,2.6 26,3.9 27.2,5.2 28.5,3.9 	"/>
	<polygon class="st0" points="23.4,4.2 22.2,2.9 20.9,1.6 19.6,2.9 20.9,4.2 19.6,5.4 20.9,6.7 22.2,5.4 	"/>
	<polygon class="st0" points="17.5,7 16.2,5.8 15,4.5 13.7,5.8 15,7 13.7,8.3 15,9.6 16.2,8.3 	"/>
	<polygon class="st0" points="12.2,11.3 10.9,10 9.6,8.7 8.4,10 9.6,11.3 8.4,12.6 9.6,13.8 10.9,12.6 	"/>
	<polygon class="st0" points="8,16.6 6.7,15.4 5.4,14.1 4.2,15.4 5.4,16.6 4.2,17.9 5.4,19.2 6.7,17.9 	"/>
	<polygon class="st0" points="5.2,22.6 3.9,21.3 2.6,20.1 1.4,21.3 2.6,22.6 1.4,23.9 2.6,25.1 3.9,23.9 	"/>
	<polygon class="st0" points="3.8,28.9 2.5,27.7 1.3,26.4 0,27.7 1.3,28.9 0,30.2 1.3,31.5 2.5,30.2 	"/>
	<polygon class="st0" points="3.9,35.4 2.6,34.1 1.3,32.8 0,34.1 1.3,35.4 0,36.7 1.3,37.9 2.6,36.7 	"/>
	<polygon class="st0" points="5.3,41.7 4.1,40.4 2.8,39.2 1.5,40.4 2.8,41.7 1.5,43 2.8,44.3 4.1,43 	"/>
	<polygon class="st0" points="8.2,47.6 6.9,46.4 5.7,45.1 4.4,46.4 5.7,47.6 4.4,48.9 5.7,50.2 6.9,48.9 	"/>
	<polygon class="st0" points="12.5,52.9 11.2,51.7 10,50.4 8.7,51.7 10,52.9 8.7,54.2 10,55.5 11.2,54.2 	"/>
	<polygon class="st0" points="17.8,57 16.6,55.8 15.3,54.5 14,55.8 15.3,57 14,58.3 15.3,59.6 16.6,58.3 	"/>
	<polygon class="st0" points="23.8,59.8 22.5,58.5 21.3,57.2 20,58.5 21.3,59.8 20,61 21.3,62.3 22.5,61 	"/>
	<polygon class="st0" points="30.2,61.1 28.9,59.8 27.7,58.6 26.4,59.8 27.7,61.1 26.4,62.4 27.7,63.7 28.9,62.4 	"/>
	<polygon class="st0" points="36.7,61.1 35.4,59.8 34.2,58.5 32.9,59.8 34.2,61.1 32.9,62.3 34.2,63.6 35.4,62.3 	"/>
	<polygon class="st0" points="43.1,59.7 41.8,58.4 40.5,57.1 39.3,58.4 40.5,59.7 39.3,60.9 40.5,62.2 41.8,60.9 	"/>
	<polygon class="st0" points="49,56.9 47.8,55.6 46.5,54.3 45.2,55.6 46.5,56.9 45.2,58.1 46.5,59.4 47.8,58.1 	"/>
	<polygon class="st0" points="53.1,51.4 51.8,50.1 50.5,51.4 51.8,52.7 50.5,54 51.8,55.2 53.1,54 54.3,52.7 	"/>
	<polygon class="st0" points="47.8,14.6 46.8,13.6 45.8,14.6 46.8,15.5 45.8,16.5 46.8,17.5 47.8,16.5 48.8,15.5 	"/>
	<polygon class="st0" points="44.7,12.3 43.7,11.3 42.7,10.3 41.7,11.3 42.7,12.3 41.7,13.3 42.7,14.3 43.7,13.3 	"/>
	<polygon class="st0" points="40.1,10.2 39.1,9.2 38.1,8.2 37.1,9.2 38.1,10.2 37.1,11.2 38.1,12.2 39.1,11.2 	"/>
	<polygon class="st0" points="35.2,9.2 34.2,8.2 33.2,7.2 32.2,8.2 33.2,9.2 32.2,10.2 33.2,11.1 34.2,10.2 	"/>
	<polygon class="st0" points="30.2,9.3 29.2,8.3 28.2,7.3 27.2,8.3 28.2,9.3 27.2,10.2 28.2,11.2 29.2,10.2 	"/>
	<polygon class="st0" points="25.3,10.4 24.3,9.4 23.3,8.5 22.3,9.4 23.3,10.4 22.3,11.4 23.3,12.4 24.3,11.4 	"/>
	<polygon class="st0" points="20.7,12.7 19.7,11.7 18.7,10.7 17.7,11.7 18.7,12.7 17.7,13.6 18.7,14.6 19.7,13.6 	"/>
	<polygon class="st0" points="16.6,15.9 15.6,15 14.6,14 13.6,15 14.6,15.9 13.6,16.9 14.6,17.9 15.6,16.9 	"/>
	<polygon class="st0" points="13.3,20.1 12.3,19.1 11.3,18.1 10.4,19.1 11.3,20.1 10.4,21 11.3,22 12.3,21 	"/>
	<polygon class="st0" points="11.2,24.7 10.2,23.7 9.2,22.7 8.2,23.7 9.2,24.7 8.2,25.7 9.2,26.6 10.2,25.7 	"/>
	<polygon class="st0" points="10.1,29.6 9.1,28.6 8.1,27.6 7.1,28.6 8.1,29.6 7.1,30.6 8.1,31.5 9.1,30.6 	"/>
	<polygon class="st0" points="10.1,34.6 9.1,33.6 8.2,32.6 7.2,33.6 8.2,34.6 7.2,35.5 8.2,36.5 9.1,35.5 	"/>
	<polygon class="st0" points="11.3,39.4 10.3,38.5 9.3,37.5 8.3,38.5 9.3,39.4 8.3,40.4 9.3,41.4 10.3,40.4 	"/>
	<polygon class="st0" points="13.5,44 12.5,43 11.5,42.1 10.5,43 11.5,44 10.5,45 11.5,46 12.5,45 	"/>
	<polygon class="st0" points="16.8,48.1 15.8,47.1 14.8,46.1 13.8,47.1 14.8,48.1 13.8,49.1 14.8,50.1 15.8,49.1 	"/>
	<polygon class="st0" points="20.9,51.3 19.9,50.3 19,49.3 18,50.3 19,51.3 18,52.3 19,53.2 19.9,52.3 	"/>
	<polygon class="st0" points="25.5,53.4 24.6,52.4 23.6,51.4 22.6,52.4 23.6,53.4 22.6,54.4 23.6,55.4 24.6,54.4 	"/>
	<polygon class="st0" points="30.5,54.4 29.5,53.4 28.5,52.5 27.5,53.4 28.5,54.4 27.5,55.4 28.5,56.4 29.5,55.4 	"/>
	<polygon class="st0" points="35.5,54.4 34.5,53.4 33.5,52.4 32.6,53.4 33.5,54.4 32.6,55.4 33.5,56.4 34.5,55.4 	"/>
	<polygon class="st0" points="40.4,53.3 39.4,52.3 38.5,51.3 37.5,52.3 38.5,53.3 37.5,54.3 38.5,55.3 39.4,54.3 	"/>
	<polygon class="st0" points="45,51.1 44.1,50.2 43.1,49.2 42.1,50.2 43.1,51.1 42.1,52.1 43.1,53.1 44.1,52.1 	"/>
	<polygon class="st0" points="48.1,46.9 47.2,46 46.2,46.9 47.2,47.9 46.2,48.9 47.2,49.9 48.1,48.9 49.1,47.9 	"/>
	<polygon class="st0" points="43.9,18.6 43.1,17.9 42.4,18.6 43.1,19.4 42.4,20.1 43.1,20.9 43.9,20.1 44.6,19.4 	"/>
	<polygon class="st0" points="41.5,16.9 40.7,16.1 40,15.4 39.2,16.1 40,16.9 39.2,17.6 40,18.4 40.7,17.6 	"/>
	<polygon class="st0" points="38,15.3 37.2,14.5 36.5,13.8 35.7,14.5 36.5,15.3 35.7,16 36.5,16.8 37.2,16 	"/>
	<polygon class="st0" points="34.2,14.5 33.5,13.8 32.7,13 32,13.8 32.7,14.5 32,15.3 32.7,16 33.5,15.3 	"/>
	<polygon class="st0" points="30.4,14.6 29.7,13.8 28.9,13.1 28.2,13.8 28.9,14.6 28.2,15.3 28.9,16.1 29.7,15.3 	"/>
	<polygon class="st0" points="26.7,15.5 25.9,14.7 25.2,14 24.4,14.7 25.2,15.5 24.4,16.2 25.2,17 25.9,16.2 	"/>
	<polygon class="st0" points="23.1,17.2 22.4,16.4 21.6,15.7 20.9,16.4 21.6,17.2 20.9,17.9 21.6,18.7 22.4,17.9 	"/>
	<polygon class="st0" points="20,19.7 19.3,18.9 18.5,18.2 17.8,18.9 18.5,19.7 17.8,20.4 18.5,21.2 19.3,20.4 	"/>
	<polygon class="st0" points="17.5,22.8 16.8,22.1 16,21.3 15.3,22.1 16,22.8 15.3,23.6 16,24.3 16.8,23.6 	"/>
	<polygon class="st0" points="15.9,26.3 15.1,25.6 14.4,24.8 13.6,25.6 14.4,26.3 13.6,27.1 14.4,27.8 15.1,27.1 	"/>
	<polygon class="st0" points="15.1,30.1 14.3,29.3 13.6,28.6 12.8,29.3 13.6,30.1 12.8,30.8 13.6,31.6 14.3,30.8 	"/>
	<polygon class="st0" points="15.1,33.9 14.4,33.1 13.6,32.4 12.9,33.1 13.6,33.9 12.9,34.6 13.6,35.4 14.4,34.6 	"/>
	<polygon class="st0" points="16,37.6 15.2,36.9 14.5,36.1 13.7,36.9 14.5,37.6 13.7,38.4 14.5,39.1 15.2,38.4 	"/>
	<polygon class="st0" points="17.7,41.1 16.9,40.4 16.2,39.6 15.4,40.4 16.2,41.1 15.4,41.9 16.2,42.6 16.9,41.9 	"/>
	<polygon class="st0" points="20.2,44.2 19.4,43.5 18.7,42.7 17.9,43.5 18.7,44.2 17.9,45 18.7,45.7 19.4,45 	"/>
	<polygon class="st0" points="23.3,46.7 22.6,45.9 21.8,45.2 21.1,45.9 21.8,46.7 21.1,47.4 21.8,48.2 22.6,47.4 	"/>
	<polygon class="st0" points="26.9,48.3 26.1,47.5 25.4,46.8 24.6,47.5 25.4,48.3 24.6,49 25.4,49.8 26.1,49 	"/>
	<polygon class="st0" points="30.6,49.1 29.9,48.3 29.1,47.6 28.4,48.3 29.1,49.1 28.4,49.8 29.1,50.6 29.9,49.8 	"/>
	<polygon class="st0" points="34.5,49 33.7,48.3 33,47.5 32.2,48.3 33,49 32.2,49.8 33,50.5 33.7,49.8 	"/>
	<polygon class="st0" points="38.2,48.2 37.5,47.5 36.7,46.7 36,47.5 36.7,48.2 36,49 36.7,49.7 37.5,49 	"/>
	<polygon class="st0" points="41.8,46.6 41,45.8 40.3,45.1 39.5,45.8 40.3,46.6 39.5,47.3 40.3,48.1 41,47.3 	"/>
	<polygon class="st0" points="44.1,43.3 43.4,42.6 42.6,43.3 43.4,44.1 42.6,44.8 43.4,45.6 44.1,44.8 44.9,44.1 	"/>
	<polygon class="st0" points="40.1,22.5 39.5,22 39,22.5 39.5,23.1 39,23.6 39.5,24.1 40.1,23.6 40.6,23.1 	"/>
	<polygon class="st0" points="38.4,21.3 37.9,20.8 37.3,20.3 36.8,20.8 37.3,21.3 36.8,21.9 37.3,22.4 37.9,21.9 	"/>
	<polygon class="st0" points="35.9,20.2 35.4,19.7 34.9,19.2 34.3,19.7 34.9,20.2 34.3,20.7 34.9,21.3 35.4,20.7 	"/>
	<polygon class="st0" points="33.3,19.7 32.8,19.1 32.3,18.6 31.7,19.1 32.3,19.7 31.7,20.2 32.3,20.7 32.8,20.2 	"/>
	<polygon class="st0" points="30.6,19.7 30.1,19.2 29.6,18.7 29.1,19.2 29.6,19.7 29.1,20.2 29.6,20.8 30.1,20.2 	"/>
	<polygon class="st0" points="28,20.3 27.5,19.8 27,19.3 26.4,19.8 27,20.3 26.4,20.9 27,21.4 27.5,20.9 	"/>
	<polygon class="st0" points="25.6,21.5 25,21 24.5,20.5 24,21 24.5,21.5 24,22.1 24.5,22.6 25,22.1 	"/>
	<polygon class="st0" points="23.4,23.3 22.8,22.8 22.3,22.2 21.8,22.8 22.3,23.3 21.8,23.8 22.3,24.3 22.8,23.8 	"/>
	<polygon class="st0" points="21.6,25.5 21.1,25 20.6,24.4 20,25 20.6,25.5 20,26 20.6,26.5 21.1,26 	"/>
	<polygon class="st0" points="20.5,28 19.9,27.4 19.4,26.9 18.9,27.4 19.4,28 18.9,28.5 19.4,29 19.9,28.5 	"/>
	<polygon class="st0" points="19.9,30.6 19.4,30 18.8,29.5 18.3,30 18.8,30.6 18.3,31.1 18.8,31.6 19.4,31.1 	"/>
	<polygon class="st0" points="19.9,33.2 19.4,32.7 18.9,32.2 18.3,32.7 18.9,33.2 18.3,33.8 18.9,34.3 19.4,33.8 	"/>
	<polygon class="st0" points="20.5,35.9 20,35.3 19.5,34.8 18.9,35.3 19.5,35.9 18.9,36.4 19.5,36.9 20,36.4 	"/>
	<polygon class="st0" points="21.7,38.3 21.2,37.8 20.7,37.3 20.1,37.8 20.7,38.3 20.1,38.8 20.7,39.4 21.2,38.8 	"/>
	<polygon class="st0" points="23.5,40.5 23,40 22.4,39.4 21.9,40 22.4,40.5 21.9,41 22.4,41.5 23,41 	"/>
	<polygon class="st0" points="25.7,42.2 25.2,41.7 24.6,41.1 24.1,41.7 24.6,42.2 24.1,42.7 24.6,43.2 25.2,42.7 	"/>
	<polygon class="st0" points="28.2,43.3 27.6,42.8 27.1,42.3 26.6,42.8 27.1,43.3 26.6,43.8 27.1,44.4 27.6,43.8 	"/>
	<polygon class="st0" points="30.8,43.9 30.3,43.3 29.7,42.8 29.2,43.3 29.7,43.9 29.2,44.4 29.7,44.9 30.3,44.4 	"/>
	<polygon class="st0" points="33.5,43.9 33,43.3 32.4,42.8 31.9,43.3 32.4,43.9 31.9,44.4 32.4,44.9 33,44.4 	"/>
	<polygon class="st0" points="36.1,43.3 35.6,42.7 35.1,42.2 34.5,42.7 35.1,43.3 34.5,43.8 35.1,44.3 35.6,43.8 	"/>
	<polygon class="st0" points="38.6,42.1 38.1,41.6 37.5,41.1 37,41.6 37.5,42.1 37,42.6 37.5,43.2 38.1,42.6 	"/>
	<polygon class="st0" points="40.2,39.9 39.7,39.3 39.2,39.9 39.7,40.4 39.2,40.9 39.7,41.4 40.2,40.9 40.8,40.4 	"/>
</g>
</svg>
