<?xml version="1.0" encoding="utf-8"?>
<!-- Generator: Adobe Illustrator 19.1.0, SVG Export Plug-In . SVG Version: 6.00 Build 0)  -->
<svg version="1.1" id="Layer_1" xmlns="http://www.w3.org/2000/svg" xmlns:xlink="http://www.w3.org/1999/xlink" x="0px" y="0px"
	 viewBox="0 0 100.7 100.7" style="enable-background:new 0 0 100.7 100.7;" xml:space="preserve">
<style type="text/css">
	.st0{fill:#FFFFFF;}
</style>
<polygon class="st0" points="50.4,0 40.3,10.1 30.2,20.1 40.3,30.2 50.4,20.1 60.4,30.2 70.5,20.1 60.4,10.1 "/>
<polygon class="st0" points="50.4,80.6 40.3,70.5 30.2,80.6 40.3,90.7 50.4,100.7 60.4,90.7 70.5,80.6 60.4,70.5 "/>
<polygon class="st0" points="10.1,40.3 0,50.4 10.1,60.4 20.2,70.5 30.2,60.4 20.2,50.4 30.2,40.3 20.2,30.2 "/>
<polygon class="st0" points="70.5,40.3 80.6,50.4 70.5,60.4 80.6,70.5 90.7,60.4 100.7,50.4 90.7,40.3 80.6,30.2 "/>
</svg>
