<?xml version="1.0" encoding="utf-8"?>
<!-- Generator: Adobe Illustrator 19.1.0, SVG Export Plug-In . SVG Version: 6.00 Build 0)  -->
<svg version="1.1" id="Layer_1" xmlns="http://www.w3.org/2000/svg" xmlns:xlink="http://www.w3.org/1999/xlink" x="0px" y="0px"
	 viewBox="0 0 1229.9 767.5" style="enable-background:new 0 0 1229.9 767.5;" xml:space="preserve">
<style type="text/css">
	.st0{clip-path:url(#SVGID_2_);fill:#C8C9CB;}
	.st1{clip-path:url(#SVGID_2_);}
	.st2{opacity:0.7;clip-path:url(#SVGID_4_);}
	.st3{clip-path:url(#SVGID_6_);fill:none;stroke:#F1F1F2;stroke-miterlimit:10;}
</style>
<g>
	<defs>
		<rect id="SVGID_1_" width="1527.8" height="767.5"/>
	</defs>
	<clipPath id="SVGID_2_">
		<use xlink:href="#SVGID_1_"  style="overflow:visible;"/>
	</clipPath>
	<rect x="0.7" class="st0" width="1229.2" height="767.5"/>
	<g class="st1">
		<defs>
			<rect id="SVGID_3_" x="0.7" width="1229.2" height="767.5"/>
		</defs>
		<clipPath id="SVGID_4_">
			<use xlink:href="#SVGID_3_"  style="overflow:visible;"/>
		</clipPath>
		<g class="st2">
			<g>
				<defs>
					<rect id="SVGID_5_" y="1.3" width="1527.8" height="764.6"/>
				</defs>
				<clipPath id="SVGID_6_">
					<use xlink:href="#SVGID_5_"  style="overflow:visible;"/>
				</clipPath>
				<polygon class="st3" points="286.9,192.8 382.3,97.4 286.9,2 191.5,97.4 96.1,2 0.7,97.4 96.1,192.8 191.5,288.2 				"/>
				<polygon class="st3" points="96.1,192.8 0.7,288.2 96.1,383.6 191.5,288.2 286.9,383.6 382.3,288.2 286.9,192.8 191.5,97.4 				
					"/>
				<polygon class="st3" points="286.9,290.6 382.3,195.2 286.9,99.8 191.5,195.2 96.1,99.8 0.7,195.2 96.1,290.6 191.5,386 				"/>
				<polygon class="st3" points="96.1,290.6 0.7,386 96.1,481.4 191.5,386 286.9,481.4 382.3,386 286.9,290.6 191.5,195.2 				"/>
				<polygon class="st3" points="286.9,574.4 382.3,479 286.9,383.6 191.5,479 96.1,383.6 0.7,479 96.1,574.4 191.5,669.8 				"/>
				<polygon class="st3" points="96.1,574.4 0.7,669.8 96.1,765.2 191.5,669.8 286.9,765.2 382.3,669.8 286.9,574.4 191.5,479 				
					"/>
				<polygon class="st3" points="668.5,574.4 763.9,669.8 668.5,765.2 573.1,669.8 477.7,765.2 382.3,669.8 477.7,574.4 573.1,479 
									"/>
				<polygon class="st3" points="477.7,574.4 382.3,479 477.7,383.6 573.1,479 668.5,383.6 763.9,479 668.5,574.4 573.1,669.8 				
					"/>
				<polygon class="st3" points="668.5,481.4 763.9,576.8 668.5,672.2 573.1,576.8 477.7,672.2 382.3,576.8 477.7,481.4 573.1,386 
									"/>
				<polygon class="st3" points="477.7,481.4 382.3,386 477.7,290.6 573.1,386 668.5,290.6 763.9,386 668.5,481.4 573.1,576.8 				
					"/>
				<polygon class="st3" points="668.5,192.8 763.9,288.2 668.5,383.6 573.1,288.2 477.7,383.6 382.3,288.2 477.7,192.8 573.1,97.4 
									"/>
				<polygon class="st3" points="477.7,192.8 382.3,97.4 477.7,2 573.1,97.4 668.5,2 763.9,97.4 668.5,192.8 573.1,288.2 				"/>
				<polygon class="st3" points="1050.1,192.8 1145.5,97.4 1050.1,2 954.7,97.4 859.3,2 763.9,97.4 859.3,192.8 954.7,288.2 				"/>
				<polygon class="st3" points="859.3,192.8 763.9,288.2 859.3,383.6 954.7,288.2 1050.1,383.6 1145.5,288.2 1050.1,192.8 
					954.7,97.4 				"/>
				<polygon class="st3" points="1050.1,290.6 1145.5,195.2 1050.1,99.8 954.7,195.2 859.3,99.8 763.9,195.2 859.3,290.6 954.7,386 
									"/>
				<polygon class="st3" points="859.3,290.6 763.9,386 859.3,481.4 954.7,386 1050.1,481.4 1145.5,386 1050.1,290.6 954.7,195.2 
									"/>
				<polygon class="st3" points="1050.1,574.4 1145.5,479 1050.1,383.6 954.7,479 859.3,383.6 763.9,479 859.3,574.4 954.7,669.8 
									"/>
				<polygon class="st3" points="859.3,574.4 763.9,669.8 859.3,765.2 954.7,669.8 1050.1,765.2 1145.5,669.8 1050.1,574.4 
					954.7,479 				"/>
				<polygon class="st3" points="1431.7,574.4 1527.1,669.8 1431.7,765.2 1336.3,669.8 1240.9,765.2 1145.5,669.8 1240.9,574.4 
					1336.3,479 				"/>
				<polygon class="st3" points="1240.9,574.4 1145.5,479 1240.9,383.6 1336.3,479 1431.7,383.6 1527.1,479 1431.7,574.4 
					1336.3,669.8 				"/>
				<polygon class="st3" points="1431.7,481.4 1527.1,576.8 1431.7,672.2 1336.3,576.8 1240.9,672.2 1145.5,576.8 1240.9,481.4 
					1336.3,386 				"/>
				<polygon class="st3" points="1240.9,481.4 1145.5,386 1240.9,290.6 1336.3,386 1431.7,290.6 1527.1,386 1431.7,481.4 
					1336.3,576.8 				"/>
				<polygon class="st3" points="1431.7,192.8 1527.1,288.2 1431.7,383.6 1336.3,288.2 1240.9,383.6 1145.5,288.2 1240.9,192.8 
					1336.3,97.4 				"/>
				<polygon class="st3" points="1240.9,192.8 1145.5,97.4 1240.9,2 1336.3,97.4 1431.7,2 1527.1,97.4 1431.7,192.8 1336.3,288.2 
									"/>
			</g>
		</g>
	</g>
</g>
</svg>
