<?xml version="1.0" encoding="utf-8"?>
<!-- Generator: Adobe Illustrator 20.1.0, SVG Export Plug-In . SVG Version: 6.00 Build 0)  -->
<svg version="1.1" id="Layer_1" xmlns="http://www.w3.org/2000/svg" xmlns:xlink="http://www.w3.org/1999/xlink" x="0px" y="0px"
	 viewBox="0 0 1700 1055" style="enable-background:new 0 0 1700 1055;" xml:space="preserve">
<style type="text/css">
	.st0{opacity:0.7;clip-path:url(#SVGID_2_);}
	.st1{opacity:0.5;}
	.st2{fill:#4370B1;}
</style>
<g>
	<defs>
		<rect id="SVGID_1_" width="1700" height="1055"/>
	</defs>
	<clipPath id="SVGID_2_">
		<use xlink:href="#SVGID_1_"  style="overflow:visible;"/>
	</clipPath>
	<g class="st0">
		<g>
			<g>
				<g class="st1">
					<path class="st2" d="M132.6,396.5l-0.4-0.4l-264.2-264.2l0.4-0.4L0.7-0.9l0.4,0.4L132.6,131L264.4-0.9l0.4,0.4l132.3,132.3
						l-0.4,0.4L132.6,396.5z M-130.3,131.9l262.9,262.9L264,263.3l0.4,0.4l-0.4-0.4l131.4-131.4l-131-131L132.6,132.8l-0.4-0.4
						L0.7,0.9L-130.3,131.9z"/>
				</g>
				<g class="st1">
					<path class="st2" d="M264.4,528.4l-0.4-0.4L132.6,396.5L0.7,528.4l-0.4-0.4l-132.3-132.3l0.4-0.4L132.6,131l0.4,0.4
						l264.2,264.2l-0.4,0.4L264.4,528.4z M132.6,394.7l0.4,0.4l131.4,131.4l131-131L132.6,132.8l-262.9,262.9l131,131L132.6,394.7z"
						/>
				</g>
			</g>
			<g>
				<g class="st1">
					<path class="st2" d="M132.6,531.8l-0.4-0.4l-264.2-264.2l0.4-0.4L0.7,134.4l0.4,0.4l131.4,131.4l131.9-131.9l0.4,0.4
						l132.3,132.3l-0.4,0.4L132.6,531.8z M-130.3,267.1L132.6,530L264,398.6l0.4,0.4l-0.4-0.4l131.4-131.4l-131-131L132.6,268
						l-0.4-0.4L0.7,136.1L-130.3,267.1z"/>
				</g>
				<g class="st1">
					<path class="st2" d="M264.4,663.6l-0.4-0.4L132.6,531.8L0.7,663.6l-0.4-0.4l-132.3-132.3l0.4-0.4l264.2-264.2l0.4,0.4
						l264.2,264.2l-0.4,0.4L264.4,663.6z M132.6,530l0.4,0.4l131.4,131.4l131-131L132.6,268l-262.9,262.9l131,131L132.6,530z"/>
				</g>
			</g>
			<g>
				<g class="st1">
					<path class="st2" d="M132.6,924l-0.4-0.4l-264.2-264.2l0.4-0.4L0.7,526.6l0.4,0.4l131.4,131.4l131.9-131.9l0.4,0.4l132.3,132.3
						l-0.4,0.4L132.6,924z M-130.3,659.4l262.9,262.9L264,790.8l0.4,0.4l-0.4-0.4l131.4-131.4l-131-131L132.6,660.3l-0.4-0.4
						L0.7,528.4L-130.3,659.4z"/>
				</g>
				<g class="st1">
					<path class="st2" d="M264.4,1055.9l-0.4-0.4L132.6,924L0.7,1055.9l-0.4-0.4l-132.3-132.3l0.4-0.4l264.2-264.2l0.4,0.4
						l264.2,264.2l-0.4,0.4L264.4,1055.9z M132.6,922.2l0.4,0.4l131.4,131.4l131-131L132.6,660.3l-262.9,262.9l131,131L132.6,922.2z
						"/>
				</g>
			</g>
			<g>
				<g class="st1">
					<path class="st2" d="M791.9,1055.9l-0.4-0.4L660.1,924l-131.9,131.9l-0.4-0.4L395.4,923.1l0.4-0.4l264.2-264.2l0.4,0.4
						l264.2,264.2l-0.4,0.4L791.9,1055.9z M660.1,922.2l0.4,0.4l131.4,131.4l131-131L660.1,660.3L397.2,923.1l131,131L660.1,922.2z"
						/>
				</g>
				<g class="st1">
					<path class="st2" d="M660.1,924l-0.4-0.4L395.4,659.4l0.4-0.4l132.3-132.3l0.4,0.4l131.4,131.4l131.9-131.9l0.4,0.4
						l132.3,132.3l-0.4,0.4L660.1,924z M528.6,790.8l131.4,131.4l262.9-262.9l-131-131L660.1,660.3l-0.4-0.4L528.2,528.4l-131,131
						L528.6,790.8z"/>
				</g>
			</g>
			<g>
				<g class="st1">
					<path class="st2" d="M791.9,927.4l-0.4-0.4L660.1,795.5L528.2,927.4l-0.4-0.4L395.4,794.6l0.4-0.4L660.1,530l0.4,0.4
						l264.2,264.2l-0.4,0.4L791.9,927.4z M660.1,793.7l0.4,0.4l131.4,131.4l131-131L660.1,531.8L397.2,794.6l131,131L660.1,793.7z"
						/>
				</g>
				<g class="st1">
					<path class="st2" d="M660.1,795.5l-0.4-0.4L395.4,530.9l0.4-0.4l132.3-132.3l0.4,0.4L660.1,530l131.9-131.9l0.4,0.4
						l132.3,132.3l-0.4,0.4L660.1,795.5z M528.6,662.3l131.4,131.4l262.9-262.9l-131-131L660.1,531.8l-0.4-0.4L528.2,399.9l-131,131
						L528.6,662.3L528.6,662.3z"/>
				</g>
			</g>
			<g>
				<g class="st1">
					<path class="st2" d="M791.9,528.4l-0.4-0.4L660.1,396.5L528.2,528.4l-0.4-0.4L395.4,395.6l0.4-0.4L660.1,131l0.4,0.4
						l264.2,264.2l-0.4,0.4L791.9,528.4z M660.1,394.7l0.4,0.4l131.4,131.4l131-131L660.1,132.8L397.2,395.6l131,131L660.1,394.7z"
						/>
				</g>
				<g class="st1">
					<path class="st2" d="M660.1,396.5l-0.4-0.4L395.4,131.9l0.4-0.4L528.2-0.9l0.4,0.4L660.1,131L791.9-0.9l0.4,0.4l132.3,132.3
						l-0.4,0.4L660.1,396.5z M528.6,263.3l131.4,131.4l262.9-262.9l-131-131L660.1,132.8l-0.4-0.4L528.2,0.9l-131,131L528.6,263.3z"
						/>
				</g>
			</g>
		</g>
		<g>
			<g>
				<g class="st1">
					<path class="st2" d="M1187.6,396.5l-0.4-0.4L922.9,131.9l0.4-0.4L1055.7-0.9l0.4,0.4L1187.6,131L1319.4-0.9l0.4,0.4
						l132.3,132.3l-0.4,0.4L1187.6,396.5z M924.7,131.9l262.9,262.9L1319,263.3l0.4,0.4l-0.4-0.4l131.4-131.4l-131-131l-131.9,131.9
						l-0.4-0.4L1055.7,0.9L924.7,131.9z"/>
				</g>
				<g class="st1">
					<path class="st2" d="M1319.4,528.4l-0.4-0.4l-131.4-131.4l-131.9,131.9l-0.4-0.4L922.9,395.6l0.4-0.4L1187.6,131l0.4,0.4
						l264.2,264.2l-0.4,0.4L1319.4,528.4z M1187.6,394.7l0.4,0.4l131.4,131.4l131-131l-262.9-262.9l-131.4,131.4l-0.4-0.4l0.4,0.4
						L924.7,395.6l131,131L1187.6,394.7z"/>
				</g>
			</g>
			<g>
				<g class="st1">
					<path class="st2" d="M1187.6,531.8l-0.4-0.4L922.9,267.1l0.4-0.4l132.3-132.3l0.4,0.4l131.4,131.4l131.9-131.9l0.4,0.4
						l132.3,132.3l-0.4,0.4L1187.6,531.8z M924.7,267.1L1187.6,530L1319,398.6l0.4,0.4l-0.4-0.4l131.4-131.4l-131-131L1187.6,268
						l-0.4-0.4l-131.4-131.4L924.7,267.1z"/>
				</g>
				<g class="st1">
					<path class="st2" d="M1319.4,663.6l-0.4-0.4l-131.4-131.4l-131.9,131.9l-0.4-0.4L922.9,530.9l0.4-0.4l264.2-264.2l0.4,0.4
						l264.2,264.2l-0.4,0.4L1319.4,663.6z M1187.6,530l0.4,0.4l131.4,131.4l131-131L1187.6,268l-131.4,131.4l-0.4-0.4l0.4,0.4
						L924.7,530.9l131,131L1187.6,530z"/>
				</g>
			</g>
			<g>
				<g class="st1">
					<path class="st2" d="M1187.6,924l-0.4-0.4L922.9,659.4l0.4-0.4l132.3-132.3l0.4,0.4l131.4,131.4l131.9-131.9l0.4,0.4
						l132.3,132.3l-0.4,0.4L1187.6,924z M924.7,659.4l262.9,262.9L1319,790.8l0.4,0.4l-0.4-0.4l131.4-131.4l-131-131l-131.9,131.9
						l-0.4-0.4l-131.4-131.4L924.7,659.4z"/>
				</g>
				<g class="st1">
					<path class="st2" d="M1319.4,1055.9l-0.4-0.4L1187.6,924l-131.9,131.9l-0.4-0.4L922.9,923.1l0.4-0.4l264.2-264.2l0.4,0.4
						l264.2,264.2l-0.4,0.4L1319.4,1055.9z M1187.6,922.2l0.4,0.4l131.4,131.4l131-131l-262.9-262.9l-131.4,131.4l-0.4-0.4l0.4,0.4
						L924.7,923.1l131,131L1187.6,922.2z"/>
				</g>
			</g>
			<g>
				<g class="st1">
					<path class="st2" d="M1846.9,1055.9l-0.4-0.4L1715.1,924l-131.9,131.9l-0.4-0.4l-132.3-132.3l0.4-0.4l264.2-264.2l0.4,0.4
						l264.2,264.2l-0.4,0.4L1846.9,1055.9z M1715.1,922.2l0.4,0.4l131.4,131.4l131-131l-262.9-262.9l-262.9,262.9l131,131
						L1715.1,922.2z"/>
				</g>
				<g class="st1">
					<path class="st2" d="M1715.1,924l-0.4-0.4l-264.2-264.2l0.4-0.4l132.3-132.3l0.4,0.4l131.4,131.4l131.9-131.9l0.4,0.4
						l132.3,132.3l-0.4,0.4L1715.1,924z M1583.6,790.8l131.4,131.4l262.9-262.9l-131-131l-131.9,131.9l-0.4-0.4l-131.4-131.4
						l-131,131L1583.6,790.8z"/>
				</g>
			</g>
			<g>
				<g class="st1">
					<path class="st2" d="M1846.9,927.4l-0.4-0.4l-131.4-131.4l-131.9,131.9l-0.4-0.4l-132.3-132.3l0.4-0.4L1715.1,530l0.4,0.4
						l264.2,264.2l-0.4,0.4L1846.9,927.4z M1715.1,793.7l0.4,0.4l131.4,131.4l131-131l-262.9-262.9l-262.9,262.9l131,131
						L1715.1,793.7z"/>
				</g>
				<g class="st1">
					<path class="st2" d="M1715.1,795.5l-0.4-0.4l-264.2-264.2l0.4-0.4l132.3-132.3l0.4,0.4L1715.1,530l131.9-131.9l0.4,0.4
						l132.3,132.3l-0.4,0.4L1715.1,795.5z M1583.6,662.3l131.4,131.4l262.9-262.9l-131-131l-131.9,131.9l-0.4-0.4l-131.4-131.4
						l-131,131L1583.6,662.3L1583.6,662.3z"/>
				</g>
			</g>
			<g>
				<g class="st1">
					<path class="st2" d="M1846.9,528.4l-0.4-0.4l-131.4-131.4l-131.9,131.9l-0.4-0.4l-132.3-132.3l0.4-0.4L1715.1,131l0.4,0.4
						l264.2,264.2l-0.4,0.4L1846.9,528.4z M1715.1,394.7l0.4,0.4l131.4,131.4l131-131l-262.9-262.9l-262.9,262.9l131,131
						L1715.1,394.7z"/>
				</g>
				<g class="st1">
					<path class="st2" d="M1715.1,396.5l-0.4-0.4l-264.2-264.2l0.4-0.4L1583.2-0.9l0.4,0.4L1715.1,131L1846.9-0.9l0.4,0.4
						l132.3,132.3l-0.4,0.4L1715.1,396.5z M1583.6,263.3l131.4,131.4l262.9-262.9l-131-131l-131.9,131.9l-0.4-0.4L1583.2,0.9
						l-131,131L1583.6,263.3z"/>
				</g>
			</g>
		</g>
	</g>
</g>
</svg>
