<?xml version="1.0" encoding="utf-8"?>
<!-- Generator: Adobe Illustrator 19.1.0, SVG Export Plug-In . SVG Version: 6.00 Build 0)  -->
<svg version="1.1" id="Layer_1" xmlns="http://www.w3.org/2000/svg" xmlns:xlink="http://www.w3.org/1999/xlink" x="0px" y="0px"
	 viewBox="0 0 1230 768" style="enable-background:new 0 0 1230 768;" xml:space="preserve">
<style type="text/css">
	.st0{clip-path:url(#SVGID_2_);}
	.st1{opacity:0.7;fill:none;stroke:#DDA692;stroke-width:1.2;stroke-miterlimit:10;}
</style>
<g>
	<defs>
		<rect id="SVGID_1_" width="1230" height="768"/>
	</defs>
	<use xlink:href="#SVGID_1_"  style="overflow:visible;fill:#CC886D;"/>
	<clipPath id="SVGID_2_">
		<use xlink:href="#SVGID_1_"  style="overflow:visible;"/>
	</clipPath>
	<g class="st0">
		<polygon class="st1" points="214.6,687.7 63.9,838.5 -86.9,687.7 63.9,537 -86.9,386.2 63.9,235.4 214.6,386.2 365.4,537 		"/>
		<polygon class="st1" points="290,310.8 214.6,386.2 139.3,310.8 214.6,235.4 139.3,160.1 214.6,84.7 290,160.1 365.4,235.4 		"/>
		<polygon class="st1" points="327.7,122.4 290,160.1 252.3,122.4 290,84.7 252.3,47 290,9.3 327.7,47 365.4,84.7 		"/>
		<polygon class="st1" points="403.1,197.7 365.4,235.4 327.7,197.7 365.4,160.1 327.7,122.4 365.4,84.7 403.1,122.4 440.8,160.1 		
			"/>
		<polygon class="st1" points="478.5,273.1 440.8,310.8 403.1,273.1 440.8,235.4 403.1,197.7 440.8,160.1 478.5,197.7 516.2,235.4 
					"/>
		<polygon class="st1" points="553.9,348.5 516.2,386.2 478.5,348.5 516.2,310.8 478.5,273.1 516.2,235.4 553.9,273.1 591.6,310.8 
					"/>
		<polygon class="st1" points="478.7,574.8 441,612.5 403.3,574.8 441,537.1 403.3,499.4 441,461.8 478.7,499.4 516.3,537.1 		"/>
		<polygon class="st1" points="554,650.2 516.3,687.9 478.7,650.2 516.3,612.5 478.7,574.8 516.3,537.1 554,574.8 591.7,612.5 		"/>
		<polygon class="st1" points="440.8,461.6 365.4,537 290,461.6 365.4,386.2 290,310.8 365.4,235.4 440.8,310.8 516.2,386.2 		"/>
		<polygon class="st1" points="139.3,160.1 63.9,235.4 -11.5,160.1 63.9,84.7 -11.5,9.3 63.9,-66.1 139.3,9.3 214.6,84.7 		"/>
		<polygon class="st1" points="440.8,-141.5 365.4,-66.1 290,-141.5 365.4,-216.9 290,-292.2 365.4,-367.6 440.8,-292.2 
			516.2,-216.9 		"/>
		<polygon class="st1" points="667.1,537.1 591.7,612.5 516.3,537.1 591.7,461.8 516.3,386.4 591.7,311 667.1,386.4 742.5,461.8 		
			"/>
		<polygon class="st1" points="290.2,914 214.8,989.4 139.4,914 214.8,838.7 139.4,763.3 214.8,687.9 290.2,763.3 365.6,838.7 		"/>
		<polygon class="st1" points="441,763.3 365.6,838.7 290.2,763.3 365.6,687.9 290.2,612.5 365.6,537.1 441,612.5 516.3,687.9 		"/>
		<g>
			<polygon class="st1" points="667.1,1140.2 516.3,1291 365.6,1140.2 516.3,989.4 365.6,838.7 516.3,687.9 667.1,838.7 
				817.9,989.4 			"/>
			<polygon class="st1" points="742.5,763.3 667.1,838.7 591.7,763.3 667.1,687.9 591.7,612.5 667.1,537.1 742.5,612.5 817.9,687.9 
							"/>
			<polygon class="st1" points="780.2,574.8 742.5,612.5 704.8,574.8 742.5,537.1 704.8,499.4 742.5,461.8 780.2,499.4 817.9,537.1 
							"/>
			<polygon class="st1" points="855.6,650.2 817.9,687.9 780.2,650.2 817.9,612.5 780.2,574.8 817.9,537.1 855.6,574.8 893.3,612.5 
							"/>
			<polygon class="st1" points="930.9,725.6 893.3,763.3 855.6,725.6 893.3,687.9 855.6,650.2 893.3,612.5 930.9,650.2 968.6,687.9 
							"/>
			<polygon class="st1" points="1006.3,801 968.6,838.7 930.9,801 968.6,763.3 930.9,725.6 968.6,687.9 1006.3,725.6 1044,763.3 			
				"/>
			<polygon class="st1" points="931.1,1027.3 893.4,1065 855.7,1027.3 893.4,989.6 855.7,951.9 893.4,914.2 931.1,951.9 
				968.8,989.6 			"/>
			<polygon class="st1" points="1006.5,1102.7 968.8,1140.4 931.1,1102.7 968.8,1065 931.1,1027.3 968.8,989.6 1006.5,1027.3 
				1044.2,1065 			"/>
			<polygon class="st1" points="893.3,914 817.9,989.4 742.5,914 817.9,838.7 742.5,763.3 817.9,687.9 893.3,763.3 968.6,838.7 			
				"/>
			<polygon class="st1" points="1119.6,989.6 1044.2,1065 968.8,989.6 1044.2,914.2 968.8,838.8 1044.2,763.4 1119.6,838.8 
				1195,914.2 			"/>
			<polygon class="st1" points="742.7,1366.5 667.3,1441.9 591.9,1366.5 667.3,1291.1 591.9,1215.7 667.3,1140.4 742.7,1215.7 
				818,1291.1 			"/>
			<polygon class="st1" points="893.4,1215.7 818,1291.1 742.7,1215.7 818,1140.4 742.7,1065 818,989.6 893.4,1065 968.8,1140.4 			
				"/>
		</g>
		<polygon class="st1" points="742.3,160.1 591.6,310.8 440.8,160.1 591.6,9.3 440.8,-141.5 591.6,-292.2 742.3,-141.5 893.1,9.3 		
			"/>
		<g>
			<polygon class="st1" points="817.7,-216.9 742.3,-141.5 666.9,-216.9 742.3,-292.2 666.9,-367.6 742.3,-443 817.7,-367.6 
				893.1,-292.2 			"/>
			<polygon class="st1" points="855.4,-405.3 817.7,-367.6 780,-405.3 817.7,-443 780,-480.7 817.7,-518.4 855.4,-480.7 893.1,-443 
							"/>
			<polygon class="st1" points="930.8,-329.9 893.1,-292.2 855.4,-329.9 893.1,-367.6 855.4,-405.3 893.1,-443 930.8,-405.3 
				968.5,-367.6 			"/>
		</g>
		<polygon class="st1" points="-161.9,461.9 -237.3,537.3 -312.7,461.9 -237.3,386.5 -312.7,311.2 -237.3,235.8 -161.9,311.2 
			-86.6,386.5 		"/>
		<polygon class="st1" points="290.4,9.6 215,85 139.6,9.6 215,-65.8 139.6,-141.1 215,-216.5 290.4,-141.1 365.7,-65.8 		"/>
		<polygon class="st1" points="742.7,-442.7 667.3,-367.3 591.9,-442.7 667.3,-518.1 591.9,-593.4 667.3,-668.8 742.7,-593.4 
			818,-518.1 		"/>
		<polygon class="st1" points="-124.2,273.5 -161.9,311.2 -199.6,273.5 -161.9,235.8 -199.6,198.1 -161.9,160.4 -124.2,198.1 
			-86.6,235.8 		"/>
		<polygon class="st1" points="-48.9,348.8 -86.6,386.5 -124.2,348.8 -86.6,311.2 -124.2,273.5 -86.6,235.8 -48.9,273.5 
			-11.2,311.2 		"/>
		<polygon class="st1" points="1006.2,-254.5 968.5,-216.9 930.8,-254.5 968.5,-292.2 930.8,-329.9 968.5,-367.6 1006.2,-329.9 
			1043.9,-292.2 		"/>
		<polygon class="st1" points="1081.5,-179.2 1043.9,-141.5 1006.2,-179.2 1043.9,-216.9 1006.2,-254.6 1043.9,-292.2 
			1081.5,-254.6 1119.2,-216.9 		"/>
		<polygon class="st1" points="-48.9,198.1 -86.6,235.8 -124.2,198.1 -86.6,160.4 -124.2,122.7 -86.6,85 -48.9,122.7 -11.2,160.4 		
			"/>
		<polygon class="st1" points="26.5,273.5 -11.2,311.2 -48.9,273.5 -11.2,235.8 -48.9,198.1 -11.2,160.4 26.5,198.1 64.2,235.8 		
			"/>
		<polygon class="st1" points="478.8,-329.6 441.1,-291.9 403.4,-329.6 441.1,-367.3 403.4,-405 441.1,-442.7 478.8,-405 
			516.5,-367.3 		"/>
		<polygon class="st1" points="554.2,-254.2 516.5,-216.5 478.8,-254.2 516.5,-291.9 478.8,-329.6 516.5,-367.3 554.2,-329.6 
			591.9,-291.9 		"/>
		<polygon class="st1" points="554.2,-405 516.5,-367.3 478.8,-405 516.5,-442.7 478.8,-480.4 516.5,-518.1 554.2,-480.4 
			591.9,-442.7 		"/>
		<polygon class="st1" points="629.6,-329.6 591.9,-291.9 554.2,-329.6 591.9,-367.3 554.2,-405 591.9,-442.7 629.6,-405 
			667.3,-367.3 		"/>
		<polygon class="st1" points="1006.3,47.1 968.6,84.8 930.9,47.1 968.6,9.5 930.9,-28.2 968.6,-65.9 1006.3,-28.2 1044,9.5 		"/>
		<polygon class="st1" points="1081.7,122.5 1044,160.2 1006.3,122.5 1044,84.8 1006.3,47.1 1044,9.5 1081.7,47.1 1119.4,84.8 		"/>
		<polygon class="st1" points="968.5,-66.1 893.1,9.3 817.7,-66.1 893.1,-141.5 817.7,-216.9 893.1,-292.2 968.5,-216.9 
			1043.9,-141.5 		"/>
		<polygon class="st1" points="1194.8,9.5 1119.4,84.8 1044,9.5 1119.4,-65.9 1044,-141.3 1119.4,-216.7 1194.8,-141.3 
			1270.2,-65.9 		"/>
		<polygon class="st1" points="817.9,386.4 742.5,461.8 667.1,386.4 742.5,311 667.1,235.6 742.5,160.2 817.9,235.6 893.3,311 		"/>
		<polygon class="st1" points="968.6,235.6 893.3,311 817.9,235.6 893.3,160.2 817.9,84.8 893.3,9.5 968.6,84.8 1044,160.2 		"/>
		<g>
			<polygon class="st1" points="1194.8,612.5 1044,763.3 893.3,612.5 1044,461.8 893.3,311 1044,160.2 1194.8,311 1345.6,461.8 			
				"/>
			<polygon class="st1" points="1270.2,235.6 1194.8,311 1119.4,235.6 1194.8,160.2 1119.4,84.8 1194.8,9.5 1270.2,84.8 
				1345.6,160.2 			"/>
			<polygon class="st1" points="1307.9,47.1 1270.2,84.8 1232.5,47.1 1270.2,9.5 1232.5,-28.2 1270.2,-65.9 1307.9,-28.2 
				1345.6,9.5 			"/>
			<polygon class="st1" points="1383.2,122.5 1345.6,160.2 1307.9,122.5 1345.6,84.8 1307.9,47.1 1345.6,9.5 1383.2,47.1 
				1420.9,84.8 			"/>
			<polygon class="st1" points="1458.6,197.9 1420.9,235.6 1383.2,197.9 1420.9,160.2 1383.2,122.5 1420.9,84.8 1458.6,122.5 
				1496.3,160.2 			"/>
			<polygon class="st1" points="1534,273.3 1496.3,311 1458.6,273.3 1496.3,235.6 1458.6,197.9 1496.3,160.2 1534,197.9 
				1571.7,235.6 			"/>
			<polygon class="st1" points="1458.8,499.6 1421.1,537.3 1383.4,499.6 1421.1,461.9 1383.4,424.2 1421.1,386.5 1458.8,424.2 
				1496.5,461.9 			"/>
			<polygon class="st1" points="1534.2,575 1496.5,612.7 1458.8,575 1496.5,537.3 1458.8,499.6 1496.5,461.9 1534.2,499.6 
				1571.9,537.3 			"/>
			<polygon class="st1" points="1420.9,386.4 1345.6,461.8 1270.2,386.4 1345.6,311 1270.2,235.6 1345.6,160.2 1420.9,235.6 
				1496.3,311 			"/>
			<polygon class="st1" points="1647.2,461.9 1571.9,537.3 1496.5,461.9 1571.9,386.5 1496.5,311.2 1571.9,235.8 1647.2,311.2 
				1722.6,386.5 			"/>
			<polygon class="st1" points="1270.3,838.8 1195,914.2 1119.6,838.8 1195,763.4 1119.6,688.1 1195,612.7 1270.3,688.1 
				1345.7,763.4 			"/>
			<polygon class="st1" points="1421.1,688.1 1345.7,763.4 1270.3,688.1 1345.7,612.7 1270.3,537.3 1345.7,461.9 1421.1,537.3 
				1496.5,612.7 			"/>
		</g>
	</g>
</g>
</svg>
